<?xml version="1.0" encoding="utf-8"?>
<!-- Generator: Adobe Illustrator 19.0.0, SVG Export Plug-In . SVG Version: 6.00 Build 0)  -->
<svg version="1.1" id="Layer_1" xmlns="http://www.w3.org/2000/svg" xmlns:xlink="http://www.w3.org/1999/xlink" x="0px" y="0px"
	 viewBox="-10.1 234.7 660.9 660.9" style="enable-background:new -10.1 234.7 660.9 660.9;" xml:space="preserve">
<style type="text/css">
	.st0{fill:#417A2B;}
	.st1{fill:none;stroke:#000000;stroke-width:5;}
	.st2{fill:#FFFFFF;stroke:#000000;stroke-width:5;}
	.st3{fill:#417A2B;stroke:#000000;stroke-width:5;}
	.st4{fill:none;}
	.st5{fill:#FFFFFF;}
</style>
<g id="_x32_">
	<g id="Circle_9_">
		<g id="Circle_10_">
			<circle class="st0" cx="320.3" cy="565.1" r="327.9"/>
			<circle class="st1" cx="320.3" cy="565.1" r="327.9"/>
		</g>
	</g>
	<g>
		<g>
			<path class="st2" d="M44.3,565.1H-5.1H44.3z"/>
		</g>
		<g>
			<path class="st2" d="M48.5,613l-48.7,8.6L48.5,613z"/>
		</g>
		<g>
			<path class="st2" d="M61,659.5l-46.5,16.9L61,659.5z"/>
		</g>
		<g>
			<path class="st2" d="M81.3,703.1l-42.9,24.7L81.3,703.1z"/>
		</g>
		<g>
			<path class="st2" d="M108.9,742.5L71,774.3L108.9,742.5z"/>
		</g>
		<g>
			<path class="st2" d="M142.9,776.5l-31.8,37.9L142.9,776.5z"/>
		</g>
		<g>
			<path class="st2" d="M182.3,804.1l-24.7,42.9L182.3,804.1z"/>
		</g>
		<g>
			<path class="st2" d="M225.9,824.4L209,870.9L225.9,824.4z"/>
		</g>
		<g>
			<path class="st2" d="M272.4,836.9l-8.6,48.7L272.4,836.9z"/>
		</g>
		<g>
			<path class="st2" d="M320.3,841.1v49.5V841.1z"/>
		</g>
		<g>
			<path class="st2" d="M368.2,836.9l8.6,48.7L368.2,836.9z"/>
		</g>
		<g>
			<path class="st2" d="M414.7,824.4l16.9,46.5L414.7,824.4z"/>
		</g>
		<g>
			<path class="st2" d="M458.3,804.1l24.7,42.9L458.3,804.1z"/>
		</g>
		<g>
			<path class="st2" d="M497.7,776.5l31.8,37.9L497.7,776.5z"/>
		</g>
		<g>
			<path class="st2" d="M531.7,742.5l37.9,31.8L531.7,742.5z"/>
		</g>
		<g>
			<path class="st2" d="M559.3,703.1l42.9,24.7L559.3,703.1z"/>
		</g>
		<g>
			<path class="st2" d="M579.6,659.5l46.5,16.9L579.6,659.5z"/>
		</g>
		<g>
			<path class="st2" d="M592.1,613l48.7,8.6L592.1,613z"/>
		</g>
		<g>
			<path class="st2" d="M596.3,565.1h49.5H596.3z"/>
		</g>
		<g>
			<path class="st2" d="M592.1,517.2l48.7-8.6L592.1,517.2z"/>
		</g>
		<g>
			<path class="st2" d="M579.6,470.7l46.5-16.9L579.6,470.7z"/>
		</g>
		<g>
			<path class="st2" d="M559.3,427.1l42.9-24.7L559.3,427.1z"/>
		</g>
		<g>
			<path class="st2" d="M531.7,387.7l37.9-31.8L531.7,387.7z"/>
		</g>
		<g>
			<path class="st2" d="M497.7,353.7l31.8-37.9L497.7,353.7z"/>
		</g>
		<g>
			<path class="st2" d="M458.3,326.1l24.7-42.9L458.3,326.1z"/>
		</g>
		<g>
			<path class="st2" d="M414.7,305.8l16.9-46.5L414.7,305.8z"/>
		</g>
		<g>
			<path class="st2" d="M368.2,293.3l8.6-48.7L368.2,293.3z"/>
		</g>
		<g>
			<path class="st2" d="M320.3,289.1v-49.5V289.1z"/>
		</g>
		<g>
			<path class="st2" d="M272.4,293.3l-8.6-48.7L272.4,293.3z"/>
		</g>
		<g>
			<path class="st2" d="M225.9,305.8L209,259.3L225.9,305.8z"/>
		</g>
		<g>
			<path class="st2" d="M182.3,326.1l-24.7-42.9L182.3,326.1z"/>
		</g>
		<g>
			<path class="st2" d="M142.9,353.7l-31.8-37.9L142.9,353.7z"/>
		</g>
		<g>
			<path class="st2" d="M108.9,387.7L71,355.9L108.9,387.7z"/>
		</g>
		<g>
			<path class="st2" d="M81.3,427.1l-42.9-24.7L81.3,427.1z"/>
		</g>
		<g>
			<path class="st2" d="M61,470.7l-46.5-16.9L61,470.7z"/>
		</g>
		<g>
			<path class="st2" d="M48.5,517.2l-48.7-8.6L48.5,517.2z"/>
		</g>
	</g>
	<g>
		<g>
			<g>
				<path class="st0" d="M320.3,841.1c-152.4,0-276-123.6-276-276s123.6-276,276-276s276,123.6,276,276S472.7,841.1,320.3,841.1z
					 M508.6,565.1c0-104-84.3-188.3-188.3-188.3S132,461.1,132,565.1s84.3,188.3,188.3,188.3S508.6,669.1,508.6,565.1z"/>
				<path class="st1" d="M320.3,841.1c-152.4,0-276-123.6-276-276s123.6-276,276-276s276,123.6,276,276S472.7,841.1,320.3,841.1z
					 M508.6,565.1c0-104-84.3-188.3-188.3-188.3S132,461.1,132,565.1s84.3,188.3,188.3,188.3S508.6,669.1,508.6,565.1z"/>
			</g>
			<path class="st3" d="M44.7,579.5c4,76.1,38.4,143.4,90.9,190.6s123,74.5,199.1,70.5s143.4-38.4,190.6-90.9
				c47.3-52.5,74.5-123,70.5-199.1l-42.7,22.3l-44.8-17.7c2.7,51.9-15.9,100.1-48.1,135.9c-32.3,35.8-78.2,59.3-130.1,62.1
				c-51.9,2.7-100.1-15.9-135.9-48.1c-35.8-32.3-59.3-78.2-62.1-130.1l-44.7-17.7L44.7,579.5z"/>
		</g>
		<g>
			<circle id="Circle_1_" class="st4" cx="320.3" cy="565.1" r="265.4"/>
			<path class="st5" d="M541.2,619.4l27.8,17.9l-1.1,5.5l-40.7-26.2l1.6-8.2l39.3,7.9c0.6-4.7,1.1-10.3-1.6-12.7
				c-3.3-2.3-7.3-1-10.4,0.4l-2.1-8.9c7.9,0.2,13.2,2.5,15.9,6.2c4.2,5.7,3.3,14.9,1.4,24.2L541.2,619.4z"/>
			<path class="st5" d="M521.4,664.4c-8.9-7.8-7.4-22.6,2.5-19.7c-6.6-9.3-0.2-21.5,11.1-16.1c8.7,4.2,16.1,12,12.7,22.2l-5.4,14.2
				l-2-1.3c-7.9-5-12.5-8-18.5-11.8c-5.9-3.6-4.2,6.4,0.4,10.2L521.4,664.4z M540.4,654.2c7.5-1.1,4-10-4.4-15.4
				c-9.4-6-16-4.2-8.5,7.4L540.4,654.2z"/>
			<path class="st5" d="M504.8,692.9c-9.5-11.3-2.9-26.3,9.5-16.3c3.3,2.8,6.6,5.5,9.8,8.2c5.4,4.5,5-5,1.3-9.6l-15.6-13l4.1-7.4
				l23.3,19.9l-4,7.2l-3.5-3c3.3,9.2-2.5,19.1-13.1,10.3c-5.8-4.9-4.1-3.5-9.8-8.2c-5.8-4.7-5.1,5.4-0.9,9.9L504.8,692.9z"/>
			<path class="st5" d="M495.2,704.9c-7.8-11.4-0.2-28.2,11.6-15.7l13.2,14.2l-4.8,6.8c-7.2-7.4-11.4-12.1-16.4-17.3
				c-5.1-5.3-5.9,5.1-2.3,10.2L495.2,704.9z M522.7,707.7c1.2-0.2,2.3,0.1,3.5,0.9c1,0.8,1.7,1.8,1.9,3.1c0.2,1.3-0.1,2.5-0.8,3.6
				s-1.8,1.7-3,1.9c-1.3,0.2-2.5,0-3.6-0.8c-1.1-0.8-1.7-1.9-1.9-3.2c-0.2-1.3,0.1-2.5,0.9-3.6S521.4,707.9,522.7,707.7z"/>
			<path class="st5" d="M485,715.8c-6.7-11.3,1.5-26.5,11.9-13.9l20.4,24.8l-5.1,6.3c-6.6-8-18.6-22.9-23-28.3
				c-4.5-5.4-5.8,4.3-2.6,9.3L485,715.8z"/>
			<path class="st5" d="M474.1,727c-5.9-11.7,3.3-26.3,12.8-13l18.6,26.2l-5.6,5.9c-6-8.5-16.9-24.1-21-29.8
				c-4.1-5.6-6.1,3.9-3.3,9.1L474.1,727z"/>
			<path class="st5" d="M448.9,748.8c-4.1-11.1,4.3-23.4,11.6-16.1c-1.4-11.3,10.2-18.9,17.4-8.8c5.7,7.9,8.4,18.3,0.5,25.6
				l-11.5,9.9l-1.1-2c-4.6-8.2-7.1-13-10.5-19.2c-3.5-6-6.7,3.6-4.6,9.1L448.9,748.8z M470.5,749c7.1,2.7,8.3-6.9,3.5-15.6
				c-5.3-9.7-12-11.4-11,2.4L470.5,749z"/>
			<path class="st5" d="M413.3,807.3L401,763l7.3-3.7l6.2,22.4l10.4-5.3l-6.3-22.3l7.4-3.8l10.9,39.5c3.5-2.3,6.8-4.6,8.2-7.9
				c1.1-2.5-1.5-6.7-5.4-9.3l5.5-7c4.7,6.9,5.5,12.4,3.8,17.1c-2.3,6.7-9.6,11.6-17.8,15.8l-4.8-17l-10.4,5.3l4.7,16.9L413.3,807.3z
				"/>
			<path class="st5" d="M399.1,787.3c8.6,22.4-5.6,26.9-19.1,27.6c-8,0.4-15.5,0.8-17.9,6.3l-3.1,0.9c4.6-10.8,10-11.9,18-12.2
				l-2.4-38.8l8-2.2l2.4,40.2c5.4-0.9,9.2-2,10.8-4.9c1.5-2.3-0.3-6.9-3.5-11L399.1,787.3z"/>
			<path class="st5" d="M309,824.2l6.2-45.5l8.3-0.5l-4.5,27.9l14-28.5l7.5-0.5l-1.2,27.6l10.9-28.2l5.7-0.4l-15.9,41
				c3.8-0.8,7.5-1.8,9.3-4.3c1.4-1.9,0.7-6.7-1.6-10.2l7.9-4.2c1.3,7.7,0,13.7-3.2,17.2c-2.6,2.9-6.3,4.6-10.6,5.8
				c-3.8,1-7.4,1.2-11.8,1.5l1.8-29.6l-15,30.3L309,824.2z"/>
			<path class="st5" d="M305.8,799c0.1,8.1-2,13.5-5.7,16.7c-5.6,5-15.1,5.1-25.4,3.9l13.9-43.8c-6.4-1.4-18.8-7.1-25.4-12.7l11.6-4
				c4.8,6.9,15.6,14.7,23.1,15.6l-13,40.6c4.3,0.1,8.6-0.1,11.5-2c2.4-1.8,2.7-6.5,0.7-11.3L305.8,799z"/>
			<path class="st5" d="M279.8,783.2c-0.3,1.5-0.8,3.1-1.5,4.4l-5.9-4c0.7-1,0-0.1,0.7-1.1c0.6-0.8,1-1.7,1.1-2.3
				c0.5-1.9-0.5-3.2-2.4-3.6c-1.7-0.5-3.4-0.4-5.2-0.2c-2.3,0.6-4.3,1.8-5.9,3.4c-6.7,6.8-3.2,15.5,6.1,15.6l0.5,0
				c1.8,0,3.8-0.4,5.8-1.2l-10.8,22c-8.3-3.1-10.8-3.5-18.3-4.3c-0.4-2-1.1-5.2-1.5-7c6.3,1.2,14.3,3.5,17.2,5l5.1-10.6
				c-14.8,2.3-19.9-13.5-12.1-22.2c2.6-3,6.7-5.5,10.9-6.3c4.1-0.8,9,0.3,12.8,3.7C279,776.6,280.3,779.7,279.8,783.2z"/>
			<path class="st5" d="M203,756.2c8.6-8.1,23.2-5.3,19.4,4.3c9.9-5.7,21.4,1.8,15,12.5c-5,8.3-13.5,14.9-23.3,10.6l-13.7-6.6
				l1.4-1.8c5.7-7.4,9.2-11.7,13.4-17.3c4.2-5.6-6-4.8-10.2-0.6L203,756.2z M211.4,776.1c0.4,7.6,9.6,4.9,15.7-3
				c6.8-8.8,5.7-15.6-6.6-9.2L211.4,776.1z"/>
			<path class="st5" d="M176.1,737.1c12.1-8.4,26.4-0.5,15.4,11c-3.1,3-6.1,6-9.1,9.1c-5,5,4.5,5.5,9.4,2.2l14.4-14.3l7,4.8
				l-21.9,21.4l-6.8-4.6l3.3-3.2c-9.5,2.4-18.8-4.2-9.1-14c5.4-5.3,3.9-3.8,9.1-9.1c5.3-5.3-4.9-5.5-9.8-1.8L176.1,737.1z"/>
			<path class="st5" d="M152.9,714.7c10.7-5.6,24,1.3,17.4,9.6c11.2-2.7,20.1,7.7,10.8,16.3c-13.4,12.3-27.5,5.2-28.4-1.4
				c0-0.3,0-0.7,0-1.2l-11.7,8.5l-6-5.5c9-6.6,23.3-17.2,29.2-21.4c5.8-4.2-4.1-6.2-9.5-3.3L152.9,714.7z M155.2,736.1
				c-1.8,7.3,7.8,7.4,15.9,1.6c9.2-6.4,10-13.3-3.7-10.7c-0.2,0.2-0.5,0.5-0.8,0.7L155.2,736.1z"/>
			<path class="st5" d="M124.9,675.3c13.4-2.6,26.8,12.7,25,24.8c-1.5,10.8-17.4,17.8-28,17.1c-4.5-0.3-8.4-1.7-11.3-3.8
				c-3.9-2.6-6.3-6.2-6.8-9.8c-0.5-3.1,0.4-6.3,3.1-8.7c2.4-2.2,6.2-3.8,11.5-4.2l-3.5,8.5c-1.7,0.1-3.6,0-4.9,1
				c-1.5,1.2-1.5,2.8-0.5,4.3c1.2,1.6,3.5,2.9,6.8,3.7c8.6,1.8,22.3-2.2,25.7-10.3c3.4-8.1-4.4-21.5-15.3-20.2L124.9,675.3z"/>
			<path class="st5" d="M97.2,669.2c-2.8,0.3-7.6,1.4-6.1,5.7c0.7,1.5,2,3.1,3.8,4c1.9,1.1,4.8,1,6.4-0.1c1.5-1.1,1.7-1.3,2.4-2.9
				c0.6-1.4,1.1-4,1.3-6.2c0.3-2.5,0.5-5.1,1.2-7.4c0.5-2.2,1.4-4.2,3.3-5.7c14.9-12,33.8,14.5,21.9,23.2c-3.6,2.6-9.1,3.2-13.1,0.2
				l2.5-7.5c3.7,3.3,7.2,3.6,8.9,1.8c2.1-2.1,0.7-7-3-9.8c-1.8-1.5-4.4-2.4-7.3-1.9c-3.3,0.4-4.4,4-5,6.7c-0.4,2.8-0.6,4.5-1,6.9
				c-0.5,2.5-1.6,5.4-2.9,7.3c-3.4,5.1-9.8,7-15.5,2.9c-3.1-2.3-5.4-5.3-6.9-8.9c-1.9-5-1.6-10.1,1.7-13.7c1.6-1.7,4-2.9,6.8-3.6
				L97.2,669.2z"/>
			<path class="st5" d="M84.5,635.8c-2.8-0.1-7.7,0.2-6.9,4.8c0.4,1.6,1.6,3.3,3.2,4.5c1.7,1.3,4.6,1.7,6.3,0.8
				c1.7-0.8,1.9-1.1,2.8-2.5c0.8-1.3,1.7-3.8,2.2-6c0.7-2.5,1.3-5,2.3-7.1c0.8-2.1,2-3.9,4.1-5.1c16.5-9.7,31.3,19.3,18.3,26.2
				c-4,2.1-9.5,1.8-13-1.7l3.5-7c3.1,3.8,6.6,4.7,8.5,3.1c2.4-1.8,1.7-6.9-1.5-10.1c-1.6-1.8-4-3-7-2.9c-3.3-0.1-5,3.3-5.9,5.9
				c-0.8,2.8-1.3,4.4-2,6.7c-0.9,2.4-2.4,5.1-3.9,6.8c-4.1,4.5-10.7,5.5-15.7,0.6c-2.8-2.7-4.6-6-5.5-9.8
				c-1.2-5.2-0.1-10.2,3.7-13.3c1.9-1.4,4.4-2.3,7.2-2.6L84.5,635.8z"/>
			<path class="st5" d="M111.6,614.2c-0.8,3-3,5.6-6.4,6.7c-1.4,0.5-3,0.7-4.5,0.7l1-7.1c1.1,0.2,0,0.1,1.1,0.2s1.9,0.2,2.7,0
				c1.8-0.4,2.4-1.7,2.1-3.6c-1.5-11.6-19.5-14.1-16.4,2.6l-4,0.5c-3.2-5.9-8-8.7-12.9-7.9c-8.5,1.4-2.2,12.9,4.3,8
				c1.2,1.4,4.3,4.5,6,6.3c-8.2,1.7-16.9-0.4-18.4-10.3c-0.3-1.8-0.1-3.6,0.3-5.1c0.5-1.5,1.3-2.7,2.3-3.7c1-1,2.2-1.9,3.7-2.2
				c5.5-1.4,9.9,1.7,13.5,3.8C87.2,585.2,116.7,596.1,111.6,614.2z"/>
		</g>
		<g>
			<circle id="Circle_2_" class="st4" cx="320.3" cy="565.1" r="265.4"/>
			<path class="st5" d="M107.4,502.4c6.7,5,5.7,13,4.1,21.1c-0.4,2.1-0.8,4.2-1.2,6.1c-0.2,1.2-0.5,2.4-0.7,3.6l-38.4-16.1
				c1.1,6.5,7,12.1,13.1,10.1l2,8.7c-22.2-1.3-23-34.4-9.3-37.6c5.4-1.4,10.2,3,11.9,8c1.6-3.2,4.2-5.3,7.1-6.2
				C99.7,499,104,499.9,107.4,502.4z M86.2,514.7c0.4-5-1.9-9.1-7.4-10.1c-3.8-0.8-6.1,1.2-7.1,4.1L86.2,514.7z M89.6,516.2
				l17.7,7.3C110.9,507.2,91.3,501.9,89.6,516.2z"/>
			<path class="st5" d="M118.3,467.9c8.9,7.4,8.2,20.8-1.3,18.7c5.1,8.7,1.4,19.1-10.6,11.9l-16.7-10.4l2.9-7.6
				c8.5,5.2,14.7,9.1,20.5,12.6c5.8,3.4,4.1-3.5,0.4-7.7c-0.5-0.3-1.1-0.7-18.5-11.2l2.8-7.5c8.5,5.1,14.5,8.8,20.5,12.4
				c6.1,3.6,3.8-5.2-0.9-9L118.3,467.9z"/>
			<path class="st5" d="M98.2,455.7c-1.2,0.4-2.3,0.3-3.6-0.4c-1.2-0.6-1.9-1.5-2.4-2.7c-0.4-1.3-0.3-2.4,0.3-3.7
				c0.6-1.2,1.5-1.9,2.7-2.3c1.3-0.4,2.5-0.4,3.7,0.2c1.2,0.6,2,1.6,2.3,2.8c0.4,1.3,0.3,2.5-0.3,3.7
				C100.3,454.5,99.4,455.3,98.2,455.7z M125.8,454.2c9.5,10,4.6,27.8-9,17.3l-15.3-12l3.7-7.4c8.2,6.2,13.2,10.2,18.9,14.6
				c5.8,4.4,5-6,0.7-10.4L125.8,454.2z"/>
			<path class="st5" d="M134.1,441.8c8.3,10.1,2.6,26.4-9.6,15.5l-24-21.4l4.1-7c7.8,6.9,21.9,19.7,27.2,24.4c5.2,4.6,5-5.2,1.2-9.6
				L134.1,441.8z"/>
			<path class="st5" d="M143,428.7c7.9,11.2,0.8,27.8-11,15.7l-11.1-11.4l-2,3l-2.2-3.3l1.6-2.4l-5.5-5.7l3.4-8l6.8,6.9l2.7-4l2,3.5
				l-2.1,3.1l14.2,14.5c5,5.1,5.5-4.9,1.8-9.9L143,428.7z"/>
			<path class="st5" d="M171.1,397.9c5.3,10.3-0.4,22.3-8.4,16.8c1.4,10-6,18.2-14.4,6.9l-11.4-16l5.6-6c5.9,8,10,14,14.1,19.5
				c4,5.4,5.1-1.6,3.3-6.9c-0.4-0.5-0.8-1-12.7-17.5l5.5-5.9c5.9,8,10,13.7,14.2,19.3c4.2,5.7,5.5-3.4,2.7-8.6L171.1,397.9z"/>
			<path class="st5" d="M175.8,379.4c-0.5-2-1.8-5.1-4.7-3.1c-1.2,0.7-2.3,2.1-2.6,3.5c-0.9,1.8-0.6,3.8,0.4,4.5
				c1,0.9,1.2,0.9,2.4,1.1c1.4,0,3.2-0.1,5.2-0.6c1.7-0.4,3.8-0.7,5.6-0.9c1.7,0,3.2,0.2,4.5,1c10.4,7.6-8.1,27-15.7,20.6
				c-2.2-1.9-2.9-5.6-1.2-9.1l5.8,0.1c-2.1,3.3-2.1,5.9-0.5,6.6c1.9,1,5.3-1.1,7.1-4.2c0.9-1.9,1.4-3.8,0.8-5.7
				c-0.6-2.1-3.4-2.1-5.5-2c-2.4,0.4-3.6,0.8-5.5,0.9c-1.8,0.3-4.2,0.2-5.8-0.3c-4.1-1-6.2-5-3.6-10c1.4-2.8,3.5-5,6.1-6.8
				c3.6-2.7,7.3-3.6,10.5-2.1c1.4,0.7,2.6,2.2,3.4,3.9L175.8,379.4z"/>
			<path class="st5" d="M180.4,360.9c-1.2-0.3-2.2-0.9-2.9-2.1c-0.7-1.1-1-2.3-0.8-3.6c0.3-1.3,0.9-2.3,2-3.1c1.1-0.8,2.3-1,3.5-0.7
				c1.3,0.3,2.3,0.9,3.1,2c0.8,1.1,0.9,2.3,0.7,3.6c-0.3,1.3-1,2.3-2.1,3C182.9,360.8,181.7,361.1,180.4,360.9z M205.2,373
				c3.4,13.4-9.6,26.5-16.3,10.7l-7.5-17.9l6.8-4.7c4.1,9.5,6.5,15.3,9.3,22c2.9,6.7,7.3-2.7,5.7-8.7L205.2,373z"/>
			<path class="st5" d="M234.6,357.6c1.9,14.7-11.7,23.7-16.8,8.6c-1.2-4.1-2.5-8.2-3.8-12.2c-2.1-6.7-6.9,1.5-6.3,7.4l6.1,19.3
				l-7.5,4l-8.8-29.3l7.2-3.9l1.3,4.4c2.2-9.5,12.4-14.7,16.6-1.6c2.2,7.2,1.5,5.2,3.8,12.2c2.3,7.1,7.2-1.8,6.1-7.9L234.6,357.6z"
				/>
			<path class="st5" d="M252.2,331l3.4,22.8c2.4,14,2.9,27.2-15.5,28.5l3.2-7.3c3.6,1.1,5.8,0.6,7-0.8l-0.1-1l-2-13.5
				c-3.4,10.1-16.2,12.6-19.4,0.8c-3.6-13.4,2-21.2,7.5-23.6c1.1-0.4,2-0.9,3.2-1.3l7.9-2.9C247.7,332.7,252,331.1,252.2,331z
				 M245.1,339.2c-5.8-5.1-10.3,3.5-9,13.6c1.6,11.3,7.5,15.2,11.4,1.7L245.1,339.2z"/>
			<path class="st5" d="M302.8,330.6c-2,2.5-4.1,4.5-6.3,6c0.4,13.8-9.8,20.7-17.2,19.2c-5.8-1.1-8.7-5.9-8.9-11.5
				c-0.3-5.9,2.2-12.4,7.2-16.4c5-4.1,13.2-5.7,17.1,0.8c0.7,1.1,1.2,2.4,1.4,4c2.3-1,4.4-2.5,6.1-4.1L302.8,330.6z M289.5,338.8
				c-2-0.1-3.9-0.6-6.1-1.8l2.4-4.7c0.9,0.6,1.9,1,2.8,1.2c-1.6-4.2-6-7.6-8.6-2.3c-2.3,4.7-2.9,18.1,2.8,20.3
				c3.1,1.2,6.7-2.3,6.7-12.4C289.6,339,289.5,338.9,289.5,338.8z"/>
			<path class="st5" d="M337,341.3c-4.9,13.9-21.2,15.8-18.9,0.1c0.7-4.2,1.4-8.4,2.1-12.7c1.2-6.9-6.8-1.8-8.9,3.8l-3.3,20
				l-8.5,0.2l5.3-30.1l8.2-0.2l-0.8,4.5c6.3-7.5,17.7-7.5,15.5,6c-1.3,7.5-1,5.3-2.1,12.7c-1.1,7.4,7.2,1.6,9-4.2L337,341.3z"/>
			<path class="st5" d="M350.7,343.9c-5.5,11.9-22.6,13.9-18.2-1.9l8.8-30.9l8.1,0.6c-2.8,10-8.2,28.3-10.1,35.1
				c-1.9,6.7,6.9,2.3,9.2-3.1L350.7,343.9z"/>
			<path class="st5" d="M379.1,328.8l-8.3,21.1c-5.1,13.5-11.2,25-28,16.9l6.6-4.7c1.3,1.5,5.6,5,6.9,1.8l4.7-12
				c-7.8,5.7-18.8,3.1-13.7-9.6l7-18.1l8.4,1.5c-3.4,8.8-6.3,16-8.8,22.3c-2.4,6.2,5.2,3.7,8.9-0.8l7.9-20.1L379.1,328.8z"/>
			<path class="st5" d="M428.2,330l-21.9,35.1c-1.2,2-2.7,3.7-4.1,5.1c-2.8,2.9-5.9,4.5-8.8,5.3c-8.7,2.1-17-3.6-16.7-11.9
				c2.5-0.7,5.9-1.7,7.7-2.2c-1.8,7.8,4,13.4,10.7,5.7c0.6-0.7,1.2-1.5,1.7-2.4l21.1-33.4c-3.8-1-7.8-1.7-10.7-0.9
				c-2.8,0.9-4.5,5.5-3.7,10.5l-8.9,0.5c2-8.3,6.1-13.1,11-14.8C411.9,324.7,420.1,326.9,428.2,330z"/>
			<path class="st5" d="M446.3,379.6c-8.9,7.7-23.4,4.2-19.2-5.2c-10.1,5.3-21.3-2.8-14.4-13.2c5.4-8.1,14.2-14.3,23.8-9.5l13.3,7.3
				l-1.5,1.8c-6,7.2-9.7,11.3-14.2,16.6c-4.4,5.4,5.7,5,10.2,1L446.3,379.6z M438.9,359.4c0-7.6-9.3-5.3-15.8,2.2
				c-7.2,8.4-6.4,15.3,6.2,9.5L438.9,359.4z"/>
			<path class="st5" d="M472.7,375.5c-7.8,4.2-20.1,11.6-29,16.2l-6.8-4.8l17.5-24.4l6.7,4.8l-12,16.6l19.5-11.3L472.7,375.5z"/>
			<path class="st5" d="M487,415.2c-10.5,5.4-23.8-1.5-17.4-9.6c-11.1,2.7-20-7.8-10.8-16.2c7.1-6.6,17.2-10.5,25.3-3.5l11.2,10.2
				l-1.9,1.4c-7.6,5.5-12.1,8.6-17.8,12.8c-5.6,4.2,4.4,6.3,9.6,3.4L487,415.2z M484.6,393.7c1.8-7.4-7.8-7.4-15.9-1.6
				c-9,6.5-9.9,13.3,3.8,10.7L484.6,393.7z"/>
			<path class="st5" d="M516.8,416.8c2.6-0.8,7.2-2.9,4.8-6.9c-1-1.4-2.6-2.6-4.6-3.1c-2.1-0.6-4.9,0.1-6.2,1.4s-1.4,1.7-1.7,3.4
				c-0.3,1.5-0.3,4.1,0,6.4c0.2,2.5,0.6,5.1,0.4,7.5c0,2.3-0.5,4.4-2,6.2c-12.1,14.8-36-7.2-26.2-18.1c3-3.3,8.2-5,12.8-2.9
				l-0.9,7.8c-4.3-2.5-7.8-2.1-9.1,0.1c-1.6,2.5,0.8,7,4.9,9c2.1,1.1,4.8,1.4,7.6,0.3c3.1-1.1,3.5-4.8,3.5-7.6
				c-0.2-2.9-0.3-4.6-0.5-7c0-2.6,0.4-5.6,1.3-7.7c2.3-5.7,8.1-8.9,14.5-6.1c3.6,1.6,6.4,4.1,8.6,7.3c2.9,4.5,3.6,9.6,1.1,13.7
				c-1.3,2-3.3,3.6-5.9,5L516.8,416.8z"/>
			<path class="st5" d="M517.3,459c-7.1,0.3-13.6-1.9-17.3-7.4c-5-7.2,0.5-13.7,8.3-16.6c5.5-2.1,12.2-2.6,17,0.8
				c2.8,2,4.3,4.7,4,7.4c-0.4,3.9-4.1,6.9-7.9,7.2c-0.6,0.1-1.1,0.1-1.7,0.1l2.6-4.9c3-0.2,4.5-1.4,4.5-2.3c0-0.9-0.8-1.8-2.3-2.4
				c-3.9-1.6-9-0.4-12.6,1.1c-5.7,2.5-7.9,5.8-7.3,8.7c0.9,4.5,6.8,6,11.5,6.5L517.3,459z"/>
			<path class="st5" d="M544,474l-6.6-3c1-5.9-5.1-7.9-10.9-8.4l-17,4.6l-3.7-7.6l29.6-7.8l3.6,7.4l-6.4,1.8
				C539.8,461.6,544.7,464.8,544,474z"/>
			<path class="st5" d="M534.1,498.3c-13.8,0.2-23.5-15.6-6.6-18.4l19.2-3l2.9,7.7c-10.2,1.8-16.4,2.7-23.5,3.9
				c-7.2,1.3,0.9,7.7,7.2,7.6L534.1,498.3z M551.7,477.1c0.5-1.1,1.4-1.9,2.7-2.4c1.3-0.4,2.4-0.4,3.6,0.1c1.2,0.6,2,1.4,2.5,2.7
				c0.5,1.3,0.4,2.4-0.1,3.6c-0.6,1.2-1.4,2.1-2.6,2.5c-1.3,0.5-2.5,0.4-3.7-0.2s-2-1.5-2.4-2.7S551.2,478.2,551.7,477.1z"/>
			<path class="st5" d="M546.3,519.7c-3.7,0.9-7.8,1.1-11.5,0.2c-1.9-0.4-3.6-1.1-5-2.4c-1.7-1.2-3-3-3.6-5.3
				c-0.6-2.4-0.4-6.2,0.6-7.9l-17.6,1.2l-2.2-8.2l45.8-3l2.2,8.2l-1.8,0.1C561.7,510,554.3,517.6,546.3,519.7z M550.2,502.8
				l-19.9,1.2c-2.7,3.5-0.6,6.2,2.5,7.4c1.9,0.7,4.7,1,7.7,0.8C546.3,511.8,557.5,509.2,550.2,502.8z"/>
			<path class="st5" d="M542.9,542.8c-13.4-2.7-19.6-19.7-2.8-18.9l15.9,0.7l-0.6-3.6l3.8,0.9l0.5,2.8l8,0.4l3,8.2l-9.7-0.4l0.8,4.8
				l-3.9-1.1l-0.6-3.7l-20.3-0.9c-7.1-0.3-0.7,7.3,5.5,8.4L542.9,542.8z"/>
		</g>
	</g>
</g>
</svg>
