<?xml version="1.0" encoding="utf-8"?>
<!-- Generator: Adobe Illustrator 19.0.0, SVG Export Plug-In . SVG Version: 6.00 Build 0)  -->
<svg version="1.1" id="Layer_1" xmlns="http://www.w3.org/2000/svg" xmlns:xlink="http://www.w3.org/1999/xlink" x="0px" y="0px"
	 viewBox="2.7 96.4 603.4 603.4" style="enable-background:new 2.7 96.4 603.4 603.4;" xml:space="preserve">
<style type="text/css">
	.st0{fill:#A3CF69;}
	.st1{fill:#FFFFFF;}
</style>
<g id="Circle_1_">
	<circle id="Circle" class="st0" cx="304.3" cy="398" r="301.7"/>
	<g id="Circles">
		<circle id="XMLID_212_" class="st1" cx="13.3" cy="387.9" r="3.2"/>
		<circle id="XMLID_5_" class="st1" cx="13.2" cy="403.1" r="3.2"/>
		<circle id="XMLID_6_" class="st1" cx="13.8" cy="418.4" r="3.2"/>
		<circle id="XMLID_7_" class="st1" cx="15.3" cy="433.5" r="3.2"/>
		<circle id="XMLID_8_" class="st1" cx="17.6" cy="448.6" r="3.2"/>
		<circle id="XMLID_9_" class="st1" cx="20.6" cy="463.6" r="3.2"/>
		<circle id="XMLID_10_" class="st1" cx="24.4" cy="478.3" r="3.2"/>
		<circle id="XMLID_11_" class="st1" cx="29" cy="492.9" r="3.2"/>
		<circle id="XMLID_12_" class="st1" cx="34.3" cy="507.1" r="3.2"/>
		<circle id="XMLID_13_" class="st1" cx="40.4" cy="521.1" r="3.2"/>
		<circle id="XMLID_14_" class="st1" cx="47.2" cy="534.8" r="3.2"/>
		<circle id="XMLID_15_" class="st1" cx="54.7" cy="548" r="3.2"/>
		<circle id="XMLID_16_" class="st1" cx="62.9" cy="560.9" r="3.2"/>
		<circle id="XMLID_17_" class="st1" cx="71.8" cy="573.3" r="3.2"/>
		<circle id="XMLID_18_" class="st1" cx="81.3" cy="585.2" r="3.2"/>
		<circle id="XMLID_19_" class="st1" cx="91.4" cy="596.7" r="3.2"/>
		<circle id="XMLID_20_" class="st1" cx="102" cy="607.5" r="3.2"/>
		<circle id="XMLID_21_" class="st1" cx="113.3" cy="617.8" r="3.2"/>
		<circle id="XMLID_22_" class="st1" cx="125.1" cy="627.5" r="3.2"/>
		<circle id="XMLID_23_" class="st1" cx="137.3" cy="636.6" r="3.2"/>
		<circle id="XMLID_24_" class="st1" cx="150" cy="645" r="3.2"/>
		<circle id="XMLID_25_" class="st1" cx="163.2" cy="652.7" r="3.2"/>
		<circle id="XMLID_26_" class="st1" cx="176.7" cy="659.8" r="3.2"/>
		<circle id="XMLID_27_" class="st1" cx="190.6" cy="666.1" r="3.2"/>
		<circle id="XMLID_28_" class="st1" cx="204.7" cy="671.7" r="3.2"/>
		<circle id="XMLID_29_" class="st1" cx="219.2" cy="676.5" r="3.2"/>
		<circle id="XMLID_30_" class="st1" cx="233.9" cy="680.6" r="3.2"/>
		<circle id="XMLID_31_" class="st1" cx="248.8" cy="683.9" r="3.2"/>
		<circle id="XMLID_32_" class="st1" cx="263.8" cy="686.4" r="3.2"/>
		<circle id="XMLID_33_" class="st1" cx="279" cy="688.1" r="3.2"/>
		<circle id="XMLID_34_" class="st1" cx="294.2" cy="689.1" r="3.2"/>
		<circle id="XMLID_35_" class="st1" cx="309.4" cy="689.2" r="3.2"/>
		<circle id="XMLID_36_" class="st1" cx="324.7" cy="688.5" r="3.2"/>
		<circle id="XMLID_37_" class="st1" cx="339.8" cy="687.1" r="3.2"/>
		<circle id="XMLID_38_" class="st1" cx="354.9" cy="684.8" r="3.2"/>
		<circle id="XMLID_39_" class="st1" cx="369.9" cy="681.8" r="3.2"/>
		<circle id="XMLID_40_" class="st1" cx="384.6" cy="678" r="3.2"/>
		<circle id="XMLID_41_" class="st1" cx="399.2" cy="673.4" r="3.2"/>
		<circle id="XMLID_42_" class="st1" cx="413.4" cy="668.1" r="3.2"/>
		<circle id="XMLID_43_" class="st1" cx="427.4" cy="662" r="3.2"/>
		<circle id="XMLID_44_" class="st1" cx="441.1" cy="655.2" r="3.2"/>
		<circle id="XMLID_45_" class="st1" cx="454.3" cy="647.7" r="3.2"/>
		<circle id="XMLID_46_" class="st1" cx="467.2" cy="639.5" r="3.2"/>
		<circle id="XMLID_47_" class="st1" cx="479.6" cy="630.6" r="3.2"/>
		<circle id="XMLID_48_" class="st1" cx="491.5" cy="621.1" r="3.2"/>
		<circle id="XMLID_49_" class="st1" cx="503" cy="611" r="3.2"/>
		<circle id="XMLID_50_" class="st1" cx="513.8" cy="600.3" r="3.2"/>
		<circle id="XMLID_51_" class="st1" cx="524.1" cy="589.1" r="3.2"/>
		<circle id="XMLID_52_" class="st1" cx="533.8" cy="577.3" r="3.2"/>
		<circle id="XMLID_53_" class="st1" cx="542.9" cy="565.1" r="3.2"/>
		<circle id="XMLID_61_" class="st1" cx="551.3" cy="552.4" r="3.2"/>
		<circle id="XMLID_62_" class="st1" cx="559" cy="539.2" r="3.2"/>
		<circle id="XMLID_66_" class="st1" cx="566.1" cy="525.7" r="3.2"/>
		<circle id="XMLID_72_" class="st1" cx="572.4" cy="511.8" r="3.2"/>
		<circle id="XMLID_76_" class="st1" cx="578" cy="497.6" r="3.2"/>
		<circle id="XMLID_77_" class="st1" cx="582.8" cy="483.2" r="3.2"/>
		<circle id="XMLID_80_" class="st1" cx="586.9" cy="468.5" r="3.2"/>
		<circle id="XMLID_82_" class="st1" cx="590.2" cy="453.6" r="3.2"/>
		<circle id="XMLID_84_" class="st1" cx="592.7" cy="438.6" r="3.2"/>
		<circle id="XMLID_85_" class="st1" cx="594.4" cy="423.4" r="3.2"/>
		<circle id="XMLID_86_" class="st1" cx="595.4" cy="408.2" r="3.2"/>
		<circle id="XMLID_87_" class="st1" cx="595.5" cy="393" r="3.2"/>
		<circle id="XMLID_88_" class="st1" cx="594.8" cy="377.7" r="3.2"/>
		<circle id="XMLID_89_" class="st1" cx="593.4" cy="362.6" r="3.2"/>
		<circle id="XMLID_90_" class="st1" cx="591.1" cy="347.5" r="3.2"/>
		<circle id="XMLID_91_" class="st1" cx="588.1" cy="332.5" r="3.2"/>
		<circle id="XMLID_92_" class="st1" cx="584.3" cy="317.8" r="3.2"/>
		<circle id="XMLID_93_" class="st1" cx="579.7" cy="303.2" r="3.2"/>
		<circle id="XMLID_94_" class="st1" cx="574.4" cy="289" r="3.2"/>
		<circle id="XMLID_95_" class="st1" cx="568.3" cy="275" r="3.2"/>
		<circle id="XMLID_96_" class="st1" cx="561.5" cy="261.3" r="3.2"/>
		<circle id="XMLID_97_" class="st1" cx="554" cy="248.1" r="3.2"/>
		<circle id="XMLID_98_" class="st1" cx="545.8" cy="235.2" r="3.2"/>
		<circle id="XMLID_99_" class="st1" cx="536.9" cy="222.8" r="3.2"/>
		<circle id="XMLID_100_" class="st1" cx="527.4" cy="210.9" r="3.2"/>
		<circle id="XMLID_101_" class="st1" cx="517.3" cy="199.4" r="3.2"/>
		<circle id="XMLID_102_" class="st1" cx="506.6" cy="188.6" r="3.2"/>
		<circle id="XMLID_103_" class="st1" cx="495.4" cy="178.3" r="3.2"/>
		<circle id="XMLID_104_" class="st1" cx="483.6" cy="168.6" r="3.2"/>
		<circle id="XMLID_105_" class="st1" cx="471.4" cy="159.5" r="3.2"/>
		<circle id="XMLID_106_" class="st1" cx="458.7" cy="151.1" r="3.2"/>
		<circle id="XMLID_107_" class="st1" cx="445.5" cy="143.3" r="3.2"/>
		<circle id="XMLID_108_" class="st1" cx="432" cy="136.3" r="3.2"/>
		<circle id="XMLID_109_" class="st1" cx="418.1" cy="130" r="3.2"/>
		<circle id="XMLID_110_" class="st1" cx="403.9" cy="124.4" r="3.2"/>
		<circle id="XMLID_111_" class="st1" cx="389.5" cy="119.6" r="3.2"/>
		<circle id="XMLID_112_" class="st1" cx="374.8" cy="115.5" r="3.2"/>
		<circle id="XMLID_113_" class="st1" cx="359.9" cy="112.2" r="3.2"/>
		<circle id="XMLID_114_" class="st1" cx="344.9" cy="109.7" r="3.2"/>
		<circle id="XMLID_115_" class="st1" cx="329.7" cy="107.9" r="3.2"/>
		<circle id="XMLID_116_" class="st1" cx="314.5" cy="107" r="3.2"/>
		<circle id="XMLID_117_" class="st1" cx="299.3" cy="106.9" r="3.2"/>
		<circle id="XMLID_118_" class="st1" cx="284" cy="107.5" r="3.2"/>
		<circle id="XMLID_119_" class="st1" cx="268.9" cy="109" r="3.2"/>
		<circle id="XMLID_120_" class="st1" cx="253.8" cy="111.3" r="3.2"/>
		<circle id="XMLID_121_" class="st1" cx="238.8" cy="114.3" r="3.2"/>
		<circle id="XMLID_122_" class="st1" cx="224.1" cy="118.1" r="3.2"/>
		<circle id="XMLID_123_" class="st1" cx="209.5" cy="122.7" r="3.2"/>
		<circle id="XMLID_124_" class="st1" cx="195.3" cy="128" r="3.2"/>
		<circle id="XMLID_125_" class="st1" cx="181.3" cy="134.1" r="3.2"/>
		<circle id="XMLID_126_" class="st1" cx="167.6" cy="140.9" r="3.2"/>
		<circle id="XMLID_127_" class="st1" cx="154.4" cy="148.4" r="3.2"/>
		<circle id="XMLID_128_" class="st1" cx="141.5" cy="156.6" r="3.2"/>
		<circle id="XMLID_129_" class="st1" cx="129.1" cy="165.5" r="3.2"/>
		<circle id="XMLID_130_" class="st1" cx="117.2" cy="175" r="3.2"/>
		<circle id="XMLID_131_" class="st1" cx="105.7" cy="185.1" r="3.2"/>
		<circle id="XMLID_132_" class="st1" cx="94.9" cy="195.7" r="3.2"/>
		<circle id="XMLID_133_" class="st1" cx="84.6" cy="207" r="3.2"/>
		<circle id="XMLID_134_" class="st1" cx="74.9" cy="218.8" r="3.2"/>
		<circle id="XMLID_135_" class="st1" cx="65.8" cy="231" r="3.2"/>
		<circle id="XMLID_136_" class="st1" cx="57.4" cy="243.7" r="3.2"/>
		<circle id="XMLID_137_" class="st1" cx="49.6" cy="256.9" r="3.2"/>
		<circle id="XMLID_138_" class="st1" cx="42.6" cy="270.4" r="3.2"/>
		<circle id="XMLID_139_" class="st1" cx="36.3" cy="284.3" r="3.2"/>
		<circle id="XMLID_140_" class="st1" cx="30.7" cy="298.4" r="3.2"/>
		<circle id="XMLID_141_" class="st1" cx="25.9" cy="312.9" r="3.2"/>
		<circle id="XMLID_142_" class="st1" cx="21.8" cy="327.6" r="3.2"/>
		<circle id="XMLID_143_" class="st1" cx="18.5" cy="342.5" r="3.2"/>
		<circle id="XMLID_144_" class="st1" cx="16" cy="357.5" r="3.2"/>
		<circle id="XMLID_145_" class="st1" cx="14.2" cy="372.7" r="3.2"/>
	</g>
</g>
</svg>
