<?xml version="1.0" encoding="utf-8"?>
<!-- Generator: Adobe Illustrator 19.0.0, SVG Export Plug-In . SVG Version: 6.00 Build 0)  -->
<svg version="1.1" id="Layer_1" xmlns="http://www.w3.org/2000/svg" xmlns:xlink="http://www.w3.org/1999/xlink" x="0px" y="0px"
	 viewBox="-10.1 234.7 660.9 660.9" style="enable-background:new -10.1 234.7 660.9 660.9;" xml:space="preserve" width="1" height="1">
<style type="text/css">
	.st0{fill:#FFCACA;}
	.st1{fill:#3C7275;}
	.st2{fill:none;stroke:#000000;stroke-width:5;}
	.st3{fill:#FFFFFF;stroke:#000000;stroke-width:2;}
	.st4{fill:none;stroke:#80ADB2;stroke-width:2.5;stroke-linecap:round;stroke-linejoin:round;}
	.st5{fill:none;stroke:#999145;stroke-width:2.5;stroke-linecap:round;stroke-linejoin:round;}
	.st6{fill:none;stroke:#FFFFFF;stroke-width:5;}
	.st7{fill:none;stroke:#AD9980;stroke-width:2.5;stroke-linecap:round;stroke-linejoin:round;}
	.st8{fill:none;}
	.st9{fill:#FFFFFF;}
	.st10{fill:#E3A0EA;}
	.st11{fill:#FFFFFF;stroke:#FFFFFF;stroke-width:5;}
</style>
<g id="Circle_9_">
	<g id="Circle_10_">
		<circle class="st0" cx="320.3" cy="565.1" r="327.9"/>
		<circle class="st1" cx="320.3" cy="565.1" r="327.9"/>
		<circle class="st2" cx="320.3" cy="565.1" r="327.9"/>
	</g>
	<g id="Circles_3_">
		<circle id="XMLID_480_" class="st3" cx="6.6" cy="554.2" r="3.4"/>
		<circle id="XMLID_479_" class="st3" cx="6.5" cy="570.6" r="3.4"/>
		<circle id="XMLID_478_" class="st3" cx="7.1" cy="587.1" r="3.4"/>
		<circle id="XMLID_477_" class="st3" cx="8.8" cy="603.4" r="3.4"/>
		<circle id="XMLID_476_" class="st3" cx="11.2" cy="619.6" r="3.4"/>
		<circle id="XMLID_475_" class="st3" cx="14.5" cy="635.8" r="3.4"/>
		<circle id="XMLID_474_" class="st3" cx="18.6" cy="651.7" r="3.4"/>
		<circle id="XMLID_473_" class="st3" cx="23.5" cy="667.4" r="3.4"/>
		<circle id="XMLID_472_" class="st3" cx="29.2" cy="682.7" r="3.4"/>
		<circle id="XMLID_471_" class="st3" cx="35.8" cy="697.8" r="3.4"/>
		<circle id="XMLID_470_" class="st3" cx="43.1" cy="712.6" r="3.4"/>
		<circle id="XMLID_469_" class="st3" cx="51.2" cy="726.8" r="3.4"/>
		<circle id="XMLID_468_" class="st3" cx="60.1" cy="740.7" r="3.4"/>
		<circle id="XMLID_467_" class="st3" cx="69.7" cy="754.1" r="3.4"/>
		<circle id="XMLID_466_" class="st3" cx="79.9" cy="766.9" r="3.4"/>
		<circle id="XMLID_465_" class="st3" cx="90.8" cy="779.3" r="3.4"/>
		<circle id="XMLID_464_" class="st3" cx="102.2" cy="790.9" r="3.4"/>
		<circle id="XMLID_463_" class="st3" cx="114.4" cy="802" r="3.4"/>
		<circle id="XMLID_462_" class="st3" cx="127.1" cy="812.5" r="3.4"/>
		<circle id="XMLID_461_" class="st3" cx="140.3" cy="822.3" r="3.4"/>
		<circle id="XMLID_460_" class="st3" cx="154" cy="831.4" r="3.4"/>
		<circle id="XMLID_459_" class="st3" cx="168.2" cy="839.7" r="3.4"/>
		<circle id="XMLID_458_" class="st3" cx="182.7" cy="847.3" r="3.4"/>
		<circle id="XMLID_457_" class="st3" cx="197.7" cy="854.1" r="3.4"/>
		<circle id="XMLID_456_" class="st3" cx="212.9" cy="860.1" r="3.4"/>
		<circle id="XMLID_455_" class="st3" cx="228.6" cy="865.3" r="3.4"/>
		<circle id="XMLID_454_" class="st3" cx="244.4" cy="869.7" r="3.4"/>
		<circle id="XMLID_453_" class="st3" cx="260.5" cy="873.3" r="3.4"/>
		<circle id="XMLID_452_" class="st3" cx="276.6" cy="876" r="3.4"/>
		<circle id="XMLID_451_" class="st3" cx="293" cy="877.8" r="3.4"/>
		<circle id="XMLID_450_" class="st3" cx="309.4" cy="878.9" r="3.4"/>
		<circle id="XMLID_449_" class="st3" cx="325.8" cy="879" r="3.4"/>
		<circle id="XMLID_448_" class="st3" cx="342.3" cy="878.3" r="3.4"/>
		<circle id="XMLID_447_" class="st3" cx="358.6" cy="876.7" r="3.4"/>
		<circle id="XMLID_446_" class="st3" cx="374.8" cy="874.3" r="3.4"/>
		<circle id="XMLID_445_" class="st3" cx="391" cy="871" r="3.4"/>
		<circle id="XMLID_444_" class="st3" cx="406.9" cy="866.9" r="3.4"/>
		<circle id="XMLID_443_" class="st3" cx="422.6" cy="862" r="3.4"/>
		<circle id="XMLID_442_" class="st3" cx="437.9" cy="856.3" r="3.4"/>
		<circle id="XMLID_441_" class="st3" cx="453" cy="849.7" r="3.4"/>
		<circle id="XMLID_440_" class="st3" cx="467.8" cy="842.4" r="3.4"/>
		<circle id="XMLID_439_" class="st3" cx="482" cy="834.3" r="3.4"/>
		<circle id="XMLID_438_" class="st3" cx="495.9" cy="825.4" r="3.4"/>
		<circle id="XMLID_437_" class="st3" cx="509.3" cy="815.8" r="3.4"/>
		<circle id="XMLID_436_" class="st3" cx="522.1" cy="805.6" r="3.4"/>
		<circle id="XMLID_435_" class="st3" cx="534.5" cy="794.7" r="3.4"/>
		<circle id="XMLID_434_" class="st3" cx="546.1" cy="783.2" r="3.4"/>
		<circle id="XMLID_433_" class="st3" cx="557.2" cy="771.1" r="3.4"/>
		<circle id="XMLID_432_" class="st3" cx="567.7" cy="758.4" r="3.4"/>
		<circle id="XMLID_431_" class="st3" cx="577.5" cy="745.2" r="3.4"/>
		<circle id="XMLID_430_" class="st3" cx="586.6" cy="731.5" r="3.4"/>
		<circle id="XMLID_429_" class="st3" cx="594.9" cy="717.3" r="3.4"/>
		<circle id="XMLID_428_" class="st3" cx="602.5" cy="702.8" r="3.4"/>
		<circle id="XMLID_427_" class="st3" cx="609.3" cy="687.8" r="3.4"/>
		<circle id="XMLID_426_" class="st3" cx="615.3" cy="672.5" r="3.4"/>
		<circle id="XMLID_425_" class="st3" cx="620.5" cy="656.9" r="3.4"/>
		<circle id="XMLID_424_" class="st3" cx="624.9" cy="641.1" r="3.4"/>
		<circle id="XMLID_423_" class="st3" cx="628.5" cy="625" r="3.4"/>
		<circle id="XMLID_422_" class="st3" cx="631.2" cy="608.9" r="3.4"/>
		<circle id="XMLID_421_" class="st3" cx="633" cy="592.5" r="3.4"/>
		<circle id="XMLID_420_" class="st3" cx="634.1" cy="576.1" r="3.4"/>
		<circle id="XMLID_419_" class="st3" cx="634.2" cy="559.7" r="3.4"/>
		<circle id="XMLID_418_" class="st3" cx="633.5" cy="543.2" r="3.4"/>
		<circle id="XMLID_417_" class="st3" cx="631.9" cy="526.9" r="3.4"/>
		<circle id="XMLID_416_" class="st3" cx="629.5" cy="510.7" r="3.4"/>
		<circle id="XMLID_415_" class="st3" cx="626.2" cy="494.5" r="3.4"/>
		<circle id="XMLID_414_" class="st3" cx="622.1" cy="478.6" r="3.4"/>
		<circle id="XMLID_413_" class="st3" cx="617.2" cy="462.9" r="3.4"/>
		<circle id="XMLID_412_" class="st3" cx="611.5" cy="447.6" r="3.4"/>
		<circle id="XMLID_411_" class="st3" cx="604.9" cy="432.5" r="3.4"/>
		<circle id="XMLID_410_" class="st3" cx="597.6" cy="417.7" r="3.4"/>
		<circle id="XMLID_409_" class="st3" cx="589.5" cy="403.5" r="3.4"/>
		<circle id="XMLID_408_" class="st3" cx="580.6" cy="389.6" r="3.4"/>
		<circle id="XMLID_407_" class="st3" cx="571" cy="376.2" r="3.4"/>
		<circle id="XMLID_406_" class="st3" cx="560.8" cy="363.4" r="3.4"/>
		<circle id="XMLID_405_" class="st3" cx="549.9" cy="351" r="3.4"/>
		<circle id="XMLID_404_" class="st3" cx="538.4" cy="339.4" r="3.4"/>
		<circle id="XMLID_403_" class="st3" cx="526.3" cy="328.3" r="3.4"/>
		<circle id="XMLID_402_" class="st3" cx="513.6" cy="317.8" r="3.4"/>
		<circle id="XMLID_401_" class="st3" cx="500.4" cy="308" r="3.4"/>
		<circle id="XMLID_400_" class="st3" cx="486.7" cy="298.9" r="3.4"/>
		<circle id="XMLID_399_" class="st3" cx="472.5" cy="290.5" r="3.4"/>
		<circle id="XMLID_398_" class="st3" cx="458" cy="283" r="3.4"/>
		<circle id="XMLID_397_" class="st3" cx="443" cy="276.2" r="3.4"/>
		<circle id="XMLID_396_" class="st3" cx="427.7" cy="270.2" r="3.4"/>
		<circle id="XMLID_395_" class="st3" cx="412.1" cy="265" r="3.4"/>
		<circle id="XMLID_394_" class="st3" cx="396.3" cy="260.6" r="3.4"/>
		<circle id="XMLID_393_" class="st3" cx="380.2" cy="257" r="3.4"/>
		<circle id="XMLID_392_" class="st3" cx="364.1" cy="254.3" r="3.4"/>
		<circle id="XMLID_391_" class="st3" cx="347.7" cy="252.4" r="3.4"/>
		<circle id="XMLID_390_" class="st3" cx="331.3" cy="251.4" r="3.4"/>
		<circle id="XMLID_389_" class="st3" cx="314.9" cy="251.3" r="3.4"/>
		<circle id="XMLID_388_" class="st3" cx="298.4" cy="251.9" r="3.4"/>
		<circle id="XMLID_387_" class="st3" cx="282.1" cy="253.6" r="3.4"/>
		<circle id="XMLID_386_" class="st3" cx="265.9" cy="256" r="3.4"/>
		<circle id="XMLID_385_" class="st3" cx="249.7" cy="259.3" r="3.4"/>
		<circle id="XMLID_384_" class="st3" cx="233.8" cy="263.4" r="3.4"/>
		<circle id="XMLID_383_" class="st3" cx="218.1" cy="268.3" r="3.4"/>
		<circle id="XMLID_382_" class="st3" cx="202.8" cy="274" r="3.4"/>
		<circle id="XMLID_381_" class="st3" cx="187.7" cy="280.6" r="3.4"/>
		<circle id="XMLID_380_" class="st3" cx="172.9" cy="287.9" r="3.4"/>
		<circle id="XMLID_379_" class="st3" cx="158.7" cy="296" r="3.4"/>
		<circle id="XMLID_378_" class="st3" cx="144.8" cy="304.9" r="3.4"/>
		<circle id="XMLID_377_" class="st3" cx="131.4" cy="314.5" r="3.4"/>
		<circle id="XMLID_376_" class="st3" cx="118.6" cy="324.7" r="3.4"/>
		<circle id="XMLID_375_" class="st3" cx="106.2" cy="335.6" r="3.4"/>
		<circle id="XMLID_374_" class="st3" cx="94.6" cy="347" r="3.4"/>
		<circle id="XMLID_373_" class="st3" cx="83.5" cy="359.2" r="3.4"/>
		<circle id="XMLID_372_" class="st3" cx="73" cy="371.9" r="3.4"/>
		<circle id="XMLID_371_" class="st3" cx="63.2" cy="385.1" r="3.4"/>
		<circle id="XMLID_370_" class="st3" cx="54.1" cy="398.8" r="3.4"/>
		<circle id="XMLID_369_" class="st3" cx="45.7" cy="413" r="3.4"/>
		<circle id="XMLID_368_" class="st3" cx="38.2" cy="427.5" r="3.4"/>
		<circle id="XMLID_367_" class="st3" cx="31.4" cy="442.5" r="3.4"/>
		<circle id="XMLID_366_" class="st3" cx="25.4" cy="457.7" r="3.4"/>
		<circle id="XMLID_365_" class="st3" cx="20.2" cy="473.4" r="3.4"/>
		<circle id="XMLID_364_" class="st3" cx="15.8" cy="489.2" r="3.4"/>
		<circle id="XMLID_363_" class="st3" cx="12.2" cy="505.3" r="3.4"/>
		<circle id="XMLID_362_" class="st3" cx="9.5" cy="521.4" r="3.4"/>
		<circle id="XMLID_361_" class="st3" cx="7.6" cy="537.8" r="3.4"/>
	</g>
</g>
<g id="Circle_6_">
	<g id="Circle_7_">
		<circle class="st0" cx="320.3" cy="565.1" r="301.7"/>
		<g>
			<path class="st4" d="M301.8,264.1c0,0.9,36.9-1.1,36.9,0c0,1.8-77.9,3.7-77.9,5.3c0,2.9,118.9-2.6,118.9,0
				c0,3-141.3,2.3-141.3,5.4c0,3.8,163.8-3.7,163.8,0c0,4.6-179.7,0.9-179.7,5c0,5.1,195.6-4.7,195.6,0c0,5.3-210.1,1.1-210.1,5.4
				c0,6.5,224.6-6.1,224.6,0c0,6.5-236.9-1.4-236.9,5.2c0,6,249.1-5.1,249.1,0c0,5.4-260.1-1.1-260.1,5.3c0,5.9,271.1-7.7,271.1,0
				c0,5.8-279.7-1.9-279.7,4.5c0,6.6,288.3-7.8,288.3,0c0,8-296.6-2-296.6,4.6c0,7.4,304.8-6.4,304.8,0c0,8.1-313.5-2.4-313.5,5.3
				c0,6.6,322.2-9.3,322.2,0c0,9-330.5-1.2-330.5,5.5c0,7,338.8-8.6,338.8,0c0,8-346.6-1.5-346.6,5.5c0,7.3,354.4-8.7,354.4,0
				c0,10-360.8-3.9-360.8,4.8c0,7.6,367.3-7.7,367.3,0c0,11-373.7-2.6-373.7,5.1c0,8.3,380-9.9,380,0c0,8.6-386-3.1-386,4.9
				c0,10.1,392-9.9,392,0c0,10.1-397.4-6.2-397.4,4.8c0,11.9,402.8-9.3,402.8,0c0,10.6-408.1-4.6-408.1,4.8c0,11,413.4-12.1,413.4,0
				c0,11.4-418.9-5.6-418.9,5.3c0,9.3,424.5-11.1,424.5,0c0,12.3-428.9-8-428.9,4.5c0,12.2,433.3-9.2,433.3,0c0,12.6-438-8-438,4.9
				c0,9.2,442.7-12.7,442.7,0c0,13.2-447.4-7.4-447.4,5.3c0,13.6,452.2-12.1,452.2,0c0,10.2-456.7-7.9-456.7,5.1
				c0,13.1,461.2-11.8,461.2,0c0,11-465.5-8.3-465.5,5.3c0,10.3,469.8-12.1,469.8,0c0,10.5-473.5-8.8-473.5,4.7
				c0,13,477.3-12.8,477.3,0c0,14.2-481.4-4.9-481.4,5.4c0,9.9,485.4-14.1,485.4,0c0,12.1-489.2-8.5-489.2,5.2
				c0,11.6,493-14.5,493,0c0,14.5-496.6-4.9-496.6,5.3c0,14.6,500.1-11.3,500.1,0c0,10.8-503.6-6.6-503.6,5.1c0,10.2,507-12.3,507,0
				c0,12.9-509.8-8.2-509.8,4.5c0,11.7,512.7-11.9,512.7,0c0,13.3-516-6.8-516,5.5c0,14.8,519.4-13.4,519.4,0
				c0,11.5-522.2-8.7-522.2,5c0,15.2,525.1-13.2,525.1,0c0,10.8-527.6-6.3-527.6,4.5c0,14.2,530.2-14.4,530.2,0
				c0,11.2-532.7-6.7-532.7,4.7c0,11.5,535.2-15.2,535.2,0c0,15.8-537.8-8-537.8,5c0,15.7,540.3-15.7,540.3,0
				c0,15-542.6-7.2-542.6,4.7c0,16.1,545-13.2,545,0c0,15.1-547.1-10.9-547.1,4.7c0,15.7,549.2-12.9,549.2,0
				c0,12.6-551.6-10.4-551.6,5.3c0,11.9,554-13.4,554,0c0,12.4-555.9-10.7-555.9,4.6c0,14.2,557.9-14.3,557.9,0
				c0,16.5-560-6.1-560,5.3c0,15.3,562.1-11.5,562.1,0c0,13.4-564-8.3-564,4.8c0,15.1,565.8-12.9,565.8,0
				c0,16.2-567.5-9.3-567.5,4.8c0,12.2,569.2-15.4,569.2,0c0,12.6-570.8-7-570.8,4.6c0,14.2,572.4-15.7,572.4,0
				c0,16.5-574-9.6-574,5.1c0,12.2,575.7-15.7,575.7,0c0,13.6-577.2-8.8-577.2,4.9c0,12.9,578.7-15.2,578.7,0
				c0,17-580.1-9.4-580.1,4.8c0,17.3,581.5-11.9,581.5,0c0,15.3-582.9-7.3-582.9,5.2c0,16.6,584.2-16.6,584.2,0
				c0,14-585.5-11.6-585.5,5.2c0,16.2,586.8-17.4,586.8,0c0,15.6-588-11-588,5.2c0,12.8,589.2-15.3,589.2,0
				c0,14.2-590.2-7.6-590.2,5c0,12.1,591.2-16.8,591.2,0c0,14.5-592.3-9.6-592.3,5.3c0,12.8,593.4-15,593.4,0
				c0,15.1-594.2-9.7-594.2,5.3c0,13.9,595.1-13.5,595.1,0c0,17.5-596-8.8-596,5.4c0,12.6,596.8-15.5,596.8,0
				c0,15.6-597.6-8.6-597.6,5.4c0,13.3,598.3-17.2,598.3,0c0,14.5-598.9-8.5-598.9,5.4c0,17.7,599.5-16.9,599.5,0
				c0,17.5-600-9.6-600,4.5c0,13.6,600.5-17.4,600.5,0c0,15.8-601-9.9-601,5.2c0,12.4,601.4-17.7,601.4,0
				c0,13.9-601.8-11.1-601.8,5.5c0,14,602.1-15.7,602.1,0c0,13.4-602.4-12.5-602.4,4.9c0,15.6,602.7-15.6,602.7,0
				c0,16.5-602.8-12.9-602.8,4.8c0,15.2,603-14.1,603,0c0,17.1-603.1-10.5-603.1,4.8c0,15.3,603.2-16.8,603.2,0
				c0,12.7-603.2-10-603.2,5c0,16.8,603.3-17.5,603.3,0c0,13.5-603.2-10.6-603.2,4.6c0,17.1,603.1-16.9,603.1,0
				c0,15.1-603-10.9-603,4.9c0,13.1,602.9-17.9,602.9,0c0,17.6-602.7-8.7-602.7,4.8c0,12.8,602.5-17.6,602.5,0
				c0,12.9-602.2-11.3-602.2,4.7c0,17.2,601.8-13.6,601.8,0c0,14.1-601.5-9.5-601.5,5.1c0,16.9,601.1-18,601.1,0
				c0,12.1-600.7-11.8-600.7,4.8c0,13.8,600.2-14.7,600.2,0c0,17.2-599.7-11.6-599.7,5c0,12.9,599.1-14.1,599.1,0
				c0,12.9-598.6-8-598.6,4.7c0,15.6,598.1-12.9,598.1,0c0,15.2-597.4-11.9-597.4,4.6c0,15.3,596.7-13.8,596.7,0
				c0,14.3-595.8-7.6-595.8,5.4c0,17.8,595-13.5,595,0c0,17.4-594.3-11.7-594.3,4.5c0,15.4,593.5-17.1,593.5,0
				c0,12.9-592.5-9.1-592.5,4.8c0,13.9,591.6-14.4,591.6,0c0,17.5-590.6-13-590.6,4.7c0,12.9,589.6-15.4,589.6,0
				c0,13-588.5-8.4-588.5,5c0,12.2,587.5-13.3,587.5,0c0,11.7-586.2-11-586.2,5.1c0,14.9,584.9-16.2,584.9,0
				c0,14.1-583.7-10.4-583.7,4.8c0,16,582.5-13,582.5,0c0,17.4-581.1-9.6-581.1,4.8c0,15.2,579.8-16.5,579.8,0
				c0,16.8-578.3-6.9-578.3,4.8c0,12.1,576.9-12.9,576.9,0c0,12.2-575.3-7.1-575.3,5.1c0,14.2,573.8-16.3,573.8,0
				c0,16.5-571.9-6.8-571.9,5.4c0,11.5,570-15.2,570,0c0,12-568.2-11.5-568.2,5.2c0,11.5,566.4-13.9,566.4,0
				c0,11.7-564.3-7.1-564.3,5.2c0,14.1,562.3-14.1,562.3,0c0,13.1-560.4-10.1-560.4,4.7c0,14.7,558.6-16.1,558.6,0
				c0,13.4-556.7-10.7-556.7,4.6c0,15.6,554.8-14.7,554.8,0c0,11.8-552.5-8.3-552.5,5.2c0,11,550.2-15.6,550.2,0
				c0,15.1-547.7-9.9-547.7,5.5c0,12.7,545.2-15.8,545.2,0c0,14.8-542.6-7.4-542.6,5.3c0,15.1,539.9-15.1,539.9,0
				c0,12.4-537.3-8.8-537.3,5.3c0,14.8,534.6-14.8,534.6,0c0,13.6-531.9-7.7-531.9,4.9c0,11.8,529.2-12.9,529.2,0
				c0,14.4-526.7-9.8-526.7,4.5c0,12.3,524.2-13.3,524.2,0c0,12.8-521.4-6.9-521.4,4.9c0,14.3,518.5-12.4,518.5,0
				c0,12.7-515.7-8.2-515.7,4.6c0,14.2,512.9-11.3,512.9,0c0,12.9-510.1-7.4-510.1,4.5c0,11.2,507.3-10.5,507.3,0
				c0,13.6-503.8-8.6-503.8,5.2c0,10.5,500.3-10.3,500.3,0c0,13.9-496.6-9.4-496.6,5.3c0,13.1,493-11.3,493,0
				c0,11.3-489.6-9.9-489.6,4.7c0,12.7,486.1-9.7,486.1,0c0,10.4-482.7-7.9-482.7,4.6c0,12.3,479.3-11.6,479.3,0
				c0,9.6-475.7-7.3-475.7,4.6c0,12.5,472-14.1,472,0c0,10.1-468.3-8.1-468.3,4.7c0,12.5,464.5-12.4,464.5,0
				c0,10.2-460.1-7.1-460.1,5.2c0,9.6,455.6-9.5,455.6,0c0,9.5-451.3-5.9-451.3,4.9c0,9.8,447.1-11.6,447.1,0
				c0,11.8-442.8-6.6-442.8,4.6c0,11.6,438.5-9.9,438.5,0c0,11.4-433.3-5.3-433.3,5.4c0,9.5,428.1-10.6,428.1,0
				c0,11.5-422.5-3.5-422.5,5.4c0,10.7,416.9-9.1,416.9,0c0,9.9-411.4-3.9-411.4,5.2c0,8.9,405.9-11.3,405.9,0
				c0,10.6-399.7-4.2-399.7,5.5c0,9,393.4-8.5,393.4,0c0,10-387.3-3.4-387.3,5.1c0,10.1,381.2-11.2,381.2,0
				c0,8.8-374.5-4.9-374.5,5.4c0,8.7,367.9-10.8,367.9,0c0,7.6-360.5-3.6-360.5,5.5c0,10.5,353-9.8,353,0
				c0,10.2-345.8-1.9-345.8,5.1c0,9.9,338.5-8.8,338.5,0c0,8.3-331.4-4.7-331.4,4.8c0,8.4,324.2-8.3,324.2,0
				c0,7.4-316.8-4.3-316.8,4.6c0,8.9,309.4-8.2,309.4,0c0,7.6-300.8-2.2-300.8,4.9c0,8,292.3-6.6,292.3,0c0,6.9-283.3-1.3-283.3,4.8
				c0,8.2,274.3-6.7,274.3,0c0,7.1-264.7-1.7-264.7,4.7c0,5.1,255.1-7.5,255.1,0c0,7.2-244.5-0.7-244.5,4.7c0,5,233.9-6.4,233.9,0
				c0,5.1-220.4-1.2-220.4,5.3c0,5,206.8-6,206.8,0c0,4.3-191.8-0.5-191.8,5c0,4.9,176.9-4.6,176.9,0c0,4.7-158.1,1-158.1,5.1
				c0,3.4,139.3-3.4,139.3,0c0,3.1-113.4,2-113.4,4.9c0,2.4,87.4-1.9,87.4,0"/>
		</g>
		<circle class="st2" cx="320.3" cy="565.1" r="301.7"/>
	</g>
	<g id="Circles_2_">
		<circle id="XMLID_360_" class="st3" cx="32.1" cy="555.1" r="3.2"/>
		<circle id="XMLID_359_" class="st3" cx="32" cy="570.1" r="3.2"/>
		<circle id="XMLID_358_" class="st3" cx="32.6" cy="585.3" r="3.2"/>
		<circle id="XMLID_357_" class="st3" cx="34.1" cy="600.2" r="3.2"/>
		<circle id="XMLID_356_" class="st3" cx="36.4" cy="615.2" r="3.2"/>
		<circle id="XMLID_355_" class="st3" cx="39.3" cy="630" r="3.2"/>
		<circle id="XMLID_354_" class="st3" cx="43.1" cy="644.5" r="3.2"/>
		<circle id="XMLID_353_" class="st3" cx="47.7" cy="659" r="3.2"/>
		<circle id="XMLID_352_" class="st3" cx="52.9" cy="673" r="3.2"/>
		<circle id="XMLID_351_" class="st3" cx="58.9" cy="687" r="3.2"/>
		<circle id="XMLID_350_" class="st3" cx="65.7" cy="700.5" r="3.2"/>
		<circle id="XMLID_349_" class="st3" cx="73.1" cy="713.5" r="3.2"/>
		<circle id="XMLID_348_" class="st3" cx="81.2" cy="726.4" r="3.2"/>
		<circle id="XMLID_347_" class="st3" cx="90" cy="738.5" r="3.2"/>
		<circle id="XMLID_346_" class="st3" cx="99.4" cy="750.4" r="3.2"/>
		<circle id="XMLID_345_" class="st3" cx="109.4" cy="761.8" r="3.2"/>
		<circle id="XMLID_344_" class="st3" cx="119.9" cy="772.5" r="3.2"/>
		<circle id="XMLID_343_" class="st3" cx="131.1" cy="782.7" r="3.2"/>
		<circle id="XMLID_342_" class="st3" cx="142.8" cy="792.3" r="3.2"/>
		<circle id="XMLID_341_" class="st3" cx="154.9" cy="801.3" r="3.2"/>
		<circle id="XMLID_340_" class="st3" cx="167.4" cy="809.5" r="3.2"/>
		<circle id="XMLID_339_" class="st3" cx="180.6" cy="817.3" r="3.2"/>
		<circle id="XMLID_338_" class="st3" cx="193.9" cy="824.3" r="3.2"/>
		<circle id="XMLID_337_" class="st3" cx="207.6" cy="830.5" r="3.2"/>
		<circle id="XMLID_336_" class="st3" cx="221.6" cy="836" r="3.2"/>
		<circle id="XMLID_335_" class="st3" cx="236.1" cy="840.8" r="3.2"/>
		<circle id="XMLID_334_" class="st3" cx="250.6" cy="844.9" r="3.2"/>
		<circle id="XMLID_333_" class="st3" cx="265.3" cy="848" r="3.2"/>
		<circle id="XMLID_332_" class="st3" cx="280.1" cy="850.5" r="3.2"/>
		<circle id="XMLID_331_" class="st3" cx="295.2" cy="852.3" r="3.2"/>
		<circle id="XMLID_330_" class="st3" cx="310.2" cy="853.3" r="3.2"/>
		<circle id="XMLID_329_" class="st3" cx="325.2" cy="853.4" r="3.2"/>
		<circle id="XMLID_328_" class="st3" cx="340.4" cy="852.7" r="3.2"/>
		<circle id="XMLID_327_" class="st3" cx="355.3" cy="851.3" r="3.2"/>
		<circle id="XMLID_326_" class="st3" cx="370.3" cy="849" r="3.2"/>
		<circle id="XMLID_325_" class="st3" cx="385.1" cy="846" r="3.2"/>
		<circle id="XMLID_324_" class="st3" cx="399.7" cy="842.3" r="3.2"/>
		<circle id="XMLID_323_" class="st3" cx="414.2" cy="837.7" r="3.2"/>
		<circle id="XMLID_322_" class="st3" cx="428.2" cy="832.5" r="3.2"/>
		<circle id="XMLID_321_" class="st3" cx="442.1" cy="826.5" r="3.2"/>
		<circle id="XMLID_320_" class="st3" cx="455.6" cy="819.7" r="3.2"/>
		<circle id="XMLID_319_" class="st3" cx="468.7" cy="812.3" r="3.2"/>
		<circle id="XMLID_318_" class="st3" cx="481.5" cy="804.2" r="3.2"/>
		<circle id="XMLID_317_" class="st3" cx="493.7" cy="795.4" r="3.2"/>
		<circle id="XMLID_316_" class="st3" cx="505.5" cy="786" r="3.2"/>
		<circle id="XMLID_315_" class="st3" cx="517" cy="776" r="3.2"/>
		<circle id="XMLID_314_" class="st3" cx="527.7" cy="765.4" r="3.2"/>
		<circle id="XMLID_313_" class="st3" cx="537.9" cy="754.3" r="3.2"/>
		<circle id="XMLID_312_" class="st3" cx="547.5" cy="742.5" r="3.2"/>
		<circle id="XMLID_311_" class="st3" cx="556.5" cy="730.5" r="3.2"/>
		<circle id="XMLID_310_" class="st3" cx="564.8" cy="718" r="3.2"/>
		<circle id="XMLID_309_" class="st3" cx="572.5" cy="704.9" r="3.2"/>
		<circle id="XMLID_308_" class="st3" cx="579.5" cy="691.5" r="3.2"/>
		<circle id="XMLID_307_" class="st3" cx="585.7" cy="677.8" r="3.2"/>
		<circle id="XMLID_306_" class="st3" cx="591.3" cy="663.7" r="3.2"/>
		<circle id="XMLID_305_" class="st3" cx="596" cy="649.4" r="3.2"/>
		<circle id="XMLID_304_" class="st3" cx="600" cy="634.9" r="3.2"/>
		<circle id="XMLID_303_" class="st3" cx="603.3" cy="620" r="3.2"/>
		<circle id="XMLID_302_" class="st3" cx="605.8" cy="605.3" r="3.2"/>
		<circle id="XMLID_301_" class="st3" cx="607.5" cy="590.2" r="3.2"/>
		<circle id="XMLID_300_" class="st3" cx="608.5" cy="575.2" r="3.2"/>
		<circle id="XMLID_299_" class="st3" cx="608.5" cy="560.2" r="3.2"/>
		<circle id="XMLID_298_" class="st3" cx="607.9" cy="545" r="3.2"/>
		<circle id="XMLID_297_" class="st3" cx="606.5" cy="530.1" r="3.2"/>
		<circle id="XMLID_296_" class="st3" cx="604.2" cy="515.1" r="3.2"/>
		<circle id="XMLID_295_" class="st3" cx="601.3" cy="500.3" r="3.2"/>
		<circle id="XMLID_294_" class="st3" cx="597.5" cy="485.7" r="3.2"/>
		<circle id="XMLID_293_" class="st3" cx="592.9" cy="471.2" r="3.2"/>
		<circle id="XMLID_292_" class="st3" cx="587.7" cy="457.2" r="3.2"/>
		<circle id="XMLID_291_" class="st3" cx="581.7" cy="443.3" r="3.2"/>
		<circle id="XMLID_290_" class="st3" cx="574.9" cy="429.8" r="3.2"/>
		<circle id="XMLID_289_" class="st3" cx="567.5" cy="416.7" r="3.2"/>
		<circle id="XMLID_288_" class="st3" cx="559.4" cy="403.9" r="3.2"/>
		<circle id="XMLID_287_" class="st3" cx="550.5" cy="391.7" r="3.2"/>
		<circle id="XMLID_286_" class="st3" cx="541.2" cy="379.9" r="3.2"/>
		<circle id="XMLID_285_" class="st3" cx="531.2" cy="368.5" r="3.2"/>
		<circle id="XMLID_284_" class="st3" cx="520.5" cy="357.8" r="3.2"/>
		<circle id="XMLID_283_" class="st3" cx="509.4" cy="347.6" r="3.2"/>
		<circle id="XMLID_282_" class="st3" cx="497.7" cy="338" r="3.2"/>
		<circle id="XMLID_281_" class="st3" cx="485.6" cy="329" r="3.2"/>
		<circle id="XMLID_280_" class="st3" cx="473.1" cy="320.7" r="3.2"/>
		<circle id="XMLID_279_" class="st3" cx="460" cy="312.9" r="3.2"/>
		<circle id="XMLID_278_" class="st3" cx="446.6" cy="306" r="3.2"/>
		<circle id="XMLID_277_" class="st3" cx="432.9" cy="299.8" r="3.2"/>
		<circle id="XMLID_276_" class="st3" cx="418.8" cy="294.2" r="3.2"/>
		<circle id="XMLID_275_" class="st3" cx="404.5" cy="289.5" r="3.2"/>
		<circle id="XMLID_274_" class="st3" cx="390" cy="285.4" r="3.2"/>
		<circle id="XMLID_273_" class="st3" cx="375.2" cy="282.2" r="3.2"/>
		<circle id="XMLID_272_" class="st3" cx="360.4" cy="279.7" r="3.2"/>
		<circle id="XMLID_271_" class="st3" cx="345.3" cy="277.9" r="3.2"/>
		<circle id="XMLID_270_" class="st3" cx="330.3" cy="277" r="3.2"/>
		<circle id="XMLID_269_" class="st3" cx="315.3" cy="276.9" r="3.2"/>
		<circle id="XMLID_268_" class="st3" cx="300.1" cy="277.5" r="3.2"/>
		<circle id="XMLID_267_" class="st3" cx="285.2" cy="279" r="3.2"/>
		<circle id="XMLID_266_" class="st3" cx="270.3" cy="281.3" r="3.2"/>
		<circle id="XMLID_265_" class="st3" cx="255.4" cy="284.2" r="3.2"/>
		<circle id="XMLID_264_" class="st3" cx="240.8" cy="288" r="3.2"/>
		<circle id="XMLID_263_" class="st3" cx="226.3" cy="292.6" r="3.2"/>
		<circle id="XMLID_262_" class="st3" cx="212.3" cy="297.8" r="3.2"/>
		<circle id="XMLID_261_" class="st3" cx="198.4" cy="303.8" r="3.2"/>
		<circle id="XMLID_260_" class="st3" cx="184.9" cy="310.6" r="3.2"/>
		<circle id="XMLID_259_" class="st3" cx="171.8" cy="318" r="3.2"/>
		<circle id="XMLID_258_" class="st3" cx="159.1" cy="326.1" r="3.2"/>
		<circle id="XMLID_257_" class="st3" cx="146.8" cy="334.9" r="3.2"/>
		<circle id="XMLID_256_" class="st3" cx="135" cy="344.3" r="3.2"/>
		<circle id="XMLID_255_" class="st3" cx="123.6" cy="354.3" r="3.2"/>
		<circle id="XMLID_254_" class="st3" cx="112.9" cy="364.8" r="3.2"/>
		<circle id="XMLID_253_" class="st3" cx="102.7" cy="376" r="3.2"/>
		<circle id="XMLID_252_" class="st3" cx="93.1" cy="387.7" r="3.2"/>
		<circle id="XMLID_251_" class="st3" cx="84.1" cy="399.8" r="3.2"/>
		<circle id="XMLID_250_" class="st3" cx="75.8" cy="412.3" r="3.2"/>
		<circle id="XMLID_249_" class="st3" cx="68" cy="425.4" r="3.2"/>
		<circle id="XMLID_248_" class="st3" cx="61.1" cy="438.8" r="3.2"/>
		<circle id="XMLID_247_" class="st3" cx="54.9" cy="452.5" r="3.2"/>
		<circle id="XMLID_246_" class="st3" cx="49.3" cy="466.5" r="3.2"/>
		<circle id="XMLID_245_" class="st3" cx="44.6" cy="480.9" r="3.2"/>
		<circle id="XMLID_244_" class="st3" cx="40.5" cy="495.4" r="3.2"/>
		<circle id="XMLID_243_" class="st3" cx="37.3" cy="510.2" r="3.2"/>
		<circle id="XMLID_242_" class="st3" cx="34.8" cy="525" r="3.2"/>
		<circle id="XMLID_241_" class="st3" cx="33" cy="540.1" r="3.2"/>
	</g>
</g>
<g>
	<path class="st0" d="M320.3,289.1c152.4,0,276,123.6,276,276s-123.6,276-276,276s-276-123.6-276-276S167.9,289.1,320.3,289.1z
		 M132,565.1c0,104,84.3,188.3,188.3,188.3s188.3-84.3,188.3-188.3s-84.3-188.3-188.3-188.3S132,461.1,132,565.1z"/>
	<g>
		<path class="st5" d="M335.5,377.4c0,4.6,186.9-3.8,186.9,0c0,3.6-158.2,0.1-158.2,4.5c0,4.1,162.2-4.7,162.2,0
			c0,4.3-145,1.3-145,5.1c0,4,149.3-4.5,149.3,0c0,3.3-135.9,2.2-135.9,5.2c0,3.1,140.2-3.6,140.2,0c0,3.1-130.1,1-130.1,4.7
			c0,3.2,133.8-3.9,133.8,0c0,3.5-124.1,2.1-124.1,5.3c0,3.6,128.1-3.4,128.1,0c0,3.1-119.6,2.5-119.6,5.2c0,3.6,123.3-3.4,123.3,0
			c0,2.9-115.7,1.9-115.7,5.3c0,2.4,119.3-2.5,119.3,0c0,2.7-112.8,2.6-112.8,4.9c0,2.4,116-2.3,116,0c0,3-109.9,1.9-109.9,5.1
			c0,3.2,113.1-3.3,113.1,0c0,2.6-107.9,2.2-107.9,4.6c0,3,110.6-2.3,110.6,0c0,2.9-105.6,2.2-105.6,4.7c0,2.6,108.4-2.8,108.4,0
			c0,2.7-103.7,2.7-103.7,4.9c0,2.8,106.3-2.8,106.3,0c0,2.3-102.1,1.7-102.1,4.7c0,2.4,104.5-2.2,104.5,0c0,2.8-100.5,2-100.5,4.7
			c0,2.2,102.9-2.3,102.9,0c0,2.6-98.8,3.1-98.8,5.3c0,2.8,101.2-2.2,101.2,0c0,2.9-97.2,2.9-97.2,5.4c0,2.6,99.6-2.4,99.6,0
			c0,2.3-96,3.2-96,5.4c0,2.2,98.1-2.3,98.1,0c0,2.6-94.9,2.5-94.9,5.2c0,2,97-2.6,97,0c0,2.5-93.7,3.5-93.7,5.4
			c0,2.1,95.7-2.8,95.7,0c0,2.5-93.1,2.8-93.1,5c0,2.5,94.8-2.6,94.8,0c0,2.7-92.4,2-92.4,4.5c0,2.2,93.9-2.5,93.9,0
			c0,2.4-91.7,2.2-91.7,4.9c0,2.3,93.1-2.1,93.1,0c0,2.3-90.8,2.7-90.8,5.1c0,2.3,92.3-2.3,92.3,0c0,2.3-90.3,2.7-90.3,5.1
			c0,2.2,91.7-2.1,91.7,0c0,2.5-89.7,2.9-89.7,5.4c0,2.1,90.9-1.9,90.9,0c0,2.3-89.2,2.8-89.2,5.3c0,2,90.4-2.2,90.4,0
			c0,2.5-88.8,3.5-88.8,5.4c0,2.4,89.8-2.5,89.8,0c0,2.6-88.3,3.5-88.3,5.5c0,2.2,89.3-2.5,89.3,0c0,2.6-88.1,2.9-88.1,5.3
			c0,2,89-2.1,89,0c0,2.5-88,2.6-88,4.9c0,1.8,88.6-1.9,88.6,0c0,1.8-87.7,2.6-87.7,4.6c0,1.9,88.3-2.2,88.3,0
			c0,1.9-87.5,3-87.5,5.5c0,2,88.1-2,88.1,0c0,1.9-87.4,2.8-87.4,5.3c0,2.2,87.8-1.8,87.8,0c0,2.4-87.4,2.2-87.4,4.6
			c0,2.3,87.7-2.4,87.7,0c0,2.5-87.3,2.8-87.3,5c0,1.8,87.5-2.3,87.5,0c0,2.2-87.4,2.5-87.4,5.1c0,2.3,87.5-1.8,87.5,0
			c0,1.8-87.4,2.5-87.4,4.6c0,2.1,87.5-2.1,87.5,0c0,2.5-87.6,3-87.6,5.2c0,2,87.5-2,87.5,0c0,1.8-87.7,3-87.7,4.9
			c0,2.6,87.5-2.3,87.5,0c0,2-87.8,2.2-87.8,4.7c0,2.6,87.7-2.6,87.7,0c0,2.6-88.1,2.2-88.1,4.6c0,2.5,87.8-2.5,87.8,0
			c0,2.1-88.2,2.4-88.2,4.6c0,2.5,87.9-2,87.9,0c0,2.3-88.6,2.8-88.6,4.8c0,1.8,88.2-2.2,88.2,0c0,2.4-89,3.3-89,5.3
			c0,2.5,88.4-2.1,88.4,0c0,2.3-89.4,3.1-89.4,5.3c0,2.1,88.8-2.5,88.8,0c0,2-89.7,2-89.7,4.6c0,2,89.1-2.7,89.1,0
			c0,1.9-90.5,2.7-90.5,5.3c0,1.9,89.5-2.1,89.5,0c0,2.2-90.7,2.2-90.7,4.5c0,2.6,89.9-2.4,89.9,0c0,2.6-91.6,2.9-91.6,5.3
			c0,2.6,90.5-2.6,90.5,0c0,2.2-92.3,3.5-92.3,5.5c0,2.4,91-2.4,91,0c0,2.4-93,3.1-93,5.2c0,2.2,91.9-2.4,91.9,0
			c0,2.7-93.9,3.1-93.9,5.2c0,2.5,92.4-2,92.4,0c0,2.8-94.9,3.1-94.9,5.3c0,2.5,93.4-2.4,93.4,0c0,2.6-95.9,3.1-95.9,5.3
			c0,2.4,94.3-2.4,94.3,0c0,2.8-96.6,1.9-96.6,4.5c0,2.4,95.1-2.6,95.1,0c0,2.9-97.9,2.5-97.9,5c0,2.3,96.2-2.7,96.2,0
			c0,2.6-99.3,2.5-99.3,5.2c0,2,97.3-2.4,97.3,0c0,2.2-100.2,2.3-100.2,4.5c0,2,98.4-2.9,98.4,0c0,2.1-101.9,2.8-101.9,5.2
			c0,2.9,99.8-2.2,99.8,0c0,2.5-103.8,2.2-103.8,5.3c0,2.2,101.4-2.2,101.4,0c0,3-105.5,2.7-105.5,5.2c0,2.8,103.1-2.4,103.1,0
			c0,2.6-106.9,1.6-106.9,4.5c0,2.4,104.6-2.4,104.6,0c0,2.2-109.1,1.8-109.1,4.9c0,2.6,106.6-3,106.6,0c0,2.6-111.6,2.9-111.6,5.1
			c0,2.2,108.8-2.9,108.8,0c0,2.8-114.1,2.3-114.1,5c0,3.1,111.2-2.4,111.2,0c0,3.1-117.2,1.9-117.2,5.2c0,2.5,114.1-3.3,114.1,0
			c0,3.4-120.2,1.9-120.2,4.9c0,2.9,117.1-3,117.1,0c0,3.7-124.5,1.8-124.5,5.5c0,2.7,121-2.6,121,0c0,3.4-128.8,1.6-128.8,5.2
			c0,2.9,125.1-2.8,125.1,0c0,3.7-132.7,1.2-132.7,4.5c0,3.4,129.5-3,129.5,0c0,2.9-138.1,1.4-138.1,4.6c0,3.2,134.6-3.6,134.6,0
			c0,4.3-145.8,1.1-145.8,5.1c0,3.5,141.8-3.2,141.8,0c0,3.9-154.2,1-154.2,4.6c0,3.8,150.4-3.4,150.4,0c0,5-168.6,0.1-168.6,5.1
			c0,3.5,164.2-3.6,164.2,0"/>
		<path class="st5" d="M302.6,289.8c0,0.9,35.4-0.8,35.4,0c0,1.9-74.6,3.1-74.6,5.3c0,3.2,113.9-2.7,113.9,0
			c0,3.9-133.7,1.2-133.7,5c0,4.3,153.5-4.1,153.5,0c0,3.7-169.2,0.6-169.2,5c0,5.2,184.8-3.7,184.8,0c0,4.6-198-0.8-198,5.1
			c0,4.8,211.1-4.4,211.1,0c0,6.1-221.9-1.1-221.9,4.8c0,6.5,232.7-5.7,232.7,0c0,7-243-1-243,5.1c0,6.8,253.3-5.3,253.3,0
			c0,7.1-262.6-0.8-262.6,5c0,6.9,271.9-8.1,271.9,0c0,6-279.9-1.2-279.9,4.7c0,6.2,287.9-6.8,287.9,0c0,8.5-295-1.7-295,4.6
			c0,8.5,302.2-6.2,302.2,0c0,6.4-309.1-1.6-309.1,4.7c0,7.2,316-8.8,316,0c0,6.5-322.7-2.2-322.7,4.8c0,9.7,329.4-6.8,329.4,0
			c0,10-336.4-2.2-336.4,5.5c0,8.9,343.5-7,343.5,0c0,7.1-349.6-5.3-349.6,5c0,7.6,355.7-8.3,355.7,0c0,10.7-361.2-5-361.2,4.7
			c0,9.5,366.6-7.6,366.6,0c0,9.5-371.9-3.9-371.9,4.8c0,8.3,377.2-10.4,377.2,0c0,8-382.4-6.3-382.4,5c0,8,387.6-10.9,387.6,0
			c0,10.5-392.6-3.8-392.6,5.1c0,8.5,397.6-8.7,397.6,0c0,9.1-402.7-6.3-402.7,5.4c0,4.1,172.8-4.8,172.8,0
			c0,3.9-177.5,0.3-177.5,5.4c0,3.9,154.3-3.6,154.3,0c0,4.1-158.8,2-158.8,5.2c0,4,143.9-3.6,143.9,0c0,3.1-147.9,1.1-147.9,5.1
			c0,3.3,136.2-3.5,136.2,0c0,3.4-140.1,2.2-140.1,5c0,3.2,130.3-3.3,130.3,0c0,3.9-134.1,2.4-134.1,5.4c0,2.7,124.9-2.7,124.9,0
			c0,3.8-128.2,1.9-128.2,4.6c0,3.3,121.3-3.4,121.3,0c0,2.9-124.4,1.6-124.4,4.7c0,3.1,117.9-2.9,117.9,0c0,3.5-121.1,1.5-121.1,5
			c0,2.6,114.7-2.6,114.7,0c0,3.2-117.7,2.2-117.7,5c0,2.9,111.9-2.4,111.9,0c0,2.6-114.6,2.3-114.6,4.8c0,2.5,109.5-3.2,109.5,0
			c0,2.3-112.2,2.1-112.2,4.6c0,2.6,107.5-2.4,107.5,0c0,2.5-110.3,2.1-110.3,5.3c0,3,105.2-2.8,105.2,0c0,2.9-107.8,2-107.8,5
			c0,2.8,103.5-2.9,103.5,0c0,2.5-105.9,2.6-105.9,5.1c0,2.8,101.8-2.9,101.8,0c0,2.5-104.2,2.5-104.2,5.2c0,2.2,100.2-2,100.2,0
			c0,2.2-102.3,2.5-102.3,4.9c0,2.6,98.9-2.7,98.9,0c0,2.3-100.8,2.5-100.8,4.7c0,2.5,97.6-2.3,97.6,0c0,2.6-99.4,2-99.4,4.6
			c0,2.1,96.7-2.5,96.7,0c0,2.1-98.4,2-98.4,5c0,2.5,95.5-2.8,95.5,0c0,2.9-97.1,2.2-97.1,4.6c0,2.2,94.7-2.5,94.7,0
			c0,2.6-96.3,2.8-96.3,4.8c0,2.4,93.8-2.8,93.8,0c0,2.5-95.3,2.6-95.3,5c0,2.3,93-1.9,93,0c0,2.4-94.3,1.8-94.3,4.5
			c0,2.5,92.3-2,92.3,0c0,2.2-93.7,3.4-93.7,5.3c0,2.3,91.6-2.4,91.6,0c0,2-92.8,2.8-92.8,5.1c0,2.7,90.9-2.4,90.9,0
			c0,2.6-91.9,2.4-91.9,4.5c0,2.4,90.4-2.6,90.4,0c0,2.6-91.4,2.4-91.4,5c0,2.4,89.9-2.1,89.9,0c0,2-90.7,2.2-90.7,4.8
			c0,2.7,89.4-2.4,89.4,0c0,1.9-90.3,2.7-90.3,5c0,2.3,89.1-2.2,89.1,0c0,2.3-89.8,3.6-89.8,5.5c0,2.2,88.7-1.9,88.7,0
			c0,1.9-89.2,2.3-89.2,4.5c0,2.6,88.3-1.9,88.3,0c0,2.5-89,3-89,5.5c0,2.5,88.2-2.6,88.2,0c0,2.4-88.6,2.8-88.6,5.4
			c0,2.1,87.8-2.6,87.8,0c0,1.9-88.2,3-88.2,5.2c0,2,87.8-2.2,87.8,0c0,1.9-88,3.4-88,5.2c0,1.8,87.5-2.4,87.5,0
			c0,2.4-87.7,2.9-87.7,4.9c0,2.1,87.5-2.2,87.5,0c0,2.1-87.6,2.5-87.6,4.8c0,2.5,87.5-2.3,87.5,0c0,2.2-87.5,2.9-87.5,5.1
			c0,2.2,87.5-2.5,87.5,0c0,2.2-87.4,2.3-87.4,4.9c0,2.6,87.5-2.5,87.5,0c0,2.6-87.4,2.2-87.4,4.6c0,1.9,87.7-2.3,87.7,0
			c0,2.4-87.3,3.4-87.3,5.3c0,2.6,87.8-2.3,87.8,0c0,1.8-87.4,2.5-87.4,5.1c0,2,87.9-2.4,87.9,0c0,2-87.5,3.2-87.5,5.3
			c0,2.6,88.3-2,88.3,0c0,1.8-87.6,2.8-87.6,4.9c0,1.8,88.4-2.5,88.4,0c0,1.8-87.8,2-87.8,4.6c0,2.1,88.8-2.5,88.8,0
			c0,2.1-88.1,2.6-88.1,4.5c0,2.1,89.1-2.7,89.1,0c0,2.1-88.2,2.8-88.2,5.1c0,1.8,89.5-1.9,89.5,0c0,1.9-88.6,3.1-88.6,5.2
			c0,2.2,89.9-2.4,89.9,0c0,2.3-88.8,3.4-88.8,5.5c0,2.2,90.6-2.5,90.6,0c0,2.6-89.3,3.2-89.3,5.5c0,2.5,91.1-2.5,91.1,0
			c0,2-90,2.4-90,5c0,2.2,91.9-1.9,91.9,0c0,2.4-90.5,2.9-90.5,4.9c0,2.5,92.5-2.8,92.5,0c0,1.9-91.2,2.7-91.2,4.5
			c0,2.5,93.3-2.7,93.3,0c0,2.5-91.8,2.9-91.8,4.9c0,1.9,94.1-2,94.1,0c0,2.8-92.5,2.8-92.5,4.7c0,2.4,95-2.8,95,0
			c0,2.1-93.1,3-93.1,5.4c0,2,96.1-2.1,96.1,0c0,2.4-94.2,2.5-94.2,4.8c0,2.1,97.1-2.1,97.1,0c0,2.7-95.3,2.4-95.3,4.6
			c0,2.3,98.2-2.2,98.2,0c0,2.8-96.2,2.5-96.2,4.9c0,2.2,99.5-2.7,99.5,0c0,2.7-97.5,2.4-97.5,4.6c0,2.1,100.8-2.7,100.8,0
			c0,2.8-98.5,2.7-98.5,5.2c0,2.2,102.4-2.2,102.4,0c0,2.5-100,2.8-100,5c0,2.4,104.2-2.8,104.2,0c0,2.2-101.6,3-101.6,5.1
			c0,3.1,106.1-2.3,106.1,0c0,2.3-103.6,2.2-103.6,4.8c0,2.5,108.1-2.3,108.1,0c0,2.9-104.9,2.8-104.9,5.5c0,3.1,110.7-2.3,110.7,0
			c0,3.1-107.8,2.8-107.8,5c0,2.8,113.4-3.3,113.4,0c0,2.2-110.3,2.2-110.3,4.9c0,2.5,116.1-3.2,116.1,0c0,2.9-112.9,2.5-112.9,5
			c0,3.1,119.5-2.9,119.5,0c0,3-116.3,2-116.3,4.6c0,3.6,123.1-3.6,123.1,0c0,2.6-119.5,1.4-119.5,5c0,2.7,127.5-3.3,127.5,0
			c0,3.2-124.1,1.5-124.1,4.6c0,3,132.4-3.9,132.4,0c0,3.7-128.3,2.1-128.3,5.3c0,3.1,139.1-3.4,139.1,0c0,3.6-134.6,2.6-134.6,5.5
			c0,3.1,148.4-4.4,148.4,0c0,3.2-144.1,1.4-144.1,4.9c0,4.1,160.5-3.6,160.5,0c0,3.2-155.8,1.9-155.8,5.2c0,5.2,187.7-3.9,187.7,0
			c0,5.3-182.9,0.7-182.9,5c0,10.2,394.6-10.4,394.6,0c0,8.7-389.6-5.1-389.6,4.9c0,9.4,384.6-9.5,384.6,0c0,10.4-379.4-4.5-379.4,5
			c0,9.4,374.2-7.9,374.2,0c0,10.8-368.4-4.1-368.4,5.2c0,10.3,362.6-10.4,362.6,0c0,10.4-356.6-2.3-356.6,5.2
			c0,7.1,350.6-9.4,350.6,0c0,8.4-344.3-3.4-344.3,4.9c0,9.7,338.1-7.8,338.1,0c0,7.8-331.6-2.4-331.6,4.9c0,7.4,325.1-9.3,325.1,0
			c0,9.4-318.1-1.5-318.1,5c0,6.5,311-6.5,311,0c0,6.1-303.9-2.4-303.9,4.6c0,7.2,296.9-6.4,296.9,0c0,6.1-288.3-2.6-288.3,5.3
			c0,5.6,279.7-7.2,279.7,0c0,7.4-270.4-0.2-270.4,5.3c0,5.4,261.2-6.5,261.2,0c0,5.7-251.7-2.6-251.7,4.8c0,6.4,242.2-5.9,242.2,0
			c0,4.7-232-0.4-232,4.7c0,5.5,221.8-4.8,221.8,0c0,4.8-210.7-1.6-210.7,4.6c0,5.4,199.7-6,199.7,0c0,4.3-185.4,1.4-185.4,5.1
			c0,4.1,171.1-4.2,171.1,0c0,4.5-154,1.4-154,5c0,3.2,136.9-3.5,136.9,0c0,3-109.7,2.8-109.7,5.5c0,1.7,82.5-1.9,82.5,0"/>
	</g>
	<path class="st6" d="M320.3,289.1c152.4,0,276,123.6,276,276s-123.6,276-276,276s-276-123.6-276-276S167.9,289.1,320.3,289.1z
		 M132,565.1c0,104,84.3,188.3,188.3,188.3s188.3-84.3,188.3-188.3s-84.3-188.3-188.3-188.3S132,461.1,132,565.1z"/>
</g>
<g>
	<path class="st0" d="M580.7,656.7c10.1-28.7,15.6-59.5,15.6-91.6c0-152.4-123.6-276-276-276s-276,123.6-276,276
		c0,32.7,5.7,64.1,16.2,93.2l51.5,9.1l32.1-35.6c-7.8-20.7-12.2-43.2-12.2-66.7c0-104,84.3-188.3,188.3-188.3
		s188.3,84.3,188.3,188.3c0,22.9-4.1,44.8-11.5,65.1l31.5,37.2L580.7,656.7z"/>
	<g>
		<path class="st7" d="M334.9,377.4c0,4.5,187.6-5.3,187.6,0c0,3.7-154.7,1.7-154.7,5.5c0,4.1,159.6-4.3,159.6,0
			c0,3.1-142.1,1.9-142.1,5.4c0,3.2,146.8-3.9,146.8,0c0,3.7-135,1.1-135,4.9c0,3.7,138.9-3.6,138.9,0c0,3.6-127.9,2.7-127.9,5.4
			c0,2.7,132.1-3.9,132.1,0c0,2.9-123.6,1.2-123.6,4.8c0,2.5,127.1-2.9,127.1,0c0,2.6-118.6,3-118.6,5.4c0,2.8,122.4-2.9,122.4,0
			c0,3.3-114.7,2.1-114.7,5.5c0,2.4,118.4-2.4,118.4,0c0,2.5-112.2,1.7-112.2,4.7c0,3.2,115.3-3.3,115.3,0c0,3-109.2,2.7-109.2,5.2
			c0,2.8,112.3-3.3,112.3,0c0,3.1-106.5,2.6-106.5,5.4c0,2.3,109.6-2.3,109.6,0c0,3-104.9,1.9-104.9,4.7c0,2.2,107.6-3,107.6,0
			c0,2.4-102.8,2.7-102.8,5.1c0,2.7,105.4-2.9,105.4,0c0,2.4-100.7,3.3-100.7,5.5c0,2.4,103.5-2.3,103.5,0c0,2.4-99.9,2-99.9,4.5
			c0,2.4,102-2.6,102,0c0,2.6-98.5,2-98.5,4.6c0,2.1,100.5-2.8,100.5,0c0,2.2-96.9,2.5-96.9,5.3c0,2.1,99.2-2,99.2,0
			c0,2.7-95.9,2.1-95.9,4.8c0,2.3,97.8-2.7,97.8,0c0,2.8-94.5,3.3-94.5,5.5c0,2,96.7-2.7,96.7,0c0,2.3-93.7,2.3-93.7,5.1
			c0,2.7,95.5-2.5,95.5,0c0,2.3-93.1,2.5-93.1,4.6c0,2.5,94.7-2.5,94.7,0c0,2.4-92,3.5-92,5.4c0,2.1,93.7-1.9,93.7,0
			c0,2-91.4,3.2-91.4,5.1c0,2,92.8-2.7,92.8,0c0,1.9-90.8,2.7-90.8,4.9c0,1.8,92.2-2.7,92.2,0c0,1.8-90.2,2.8-90.2,5.1
			c0,2,91.5-2.3,91.5,0c0,2.1-89.7,2.5-89.7,5.1c0,2.1,90.8-2.7,90.8,0c0,2.6-89.2,2.7-89.2,4.9c0,2.1,90.4-1.9,90.4,0
			c0,2.1-88.8,3.4-88.8,5.3c0,2.6,89.8-2.1,89.8,0c0,2.2-88.5,2.4-88.5,4.8c0,2.3,89.4-2.4,89.4,0c0,2.2-88.1,2.9-88.1,5.5
			c0,2.6,89-2.1,89,0c0,2.5-87.9,2.9-87.9,5.4c0,2,88.6-1.8,88.6,0c0,2.4-87.8,2.5-87.8,4.6c0,2.5,88.3-2.6,88.3,0
			c0,2.4-87.5,3.6-87.5,5.5c0,2.1,88.1-2.2,88.1,0c0,2.2-87.5,2.5-87.5,5.1c0,2.2,87.9-2,87.9,0c0,2-87.4,2.6-87.4,5.1
			c0,2.1,87.8-1.8,87.8,0c0,2.2-87.5,2.5-87.5,4.8c0,2.1,87.6-2.6,87.6,0c0,2.2-87.4,3.5-87.4,5.5c0,2.6,87.6-2.2,87.6,0
			c0,2.5-87.5,2.4-87.5,4.7c0,2.1,87.6-1.8,87.6,0c0,2.2-87.7,3.3-87.7,5.1c0,2.3,87.6-2.5,87.6,0c0,2.4-87.7,2.6-87.7,4.9
			c0,1.9,87.6-2.6,87.6,0c0,2-88,2.2-88,4.5c0,2.5,87.8-2.4,87.8,0c0,2.4-88.2,3.4-88.2,5.2c0,1.9,87.9-2.5,87.9,0
			c0,1.9-88.5,3.1-88.5,5.2c0,2.3,88.1-2.5,88.1,0c0,2.6-88.8,2.6-88.8,4.6c0,2.5,88.3-2.5,88.3,0c0,2.5-89.1,2.7-89.1,4.6
			c0,1.9,88.5-2.1,88.5,0c0,1.9-89.6,3-89.6,5.1c0,2.5,89-2.6,89,0c0,1.9-90,2.2-90,4.8c0,2.7,89.2-2.2,89.2,0
			c0,2.1-90.4,2.5-90.4,4.6c0,2.2,89.6-1.8,89.6,0c0,2.5-91.1,3.3-91.1,5.4c0,2.5,90.1-1.8,90.1,0c0,1.9-91.8,3.1-91.8,5.1
			c0,1.9,90.7-2.7,90.7,0c0,2.2-92.4,3.1-92.4,5.2c0,1.8,91.3-2.3,91.3,0c0,2.6-88,2.6-88,4.6c0,2.5,86.9-2.5,86.9,0
			c0,2.4-82.4,3.4-82.4,5.3c0,1.8,81-2.3,81,0c0,1.9-76.4,3.8-76.4,5.4c0,1.6,74.9-2,74.9,0c0,1.6-70.4,3.4-70.4,5.3
			c0,1.9,68.7-2.1,68.7,0c0,1.4-64.7,3.4-64.7,4.7c0,1.5,63.2-1.3,63.2,0c0,1.7-58.8,3.8-58.8,5.2c0,1.1,41.5-1.1,41.5,0
			c0,1-37.1,4.3-37.1,5.1c0,0.3,12.1-0.3,12.1,0"/>
		<path class="st7" d="M302.6,289.8c0,0.9,35.4-0.7,35.4,0c0,2.1-74.5,3.3-74.5,5.3c0,3.2,113.7-2.4,113.7,0
			c0,2.8-134.9,1.7-134.9,5.4c0,3.6,156.1-3.6,156.1,0c0,4.2-170.5,0.9-170.5,4.7c0,4.3,184.9-3.7,184.9,0
			c0,5.5-197.1,0.4-197.1,4.7c0,6.2,209.3-4.4,209.3,0c0,5-221.3-1.2-221.3,5.3c0,7,233.3-5,233.3,0c0,6-243.9-0.1-243.9,5.2
			c0,5.1,254.4-6.9,254.4,0c0,5.5-264-0.9-264,5.2c0,6.9,273.6-7.9,273.6,0c0,5.6-281.2-3.2-281.2,4.5c0,8.2,288.9-6.3,288.9,0
			c0,8.7-296.2-3-296.2,4.7c0,7.6,303.6-6.3,303.6,0c0,7.9-311.5-1.9-311.5,5.5c0,8.4,319.5-9.2,319.5,0c0,7-326-3.2-326,4.7
			c0,8.8,332.5-7.7,332.5,0c0,9.2-338.5-3.5-338.5,4.7c0,8.8,344.4-7.4,344.4,0c0,7.7-350.2-2.6-350.2,4.8c0,7.6,356.1-8.6,356.1,0
			c0,9-361.3-4.8-361.3,4.5c0,10.5,366.5-9,366.5,0c0,9.4-372.1-5.4-372.1,5.2c0,9.5,377.7-8.9,377.7,0c0,9.2-382.8-3.5-382.8,4.8
			c0,10,387.9-9.8,387.9,0c0,8-393.1-5.1-393.1,5.4c0,9,398.4-10.5,398.4,0c0,9.6-402.9-5.2-402.9,4.7c0,4.2,174.7-5.2,174.7,0
			c0,5.3-179.1,0.2-179.1,5.1c0,3.3,156-3.2,156,0c0,3.7-160.2,0.2-160.2,4.8c0,4,145.8-3.7,145.8,0c0,4.2-149.7,0.5-149.7,5
			c0,3.1,137.9-4,137.9,0c0,2.9-141.9,2.2-141.9,5.2c0,2.9,131.5-2.9,131.5,0c0,3.4-135.3,1.2-135.3,5.2c0,3.4,126.2-3.3,126.2,0
			c0,3.2-129.4,0.7-129.4,4.6c0,3.1,122.3-3.6,122.3,0c0,3.7-125.9,2.2-125.9,5.4c0,3.1,118.3-2.7,118.3,0
			c0,2.6-121.3,1.5-121.3,4.6c0,2.7,115.3-3.5,115.3,0c0,2.7-118.3,2.1-118.3,4.9c0,3.2,112.5-2.9,112.5,0
			c0,3.2-115.4,2.1-115.4,5.1c0,2.5,109.9-3.1,109.9,0c0,3-112.7,2.1-112.7,4.8c0,2.3,107.8-2.4,107.8,0c0,2.5-110.3,2.3-110.3,4.8
			c0,2.3,105.7-2.7,105.7,0c0,2.6-108.3,1.9-108.3,5c0,2.4,104-2.2,104,0c0,3.2-106.4,2.3-106.4,5.1c0,2.9,102.2-2.2,102.2,0
			c0,2.9-104.5,2.1-104.5,5c0,2.1,100.6-2.2,100.6,0c0,2.8-103,2.8-103,5.4c0,2.4,99.2-2.1,99.2,0c0,2.9-101,2.2-101,4.6
			c0,2.8,97.9-2.7,97.9,0c0,2.6-99.9,2.1-99.9,5c0,2.4,96.8-1.9,96.8,0c0,2.9-98.6,2.9-98.6,5c0,2.5,95.7-2.5,95.7,0
			c0,2.5-97.5,2.7-97.5,5.5c0,2.6,94.6-2.1,94.6,0c0,2.3-96.2,2.4-96.2,4.7c0,2.6,93.8-2.1,93.8,0c0,2.4-95.2,2.6-95.2,4.9
			c0,2.2,93-2.6,93,0c0,2.2-94.4,2.9-94.4,5.1c0,1.8,92.2-2,92.2,0c0,2-93.5,2.2-93.5,4.9c0,2.1,91.6-2.1,91.6,0
			c0,2.3-92.7,2.6-92.7,5c0,2.4,90.9-1.8,90.9,0c0,2.7-92,2.8-92,4.8c0,1.8,90.5-2.5,90.5,0c0,2.2-91.4,2.4-91.4,4.8
			c0,1.9,89.9-2.3,89.9,0c0,1.9-90.8,2.4-90.8,5c0,2.4,89.5-1.9,89.5,0c0,2.2-90.4,3.4-90.4,5.3c0,2.6,89.1-1.9,89.1,0
			c0,2.6-89.8,2.8-89.8,5.3c0,2.1,88.7-2.2,88.7,0c0,2.2-89.4,3.5-89.4,5.3c0,1.9,88.4-2,88.4,0c0,2.5-88.9,2.7-88.9,5.2
			c0,1.9,88.1-2.5,88.1,0c0,1.8-88.5,3-88.5,4.8c0,2.5,87.9-1.9,87.9,0c0,2-88.3,3-88.3,5.3c0,2.4,87.8-1.9,87.8,0
			c0,2.3-88,2.8-88,5.3c0,2.2,87.6-2.5,87.6,0c0,2-87.7,2.5-87.7,4.8c0,2.4,87.6-2.6,87.6,0c0,2.3-87.7,2.4-87.7,5
			c0,2.4,87.6-2.6,87.6,0c0,2.1-87.5,3.2-87.5,5.3c0,2.4,87.6-2.3,87.6,0c0,2.3-87.5,2.7-87.5,4.9c0,2.2,87.6-2.6,87.6,0
			c0,2.5-87.5,2.8-87.5,4.8c0,2.1,87.8-2,87.8,0c0,2.3-87.4,2.3-87.4,4.8c0,1.9,87.9-2.1,87.9,0c0,2-87.5,3.5-87.5,5.4
			c0,1.9,88-2.3,88,0c0,2.4-87.6,2.6-87.6,4.8c0,1.9,88.3-2.1,88.3,0c0,2-87.8,2.8-87.8,4.6c0,2.6,88.5-1.9,88.5,0
			c0,1.9-87.9,2.3-87.9,4.5c0,2.3,88.9-2.6,88.9,0c0,2-88.2,2.3-88.2,4.7c0,2,89.2-1.8,89.2,0c0,2.6-88.4,2.2-88.4,4.7
			c0,2.1,89.5-1.8,89.5,0c0,2-88.6,3.3-88.6,5.2c0,2.6,90.1-2.1,90.1,0c0,2.4-89,2.9-89,5.2c0,2.7,90.6-2,90.6,0
			c0,2.4-89.4,3.2-89.4,5c0,2.4,91.2-2.1,91.2,0c0,2.7-90.1,2.5-90.1,4.7c0,2.7,90.1-2.1,90.1,0c0,2-88.7,2.4-88.7,5.1
			c0,2.3,84-2.5,84,0c0,1.7-82.6,3.2-82.6,5.1c0,1.7,78.1-2,78.1,0c0,2.1-76.4,3.4-76.4,5.2c0,2,71.7-2,71.7,0
			c0,2-70.1,3.2-70.1,4.8c0,2,65.9-1.5,65.9,0c0,1.5-63.8,3.5-63.8,5.1c0,1.4,59.2-1.4,59.2,0c0,0.8-28.2,4.7-28.2,5.4
			c0,0.5,23.3-0.6,23.3,0"/>
	</g>
	<path class="st6" d="M580.7,656.7c10.1-28.7,15.6-59.5,15.6-91.6c0-152.4-123.6-276-276-276s-276,123.6-276,276
		c0,32.7,5.7,64.1,16.2,93.2l51.5,9.1l32.1-35.6c-7.8-20.7-12.2-43.2-12.2-66.7c0-104,84.3-188.3,188.3-188.3
		s188.3,84.3,188.3,188.3c0,22.9-4.1,44.8-11.5,65.1l31.5,37.2L580.7,656.7z"/>
</g>
<g>
	<circle id="Circle_1_" class="st8" cx="320.3" cy="565.1" r="265.4"/>
	<path class="st9" d="M69.1,600.7L72,613l12-0.5l-2-8.6l5.5,0.3l1.9,8.1l17.8-0.5l-3-13l5.5,0.3c1.6,7,3.2,13.6,4.8,20.6l-40.8,1.2
		c1.3,3.8,2.7,7.7,5.2,9.4s6.9,0.8,10.6-2.7l5.5,7c-8.3,3.1-14.5,2.3-18.7-1c-3.4-2.9-5.7-7.2-7.5-12.3c-0.7-2.2-1.2-4-1.7-6.2
		c-0.8-3.6-2.4-10.2-3.6-15L69.1,600.7z"/>
	<path class="st9" d="M95.9,558.9c14.1,4.3,16.8,20.4,1,18.9c-4.2-0.5-8.5-1-12.7-1.5c-7-0.8-1.5,6.9,4.2,8.7l20.1,2.4l0.6,8.5
		L78.7,592l-0.6-8.2l4.6,0.6c-7.8-5.9-8.3-17.3,5.3-15.8c7.5,0.9,5.3,0.7,12.7,1.5c7.5,0.8,1.3-7.3-4.7-8.8L95.9,558.9z"/>
	<path class="st9" d="M97.5,544c12.7,5.2,15.5,23.1-0.9,19.1l-15.5-3.7L81,563l-3.6-1.6l0.1-2.9l-7.7-1.9l-1.4-8.6l9.4,2.2l0.2-4.9
		l3.6,1.9l-0.1,3.8l19.8,4.7c7,1.6,2-7.1-3.8-9.3L97.5,544z"/>
	<path class="st9" d="M74.2,538.1c-1,0.7-2.1,1-3.5,0.9c-1.3-0.2-2.3-0.7-3.2-1.7c-0.8-1.1-1.1-2.2-1-3.6c0.2-1.4,0.7-2.3,1.7-3.1
		c1.1-0.8,2.2-1.2,3.5-1.1c1.4,0.2,2.4,0.8,3.2,1.9c0.8,1.1,1.1,2.2,0.9,3.5C75.8,536.2,75.2,537.3,74.2,538.1z M99.6,527.2
		c12.4,6.1,13.8,24.5-2.5,19.3l-18.5-6l0.9-8.2c9.9,3,15.9,5.1,22.8,7.2c7,2.2,2.7-7.3-2.9-10L99.6,527.2z"/>
	<path class="st9" d="M87.9,499.4l3.4,6.4c-4.5,4-0.8,9.3,3.4,13.3l16.3,6.8l-1.7,8.3l-28.1-12l1.7-8l6.1,2.6
		C83.5,511.7,81.7,506.2,87.9,499.4z"/>
	<path class="st9" d="M112.7,481.5c6.8,7.1,7.4,12.5,5.1,18.9c-3.8,10.7-17.5,6.5-24.3-1.6c-5.3-6.5-4.4-14.4-0.6-16.8
		c3.3-2.2,7.6-0.8,10.5,2c3.9,4.1,4.1,9.5,2.4,14.3c2.8,0.8,6.3,0.8,8.3-1.2c3.5-3.7,1.5-9.5-2.1-13.6L112.7,481.5z M103.2,497.3
		c3.2-8.9-7.3-13.5-8.9-12.4c-1.2,0.9-0.9,3.7,1.6,6.8c1.4,1.8,3.7,3.6,6.7,5.3C102.8,497.1,103,497.3,103.2,497.3z"/>
	<path class="st9" d="M119.6,467.1c9.6,8.9,6.1,25.8-7.5,16.6l-26.6-18l3.1-7.5c8.6,5.8,24.3,16.7,30.1,20.6
		c5.8,3.9,4.3-5.8-0.1-9.7L119.6,467.1z"/>
	<path class="st9" d="M114.3,435.4l17.4,14.5c11.2,9.1,20.2,18.5,7.2,31.9l-2.4-7.8c1.8-0.7,6.5-3.8,3.9-5.9l-9.9-8.3
		c2.9,9.2-2.9,18.8-13.4,10l-14.9-12.4l4.1-7.5c7.2,6,13.2,11,18.4,15.3c5.2,4.2,5.1-3.8,2.1-8.7l-16.6-13.8L114.3,435.4z"/>
	<path class="st9" d="M137.6,404.5c3.9,8,10.7,20.6,14.9,29.6l-5.1,6.6l-23.6-18.5l5.1-6.5l16.1,12.7l-10.4-20L137.6,404.5z"/>
	<path class="st9" d="M177.8,392c4.9,10.7-2.5,23.7-10.4,16.9c2.2,11.2-8.7,19.7-16.7,10.1c-6.3-7.4-9.8-17.6-2.4-25.5l10.7-10.8
		l1.3,1.9c5.2,7.8,8.1,12.5,12,18.3c3.9,5.8,6.4-4.1,3.8-9.5L177.8,392z M156.2,393.5c-7.3-2.1-7.7,7.5-2.3,15.8
		c6.1,9.3,12.9,10.5,10.8-3.3L156.2,393.5z"/>
	<path class="st9" d="M204.6,372.7c4,14.2-8.1,25.2-15.4,11c-1.8-3.9-3.7-7.7-5.6-11.5c-3.1-6.3-6.6,2.5-5.1,8.2l8.9,18.2l-6.8,5.1
		l-13.1-27.7l6.6-4.9l2,4.1c0.8-9.7,10.1-16.4,16.1-4.1c3.3,6.8,2.3,4.9,5.6,11.5c3.4,6.7,6.8-2.9,4.9-8.7L204.6,372.7z"/>
	<path class="st9" d="M194.3,352c-1.2-0.3-2.1-1.1-2.8-2.3c-0.6-1.2-0.8-2.3-0.5-3.6c0.4-1.3,1.1-2.2,2.2-2.9
		c1.2-0.7,2.3-0.8,3.5-0.5c1.3,0.3,2.3,1,2.9,2.2c0.7,1.2,0.8,2.4,0.4,3.7c-0.4,1.3-1.1,2.2-2.3,2.9S195.5,352.3,194.3,352z
		 M218.3,365.8c2.5,13.6-11.3,25.8-17,9.6L195,357l7.1-4.2c3.5,9.7,5.5,15.7,7.9,22.5c2.5,6.9,7.5-2.2,6.2-8.3L218.3,365.8z"/>
	<path class="st9" d="M232,359.9c1.5,13-12.2,23.5-16.5,7.8l-8.5-31l7.2-3.6c2.7,10,7.6,28.5,9.4,35.3c1.9,6.7,7.1-1.6,6.2-7.4
		L232,359.9z"/>
	<path class="st9" d="M246.5,354.3c0.6,13.1-13.8,22.6-17,6.6l-6.3-31.5l7.5-3.1c2,10.2,5.6,28.9,6.9,35.8c1.4,6.8,7.2-1.1,6.7-7
		L246.5,354.3z"/>
	<path class="st9" d="M278.5,344.8c-0.9,11.8-13.6,19.6-17.2,9.9c-3.4,10.9-17,13.1-19.5,0.9c-1.9-9.5-0.1-20.1,10.1-23.5l14.6-4.3
		l0.2,2.3c0.8,9.3,1.1,14.8,1.7,21.8c0.7,6.9,7.6-0.5,7.9-6.5L278.5,344.8z M258.9,335.7c-5.4-5.4-10.4,2.9-9.6,12.8
		c0.9,11.1,6.3,15.4,11.1,2.3L258.9,335.7z"/>
	<path class="st9" d="M335,306.1l-7,45.5l-8.2,0.4l3.6-22.9l-11.6,0.5l-3.5,22.9l-8.3,0.4l6.4-40.4c-4.2,0.6-8.1,1.4-10.7,3.8
		c-2,1.8-1.4,6.7,1.1,10.7l-7.9,4.1c-1.4-8.2,0.1-13.6,3.6-17.1c4.9-5.2,13.5-6.6,22.8-7.1l-2.7,17.4l11.7-0.6l2.7-17.3L335,306.1z"
		/>
	<path class="st9" d="M339.7,330.2c1.3-24,16.1-22.3,28.7-17.4c7.5,2.9,14.4,5.6,18.9,1.5l3.2,0.5c-8.6,8-14,6.8-21.4,3.8
		l-13.7,36.4l-8.2-1.3l14.3-37.7c-5.3-1.4-9.2-2-11.9,0c-2.3,1.5-2.5,6.5-1.3,11.5L339.7,330.2z"/>
	<path class="st9" d="M437.1,333.4l-24.3,39l-7.8-3l15.6-23.6l-24.4,20.3l-7-2.6l12.4-24.7L380,360l-5.3-2l31.4-30.9
		c-3.8-0.8-7.6-1.4-10.3,0.1c-2.1,1.1-3.4,5.8-2.7,10l-8.9,0.6c2-7.6,5.6-12.5,10-14.4c3.6-1.5,7.7-1.6,12.1-0.9
		c3.9,0.6,7.2,1.9,11.4,3.5l-13.8,26.3l26.2-21.5L437.1,333.4z"/>
	<path class="st9" d="M429.6,357.7c3.3-7.4,7.4-11.5,12.1-12.9c7.2-2.2,15.9,1.6,24.7,6.9L435.7,386c5.2,3.9,14.2,14.2,17.9,22.1
		l-12.2-1.1c-1.5-8.3-8.1-19.9-14.5-23.8l28.5-31.6c-3.9-1.8-7.9-3.5-11.2-2.9c-2.9,0.6-5.2,4.8-5.3,10L429.6,357.7z"/>
	<path class="st9" d="M446.8,382.9c0.9-1.3,2-2.5,3.2-3.4l3.7,6c-1,0.6,0,0-1.1,0.7c-0.9,0.5-1.6,1.1-2,1.6
		c-1.2,1.5-0.9,3.1,0.6,4.3c1.4,1.2,2.9,1.8,4.6,2.3c2.3,0.4,4.6,0.2,6.8-0.6c8.9-3.4,9.3-12.8,0.8-16.7l-0.5-0.2
		c-1.6-0.8-3.6-1.2-5.8-1.3l18.9-15.6c6.3,6.3,8.4,7.6,14.9,11.5c-0.5,2-1.1,5.2-1.5,7c-5.3-3.7-11.6-9.1-13.7-11.6l-9,7.5
		c14.4,4,12.6,20.5,1.9,25.3c-3.7,1.7-8.3,2.2-12.5,1.2c-4.1-1-8.1-4-10.2-8.6C444.8,389.2,444.9,385.9,446.8,382.9z"/>
	<path class="st9" d="M505.8,439.1c-11.1,3.9-23.4-4.7-15.9-11.9c-11.4,1.2-18.8-10.4-8.6-17.6c8-5.5,18.4-8.1,25.6-0.1l9.7,11.7
		l-2.1,1.1c-8.2,4.5-13.1,6.9-19.3,10.3c-6.1,3.4,3.5,6.8,9.1,4.7L505.8,439.1z M506.3,417.5c2.8-7.1-6.7-8.4-15.6-3.7
		c-9.8,5.2-11.6,11.9,2.3,11.1L506.3,417.5z"/>
	<path class="st9" d="M522.5,467.5c-14.5,2.7-24.3-10.4-9.6-16.3c4-1.5,8-3,12-4.5c6.6-2.5-1.9-6.8-7.7-5.8l-19,7.2l-4.5-7.3
		l28.7-10.5l4.3,7l-4.3,1.6c9.6,1.7,15.4,11.5,2.6,16.4c-7.1,2.7-5.1,1.8-12,4.5c-7,2.7,2.2,7.1,8.2,5.7L522.5,467.5z"/>
	<path class="st9" d="M534.5,497.5c-12.1,0.7-21.4-11-11.9-15.9c-11.4-2.1-15.2-15.3-3.2-19.3c17.3-5.7,27.2,6.5,25.3,13
		c-0.1,0.3-0.3,0.7-0.5,1.1l14.1-2.9l3.2,7.5c-10.9,2.3-28.3,6.1-35.4,7.5c-7,1.5,1.2,7.4,7.3,6.9L534.5,497.5z M541.1,477
		c4.6-6-4.1-10-13.9-8c-11,2.1-14.6,8-1,11.3c0.3-0.1,0.7-0.2,1-0.3L541.1,477z"/>
	<path class="st9" d="M543.7,544.8c-13.3-3.2-19.2-22.6-12.6-32.9c5.8-9.2,23.2-9,32.6-4c4,2.1,6.9,5,8.7,8.2
		c2.5,4,3.1,8.2,2.1,11.8c-0.9,3-2.9,5.5-6.4,6.7c-3,1-7.2,0.9-12.2-0.9l6.7-6.3c1.6,0.6,3.2,1.5,4.9,1.1c1.9-0.4,2.6-1.9,2.2-3.7
		c-0.4-1.9-2-4.1-4.7-6.2c-7.1-5.2-21.2-7.2-27.6-1.2c-6.5,5.9-4.9,21.4,5.6,24.8L543.7,544.8z"/>
	<path class="st9" d="M566.4,561.9c2.6,0.9,7.5,1.9,7.9-2.7c0-1.7-0.6-3.6-1.8-5.3c-1.3-1.7-4-2.9-5.8-2.5s-2.1,0.5-3.4,1.7
		c-1.1,1-2.7,3.1-3.8,5.1c-1.3,2.2-2.6,4.5-4.1,6.2c-1.3,1.8-3,3.2-5.3,3.8c-18.5,4.8-24.7-27.2-10.4-30.2c4.4-0.9,9.6,0.8,12,5.2
		l-5.4,5.8c-2-4.5-5.1-6.3-7.4-5.3c-2.8,1.1-3.5,6.1-1.3,10.2c1,2.1,3,4,5.9,4.7c3.2,1,5.7-1.8,7.3-4c1.6-2.4,2.4-3.8,3.8-5.9
		c1.5-2.1,3.7-4.3,5.6-5.5c5.2-3.2,11.8-2.3,15.3,3.7c1.9,3.4,2.8,7.1,2.6,10.9c-0.3,5.4-2.7,9.9-7.2,11.7c-2.2,0.8-4.8,1-7.7,0.5
		L566.4,561.9z"/>
	<path class="st9" d="M564.3,597.4c2.5,1.3,7.1,2.9,8.2-1.5c0.3-1.7-0.1-3.7-1.1-5.5c-1-1.9-3.5-3.4-5.4-3.3
		c-1.9,0.1-2.1,0.2-3.6,1.2c-1.3,0.8-3.1,2.7-4.5,4.5c-1.6,2-3.2,4-5,5.6c-1.6,1.6-3.4,2.8-5.8,3c-19,2.1-20.6-30.4-6-31.3
		c4.5-0.2,9.4,2.2,11.2,6.9l-6.1,5c-1.3-4.8-4.1-6.9-6.5-6.3c-2.9,0.7-4.4,5.6-2.8,9.9c0.7,2.2,2.4,4.4,5.2,5.5c3,1.4,5.9-1,7.8-3
		c1.9-2.2,3-3.5,4.6-5.3c1.8-1.8,4.3-3.7,6.3-4.6c5.6-2.4,12-0.6,14.6,5.9c1.4,3.6,1.7,7.4,1,11.2c-1.1,5.3-4.1,9.4-8.8,10.6
		c-2.3,0.5-4.9,0.3-7.7-0.6L564.3,597.4z"/>
	<path class="st9" d="M530.8,606.1c2-2.4,5.1-3.9,8.6-3.5c1.5,0.2,3,0.6,4.4,1.2l-3.8,6.1c-0.9-0.6,0-0.1-1-0.7
		c-1-0.6-1.7-1-2.5-1.1c-1.8-0.4-2.9,0.6-3.4,2.5c-3.4,11.2,12,20.8,16,4.3l3.9,1.2c0.5,6.7,3.8,11.2,8.5,12.5
		c8.3,2.1,7.3-10.9-0.6-9.1c-0.5-1.7-2.1-5.9-2.9-8.2c8.2,1.7,15.3,7.3,12.6,16.9c-0.5,1.8-1.4,3.3-2.4,4.6
		c-1.1,1.2-2.2,1.9-3.6,2.5c-1.3,0.5-2.8,0.8-4.3,0.5c-5.6-0.9-8.4-5.6-10.8-9C541.1,642.6,518.7,620.5,530.8,606.1z"/>
</g>
<g>
	<circle id="Circle_4_" class="st8" cx="320.3" cy="570.1" r="265.4"/>
	<path class="st9" d="M152.2,738c-11.6,3.7-19.9-7.1-11.3-11.5c4.2-2.2,8.1-4.3,11.7-6.1c4.9-2.5-0.7-4.5-5.4-3.8l-16,8l-4.2-5.5
		l28.4-14c-1.4-1.5-2.6-3.6-3.7-5.9l-29.2,14.1l-4.2-5.4l30.3-14.6c-2.6-4.4-5.2-7.2-8.1-6.9c-1.9,0.2-4.6,3.1-6.6,6.4l-6.6-3.5
		c6-5.5,11-7.5,14.8-6.9c5.7,0.9,9.5,6.8,12.3,12.8c2.9,6.2,5.9,12,10.9,12.3l-14.4,7.2c7.8,0.7,12.5,7.5,2.5,12.6
		c-3.1,1.6-6.6,3.5-9.6,5.1c-5.4,2.7,2.4,5.5,7.2,3.9L152.2,738z"/>
	<path class="st9" d="M173.7,755.5c-8.8,4.4-19.8-1.4-14.4-8.1c-9.3,2.2-16.6-6.6-8.9-13.6c6-5.4,14.4-8.7,21.1-2.8l9.3,8.6
		l-1.6,1.1c-6.3,4.6-10.1,7.1-14.9,10.5c-4.7,3.4,3.6,5.2,8,2.9L173.7,755.5z M171.8,737.6c1.5-6.1-6.5-6.2-13.3-1.4
		c-7.5,5.3-8.3,11,3.1,8.9L171.8,737.6z"/>
	<path class="st9" d="M185.6,763.5c-9.7,6-23.1-0.7-12.5-9.9l10-8.7l-2.4-1.8l2.8-1.7l1.9,1.5l5-4.3l6.5,3.2l-6,5.3l3.2,2.5l-3,1.5
		l-2.5-1.9l-12.8,11.1c-4.5,3.9,3.8,4.8,8.1,2L185.6,763.5z"/>
	<path class="st9" d="M227.5,788c-8.7,7.5-21.5,2.2-14.3-6.6c2.5-3,5.1-6.2,7.9-9.6c3.8-4.4-3-3.3-6.8-0.1c-0.1,0.1-0.2,0.1-0.3,0.3
		c-1,1.2-9.4,11.7-10.2,12.7l-5.8-3.2c5-6.2,8.9-11.1,12.4-15.4c3.4-4.2-2.6-3.9-6.4-1.2c-0.1,0-0.1,0.1-0.2,0.1l-11.3,13.4l-6-3.3
		l16.4-19.5l6,3.3l-2.2,2.7c5.8-2.3,12.4,0.7,9.5,6.9c8-3.7,16.2,0.1,8.4,9.3l-2.8,3.5c-1.4,1.7-1.5,1.8-4.1,5
		c-2.6,3.1,4.4,4.1,8.1,0.8L227.5,788z"/>
	<path class="st9" d="M244.5,793.6c-6.3,5.2-10.8,5.4-16,3.1c-8.6-3.8-4.3-15,2.8-20.1c5.7-4,12.2-2.8,14,0.5
		c1.6,2.9,0.2,6.4-2.3,8.6c-3.6,3-8.1,2.9-12,1.1c-0.9,2.2-1.1,5.2,0.5,7c2.9,3.1,7.8,1.8,11.4-0.9L244.5,793.6z M231.9,784.8
		c7.2,3.2,11.6-5.3,10.8-6.7c-0.6-1.1-3-1-5.8,1c-1.6,1.1-3.2,2.8-4.8,5.2C232.1,784.4,232,784.6,231.9,784.8z"/>
	<path class="st9" d="M273.7,801.8c-5.8,7.9-18.3,7.8-16.5-0.7c-7.3,6.2-17.8,1.7-14.1-8.1c2.9-7.6,8.9-14.2,17.6-12.1l12.2,3.4
		l-0.9,1.7c-3.6,6.9-5.8,10.9-8.5,16.2c-2.6,5.2,5.6,3,8.5-1L273.7,801.8z M263.8,786.7c-1.4-6.2-8.6-2.6-12.5,4.7
		c-4.3,8.2-2.4,13.6,6.8,6.5L263.8,786.7z"/>
	<path class="st9" d="M301.6,805.5c-6.1,10.7-19.7,9.8-15.5-2.8c1.2-3.3,2.4-6.7,3.6-10.1c2-5.5-5.3-2.5-7.9,1.7l-5.7,15.9l-7-1.1
		l8.9-23.9l6.8,1.1l-1.3,3.6c6.3-5.2,15.6-3.5,11.8,7.3c-2.2,5.9-1.6,4.2-3.6,10.1c-2,5.9,5.7,2.4,8-2.1L301.6,805.5z"/>
	<path class="st9" d="M315.2,795.7c0.8-1.5,1.8-4.2-1.2-4.6c-1.1-0.3-2.6,0-3.5,0.7c-1.6,0.6-2.5,2-2.4,3c0.1,1.1,0.2,1.3,0.8,2
		c0.8,0.8,2,1.7,3.5,2.6c1.3,0.7,2.7,1.7,3.9,2.6c1.1,1,1.8,1.9,2.2,3.2c2.1,10.5-20.2,11.9-21.3,3.7c-0.3-2.4,1.4-5.1,4.4-6.2
		l3.5,3.3c-3.1,0.8-4.6,2.4-4,3.7c0.6,1.7,3.9,2.4,6.7,1.4c1.6-0.6,3-1.5,3.7-3c0.8-1.7-0.9-3.2-2.2-4.3c-1.7-1.1-2.7-1.5-3.9-2.6
		c-1.3-0.8-2.7-2.2-3.3-3.5c-2-3-1-6.6,3.5-8.1c2.4-0.9,5-1.1,7.6-0.7c3.7,0.4,6.5,2,7.6,4.6c0.4,1.2,0.4,2.8-0.1,4.3L315.2,795.7z"
		/>
	<path class="st9" d="M362.6,802.5c-3.2,11.9-16.6,14.5-15.7,1.3c0.3-3.6,0.6-7.1,0.9-10.6c0.5-5.8-5.8-1.1-7.2,3.7l-1.5,16.8
		l-7.1,0.7l2.5-25.4l6.8-0.7l-0.4,3.8c4.8-6.6,14.2-7.4,13.3,4.1c-0.6,6.3-0.5,4.5-0.9,10.6c-0.5,6.2,6.1,0.9,7.2-4.1L362.6,802.5z"
		/>
	<path class="st9" d="M384.2,787.8c-1.6,2.2-3.2,4-5,5.3c1,11.4-7.2,17.7-13.4,16.8c-4.9-0.7-7.5-4.5-7.9-9.1
		c-0.5-4.9,1.3-10.4,5.3-14c4-3.6,10.7-5.3,14.3-0.2c0.6,0.8,1.1,2,1.4,3.3c1.8-0.9,3.6-2.2,4.9-3.7L384.2,787.8z M373.6,795.3
		c-1.6,0-3.2-0.3-5.2-1.2l1.8-4c0.8,0.4,1.6,0.7,2.4,0.9c-1.6-3.4-5.3-6-7.3-1.5c-1.7,4-1.6,15.2,3.3,16.7c2.6,0.9,5.5-2.3,5-10.6
		C373.6,795.4,373.6,795.3,373.6,795.3z"/>
	<path class="st9" d="M407.8,757.9l5.8,34c0.4,1.9,0.3,3.8,0.3,5.5c-0.2,3.3-1.2,6.1-2.6,8.2c-4.3,6.1-12.6,7.2-17,1.8
		c1.2-1.8,2.7-4.3,3.6-5.6c3.2,5.9,9.9,6.1,9.8-2.3c0-0.7-0.1-1.6-0.2-2.4l-5.3-32.5c-2.9,1.4-5.8,3.2-7.2,5.4
		c-1.3,2.1,0.2,6,3.5,8.6l-5.3,5.3c-3.4-6.3-3.5-11.6-1.3-15.3C394.7,763.6,401,760.4,407.8,757.9z"/>
	<path class="st9" d="M443.4,759.6c0.6,1.8,1.2,3.5,1.6,5.5c0.3,1.9,0.4,3.9,0.3,5.8c0,1.8-0.1,3.5-0.7,5.2c2.6,0.9,5.3,2.2,8,3.4
		c-1.4,2.3-2.5,4.3-3.8,6.5c-2.1-1.6-4.4-3.4-6.7-4.9c-0.2,0.1-0.2,0.2-0.3,0.3c-1.2,1.5-2.7,2.8-4.5,3.8c-1.2,0.6-2.4,1.2-3.6,1.3
		c-1.1,0.3-2.2,0.2-3.4-0.2c-1.2-0.3-2.2-0.8-3.2-1.7c-1.1-0.9-2.1-2.1-2.9-3.7c-0.7-1.2-1.4-2.5-1.9-4c-2.4-6.4-2.6-12.2-2.2-18.4
		l6.6-4.6c-0.9,8-0.3,13.7,1.3,18.3c2.7,8.4,8,10.9,10.1,6.4c-2.1-1.1-4.1-1.5-5.3-0.5l0.1-1.8c1.6-1.6,3.7-2,6-1.8
		c0.2-1.1,0.2-2.2,0-3.5c-0.1-2.3-0.7-4.8-1.5-7.4c-0.8-2.7-1.9-5.2-3.2-7.4c-3.8-6.5-10.1-5.2-14.2-1.6c-5,4.4-6.9,12.4-1.7,15.4
		l-4.5,6.2c-6.4-8.7-2.5-18,4.1-23.6c7.2-6,18-7.3,23.4,2.1C442,756.3,442.7,757.9,443.4,759.6z"/>
	<path class="st9" d="M471.5,751.5c2.7,9.3-3.9,18.2-9.5,12.4c-0.5,8.4-7.8,13.9-12.9,3.4l-6.8-14.9l5.5-4c3.5,7.5,6,13.1,8.4,18.2
		c2.4,5,4.4-0.5,3.8-5.2c-0.2-0.5-0.5-1-7.6-16.3l5.4-3.9c3.6,7.5,6,12.8,8.5,18.1c2.5,5.3,5.1-1.9,3.5-6.6L471.5,751.5z"/>
	<path class="st9" d="M484.6,739.4c1.8,8-0.1,12.1-4.5,15.7c-7.3,6-15.3-3-16.6-11.6c-1-6.9,3.1-12.1,6.8-12.2
		c3.3-0.1,5.8,2.7,6.6,5.9c1,4.6-1.1,8.5-4.5,11.2c1.6,1.8,4.1,3.3,6.4,2.7c4.1-1.2,5.2-6.1,4.4-10.6L484.6,739.4z M471,746.6
		c6.1-5,0.6-12.8-1-12.7c-1.2,0.1-2.3,2.2-1.8,5.6c0.3,1.9,1.1,4.2,2.5,6.7C470.8,746.3,470.9,746.5,471,746.6z"/>
	<path class="st9" d="M488.8,713.5l-0.5,6c-4.9,0.9-4.7,6.2-3.5,10.9l8.4,12.1l-4.9,5.1l-14.5-21l4.8-4.9l3.2,4.5
		C480.2,720.3,481.4,715.5,488.8,713.5z"/>
	<path class="st9" d="M500.6,695.5l12.2,14.5c7.9,9.1,13.9,18.1,1.3,27.2l-0.8-6.7c1.6-0.3,5.9-2.2,4.1-4.3l-6.9-8.2
		c1.1,8-5.1,15-12.4,6.3l-10.5-12.3l4.4-5.6c5.1,6,9.2,11,12.9,15.2c3.6,4.2,4.7-2.4,2.9-6.9L496.2,701L500.6,695.5z"/>
	<path class="st9" d="M501.5,674.8l17.3,18.6L516,698l-17-16.2L501.5,674.8z M521.2,696.3c1.1-0.2,2,0.1,2.9,0.7s1.5,1.5,1.7,2.6
		c0.2,1.1,0.1,2.1-0.5,3c-0.6,1-1.4,1.5-2.5,1.8c-1.1,0.2-2-0.1-2.9-0.7s-1.5-1.5-1.7-2.6c-0.1-1.1,0-2.1,0.6-3.1
		S520.2,696.6,521.2,696.3z"/>
</g>
<g>
	<g id="XMLID_1_">
		<circle class="st10" cx="320.3" cy="565.1" r="106"/>
		<g>
			<path class="st5" d="M309.4,459.7c0,0.6,21.9-0.5,21.9,0c0,1-45.3,3.9-45.3,5.1c0,1.7,68.8-1.5,68.8,0c0,1.7-81.6,3.7-81.6,5.4
				c0,2.6,94.5-2.8,94.5,0c0,2.7-103.8,2.8-103.8,5.2c0,3.2,113.1-2.3,113.1,0c0,2.4-120.5,1.7-120.5,5.1c0,3.2,127.8-2.9,127.8,0
				c0,3.6-133.9,1.8-133.9,4.9c0,3.7,139.9-3.8,139.9,0c0,3.1-145.5,2.3-145.5,5.3c0,3.7,151.1-4,151.1,0c0,3.3-156,1.4-156,5.3
				c0,4.5,160.9-4.6,160.9,0c0,3.9-165.3,1.6-165.3,5.5c0,3.4,169.7-4.5,169.7,0c0,4.1-173.1,1.4-173.1,4.9c0,4.6,176.5-4.2,176.5,0
				c0,5-179.5,1.1-179.5,4.8c0,4.2,182.6-5.2,182.6,0c0,5.2-185.3-0.1-185.3,4.8c0,4.4,188.1-3.8,188.1,0c0,5-190.2,0.5-190.2,4.5
				c0,4.4,192.4-4.2,192.4,0c0,5-194.5,0.4-194.5,4.8c0,5.4,196.6-4.3,196.6,0c0,5.1-198.6-0.7-198.6,5.2c0,5.8,200.5-4.3,200.5,0
				c0,4.4-202.2,0.5-202.2,5.4c0,4.9,203.8-6,203.8,0c0,4.5-205.2,0.3-205.2,5.2c0,5.6,206.5-4.9,206.5,0c0,5.4-207.5,0.1-207.5,4.8
				c0,5,208.5-4.2,208.5,0c0,5.2-209.3,0.1-209.3,5.1c0,4.6,210-4.6,210,0c0,5.4-210.7-0.3-210.7,5.5c0,5.7,211.3-5.8,211.3,0
				c0,4.7-211.5-0.1-211.5,5.4c0,4.7,211.8-6.1,211.8,0c0,5.7-211.8-0.4-211.8,5.4c0,6.1,211.8-5.7,211.8,0
				c0,5.3-211.6-0.8-211.6,4.5c0,4.3,211.4-4.7,211.4,0c0,4.3-211-0.1-211,5.1c0,6.1,210.5-4.8,210.5,0c0,4.6-209.9-0.4-209.9,4.5
				c0,5.7,209.4-5.2,209.4,0c0,5.8-208.5-0.3-208.5,4.6c0,6.2,207.6-4.4,207.6,0c0,6-206.7-1.3-206.7,4.5c0,5.8,205.7-4.2,205.7,0
				c0,5.6-204.2-0.2-204.2,5.2c0,4.2,202.7-5.4,202.7,0c0,5.1-201.1,0.7-201.1,4.7c0,4.8,199.6-4,199.6,0c0,5.7-197.7-0.1-197.7,5
				c0,5.8,195.8-5,195.8,0c0,4.7-193.4,1.4-193.4,5.3c0,4.3,190.9-5.2,190.9,0c0,4.5-188.4-0.2-188.4,4.9c0,5.5,185.9-5.4,185.9,0
				c0,5.4-183-0.4-183,5c0,4.1,180.1-4.5,180.1,0c0,4.7-176.5,1.2-176.5,5.4c0,5.1,172.8-4.2,172.8,0c0,5-169,0.1-169,5
				c0,3.5,165.1-4,165.1,0c0,4.5-160.5,1.7-160.5,5.4c0,4,155.8-4.2,155.8,0c0,4.2-150.4,2.2-150.4,5.4c0,3.3,145-3.1,145,0
				c0,3.6-139.2,1.3-139.2,5.1c0,3,133.4-3.2,133.4,0c0,3-127.3,1.9-127.3,4.6c0,3.6,121.3-2.4,121.3,0c0,2.6-114.1,1.8-114.1,4.6
				c0,3,107-2.7,107,0c0,2.4-96.8,2.4-96.8,5.2c0,2,86.7-2.2,86.7,0c0,1.7-73.9,3-73.9,4.8c0,1.7,61.1-1.6,61.1,0"/>
		</g>
		<circle class="st6" cx="320.3" cy="565.1" r="106"/>
	</g>
	<path class="st9" d="M296.7,634c0-2.2-0.1-8.1-0.1-16c-26,5.7-31.4-12.6-31.4-12.6c-4.2-10.8-10.4-13.7-10.4-13.7
		c-8.5-5.8,0.6-5.7,0.6-5.7c9.4,0.7,14.3,9.7,14.3,9.7c8.3,14.3,21.9,10.2,27.2,7.8c0.8-6.1,3.3-10.2,5.9-12.5
		c-20.7-2.4-42.5-10.4-42.5-46.4c0-10.2,3.6-18.6,9.6-25.2c-1-2.4-4.2-11.9,0.9-24.8c0,0,7.8-2.5,25.7,9.6
		c7.4-2.1,15.4-3.1,23.4-3.2c7.9,0,15.9,1.1,23.4,3.2c17.8-12.1,25.6-9.6,25.6-9.6c5.1,12.9,1.9,22.5,0.9,24.8
		c6,6.6,9.6,14.9,9.6,25.2c0,36-21.8,44-42.6,46.3c3.4,2.9,6.3,8.6,6.3,17.4c0,12.5-0.1,22.7-0.1,25.7
		C343,636.5,296.7,636.5,296.7,634z"/>
</g>
<g>
	<circle id="Circle_2_" class="st8" cx="320.3" cy="565.1" r="174.1"/>
	<path class="st9" d="M367.6,430.3c-6.3,8.4-21.7,6.7-27-1c-4.8-6.9,0.6-19,6.9-24.2c2.7-2.2,5.6-3.4,8.4-3.7c3.5-0.5,6.8,0.3,8.9,2
		c1.9,1.5,3,3.7,2.8,6.5c-0.2,2.4-1.5,5.3-4.3,8.4l-2.4-6.6c0.9-0.9,2-1.8,2.3-3.2c0.3-1.5-0.6-2.4-1.9-2.7
		c-1.5-0.3-3.5,0.2-5.7,1.4c-5.8,3.5-11.4,12.8-9.2,19.1c2.3,6.3,13.6,9.9,19.1,3.5L367.6,430.3z"/>
	<path class="st9" d="M387.5,439.2c-7.4,8.4-19.1,3.7-14.4-3.8c2.3-3.8,4.4-7.1,6.3-10.2c2.7-4.3-2.6-3.3-6-0.4l-8.9,13.8l-5.9-2.3
		l17.9-27.5l5.7,2.3l-6.8,10.5c6.5-3,13.5,0.2,8,8.8c-1.7,2.8-3.5,5.8-5.2,8.4c-2.9,4.8,4.6,3.3,7.6-0.2L387.5,439.2z"/>
	<path class="st9" d="M400.7,447.7c-6.4,4-10.5,3.6-15,0.9c-7.4-4.5-2.1-14.2,4.9-18c5.7-3,11.5-1.1,12.7,2.2
		c1.1,2.8-0.6,5.9-3.1,7.5c-3.7,2.3-7.7,1.6-11.1-0.4c-1,1.9-1.6,4.6-0.4,6.4c2.3,3.2,6.9,2.6,10.5,0.6L400.7,447.7z M390.3,438.1
		c6.2,3.8,11.2-3.4,10.7-4.8c-0.5-1.1-2.7-1.3-5.4,0.2c-1.6,0.8-3.3,2.2-5,4.2C390.5,437.9,390.3,438,390.3,438.1z"/>
	<path class="st9" d="M414.5,458.6c-5,2.2-10.2,2.3-14.4-0.5c-5.5-3.8-3.4-9.9,1.4-14.2c3.3-3,8-5.2,12.3-4.1
		c2.6,0.6,4.4,2.2,4.9,4.2c0.8,2.9-1,6.1-3.7,7.3c-0.4,0.2-0.8,0.3-1.2,0.5l0.5-4.3c2.1-1,2.8-2.3,2.6-2.9s-1.1-1.1-2.3-1.1
		c-3.2-0.1-6.6,2.2-8.7,4.3c-3.4,3.4-4.1,6.3-2.9,8.2c1.9,3,6.5,2.4,10,1.5L414.5,458.6z"/>
	<path class="st9" d="M420.4,475.7l-4.7-4.5l1.8-9.2l-6.5,4.7l-4.6-4.5l27-18.7l4.5,4.3c-4.8,3.4-8.5,5.9-13.3,9.3
		c2.6-0.5,6.1-0.8,8.6-0.2c7.5,1.7,0.8,11.3-10.3,7L420.4,475.7z M431.4,458.5c-2.4-0.7-7.3,0.4-9.9,0.7l-1.9,1.3
		c0.5,0.2,0.9,0.4,1.3,0.5C428.4,463.9,435.4,459.5,431.4,458.5z"/>
	<path class="st9" d="M454.1,494.9c-2.4-0.6-4.5-1.4-6.2-2.5c-9.5,4.7-17.6-0.2-18.9-5.9c-1.1-4.4,1.4-7.9,5.2-9.9
		c4-2,9.3-2.4,13.7-0.2c4.4,2.2,8.2,7.4,4.9,12.2c-0.5,0.8-1.3,1.6-2.4,2.3c1.4,1.3,3.1,2.3,4.8,3L454.1,494.9z M444.1,488.2
		c-0.6-1.4-0.8-2.9-0.7-4.9l4,0.2c-0.1,0.8-0.1,1.6,0.1,2.3c2.4-2.5,3.4-6.6-1.1-6.8c-4-0.1-13.6,3.7-13.2,8.4
		c0.1,2.6,3.8,4,10.8,0.8C444,488.3,444.1,488.3,444.1,488.2z"/>
	<path class="st9" d="M455.7,520.2c-8.8,0.8-15.7-6.8-9.5-10.8c-7.5-1.9-11.1-9.6-0.7-12.2l14.7-3.4l2.6,5.7
		c-7.4,1.8-12.9,3-17.9,4.3c-5,1.3-0.4,4.1,4,4.4c0.5-0.1,1-0.2,16.1-4l2.6,5.6c-7.4,1.9-12.6,3.1-17.8,4.4
		c-5.3,1.3,0.8,4.9,5.3,4.4L455.7,520.2z"/>
	<path class="st9" d="M458.6,531.7c-10.5-0.5-17.1-12.7-4.3-14l12.1-1.3l-0.8-2.6l3,0.2l0.7,2.1l6.1-0.6l3.2,5.8l-7.4,0.8l1.1,3.6
		l-3.1-0.4l-0.9-2.8l-15.5,1.7c-5.5,0.6,0.3,5.6,5.1,5.8L458.6,531.7z"/>
	<path class="st9" d="M462,553.4c-10.3-2.1-14.9-15.2-2-14.5l12.2,0.6l-0.4-2.7l2.9,0.7l0.3,2.2l6.1,0.3l2.3,6.3l-7.4-0.3l0.6,3.7
		l-3-0.9l-0.4-2.9l-15.6-0.7c-5.5-0.2-0.5,5.6,4.2,6.5L462,553.4z"/>
	<path class="st9" d="M462.5,577c-10.6-3.5-11-16.1-2.2-14.8c4.4,0.7,8.2,1.3,11.9,1.8c5,0.8,2-3.7-2-5.6l-16.2-2.7l-0.2-6.3
		l32.3,5.6l0.2,6.1l-12.3-2.1c5.3,4.8,5.2,12.5-4.9,10.9c-3.2-0.5-6.7-1-9.8-1.5c-5.5-0.8-1.3,5.5,3.2,6.9L462.5,577z"/>
	<path class="st9" d="M459.9,592.5c-6.2-4.3-7.5-8.2-6.8-13.4c1.2-8.6,12.1-7.6,18.5-2.6c5,4,5.5,10.1,3.1,12.5
		c-2.1,2.1-5.6,1.8-8.2,0.2c-3.6-2.5-4.6-6.5-4-10.4c-2.2-0.2-4.8,0.4-6,2.2c-2,3.3,0.3,7.3,3.7,9.9L459.9,592.5z M464.6,579.1
		c-1,7.2,7.6,8.9,8.6,7.9c0.8-0.8,0.1-2.9-2.3-4.9c-1.4-1.1-3.3-2.2-5.8-2.9C464.9,579.2,464.7,579.1,464.6,579.1z"/>
	<path class="st9" d="M462.5,616.2c1.1,1.1,3.3,2.6,4.3,0c0.5-0.9,0.6-2.3,0.2-3.3c-0.1-1.5-1.2-2.7-2.1-2.8c-1-0.2-1.2-0.1-2,0.3
		c-0.9,0.5-2,1.4-3.1,2.5c-0.9,1-2.1,2-3.2,2.9c-1.1,0.7-2.1,1.2-3.4,1.2c-9.8-0.6-6-20.7,1.6-19.8c2.2,0.3,4.2,2.4,4.5,5.4
		l-3.8,2.4c0-3-1-4.7-2.4-4.5c-1.6,0.1-3,2.9-2.8,5.7c0.2,1.6,0.7,3,1.8,4c1.3,1.1,3.1-0.1,4.4-1c1.4-1.3,2-2,3.2-2.9
		c1-0.9,2.6-1.9,3.9-2.2c3.1-1.1,6.1,0.7,6.4,5c0.3,2.4-0.2,4.7-1.1,6.9c-1.2,3.2-3.3,5.3-5.9,5.7c-1.2,0.1-2.6-0.3-3.8-1.1
		L462.5,616.2z"/>
	<path class="st9" d="M448.6,644.9c-0.7-2.4-1-4.6-1-6.6c-8.8-5.8-8.7-15.3-4.4-19.2c3.3-3.1,7.5-2.8,11.1-0.5
		c3.8,2.4,6.8,6.9,7.1,11.8c0.3,4.9-2.3,10.8-8,10.4c-0.9-0.1-2-0.3-3.2-0.9c-0.4,1.9-0.4,3.9-0.1,5.6L448.6,644.9z M449.3,633
		c0.9-1.2,2.1-2.2,3.8-3l1.9,3.6c-0.8,0.3-1.4,0.7-2,1.2c3.4,0.8,7.4-0.4,5.3-4.4c-2-3.5-10.1-9.8-14-7.2c-2.1,1.4-1.5,5.3,4.8,9.7
		C449.1,632.9,449.2,632.9,449.3,633z"/>
	<path class="st9" d="M427.5,659.1c-5.2-7.2-2.1-17,4.6-13.7c-2.1-7.5,2.6-14.5,10.2-6.8l10.4,10.9l-3.6,5.1
		c-5.3-5.5-9.1-9.6-12.8-13.3c-3.6-3.7-3.7,1.8-1.8,5.6c0.3,0.3,0.7,0.7,11.5,11.9l-3.5,5c-5.3-5.4-9-9.3-12.8-13.2
		c-3.8-3.9-3.8,3.1-1.1,6.8L427.5,659.1z"/>
	<path class="st9" d="M424,681.4l0.4-5.5c4.5-0.8,4.3-5.7,3.2-10.1l-7.9-11l4.5-4.7l13.5,19.2l-4.3,4.6l-3-4.2
		C431.8,675.1,430.8,679.5,424,681.4z"/>
	<path class="st9" d="M400.4,682.6c-0.9-5.4,0.2-10.5,4-13.8c5-4.4,10.5-0.9,13.4,4.8c2.1,4,3.1,9,1,13c-1.3,2.3-3.2,3.7-5.3,3.7
		c-3,0.1-5.6-2.5-6.2-5.3c-0.1-0.4-0.1-0.8-0.2-1.3l4,1.6c0.5,2.2,1.5,3.3,2.2,3.2c0.7-0.1,1.3-0.8,1.6-2c0.8-3.1-0.5-6.9-2-9.5
		c-2.5-4.1-5.1-5.5-7.3-4.8c-3.4,1.1-4,5.7-3.9,9.3L400.4,682.6z"/>
	<path class="st9" d="M385,691.8c-0.5-7.5,1.8-11,6.3-13.6c7.5-4.4,13.5,4.9,13.5,12.9c-0.1,6.5-4.5,10.6-7.9,10.1
		c-3-0.4-4.9-3.3-5.2-6.3c-0.3-4.3,2.2-7.6,5.7-9.6c-1.2-1.8-3.3-3.6-5.5-3.4c-3.9,0.5-5.6,4.8-5.5,9L385,691.8z M398.4,687.2
		c-6.3,3.7-2.3,11.5-0.9,11.7c1.1,0.1,2.4-1.7,2.4-4.8c0-1.8-0.4-4-1.3-6.4C398.5,687.5,398.5,687.4,398.4,687.2z"/>
	<path class="st9" d="M360.8,701.5c0.8-5.4,3.4-9.9,8.1-12c6.1-2.7,10.2,2.4,11.3,8.7c0.8,4.4,0.2,9.6-3,12.7
		c-1.9,1.8-4.2,2.5-6.2,1.9c-2.9-0.9-4.6-4.1-4.3-7c0-0.5,0.1-0.8,0.2-1.3l3.3,2.7c-0.2,2.3,0.4,3.6,1.1,3.7
		c0.6,0.1,1.5-0.3,2.2-1.4c1.8-2.7,1.6-6.7,1-9.6c-1.1-4.7-3.2-6.8-5.5-6.8c-3.6,0-5.5,4.2-6.6,7.7L360.8,701.5z"/>
	<path class="st9" d="M339.1,715c1.4-2,2.9-3.7,4.5-4.9c-1-10.5,6.4-16.4,12.2-15.6c4.5,0.6,6.9,4.1,7.4,8.3
		c0.5,4.5-1.1,9.6-4.7,12.9c-3.6,3.4-9.8,5-13.1,0.3c-0.6-0.8-1-1.8-1.3-3c-1.7,0.9-3.2,2.1-4.5,3.4L339.1,715z M348.8,708
		c1.5-0.1,3,0.3,4.8,1.1l-1.6,3.7c-0.7-0.4-1.5-0.7-2.2-0.8c1.5,3.2,5,5.5,6.7,1.3c1.5-3.7,1.3-14-3.2-15.4c-2.4-0.8-5,2.1-4.5,9.8
		C348.8,707.9,348.8,708,348.8,708z"/>
	<path class="st9" d="M311.8,707.8c2.7-8.9,13.5-12.5,14.6-4.5c4.5-7.6,15-7,14.7,2.7c-0.4,14-11.8,17.9-15.9,14.9
		c-0.2-0.2-0.4-0.4-0.6-0.7l-1.6,11l-6.2,0.4c1.2-8.5,3-22,3.8-27.5c0.7-5.4-5.6-1-6.9,3.5L311.8,707.8z M324.9,717.9
		c3.1,4.9,8.3-0.4,9.3-7.9c1.3-8.5-2-12.6-7.9-3.6c0,0.2,0,0.6,0,0.8L324.9,717.9z"/>
	<path class="st9" d="M296.2,705.3c4.1-6.3,8-7.7,13.2-7.1c8.6,1,7.9,12,3,18.4c-3.9,5.1-10,5.8-12.4,3.4c-2.2-2.1-1.9-5.6-0.3-8.2
		c2.4-3.6,6.3-4.7,10.3-4.3c0.1-2.2-0.5-4.8-2.4-6c-3.4-1.9-7.3,0.5-9.8,3.9L296.2,705.3z M309.6,709.7c-7.2-0.8-8.8,7.8-7.7,8.8
		c0.9,0.8,2.9,0.1,4.8-2.4c1.1-1.4,2.1-3.4,2.8-5.9C309.6,710,309.6,709.8,309.6,709.7z"/>
	<path class="st9" d="M280.2,720.5c0.5,0.8,0.6,1.7,0.3,2.7c-0.3,1-0.8,1.7-1.7,2.2c-0.9,0.5-1.8,0.6-2.8,0.4
		c-1-0.3-1.7-0.8-2.2-1.7c-0.5-0.9-0.7-1.8-0.4-2.8c0.3-1,0.9-1.7,1.8-2.2s1.8-0.6,2.8-0.3C278.9,719.1,279.7,719.6,280.2,720.5z
		 M274.7,700c6-8.7,20.1-7.8,14.4,4l-6.6,13.4l-6.1-1.6c3.4-7.2,5.6-11.5,8-16.5c2.4-5.1-5.3-2.8-7.9,1.1L274.7,700z"/>
	<path class="st9" d="M260.1,717.2l3.5-5.8l-3.5-1.2l2.2-2.2l2.8,1l16.6-27.7l6.2,2.2c-5.6,9.6-10.9,18.3-16.6,27.7l2.7,1l-2.1,2.2
		l-2.3-0.8c-4.5,6.4-10.3,10.9-19.5,4.4l5.7-2.8c1.5,2.4,2.2,2.9,3.8,2.7L260.1,717.2z"/>
	<path class="st9" d="M230.4,694.2l11.6-13c7.2-8.3,14.7-15,24.6-4.7l-6,1.6c-0.5-1.4-2.7-5.1-4.5-3.1l-6.6,7.3
		c7.1-2,14.3,2.7,7.3,10.5l-9.9,11.1l-5.6-3.3c4.8-5.4,8.8-9.8,12.2-13.7c3.4-3.8-2.8-4-6.6-1.8l-11,12.3L230.4,694.2z"/>
	<path class="st9" d="M213.5,671.9c2.5-0.1,4.7,0.1,6.6,0.5c7.7-7.3,16.9-5,19.7,0.1c2.3,3.9,1,8-2,11c-3.2,3.1-8.2,5-13.1,4.2
		c-4.9-0.8-10-4.7-8.3-10.2c0.3-0.9,0.8-1.9,1.6-2.9c-1.7-0.8-3.7-1.3-5.4-1.4L213.5,671.9z M225,675.3c1,1.1,1.6,2.5,2.1,4.4
		l-3.9,1c-0.1-0.8-0.4-1.6-0.7-2.2c-1.6,3.1-1.3,7.3,3.1,6.1c3.9-1.1,11.9-7.6,10.1-12c-0.9-2.4-4.8-2.7-10.5,2.5
		C225.1,675.2,225,675.3,225,675.3z"/>
	<path class="st9" d="M204.4,648.2c8.2-3.4,17,1.8,12.3,7.5c7.7-0.4,13.5,5.8,4.3,11.4l-13,7.7l-4.2-4.7c6.5-3.9,11.4-6.7,15.8-9.4
		c4.4-2.7-0.9-4-5.1-3c-0.4,0.2-0.8,0.5-14.2,8.6l-4.1-4.6c6.5-4,11.1-6.7,15.7-9.6c4.6-2.8-2.2-4.5-6.4-2.6L204.4,648.2z"/>
	<path class="st9" d="M187.4,617.8c9.2-1.4,17.1,6.9,10.2,11.3c8.8,0.8,12.7,10.6,3.8,14.5c-12.8,5.6-21.2-3.1-20.3-8.1
		c0.1-0.2,0.2-0.5,0.3-0.9l-10.6,3.2l-3-5.5c8.2-2.6,21.2-6.7,26.5-8.3c5.2-1.6-1.4-5.5-6.1-4.8L187.4,617.8z M183.8,634
		c-3.1,4.9,3.8,7.3,11.1,5.1c8.2-2.4,10.6-7.2-0.1-8.7c-0.2,0.1-0.5,0.2-0.7,0.3L183.8,634z"/>
	<path class="st9" d="M173.2,599.6c2.2,1.2,4,2.5,5.3,4c10.4-2.1,17,4.6,16.8,10.5c-0.1,4.6-3.3,7.3-7.5,8.3
		c-4.4,1-9.6-0.1-13.3-3.3c-3.7-3.2-6-9.2-1.7-13c0.7-0.6,1.7-1.2,2.9-1.6c-1-1.6-2.4-3-3.9-4.1L173.2,599.6z M181.2,608.5
		c0.2,1.5,0.1,3-0.6,4.9l-3.9-1.2c0.3-0.7,0.5-1.5,0.5-2.3c-3,1.8-4.9,5.5-0.6,6.8c3.9,1.1,14.1-0.2,14.9-4.8
		c0.5-2.5-2.7-4.8-10.2-3.5C181.3,608.4,181.2,608.5,181.2,608.5z"/>
	<path class="st9" d="M177.6,572.2c11.1,2.2,14.3,14.3,2.2,14.3c-3.3-0.1-6.6-0.1-9.8-0.2c-5.4-0.1-0.6,5.4,3.8,6.3l15.5,0.3
		l1.1,6.4l-23.5-0.7l-1.1-6.2l3.5,0.1c-6.4-4-7.6-12.6,2.9-12.4c5.8,0.1,4.1,0.1,9.8,0.2c5.7,0,0.4-5.7-4.2-6.4L177.6,572.2z"/>
	<path class="st9" d="M163.2,575.1l-1.4,0.4c-0.3-2.1-1.3-2.7-3.1-3.3c0,0.3-0.1,0.6-0.2,0.8c-0.5,1.7-2.3,2.6-4,2.1
		c-1.7-0.5-2.6-2.3-2.1-4.1C153.6,567.4,162.6,569.3,163.2,575.1z"/>
	<path class="st9" d="M178.6,553.7c9.8,3.8,12.2,17.4-0.4,14.7l-11.9-2.6l0,2.8l-2.8-1.2l0-2.2l-6-1.3l-1.2-6.6l7.2,1.5l0.1-3.7
		l2.8,1.4l0,2.9l15.2,3.3c5.4,1.1,1.5-5.5-3-7.1L178.6,553.7z"/>
	<path class="st9" d="M181.4,526.9c8.3,4.3,8.3,8.8,7.2,14.6c-0.3,1.5-0.6,3-1,4.7c-0.1,0.6-0.4,2.1-0.5,2.6l-30.3-12.7l1.2-6
		l9.2,3.8c-0.3-1.2-0.4-2.4-0.1-3.6c0.4-2,1.3-3.4,2.4-4.3c1-0.8,2.3-1.2,3.8-1.4C175.7,524.6,178.7,525.4,181.4,526.9z
		 M172.2,530.5c-1.9,0.4-3.2,1.9-2.5,4.5l15,6.3c5.2-4.5-2.7-8.9-6.9-10.3C175.6,530.4,173.5,530.2,172.2,530.5z"/>
	<path class="st9" d="M190.4,506.9c5.1,5.6,5.4,9.7,3.6,14.6c-3.1,8.1-13.5,4.6-18.6-1.6c-4-5.1-3.1-11.1-0.2-12.9
		c2.6-1.6,5.9-0.5,8,1.7c2.9,3.2,3,7.3,1.6,11c2.1,0.7,4.8,0.7,6.4-0.8c2.7-2.8,1.3-7.2-1.3-10.4L190.4,506.9z M182.8,518.9
		c2.6-6.8-5.4-10.4-6.6-9.7c-1,0.6-0.8,2.8,1.1,5.3c1.1,1.4,2.8,2.9,5,4.2C182.6,518.8,182.7,518.9,182.8,518.9z"/>
	<path class="st9" d="M196.2,496.2c7.1,7.1,3.8,20-6.2,12.5l-19.8-14.7l2.6-5.6c6.4,4.7,18.1,13.5,22.4,16.8
		c4.3,3.1,3.5-4.3,0.2-7.4L196.2,496.2z"/>
	<path class="st9" d="M181.2,485.2c-0.9,0.2-1.8,0.1-2.7-0.5c-0.9-0.5-1.4-1.2-1.7-2.2c-0.2-1-0.1-1.9,0.4-2.8
		c0.5-0.9,1.2-1.4,2.2-1.7c1-0.3,1.9-0.2,2.8,0.3c0.9,0.5,1.4,1.3,1.7,2.3s0.1,1.9-0.4,2.8C182.8,484.3,182.1,484.9,181.2,485.2z
		 M202.4,485.4c6.8,8.1,2.1,21.5-7.7,12.8l-11.1-9.9l3.2-5.5c6,5.2,9.6,8.5,13.7,12.1c4.2,3.7,4.1-4.3,1-7.9L202.4,485.4z"/>
	<path class="st9" d="M212.5,472.3c3.3,6.8,2.4,10.8-0.7,15c-5.3,6.9-14.3,0.6-17.3-6.9c-2.4-6,0.2-11.5,3.5-12.4
		c2.9-0.8,5.8,1.2,7.2,3.9c1.9,3.9,0.8,7.9-1.7,11c1.8,1.3,4.4,2.1,6.3,1.1c3.4-1.9,3.4-6.5,1.7-10.4L212.5,472.3z M201.8,481.6
		c4.4-5.8-2.2-11.5-3.6-11.2c-1.1,0.3-1.6,2.5-0.4,5.4c0.6,1.6,1.8,3.5,3.6,5.4C201.5,481.4,201.7,481.5,201.8,481.6z"/>
	<path class="st9" d="M212.2,451c2.5,6.3,6.9,16.4,9.6,23.6l-4.3,4.7l-16.9-15.6l4.3-4.7l11.5,10.7l-6.7-15.9L212.2,451z"/>
	<path class="st9" d="M236.8,449.9c1.6,7.4-0.1,11.1-4.2,14.4c-6.8,5.5-14.1-2.7-15.3-10.7c-0.9-6.4,2.9-11.2,6.3-11.2
		c3-0.1,5.3,2.5,6.1,5.5c0.9,4.2-1.1,7.8-4.1,10.3c1.5,1.6,3.8,3,5.9,2.5c3.8-1.1,4.8-5.6,4.1-9.7L236.8,449.9z M224.3,456.5
		c5.6-4.6,0.6-11.7-0.9-11.7c-1.1,0.1-2.1,2.1-1.6,5.1c0.2,1.7,1,3.9,2.3,6.1C224.1,456.2,224.2,456.4,224.3,456.5z"/>
	<path class="st9" d="M275.3,429c1.2,10.5-9.5,17.5-12.5,7.5c-1-3.5-2-7.1-3.2-11c-1.4-5.2-4,0.6-3.6,5.1c0,0.1,0,0.2,0,0.4
		c0.4,1.4,4,13.2,4.3,14.4l-5.4,2.7c-2.1-7-3.8-12.5-5.3-17.4c-1.4-4.7-4.3-0.1-4.2,4.2c0,0.1,0,0.1,0,0.2l4.3,15.5l-5.7,2.9
		l-6.3-22.6l5.7-2.9l0.9,3.1c1.3-5.6,6.9-9.1,10.2-3.7c1.3-8.1,8.5-12.2,11.4-1.6l1.2,4c0.6,1.9,0.6,2.1,1.7,5.7
		c0.9,3.6,5.4-1.2,4.8-5.8L275.3,429z"/>
	<path class="st9" d="M290.9,425.9c-1.5,7.4-4.6,10.1-9.7,11.5c-8.4,2.3-11.7-8.2-9.6-16c1.8-6.2,7.2-9,10.3-7.7
		c2.8,1.1,3.8,4.5,3.3,7.5c-0.9,4.3-4.2,6.7-8,7.7c0.7,2.1,2.2,4.3,4.4,4.7c3.9,0.6,6.6-3.2,7.7-7.2L290.9,425.9z M276.8,426.8
		c7-1.9,5.3-10.5,3.9-11c-1.1-0.4-2.8,1-3.6,4c-0.5,1.7-0.7,3.9-0.4,6.5C276.8,426.5,276.8,426.6,276.8,426.8z"/>
	<path class="st9" d="M292,428c0.6-0.8,1.4-1.3,2.4-1.5c1-0.2,1.9,0,2.8,0.6c0.8,0.6,1.3,1.4,1.5,2.4s0,1.9-0.6,2.8
		c-0.6,0.8-1.4,1.3-2.4,1.5c-1,0.2-1.9,0-2.8-0.6c-0.8-0.6-1.3-1.4-1.5-2.4S291.4,428.9,292,428z"/>
</g>
<line class="st11" x1="320.3" y1="376.8" x2="320.3" y2="459.1"/>
</svg>
