<?xml version="1.0" encoding="utf-8"?>
<!-- Generator: Adobe Illustrator 19.0.0, SVG Export Plug-In . SVG Version: 6.00 Build 0)  -->
<svg version="1.1" id="Layer_1" xmlns="http://www.w3.org/2000/svg" xmlns:xlink="http://www.w3.org/1999/xlink" x="0px" y="0px"
	 viewBox="-10.1 234.7 660.9 660.9" style="enable-background:new -10.1 234.7 660.9 660.9;" xml:space="preserve">
<style type="text/css">
	.st0{fill:#4643DD;stroke:#000000;stroke-width:5;}
	.st1{fill:#F7D614;stroke:#000000;stroke-width:5;stroke-miterlimit:10;}
	.st2{fill:#FFFFFF;}
	.st3{fill:#F7D614;stroke:#000000;stroke-width:5;}
	.st4{fill:#E3F49A;stroke:#000000;stroke-width:5;stroke-miterlimit:10;}
</style>
<circle id="Circle_8_" class="st0" cx="320.3" cy="565.1" r="327.9"/>
<g>
	<circle class="st1" cx="139.9" cy="669.2" r="65"/>
	<path class="st2" d="M134.5,707.5c10.8-2.5,18.3-6.6,25.6-14.1c10.1-10.3,16.1-23.7,17.4-38.5c0.4-4.9,0.4-5,4.5-9.3
		c3.6-3.9,5-5.7,4.4-5.7c-0.1,0-1.9,0.5-3.9,1.1c-2.3,0.7-3.7,1-4,0.7s0.4-1.5,1.9-3.3c2.1-2.7,4.2-6.3,3.9-6.6
		c-0.1-0.1-1.1,0.3-2.2,0.9c-1.1,0.6-3.7,1.6-5.7,2.3l-3.7,1.2l-3.5-2.3c-3.9-2.6-5.6-3.3-9-3.7c-7-0.9-14.5,2.6-18.4,8.6
		c-2.3,3.5-3.2,6.8-3.2,11.7c0,3-0.1,4.1-0.5,4.1c-0.3,0-2.3-0.3-4.4-0.6c-11.9-2-21.1-6.7-30.3-15.6c-2.7-2.6-4.9-4.4-5.1-4.2
		c-0.7,0.7-2.1,7.1-2.1,9.6c0,4.8,1.6,9.1,4.9,13c1.8,2.1,2.4,3.4,1.6,3.4c-0.2,0-1.7-0.4-3.4-0.9c-1.7-0.5-3.2-0.8-3.4-0.6
		c-0.5,0.5,1,6.1,2.3,8.7c1.5,3.2,6,7.4,9.7,9.3l2.9,1.4l-3.7,0.1c-3.5,0.1-3.7,0.2-3.7,1.1c0,1.4,2.1,4.5,4.7,7
		c2.3,2.1,6.2,4.3,9.5,5.4c0.9,0.3,1.9,0.7,2.1,0.9c0.6,0.6-5.6,3.9-9.9,5.5c-4.2,1.5-9.3,2.3-13.9,2.3c-1.5,0-2.7,0.2-2.7,0.4
		c0,0.9,9.7,5.2,15,6.6c5.5,1.4,7.8,1.7,15.4,1.5C128.8,708.4,131.9,708.1,134.5,707.5L134.5,707.5z"/>
</g>
<g>
	<circle class="st3" cx="320.3" cy="773.4" r="65"/>
	<path class="st2" d="M294.1,795.3l4.4,4.4c0.6,0.6,1.4,0.9,2.2,0.9c0.8,0,1.7-0.3,2.2-0.9l43.6-43.6c0.6-0.6,0.9-1.4,0.9-2.2
		s-0.3-1.7-0.9-2.2l-4.4-4.4c-0.6-0.6-1.4-0.9-2.2-0.9s-1.6,0.3-2.2,0.9l-43.6,43.6C292.8,792,292.8,794,294.1,795.3z"/>
	<path class="st2" d="M285.4,773.4l-8.7,8.7c-7.2,7.2-7.2,19,0,26.2l8.7,8.7c7.2,7.2,19,7.2,26.2,0l8.7-8.7c6.5-6.5,7.1-16.6,2-23.8
		l-9.2,9.2c0.5,2,0.1,4.3-1.5,5.9l-8.7,8.7c-2.4,2.4-6.3,2.4-8.7,0l-8.7-8.7c-2.4-2.4-2.4-6.3,0-8.7l8.7-8.7c1.6-1.6,3.8-2,5.9-1.5
		l9.2-9.2C301.9,766.3,291.9,766.9,285.4,773.4z"/>
	<path class="st2" d="M355.2,729.7c-7.2-7.2-19-7.2-26.2,0l-8.7,8.7c-6.5,6.5-7.1,16.5-2,23.8l9.2-9.2c-0.5-2-0.1-4.3,1.5-5.9
		l8.7-8.7c2.4-2.4,6.3-2.4,8.7,0l8.7,8.7c2.4,2.4,2.4,6.3,0,8.7l-8.7,8.7c-1.6,1.6-3.8,2-5.9,1.5l-9.2,9.2c7.2,5.1,17.3,4.5,23.8-2
		l8.7-8.7c7.2-7.2,7.2-19,0-26.2L355.2,729.7z"/>
</g>
<g>
	<circle class="st3" cx="500.7" cy="461" r="65"/>
	<g>
		<path class="st2" d="M497.2,513.3c-7.1-0.4-13.9-2.3-20.5-5.7c-2.9-1.5-6.4-3.7-7-4.4c-0.6-0.7-0.6-4.7,0.1-6.6
			c1.3-3.8,4.2-6.4,9-8.3c3.3-1.3,9.4-2.3,14.1-2.3h2.2l2.3,1.6c8.7,6.3,11.1,9.5,11.1,14.7c0,2.9-1.3,6-3.3,8.1
			c-1.3,1.3-4.1,3.1-4.8,3.1C500.1,513.5,498.7,513.4,497.2,513.3z M511.2,511.2c4.1-4.5,6.1-9.8,5.8-15
			c-0.4-6.8-3.1-10.5-13.1-18.3c-3-2.4-3.6-3-4.2-4.3c-1.3-2.9-0.1-5.5,4.2-9c5.2-4.3,7.7-7.8,8.7-12.4c0.5-2.2,0.3-6.8-0.2-9
			c-1-3.7-3.1-7.2-6.2-10.1l-1.7-1.5h3.7h3.7l4-2.2l4-2.2l-13.8-0.1c-8.7,0-14.8,0-16.4,0.2c-12.4,1.2-20.9,7.1-24.1,16.7
			c-2.4,7.1-0.8,14.3,4.2,19.6c2.7,2.9,5.8,4.6,9.7,5.6c1.6,0.4,2.7,0.5,5.5,0.5c1.9,0,3.5,0,3.5,0.1s-0.2,0.7-0.5,1.5
			c-0.4,1.2-0.5,1.8-0.4,3.5c0.1,2.4,0.7,3.8,2.4,6.2c0.6,0.8,1,1.5,0.8,1.5s-1.9,0.2-3.9,0.3c-11.2,1.1-18.3,3.7-23.2,8.5
			c-1.2,1.1-2.3,2.4-2.7,2.8l-0.6,0.8l-1.6-2.1c-3.6-4.8-6-9.4-7.9-15c-6.3-18.6-1.7-39,12-53.1c23.4-24.1,62.8-20.6,81.6,7.4
			c1.4,2.1,3.9,6.8,4.5,8.3l0.2,0.6h-5.1h-5.1v-6.9V427H536h-3.1v6.9v6.9H526h-6.9l0.1,2.9l0.1,2.9l6.8,0.1l6.8,0.1v6.9v6.9h3.1h3.1
			v-6.9v-6.9l6.1,0.1l6.1,0.1l0.4,1.7c1.8,7.5,1.9,16.3,0.1,24c-1.2,5.5-4.2,12.4-7.4,17.2c-7.9,11.9-19.9,19.9-34,22.7l-0.8,0.2
			L511.2,511.2L511.2,511.2z M488.1,465.8c-3-0.6-6.5-3.3-8.6-6.7c-3.8-6.1-5.3-15.2-3.3-20.6c1.1-2.9,3.5-5.4,6.3-6.5
			c2-0.8,5.1-0.9,7.1-0.3c6.1,1.8,11.1,10,12,19.7c0.6,6.6-1.3,11-5.9,13.2C493.2,465.9,490.7,466.3,488.1,465.8z"/>
	</g>
</g>
<circle class="st3" cx="320.3" cy="565.1" r="113.6"/>
<g>
	<circle class="st3" cx="139.9" cy="461" r="65"/>
	<path class="st2" d="M139.9,406.6c-30,0-54.4,24.4-54.4,54.4c0,30,24.4,54.4,54.4,54.4c30,0,54.4-24.4,54.4-54.4
		C194.3,430.9,170,406.6,139.9,406.6z M156,438.6h-7.6c-2.7,0-3.2,1.1-3.2,3.9v6.7H156l-1,11.8h-9.8v35.2h-14v-35h-7.3v-11.9h7.3
		v-9.4c0-8.8,4.7-13.4,15.2-13.4h9.7V438.6z"/>
</g>
<g>
	<circle class="st3" cx="320.3" cy="356.8" r="65"/>
	<path class="st2" d="M337.6,344.8H362v37.6c0,9.2-7.4,16.6-16.5,16.6h-50.4c-9.1,0-16.5-7.4-16.5-16.6v-37.6h24.2
		c-2.5,3.5-3.9,7.8-3.9,12.4c0,11.8,9.5,21.4,21.3,21.4c11.8,0,21.3-9.6,21.3-21.4C341.6,352.6,340.1,348.3,337.6,344.8z M362,331.3
		v10.9h-26.5c-3.9-3.9-9.2-6.4-15.2-6.4c-5.9,0-11.3,2.5-15.2,6.4h-26.4v-10.9c0-5.6,2.8-10.5,7-13.5v17.8h3.4v-19.7
		c0.8-0.3,1.6-0.6,2.4-0.8v20.5h3.4v-20.9c0.1,0,0.3,0,0.4,0h2v20.9h3.4v-20.9h45C354.6,314.7,362,322.1,362,331.3L362,331.3z
		 M354.4,324.3c0-1.5-1.2-2.7-2.6-2.7h-8.9c-1.5,0-2.6,1.2-2.6,2.7v9.2c0,1.5,1.2,2.7,2.6,2.7h8.9c1.5,0,2.6-1.2,2.6-2.7V324.3z
		 M303.8,357.2c0-4.9,2.2-9.4,5.6-12.4c1.2-1.1,2.6-2,4-2.6c2.1-0.9,4.4-1.5,6.8-1.5c2.4,0,4.7,0.5,6.8,1.5c1.5,0.7,2.8,1.6,4,2.6
		c3.4,3,5.6,7.5,5.6,12.4c0,9.1-7.4,16.5-16.4,16.5C311.2,373.7,303.8,366.3,303.8,357.2z M308.2,357.2c0,6.7,5.4,12.2,12.1,12.2
		s12.1-5.5,12.1-12.2S327,345,320.3,345C313.6,345,308.2,350.5,308.2,357.2z"/>
</g>
<g>
	<circle class="st3" cx="500.7" cy="669.2" r="65"/>
	<path class="st2" d="M518.7,629.9c-13.2,0-24,10.8-24,24.2c0,1.9,0.2,3.7,0.6,5.4l-36.6,37v6.1l6,6.1h12l6-6.1v-6.1h6v-6.1h6v-6.1
		h12l6.6-6.7c1.8,0.4,3.6,0.6,5.4,0.6c13.2,0,24-10.8,24-24.2S531.9,629.9,518.7,629.9z M494.6,672.3l-30,30.3v-6.1l30-30.3V672.3z
		 M524.6,654.1c-3.3,0-6-2.7-6-6.1s2.7-6.1,6-6.1s6,2.7,6,6.1S527.9,654.1,524.6,654.1z"/>
</g>
<g>
	<g>
		<ellipse transform="matrix(-0.5 0.866 -0.866 -0.5 1363.4469 343.0136)" class="st4" cx="582.7" cy="565.1" rx="64" ry="63.7"/>
		<ellipse transform="matrix(-0.5 0.866 -0.866 -0.5 1205.1144 435.7781)" class="st4" cx="476.8" cy="565.8" rx="39.5" ry="39.3"/>
		<ellipse transform="matrix(-0.5 0.866 -0.866 -0.5 1236.033 356.6802)" class="st4" cx="515.1" cy="535.2" rx="7.5" ry="7.5"/>
		<ellipse transform="matrix(-0.5 -0.866 0.866 -0.5 257.2509 1338.62)" class="st4" cx="515.1" cy="595" rx="7.5" ry="7.5"/>
		<ellipse transform="matrix(-0.5 0.866 -0.866 -0.5 1305.36 188.2897)" class="st4" cx="598.3" cy="471" rx="30.8" ry="29.9"/>
		<ellipse transform="matrix(-0.5 -0.866 0.866 -0.5 326.578 1507.0105)" class="st4" cx="598.3" cy="659.2" rx="30.8" ry="29.9"/>
		<ellipse transform="matrix(-0.5 0.866 -0.866 -0.5 1377.6007 208.9746)" class="st4" cx="628.5" cy="502.2" rx="12.1" ry="11.7"/>
		<ellipse transform="matrix(-0.5 0.866 -0.866 -0.5 1277.3253 250.8312)" class="st4" cx="566.3" cy="494.1" rx="6.5" ry="6.4"/>
		<ellipse transform="matrix(-0.5 -0.866 0.866 -0.5 298.5434 1444.469)" class="st4" cx="566.3" cy="636.1" rx="6.5" ry="6.4"/>
		<ellipse transform="matrix(-0.5 -0.866 0.866 -0.5 398.8187 1486.3256)" class="st4" cx="628.5" cy="628" rx="12.1" ry="11.7"/>
		<ellipse transform="matrix(-0.5 -0.866 0.866 -0.5 507.0859 1333.2054)" class="st4" cx="638.4" cy="520.2" rx="5" ry="4.9"/>
		<ellipse transform="matrix(-0.5 0.866 -0.866 -0.5 1485.8679 362.0947)" class="st4" cx="638.4" cy="610" rx="5" ry="4.9"/>
		<ellipse transform="matrix(-0.5 0.866 -0.866 -0.5 1114.4716 396.5472)" class="st4" cx="442.8" cy="520" rx="14.8" ry="14.4"/>
		<ellipse transform="matrix(-0.5 -0.866 0.866 -0.5 134.5195 1300.7797)" class="st4" cx="442.8" cy="611.6" rx="14.8" ry="14.4"/>
	</g>
	<g>
		<ellipse transform="matrix(-0.5 0.866 -0.866 -0.5 1088.158 366.2465)" class="st4" cx="438.4" cy="497.2" rx="4.9" ry="4.9"/>
		<ellipse transform="matrix(-0.5 0.866 -0.866 -0.5 1075.8544 388.2373)" class="st4" cx="425.9" cy="504.7" rx="4.9" ry="4.9"/>
	</g>
	<g>
		<ellipse transform="matrix(0.5 0.866 -0.866 0.5 531.7525 -63.1483)" class="st4" cx="320.6" cy="428.9" rx="4.9" ry="4.9"/>
		<ellipse transform="matrix(0.5 0.866 -0.866 0.5 544.4489 -56.0448)" class="st4" cx="320.8" cy="443.5" rx="4.9" ry="4.9"/>
	</g>
	<g>
		<ellipse class="st4" cx="202.5" cy="496.8" rx="4.9" ry="4.9"/>
		<ellipse class="st4" cx="215.2" cy="503.9" rx="4.9" ry="4.9"/>
	</g>
	<g>
		<ellipse transform="matrix(0.5 -0.866 0.866 0.5 -447.0295 491.6276)" class="st4" cx="202.2" cy="633" rx="4.9" ry="4.9"/>
		<ellipse transform="matrix(0.5 -0.866 0.866 0.5 -434.3331 498.7311)" class="st4" cx="214.7" cy="625.5" rx="4.9" ry="4.9"/>
	</g>
	<g>
		<ellipse transform="matrix(-0.5 -0.866 0.866 -0.5 -127.258 1329.0537)" class="st4" cx="320" cy="701.3" rx="4.9" ry="4.9"/>
		<ellipse transform="matrix(-0.5 -0.866 0.866 -0.5 -114.9544 1307.0629)" class="st4" cx="319.8" cy="686.7" rx="4.9" ry="4.9"/>
	</g>
	<g>
		<ellipse class="st4" cx="438.1" cy="633.4" rx="4.9" ry="4.9"/>
		<ellipse class="st4" cx="425.4" cy="626.3" rx="4.9" ry="4.9"/>
	</g>
	<g>
		<ellipse transform="matrix(0.5 0.866 -0.866 0.5 518.339 -222.0864)" class="st4" cx="451.5" cy="337.9" rx="64" ry="63.7"/>
		<ellipse transform="matrix(0.5 0.866 -0.866 0.5 571.8966 -130.6731)" class="st4" cx="399.1" cy="429.9" rx="39.5" ry="39.3"/>
		<ellipse transform="matrix(0.5 0.866 -0.866 0.5 526.2294 -148.5239)" class="st4" cx="391.7" cy="381.5" rx="7.5" ry="7.5"/>
		<ellipse class="st4" cx="443.6" cy="411.4" rx="7.5" ry="7.5"/>
		<ellipse transform="matrix(0.5 0.866 -0.866 0.5 429.0091 -188.5499)" class="st4" cx="377.8" cy="277.3" rx="30.8" ry="29.9"/>
		<ellipse class="st4" cx="540.8" cy="371.4" rx="30.8" ry="29.9"/>
		<ellipse transform="matrix(0.5 0.866 -0.866 0.5 440.9515 -230.2581)" class="st4" cx="419.9" cy="266.7" rx="12.1" ry="11.7"/>
		<ellipse transform="matrix(0.5 0.866 -0.866 0.5 465.1174 -172.3641)" class="st4" cx="381.8" cy="316.6" rx="6.5" ry="6.4"/>
		<ellipse class="st4" cx="504.7" cy="387.6" rx="6.5" ry="6.4"/>
		<ellipse class="st4" cx="528.9" cy="329.7" rx="12.1" ry="11.7"/>
		<ellipse class="st4" cx="440.5" cy="267.2" rx="5" ry="4.9"/>
		<ellipse transform="matrix(0.5 0.866 -0.866 0.5 529.3555 -292.7662)" class="st4" cx="518.2" cy="312.1" rx="5" ry="4.9"/>
		<ellipse transform="matrix(0.5 0.866 -0.866 0.5 549.2466 -78.3404)" class="st4" cx="342.5" cy="436.5" rx="14.8" ry="14.4"/>
		<ellipse class="st4" cx="421.8" cy="482.3" rx="14.8" ry="14.4"/>
	</g>
	<g>
		<ellipse class="st4" cx="189.1" cy="337.9" rx="64" ry="63.7"/>
		<ellipse class="st4" cx="242.7" cy="429.3" rx="39.5" ry="39.3"/>
		<ellipse class="st4" cx="197" cy="411.4" rx="7.5" ry="7.5"/>
		<ellipse transform="matrix(-0.5 0.866 -0.866 -0.5 703.649 356.6802)" class="st4" cx="248.9" cy="381.5" rx="7.5" ry="7.5"/>
		<ellipse class="st4" cx="99.8" cy="371.4" rx="30.8" ry="29.9"/>
		<ellipse transform="matrix(-0.5 0.866 -0.866 -0.5 634.322 188.2897)" class="st4" cx="262.8" cy="277.3" rx="30.8" ry="29.9"/>
		<ellipse class="st4" cx="111.7" cy="329.7" rx="12.1" ry="11.7"/>
		<ellipse class="st4" cx="135.9" cy="387.6" rx="6.5" ry="6.4"/>
		<ellipse transform="matrix(-0.5 0.866 -0.866 -0.5 662.3566 250.8312)" class="st4" cx="258.8" cy="316.6" rx="6.5" ry="6.4"/>
		<ellipse transform="matrix(-0.5 0.866 -0.866 -0.5 562.0812 208.9746)" class="st4" cx="220.7" cy="266.7" rx="12.1" ry="11.7"/>
		<ellipse transform="matrix(-0.5 0.866 -0.866 -0.5 453.8141 362.0947)" class="st4" cx="122.4" cy="312.1" rx="5" ry="4.9"/>
		<ellipse class="st4" cx="200.1" cy="267.2" rx="5" ry="4.9"/>
		<ellipse class="st4" cx="220" cy="481.6" rx="14.8" ry="14.4"/>
		<ellipse transform="matrix(-0.5 0.866 -0.866 -0.5 826.3805 394.5205)" class="st4" cx="299.3" cy="435.8" rx="14.8" ry="14.4"/>
	</g>
	<g>
		<ellipse transform="matrix(0.5 -0.866 0.866 0.5 -460.443 332.6894)" class="st4" cx="57.9" cy="565.1" rx="64" ry="63.7"/>
		<ellipse transform="matrix(0.5 -0.866 0.866 0.5 -406.8854 424.1028)" class="st4" cx="163.8" cy="564.4" rx="39.5" ry="39.3"/>
		<ellipse transform="matrix(0.5 -0.866 0.866 0.5 -452.5526 406.252)" class="st4" cx="125.5" cy="595" rx="7.5" ry="7.5"/>
		<ellipse transform="matrix(0.5 0.866 -0.866 0.5 526.2294 158.8481)" class="st4" cx="125.5" cy="535.2" rx="7.5" ry="7.5"/>
		<ellipse transform="matrix(0.5 -0.866 0.866 0.5 -549.7729 366.226)" class="st4" cx="42.3" cy="659.2" rx="30.8" ry="29.9"/>
		<ellipse transform="matrix(0.5 0.866 -0.866 0.5 429.0091 198.8741)" class="st4" cx="42.3" cy="471" rx="30.8" ry="29.9"/>
		<ellipse transform="matrix(0.5 -0.866 0.866 0.5 -537.8305 324.5178)" class="st4" cx="12.1" cy="628" rx="12.1" ry="11.7"/>
		<ellipse transform="matrix(0.5 -0.866 0.866 0.5 -513.6646 382.4117)" class="st4" cx="74.3" cy="636.1" rx="6.5" ry="6.4"/>
		<ellipse transform="matrix(0.5 0.866 -0.866 0.5 465.1174 182.6883)" class="st4" cx="74.3" cy="494.1" rx="6.5" ry="6.4"/>
		<ellipse transform="matrix(0.5 0.866 -0.866 0.5 440.9515 240.5823)" class="st4" cx="12.1" cy="502.2" rx="12.1" ry="11.7"/>
		<ellipse transform="matrix(0.5 0.866 -0.866 0.5 529.3555 303.0904)" class="st4" cx="2.2" cy="610" rx="5" ry="4.9"/>
		<ellipse transform="matrix(0.5 -0.866 0.866 0.5 -449.4265 262.0097)" class="st4" cx="2.2" cy="520.2" rx="5" ry="4.9"/>
		<ellipse transform="matrix(0.5 -0.866 0.866 0.5 -429.5354 476.4354)" class="st4" cx="197.8" cy="610.2" rx="14.8" ry="14.4"/>
		<ellipse transform="matrix(0.5 0.866 -0.866 0.5 548.0765 87.9891)" class="st4" cx="197.8" cy="518.6" rx="14.8" ry="14.4"/>
	</g>
	<g>
		<ellipse transform="matrix(-0.5 -0.866 0.866 -0.5 -402.547 1352.2865)" class="st4" cx="189.1" cy="792.3" rx="64" ry="63.7"/>

			<ellipse transform="matrix(-0.5 -0.866 0.866 -0.5 -244.2144 1259.5221)" class="st4" cx="241.5" cy="700.3" rx="39.5" ry="39.3"/>
		<ellipse transform="matrix(-0.5 -0.866 0.866 -0.5 -275.1329 1338.62)" class="st4" cx="248.9" cy="748.7" rx="7.5" ry="7.5"/>
		<ellipse class="st4" cx="197" cy="718.8" rx="7.5" ry="7.5"/>

			<ellipse transform="matrix(-0.5 -0.866 0.866 -0.5 -344.4601 1507.0105)" class="st4" cx="262.8" cy="852.9" rx="30.8" ry="29.9"/>
		<ellipse class="st4" cx="99.8" cy="758.8" rx="30.8" ry="29.9"/>

			<ellipse transform="matrix(-0.5 -0.866 0.866 -0.5 -416.7007 1486.3256)" class="st4" cx="220.7" cy="863.5" rx="12.1" ry="11.7"/>
		<ellipse transform="matrix(-0.5 -0.866 0.866 -0.5 -316.4254 1444.469)" class="st4" cx="258.8" cy="813.6" rx="6.5" ry="6.4"/>
		<ellipse class="st4" cx="135.9" cy="742.6" rx="6.5" ry="6.4"/>
		<ellipse class="st4" cx="111.7" cy="800.5" rx="12.1" ry="11.7"/>
		<ellipse class="st4" cx="200.1" cy="863" rx="5" ry="4.9"/>
		<ellipse transform="matrix(-0.5 -0.866 0.866 -0.5 -524.9679 1333.2054)" class="st4" cx="122.4" cy="818.1" rx="5" ry="4.9"/>

			<ellipse transform="matrix(-0.5 -0.866 0.866 -0.5 -153.5716 1298.7529)" class="st4" cx="298.1" cy="693.7" rx="14.8" ry="14.4"/>
		<ellipse class="st4" cx="218.8" cy="647.9" rx="14.8" ry="14.4"/>
	</g>
	<g>
		<ellipse class="st4" cx="451.5" cy="792.3" rx="64" ry="63.7"/>
		<ellipse class="st4" cx="397.9" cy="700.9" rx="39.5" ry="39.3"/>
		<ellipse class="st4" cx="443.6" cy="718.8" rx="7.5" ry="7.5"/>
		<ellipse transform="matrix(0.5 -0.866 0.866 0.5 -452.5526 713.624)" class="st4" cx="391.7" cy="748.7" rx="7.5" ry="7.5"/>
		<ellipse class="st4" cx="540.8" cy="758.8" rx="30.8" ry="29.9"/>
		<ellipse transform="matrix(0.5 -0.866 0.866 0.5 -549.7729 753.65)" class="st4" cx="377.8" cy="852.9" rx="30.8" ry="29.9"/>
		<ellipse class="st4" cx="528.9" cy="800.5" rx="12.1" ry="11.7"/>
		<ellipse class="st4" cx="504.7" cy="742.6" rx="6.5" ry="6.4"/>
		<ellipse transform="matrix(0.5 -0.866 0.866 0.5 -513.6646 737.4642)" class="st4" cx="381.8" cy="813.6" rx="6.5" ry="6.4"/>
		<ellipse transform="matrix(0.5 -0.866 0.866 0.5 -537.8305 795.3582)" class="st4" cx="419.9" cy="863.5" rx="12.1" ry="11.7"/>
		<ellipse transform="matrix(0.5 -0.866 0.866 0.5 -449.4265 857.8662)" class="st4" cx="518.2" cy="818.1" rx="5" ry="4.9"/>
		<ellipse class="st4" cx="440.5" cy="863" rx="5" ry="4.9"/>
		<ellipse class="st4" cx="420.6" cy="648.6" rx="14.8" ry="14.4"/>
		<ellipse transform="matrix(0.5 -0.866 0.866 0.5 -430.7055 642.7649)" class="st4" cx="341.3" cy="694.4" rx="14.8" ry="14.4"/>
	</g>
	<g>
		<ellipse transform="matrix(-0.5 -0.866 0.866 -0.5 250.6393 1575.3763)" class="st4" cx="580.1" cy="715.3" rx="24.5" ry="23.8"/>
		<ellipse transform="matrix(-0.5 -0.866 0.866 -0.5 308.8145 1574.3828)" class="st4" cx="608.9" cy="698" rx="9.3" ry="9.1"/>
		<ellipse transform="matrix(-0.5 -0.866 0.866 -0.5 220.3165 1626.7885)" class="st4" cx="579.8" cy="749.8" rx="9.3" ry="9.1"/>
	</g>
	<g>
		<ellipse class="st4" cx="580.3" cy="415.2" rx="24.5" ry="23.8"/>
		<ellipse class="st4" cx="579.7" cy="381.6" rx="9.3" ry="9.1"/>
		<ellipse class="st4" cx="610" cy="432.7" rx="9.3" ry="9.1"/>
	</g>
	<g>
		<ellipse transform="matrix(-0.5 0.866 -0.866 -0.5 710.2607 119.9237)" class="st4" cx="320.5" cy="265" rx="24.5" ry="23.8"/>
		<ellipse transform="matrix(-0.5 0.866 -0.866 -0.5 652.0854 120.9174)" class="st4" cx="291.1" cy="248.7" rx="9.3" ry="9.1"/>
		<ellipse transform="matrix(-0.5 0.866 -0.866 -0.5 740.5835 68.5117)" class="st4" cx="350.5" cy="248" rx="9.3" ry="9.1"/>
	</g>
	<g>
		<ellipse transform="matrix(0.5 0.866 -0.866 0.5 389.538 155.0309)" class="st4" cx="60.5" cy="414.9" rx="24.5" ry="23.8"/>
		<ellipse transform="matrix(0.5 0.866 -0.866 0.5 390.1117 188.6184)" class="st4" cx="31.7" cy="432.2" rx="9.3" ry="9.1"/>
		<ellipse transform="matrix(0.5 0.866 -0.866 0.5 359.8553 137.524)" class="st4" cx="60.8" cy="380.4" rx="9.3" ry="9.1"/>
	</g>
	<g>
		<ellipse class="st4" cx="60.3" cy="715" rx="24.5" ry="23.8"/>
		<ellipse class="st4" cx="60.9" cy="748.6" rx="9.3" ry="9.1"/>
		<ellipse class="st4" cx="30.6" cy="697.5" rx="9.3" ry="9.1"/>
	</g>
	<g>
		<ellipse transform="matrix(0.5 -0.866 0.866 0.5 -589.244 709.8067)" class="st4" cx="320.1" cy="865.2" rx="24.5" ry="23.8"/>
		<ellipse transform="matrix(0.5 -0.866 0.866 0.5 -588.6703 743.3942)" class="st4" cx="349.5" cy="881.5" rx="9.3" ry="9.1"/>
		<ellipse transform="matrix(0.5 -0.866 0.866 0.5 -618.9268 692.2998)" class="st4" cx="290.1" cy="882.2" rx="9.3" ry="9.1"/>
	</g>
</g>
<path class="st2" d="M320.3,481.4l-70.7,53v88.4H391v-88.4L320.3,481.4z M346.8,561l-26.5,20.8L293.8,561v-26.6h53V561z
	 M297.2,574.9l-38.8,33.2v-63.7L297.2,574.9z M320.3,593.1l16-12.6l39,33.5H265.2l39.1-33.5L320.3,593.1z M382.2,544.5v63.7
	l-38.8-33.2L382.2,544.5z M378.5,536.1l-22.9,18v-28.5h-8.8h-53H285v28.5l-22.9-17.9l58.2-43.6L378.5,536.1z M338,547.7h-35.3v-4.4
	H338V547.7z M338,556.5h-35.3v-4.4H338V556.5z M338,565.4h-35.3v-4.4H338V565.4z"/>
</svg>
