<?xml version="1.0" encoding="utf-8"?>
<!-- Generator: Adobe Illustrator 19.0.0, SVG Export Plug-In . SVG Version: 6.00 Build 0)  -->
<svg version="1.1" id="Layer_1" xmlns="http://www.w3.org/2000/svg" xmlns:xlink="http://www.w3.org/1999/xlink" x="0px" y="0px"
	 viewBox="-10.1 234.7 660.9 660.9" style="enable-background:new -10.1 234.7 660.9 660.9;" xml:space="preserve" width="1" height="1">
<style type="text/css">
	.st0{fill:#702020;stroke:#000000;stroke-width:8;stroke-miterlimit:10;}
	.st1{fill:#D6CA99;}
	.st2{fill:#702020;}
	.st3{fill:none;stroke:#000000;stroke-width:8;stroke-miterlimit:10;}
	.st4{fill:#B52626;stroke:#000000;stroke-width:5;stroke-miterlimit:10;}
	.st5{fill:#FFF6CC;}
	.st6{fill:none;}
	.st7{fill:#FFFFFF;}
</style>
<g>
	<g>
		<path class="st0" d="M91.9,477l-37.6,15.6c1.1,2.2,1.7,3.5,2.4,1.3h75.1v-33.8L91.9,477z"/>
		<path class="st0" d="M548.7,477l37.6,15.6c-1.1,2.2-1.7,3.5-2.4,1.3h-75.1v-33.8L548.7,477z"/>
	</g>
	<g>
		<g>
			<polygon class="st1" points="508.9,732.3 320.3,835.2 131.7,732.3 131.7,565.1 131.7,397.9 320.3,295 508.9,397.9 508.9,565.1
							"/>
			<polygon class="st2" points="508.9,732.3 320.3,835.2 131.7,732.3 131.7,565.1 131.7,397.9 320.3,295 508.9,397.9 508.9,565.1
							"/>
			<polygon class="st3" points="508.9,732.3 320.3,835.2 131.7,732.3 131.7,565.1 131.7,397.9 320.3,295 508.9,397.9 508.9,565.1
							"/>
		</g>
		<polygon class="st4" points="499.3,723.8 320.3,821.5 141.3,723.8 141.3,565.1 141.3,406.4 320.3,308.7 499.3,406.4 499.3,565.1
					"/>
	</g>
	<g>
		<g>
			<polygon class="st5" points="585.5,635.3 320.3,635.3 55.1,635.3 82.9,565.1 55.1,494.9 320.3,494.9 585.5,494.9 557.7,565.1
				"/>
			<polygon class="st2" points="585.5,635.3 320.3,635.3 55.1,635.3 82.9,565.1 55.1,494.9 320.3,494.9 585.5,494.9 557.7,565.1
				"/>
			<polygon class="st3" points="585.5,635.3 320.3,635.3 55.1,635.3 82.9,565.1 55.1,494.9 320.3,494.9 585.5,494.9 557.7,565.1
				"/>
		</g>
		<polygon class="st4" points="570.6,622.9 320.3,622.9 70,622.9 96.3,565.1 70,507.3 320.3,507.3 570.6,507.3 544.3,565.1 		"/>
		<g>
			<rect x="94.5" y="521.6" class="st6" width="457.6" height="93"/>
			<path class="st7" d="M146.5,610.5h-17.3l16.9-84.6c-8.6,0.8-17.5,2.2-22.6,6.6c-4.3,3.9-3.9,13.8,1.3,23l-17.4,7.7
				c-2.2-17.8,1.9-30.1,10.3-37.1c11-9.4,29.1-11,47.8-11.2L146.5,610.5z"/>
			<path class="st7" d="M168.4,545.5l-0.9-3.9c6-0.4,7.7-3.2,9.7-8c-0.8-0.1-1.7-0.4-2.3-0.6c-4.6-1.8-6.9-6.9-5.2-11.4
				c1.8-4.7,6.9-6.9,11.6-5.2C191.4,520.1,184.6,544.6,168.4,545.5z"/>
			<path class="st7" d="M286.6,588.9c-10.2,27.3-45.3,31.1-40,2.8c1.8-9.8,3.8-19.9,5.8-31c3-14.5-10.7-3.7-15.2,8
				c-0.1,0.3-0.3,0.5-0.4,1c-0.8,3.9-6.6,37.5-7.2,40.8h-16.8c3.6-19.8,6.2-35.6,8.8-49.4c2.4-13.5-10.4-5.5-15.6,5.2
				c-0.1,0.1-0.1,0.3-0.3,0.5l-8.8,43.7h-17.5l12.7-63.5h17.5l-1.7,8.6c10.2-12.2,28.4-13.7,29.6,3.7c13.3-18.2,36.2-19.4,30.1,10.4
				l-2,11.3c-1,5.5-1.1,5.8-3,16.1c-2.2,10,14.9,3.8,19-8.3H286.6z"/>
			<path class="st7" d="M386.5,593.2c-7.5,16-24.6,17.4-42,17.3c-4.4,0-9,0-13.2,0c-2.5,0-5.1,0-7.7,0l17.3-86.4
				c-13,5-22.1,19.6-15.4,31.4l-17.1,7.9c-6.6-46.6,61.7-62.1,74-35.2c5.1,10.7-2,22.5-11.7,28.1c7.4,1.9,12.8,6.5,15.9,12.2
				C390.5,575.8,390.5,585.1,386.5,593.2z M350.5,562l-7.7,39.9C378,602.3,381,559.4,350.5,562z M352.1,554.3
				c10.5-1.3,18.2-7.7,17.9-19.6c0-8.1-5.1-12.1-11.4-13.1L352.1,554.3z"/>
			<path class="st7" d="M448.4,588.6c-9.9,18.3-20.3,23-34.8,22.6c-24-0.8-24.4-31.1-12.6-49.9c9.7-15,26.2-18.2,33.4-12.1
				c6.5,5.2,6.6,14.9,2.8,22.4c-5.7,10.5-16.4,14.5-27.3,14.1c0.1,6.1,2.4,13.2,7.9,15.9c9.8,4.6,20.1-3,26-13H448.4z M410.3,579.7
				c20.1,0.6,22.4-23.5,19.2-26c-2.5-1.9-8.1,0.5-12.7,7.7c-2.7,4.1-5,9.8-6.3,16.9C410.4,578.9,410.3,579.4,410.3,579.7z"/>
			<path class="st7" d="M519.4,588.3c-11.2,29.2-45.6,32.4-40-0.8c1.8-8.9,3.4-17.8,5.1-26.7c2.8-14.6-14.4-4.2-19,7.5l-8,42.2h-18
				l12.8-63.5h17.4l-1.9,9.5c13.7-15.5,37.8-15,32.5,13.6c-3,15.7-2.3,11.2-5.1,26.7c-2.8,15.6,15.2,3.8,19.3-8.5H519.4z"/>
			<path class="st7" d="M521.7,593.7c2-1.9,4.4-2.9,7.2-2.9s5.2,1,7.4,2.9c1.9,2.2,2.9,4.6,2.9,7.4c0,2.8-1,5.2-2.9,7.2
				c-2.2,1.9-4.6,2.9-7.4,2.9s-5.2-1-7.2-2.9c-1.9-2-2.9-4.4-2.9-7.2C518.7,598.3,519.8,595.9,521.7,593.7z"/>
		</g>
	</g>
	<g>
		<rect x="145.6" y="654.5" class="st6" width="349.4" height="120.9"/>
		<path class="st7" d="M184.5,652.5c-1.9,10-4.1,20-6,30.1h-5.6l1.8-8.2h-9.2l-6.9,8.2h-3.8c7.5-8.8,15.3-18,22.9-26.9
			c-2.9,0.2-8.6,0.1-11.8,2c-2,1.3-3,4.4-1.8,7.6l-5.4,2.5c0.3-5.6,2-9.3,4.8-11.5C168.6,652.2,176.8,652.5,184.5,652.5z
			 M177.9,659.8l-9.5,11.2h7C176.3,667.2,177.1,663.5,177.9,659.8z"/>
		<path class="st7" d="M207.9,675.6c-3.5,9.2-14.4,10.2-12.6-0.2c0.6-2.8,1.1-5.6,1.6-8.4c0.9-4.6-4.5-1.3-6,2.4l-2.5,13.3h-5.7
			l4-20h5.5l-0.6,3c4.3-4.9,11.9-4.7,10.2,4.3c-1,5-0.7,3.5-1.6,8.4c-0.9,4.9,4.8,1.2,6.1-2.7H207.9z"/>
		<path class="st7" d="M229.5,675.5c-2.8,7.6-12.4,10.2-12.9,3.1c-4.3,6.4-13.4,5.3-12.6-3.1c1-12.1,11.2-15,14.6-12.1
			c0.2,0.2,0.3,0.4,0.5,0.6l1.9-9.4h5.4c-1.4,7.3-3.7,19-4.7,23.6c-0.9,4.7,4.8,1.2,6.2-2.7H229.5z M218.7,666
			c-2.4-4.4-7.2-0.1-8.5,6.4c-1.6,7.3,1.1,11.1,6.6,3.6c0-0.2,0-0.5,0.1-0.7L218.7,666z"/>
		<path class="st7" d="M248.2,675.6c-3.2,8.6-15,10.8-12.8-0.2l2.1-10.4h-2.4l1-2.4h1.9l1.1-5.2l5.7-1.1l-1.2,6.3h3.2l-1.2,2.4h-2.5
			l-2.7,13.3c-0.9,4.7,4.8,1.2,6.1-2.7H248.2z"/>
		<path class="st7" d="M268.9,675.6c-3.3,9.2-14.2,9.1-12.9,1.6c0.7-3.8,1.3-7.1,1.8-10.3c0.8-4.3-3.2-1.8-5,1.6l-2.8,14h-5.5
			l5.7-28h5.3l-2.1,10.6c4.3-4.5,11-4.2,9.3,4.6c-0.5,2.8-1,5.8-1.5,8.5c-0.8,4.8,4.8,1.2,6-2.6H268.9z"/>
		<path class="st7" d="M279.1,675.5c-3.2,8.6-15.2,11-13-0.2l2.6-12.7h5.5c-1.3,6.8-2.2,10.9-3.1,15.6c-0.9,4.8,5,1.2,6.4-2.7H279.1
			z M270,659.4c-0.6-0.6-0.8-1.3-0.8-2.2c0-0.9,0.3-1.6,0.9-2.2c0.6-0.6,1.4-0.9,2.3-0.9s1.6,0.3,2.2,0.9c0.6,0.6,1,1.4,1,2.2
			c0,0.9-0.4,1.6-1,2.2c-0.6,0.6-1.4,0.9-2.3,0.9C271.4,660.3,270.6,660,270,659.4z"/>
		<path class="st7" d="M289.9,667.7c0.6-1.2,1.3-3.4-1.1-3.6c-0.9-0.2-2.1,0.1-2.8,0.7c-1.2,0.5-1.9,1.7-1.8,2.5
			c0.1,0.9,0.2,1,0.8,1.6c0.7,0.6,1.7,1.3,2.9,1.9c1,0.5,2.2,1.2,3.2,1.9c0.9,0.7,1.5,1.5,1.9,2.5c2.1,8.3-15.6,10.4-16.8,3.8
			c-0.3-1.9,0.9-4.1,3.3-5.2l3,2.5c-2.5,0.8-3.6,2.1-3.1,3.2c0.5,1.3,3.2,1.7,5.4,0.9c1.3-0.6,2.3-1.4,2.8-2.6
			c0.6-1.4-0.8-2.5-2-3.4c-1.4-0.8-2.2-1.1-3.2-1.9c-1-0.6-2.2-1.7-2.8-2.6c-1.7-2.3-1-5.2,2.4-6.6c1.9-0.8,4-1.1,6-0.9
			c3,0.2,5.3,1.3,6.2,3.4c0.4,1,0.4,2.2,0.1,3.5L289.9,667.7z"/>
		<path class="st7" d="M316.5,675.5c-3.2,8.6-15.2,11-13-0.2l2.6-12.7h5.5c-1.3,6.8-2.2,10.9-3.1,15.6c-0.9,4.8,5,1.2,6.4-2.7H316.5
			z M307.4,659.4c-0.6-0.6-0.8-1.3-0.8-2.2c0-0.9,0.3-1.6,0.9-2.2c0.6-0.6,1.4-0.9,2.3-0.9s1.6,0.3,2.2,0.9c0.6,0.6,1,1.4,1,2.2
			c0,0.9-0.4,1.6-1,2.2c-0.6,0.6-1.4,0.9-2.3,0.9C308.8,660.3,308,660,307.4,659.4z"/>
		<path class="st7" d="M327.3,667.7c0.6-1.2,1.3-3.4-1.1-3.6c-0.9-0.2-2.1,0.1-2.8,0.7c-1.2,0.5-1.9,1.7-1.8,2.5
			c0.1,0.9,0.2,1,0.8,1.6c0.7,0.6,1.7,1.3,2.9,1.9c1,0.5,2.2,1.2,3.2,1.9c0.9,0.7,1.5,1.5,1.9,2.5c2.1,8.3-15.6,10.4-16.8,3.8
			c-0.3-1.9,0.9-4.1,3.3-5.2l3,2.5c-2.5,0.8-3.6,2.1-3.1,3.2c0.5,1.3,3.2,1.7,5.4,0.9c1.3-0.6,2.3-1.4,2.8-2.6
			c0.6-1.4-0.8-2.5-2-3.4c-1.4-0.8-2.2-1.1-3.2-1.9c-1-0.6-2.2-1.7-2.8-2.6c-1.7-2.3-1-5.2,2.4-6.6c1.9-0.8,4-1.1,6-0.9
			c3,0.2,5.3,1.3,6.2,3.4c0.4,1,0.4,2.2,0.1,3.5L327.3,667.7z"/>
		<path class="st7" d="M365.2,675.5c-2.8,7.6-12.4,10.2-12.9,3.1c-4.3,6.4-13.4,5.3-12.6-3.1c1-12.1,11.2-15,14.6-12.1
			c0.2,0.2,0.3,0.4,0.5,0.6l1.9-9.4h5.4c-1.4,7.3-3.7,19-4.7,23.6c-0.9,4.7,4.8,1.2,6.2-2.7H365.2z M354.4,666
			c-2.4-4.4-7.2-0.1-8.5,6.4c-1.6,7.3,1.1,11.1,6.6,3.6c0-0.2,0-0.5,0.1-0.7L354.4,666z"/>
		<path class="st7" d="M379.1,675.7c-3.1,5.8-6.4,7.2-11,7.1c-7.6-0.2-7.7-9.8-4-15.7c3-4.7,8.2-5.7,10.5-3.8c2,1.6,2.1,4.7,0.9,7
			c-1.8,3.3-5.2,4.6-8.6,4.4c0,1.9,0.8,4.2,2.5,5c3.1,1.4,6.3-1,8.2-4.1H379.1z M367.1,672.9c6.3,0.2,7-7.4,6-8.2
			c-0.8-0.6-2.6,0.2-4,2.4c-0.8,1.3-1.6,3.1-2,5.3C367.1,672.6,367.1,672.8,367.1,672.9z"/>
		<path class="st7" d="M400.4,675.4c-3.2,8.7-15.3,11-13.2-0.2l2.1-10.2h-4.9l-5.5,27.6h-5.8c1.8-9.4,3.7-18.2,5.6-27.6h-2.6l1-2.4
			h2.1c3.8-13.8,17.7-10.5,17.6-6.5c0,0.8-0.3,1.6-1,2.2c-0.6,0.6-1.4,0.9-2.3,0.9c-2.8,0-3.1-3.6-6-3.9c-0.4-0.1-0.8,0.1-1.3,0.4
			l-0.1,0.7l-1.2,6.2h10.4c-1.4,6.8-2.2,10.8-3.1,15.6c-0.9,4.8,5.1,1.2,6.4-2.7H400.4z"/>
		<path class="st7" d="M422.1,675.6c-3.5,9.2-14.4,10.2-12.6-0.2c0.6-2.8,1.1-5.6,1.6-8.4c0.9-4.6-4.5-1.3-6,2.4l-2.5,13.3H397l4-20
			h5.5l-0.6,3c4.3-4.9,11.9-4.7,10.2,4.3c-1,5-0.7,3.5-1.6,8.4c-0.9,4.9,4.8,1.2,6.1-2.7H422.1z"/>
		<path class="st7" d="M432.5,675.5c-3.2,8.6-15.2,11-13-0.2l2.6-12.7h5.5c-1.3,6.8-2.2,10.9-3.1,15.6c-0.9,4.8,5,1.2,6.4-2.7H432.5
			z M423.4,659.4c-0.6-0.6-0.8-1.3-0.8-2.2c0-0.9,0.3-1.6,0.9-2.2c0.6-0.6,1.4-0.9,2.3-0.9s1.6,0.3,2.2,0.9c0.6,0.6,1,1.4,1,2.2
			c0,0.9-0.4,1.6-1,2.2c-0.6,0.6-1.4,0.9-2.3,0.9S424,660,423.4,659.4z"/>
		<path class="st7" d="M443.2,675.6c-3.2,8.6-15,10.8-12.8-0.2l2.1-10.4h-2.4l1-2.4h1.9l1.1-5.2l5.7-1.1l-1.2,6.3h3.2l-1.2,2.4h-2.5
			l-2.7,13.3c-0.9,4.7,4.8,1.2,6.1-2.7H443.2z"/>
		<path class="st7" d="M457.6,675.7c-3.1,5.8-6.4,7.2-11,7.1c-7.6-0.2-7.7-9.8-4-15.7c3-4.7,8.2-5.7,10.5-3.8c2,1.6,2.1,4.7,0.9,7
			c-1.8,3.3-5.2,4.6-8.6,4.4c0,1.9,0.8,4.2,2.5,5c3.1,1.4,6.3-1,8.2-4.1H457.6z M445.6,672.9c6.3,0.2,7-7.4,6-8.2
			c-0.8-0.6-2.6,0.2-4,2.4c-0.8,1.3-1.6,3.1-2,5.3C445.6,672.6,445.6,672.8,445.6,672.9z"/>
		<path class="st7" d="M468.3,675.8c-3,8.2-14.3,10.4-12.2-0.3l4.2-21h5.4c-1.4,6.8-4,19.2-4.9,23.8c-0.9,4.6,4.7,1.2,5.9-2.6H468.3
			z"/>
		<path class="st7" d="M485.4,662.6l-3,14.8c-1.8,9.4-4.4,17.7-16.4,14.4l3.8-3.8c1,0.8,4.3,2.6,4.7,0.4l1.7-8.4
			c-4.5,4.6-12,4.2-10.1-4.7l2.5-12.7h5.7c-1.2,6.2-2.3,11.2-3.2,15.6c-0.8,4.4,3.8,1.8,5.8-1.6l2.8-14.1H485.4z"/>
		<path class="st7" d="M204.2,720.6c-3.5,9.2-14.4,10.2-12.6-0.2c0.6-2.8,1.1-5.6,1.6-8.4c0.9-4.6-4.5-1.3-6,2.4l-2.5,13.3H179l4-20
			h5.5l-0.6,3c4.3-4.9,11.9-4.7,10.2,4.3c-1,5-0.7,3.5-1.6,8.4c-0.9,4.9,4.8,1.2,6.1-2.7H204.2z"/>
		<path class="st7" d="M223.2,713.2c-1.6,1.4-3.2,2.6-4.8,3.3c-1.2,9.1-8.6,12.6-13.3,10.8c-3.7-1.4-5.1-4.8-4.7-8.5
			c0.4-3.9,2.8-7.9,6.5-10c3.7-2.2,9.3-2.4,11.2,2.3c0.3,0.8,0.5,1.7,0.5,2.8c1.6-0.4,3.2-1.2,4.4-2L223.2,713.2z M213.6,717.3
			c-1.3-0.2-2.5-0.8-3.8-1.8l2.1-2.8c0.5,0.5,1.1,0.8,1.7,1.1c-0.6-3-3.2-5.6-5.4-2.4c-2,2.9-3.8,11.6-0.2,13.6
			c1.9,1.1,4.7-0.8,5.7-7.4C213.6,717.4,213.6,717.3,213.6,717.3z"/>
		<path class="st7" d="M234.1,720.6c-3.2,8.6-15,10.8-12.8-0.2l2.1-10.4h-2.4l1-2.4h1.9l1.1-5.2l5.7-1.1l-1.2,6.3h3.2l-1.2,2.4h-2.5
			l-2.7,13.3c-0.9,4.7,4.8,1.2,6.1-2.7H234.1z"/>
		<path class="st7" d="M265.1,720.7c-2.8,7.4-12.4,10-12.9,3.1c-4.2,6.3-13.4,5.2-12.6-3.1c0.6-6.4,3.7-12.9,10.9-13.1h10.1
			l-0.3,1.5c-1.2,6.1-2.1,9.7-3,14.3c-0.9,4.6,5,1.1,6.3-2.6H265.1z M254.2,711.2c-2.4-4.4-7.2-0.1-8.6,6.4c-1.5,7.2,1.1,11,6.6,3.6
			L254.2,711.2z"/>
		<path class="st7" d="M291.6,718l8-20.5l5.2,0l0.4,20.4l7.9-20.4h3.7L305,727.5h-5.5l0-20.5l-8,20.5h-5.5l0-26.8
			c-2.9,0.2-6.5,0.4-7.5,2.2c-0.9,2-0.4,5,1.2,7.4l-5.6,2.5c-0.9-5.8,0-9.7,2.5-12c3.4-2.9,9-3.4,14.8-3.4L291.6,718z"/>
		<path class="st7" d="M334.4,713.2c-1.6,1.4-3.2,2.6-4.8,3.3c-1.2,9.1-8.6,12.6-13.3,10.8c-3.7-1.4-5.1-4.8-4.7-8.5
			c0.4-3.9,2.8-7.9,6.5-10c3.7-2.2,9.3-2.4,11.2,2.3c0.3,0.8,0.5,1.7,0.5,2.8c1.6-0.4,3.2-1.2,4.4-2L334.4,713.2z M324.8,717.3
			c-1.3-0.2-2.5-0.8-3.8-1.8l2.1-2.8c0.5,0.5,1.1,0.8,1.7,1.1c-0.6-3-3.2-5.6-5.4-2.4c-2,2.9-3.8,11.6-0.2,13.6
			c1.9,1.1,4.7-0.8,5.7-7.4C324.8,717.4,324.8,717.3,324.8,717.3z"/>
		<path class="st7" d="M350.5,708.9l-3.7,3.1c-3.2-2.4-6.2,0.7-8.2,4l-2.2,11.6h-5.6l4-20h5.5l-0.8,4.4
			C341.9,707.7,345.3,705.8,350.5,708.9z"/>
		<path class="st7" d="M373.7,720.5c-2.8,7.6-12.4,10.2-12.9,3.1c-4.3,6.4-13.4,5.3-12.6-3.1c1-12.1,11.2-15,14.6-12.1
			c0.2,0.2,0.3,0.4,0.5,0.6l1.9-9.4h5.4c-1.4,7.3-3.7,19-4.7,23.6c-0.9,4.7,4.8,1.2,6.2-2.7H373.7z M362.8,711
			c-2.4-4.4-7.2-0.1-8.5,6.4c-1.6,7.3,1.1,11.1,6.6,3.6c0-0.2,0-0.5,0.1-0.7L362.8,711z"/>
		<path class="st7" d="M384.8,716.2l-2.3,11.4h-5.6l5.6-27.2c-1.6,0.6-3.2,1.6-4.2,2.7c-1.7,1.7-2,5-0.6,7.2l-5.4,2.5
			c-0.6-4.9,1.2-8.7,4.2-11.3c6.1-5.2,16.6-5.5,19.2,0.1C398.5,708.1,392.1,715.1,384.8,716.2z M391.7,703.7
			c-0.1-2.5-1.6-3.8-3.6-4.1l-2.8,14.1C388.8,712.8,391.7,707.6,391.7,703.7z"/>
		<path class="st7" d="M414,708.9l-3.7,3.1c-3.2-2.4-6.2,0.7-8.2,4l-2.2,11.6h-5.6l4-20h5.5l-0.8,4.4
			C405.3,707.7,408.7,705.8,414,708.9z"/>
		<path class="st7" d="M429.3,720.7c-3.1,5.8-6.4,7.2-11,7.1c-7.6-0.2-7.7-9.8-4-15.7c3-4.7,8.2-5.7,10.5-3.8c2,1.6,2.1,4.7,0.9,7
			c-1.8,3.3-5.2,4.6-8.6,4.4c0,1.9,0.8,4.2,2.5,5c3.1,1.4,6.3-1,8.2-4.1H429.3z M417.3,717.9c6.3,0.2,7-7.4,6-8.2
			c-0.8-0.6-2.6,0.2-4,2.4c-0.8,1.3-1.6,3.1-2,5.3C417.3,717.6,417.3,717.8,417.3,717.9z"/>
		<path class="st7" d="M440.6,712.7c0.6-1.2,1.3-3.4-1.1-3.6c-0.9-0.2-2.1,0.1-2.8,0.7c-1.2,0.5-1.9,1.7-1.8,2.5
			c0.1,0.9,0.2,1,0.8,1.6c0.7,0.6,1.7,1.3,2.9,1.9c1,0.5,2.2,1.2,3.2,1.9c0.9,0.7,1.5,1.5,1.9,2.5c2.1,8.3-15.6,10.4-16.8,3.8
			c-0.3-1.9,0.9-4.1,3.3-5.2l3,2.5c-2.5,0.8-3.6,2.1-3.1,3.2c0.5,1.3,3.2,1.7,5.4,0.9c1.3-0.6,2.3-1.4,2.8-2.6
			c0.6-1.4-0.8-2.5-2-3.4c-1.4-0.8-2.2-1.1-3.2-1.9c-1-0.6-2.2-1.7-2.8-2.6c-1.7-2.3-1-5.2,2.4-6.6c1.9-0.8,4-1.1,6-0.9
			c3,0.2,5.3,1.3,6.2,3.4c0.4,1,0.4,2.2,0.1,3.5L440.6,712.7z"/>
		<path class="st7" d="M458.4,712.7c0.6-1.2,1.3-3.4-1.1-3.6c-0.9-0.2-2.1,0.1-2.8,0.7c-1.2,0.5-1.9,1.7-1.8,2.5
			c0.1,0.9,0.2,1,0.8,1.6c0.7,0.6,1.7,1.3,2.9,1.9c1,0.5,2.2,1.2,3.2,1.9c0.9,0.7,1.5,1.5,1.9,2.5c2.1,8.3-15.6,10.4-16.8,3.8
			c-0.3-1.9,0.9-4.1,3.3-5.2l3,2.5c-2.5,0.8-3.6,2.1-3.1,3.2c0.5,1.3,3.2,1.7,5.4,0.9c1.3-0.6,2.3-1.4,2.8-2.6
			c0.6-1.4-0.8-2.5-2-3.4c-1.4-0.8-2.2-1.1-3.2-1.9c-1-0.6-2.2-1.7-2.8-2.6c-1.7-2.3-1-5.2,2.4-6.6c1.9-0.8,4-1.1,6-0.9
			c3,0.2,5.3,1.3,6.2,3.4c0.4,1,0.4,2.2,0.1,3.5L458.4,712.7z"/>
		<path class="st7" d="M283.2,765.6c-3.2,8.6-15,10.8-12.8-0.2l2.1-10.4h-2.4l1-2.4h1.9l1.1-5.2l5.7-1.1l-1.2,6.3h3.2l-1.2,2.4h-2.5
			l-2.7,13.3c-0.9,4.7,4.8,1.2,6.1-2.7H283.2z"/>
		<path class="st7" d="M303.9,765.6c-3.3,9.2-14.2,9.1-12.9,1.6c0.7-3.8,1.3-7.1,1.8-10.3c0.8-4.3-3.2-1.8-5,1.6l-2.8,14h-5.5
			l5.7-28h5.3l-2.1,10.6c4.3-4.5,11-4.2,9.3,4.6c-0.5,2.8-1,5.8-1.5,8.5c-0.8,4.8,4.8,1.2,6-2.6H303.9z"/>
		<path class="st7" d="M317.6,765.7c-3.1,5.8-6.4,7.2-11,7.1c-7.6-0.2-7.7-9.8-4-15.7c3-4.7,8.2-5.7,10.5-3.8c2,1.6,2.1,4.7,0.9,7
			c-1.8,3.3-5.2,4.6-8.6,4.4c0,1.9,0.8,4.2,2.5,5c3.1,1.4,6.3-1,8.2-4.1H317.6z M305.6,762.9c6.3,0.2,7-7.4,6-8.2
			c-0.8-0.6-2.6,0.2-4,2.4c-0.8,1.3-1.6,3.1-2,5.3C305.7,762.6,305.6,762.8,305.6,762.9z"/>
		<path class="st7" d="M348.4,765.8c-3.2,8.6-14.3,9.8-12.6,0.9c0.6-3.1,1.2-6.3,1.8-9.8c1-4.6-3.4-1.2-4.8,2.5
			c0,0.1-0.1,0.2-0.1,0.3c-0.2,1.2-2.1,11.8-2.3,12.8h-5.3c1.1-6.2,2-11.2,2.8-15.6c0.8-4.2-3.3-1.7-4.9,1.6c0,0,0,0.1-0.1,0.2
			l-2.8,13.8h-5.5l4-20h5.5l-0.5,2.7c3.2-3.8,9-4.3,9.3,1.2c4.2-5.7,11.4-6.1,9.5,3.3l-0.6,3.6c-0.3,1.7-0.4,1.8-1,5.1
			c-0.7,3.2,4.7,1.2,6-2.6H348.4z"/>
		<path class="st7" d="M362.3,765.7c-3.1,5.8-6.4,7.2-11,7.1c-7.6-0.2-7.7-9.8-4-15.7c3-4.7,8.2-5.7,10.5-3.8c2,1.6,2.1,4.7,0.9,7
			c-1.8,3.3-5.2,4.6-8.6,4.4c0,1.9,0.8,4.2,2.5,5c3.1,1.4,6.3-1,8.2-4.1H362.3z M350.3,762.9c6.3,0.2,7-7.4,6-8.2
			c-0.8-0.6-2.6,0.2-4,2.4c-0.8,1.3-1.6,3.1-2,5.3C350.3,762.6,350.3,762.8,350.3,762.9z"/>
		<path class="st7" d="M362.9,767.3c0.6-0.6,1.4-0.9,2.3-0.9s1.6,0.3,2.3,0.9c0.6,0.7,0.9,1.4,0.9,2.3c0,0.9-0.3,1.6-0.9,2.3
			c-0.7,0.6-1.4,0.9-2.3,0.9s-1.6-0.3-2.3-0.9c-0.6-0.6-0.9-1.4-0.9-2.3C362,768.7,362.3,768,362.9,767.3z"/>
	</g>
	<g>
		<rect x="188.5" y="366" class="st6" width="263.6" height="115.5"/>
		<path class="st7" d="M343.1,358.7L321.7,464h-19.2l10.9-53.1h-27.2L275.6,464h-19.5l19.3-93.5c-9.8,1-19,2.4-25.3,7.7
			c-4.9,4.1-4.1,15.4,1.4,25.1l-18.9,8.7c-2.4-19.3,1.7-31.6,10.2-39.5c11.9-11.5,32.2-13.9,53.9-14l-8.1,40.3H316l8.1-40H343.1z"/>
		<path class="st7" d="M386.5,439.2c-11.1,30.2-53.3,38.4-45.5-0.8l9.2-44.4h19.3c-4.5,23.7-7.7,38.1-10.9,54.6
			c-3.2,16.8,17.6,4.3,22.4-9.4H386.5z M354.7,383.1c-2-2.1-2.9-4.6-2.9-7.8c0.1-3.1,1.1-5.6,3.2-7.8c2.2-2.1,4.8-3.2,8-3.2
			s5.6,1.1,7.7,3.2c2.2,2.2,3.4,4.8,3.4,7.8c0,3.2-1.3,5.7-3.5,7.8c-2.2,2.1-4.9,3.1-8,3.1S356.8,385.2,354.7,383.1z"/>
		<path class="st7" d="M389.9,479.7l-1.1-5.3c7.7-0.3,10.1-4.1,12.6-10.4c-7.7-1-12.5-8.5-9.9-15.8c2.4-6,9.1-9.1,15.1-6.9
			C420.1,446.4,411.2,478.6,389.9,479.7z"/>
	</g>
</g>
</svg>
