<?xml version="1.0" encoding="utf-8"?>
<!-- Generator: Adobe Illustrator 19.0.0, SVG Export Plug-In . SVG Version: 6.00 Build 0)  -->
<svg version="1.1" id="Layer_1" xmlns="http://www.w3.org/2000/svg" xmlns:xlink="http://www.w3.org/1999/xlink" x="0px" y="0px"
	 viewBox="-10.1 234.7 660.9 660.9" style="enable-background:new -10.1 234.7 660.9 660.9;" xml:space="preserve" width="1" height="1">
<style type="text/css">
	.st0{fill:#5BBA2F;}
	.st1{fill:none;stroke:#000000;stroke-width:5;}
	.st2{fill:#FFFFFF;stroke:#000000;stroke-width:5;}
	.st3{fill:none;}
	.st4{fill:#FFFFFF;}
</style>
<g id="_x31_">
	<g>
		<path class="st0" d="M320.3,263.4c166.6,0,301.7,135.1,301.7,301.7S486.9,866.8,320.3,866.8S18.6,731.7,18.6,565.1
			S153.7,263.4,320.3,263.4z M596.3,565.1c0-152.4-123.6-276-276-276s-276,123.6-276,276s123.6,276,276,276S596.3,717.5,596.3,565.1
			z M320.3,753.4c-104,0-188.3-84.3-188.3-188.3s84.3-188.3,188.3-188.3s188.3,84.3,188.3,188.3S424.3,753.4,320.3,753.4z"/>
		<path class="st1" d="M320.3,263.4c166.6,0,301.7,135.1,301.7,301.7S486.9,866.8,320.3,866.8S18.6,731.7,18.6,565.1
			S153.7,263.4,320.3,263.4z M596.3,565.1c0-152.4-123.6-276-276-276s-276,123.6-276,276s123.6,276,276,276S596.3,717.5,596.3,565.1
			z M320.3,753.4c-104,0-188.3-84.3-188.3-188.3s84.3-188.3,188.3-188.3s188.3,84.3,188.3,188.3S424.3,753.4,320.3,753.4z"/>
	</g>
	<g>
		<g>
			<path class="st2" d="M44.3,565.1H21.2H44.3z"/>
		</g>
		<g>
			<path class="st2" d="M45,584.4L22,586L45,584.4z"/>
		</g>
		<g>
			<path class="st2" d="M47,603.5l-22.9,3.2L47,603.5z"/>
		</g>
		<g>
			<path class="st2" d="M50.4,622.5l-22.6,4.8L50.4,622.5z"/>
		</g>
		<g>
			<path class="st2" d="M55,641.2l-22.2,6.4L55,641.2z"/>
		</g>
		<g>
			<path class="st2" d="M61,659.5l-21.7,7.9L61,659.5z"/>
		</g>
		<g>
			<path class="st2" d="M68.2,677.3l-21.1,9.4L68.2,677.3z"/>
		</g>
		<g>
			<path class="st2" d="M76.6,694.7l-20.4,10.8L76.6,694.7z"/>
		</g>
		<g>
			<path class="st2" d="M86.3,711.3l-19.6,12.2L86.3,711.3z"/>
		</g>
		<g>
			<path class="st2" d="M97,727.3l-18.7,13.6L97,727.3z"/>
		</g>
		<g>
			<path class="st2" d="M108.9,742.5l-17.7,14.8L108.9,742.5z"/>
		</g>
		<g>
			<path class="st2" d="M121.8,756.8l-16.6,16L121.8,756.8z"/>
		</g>
		<g>
			<path class="st2" d="M135.6,770.2l-15.5,17.2L135.6,770.2z"/>
		</g>
		<g>
			<path class="st2" d="M150.4,782.6l-14.2,18.2L150.4,782.6z"/>
		</g>
		<g>
			<path class="st2" d="M166,793.9L153.1,813L166,793.9z"/>
		</g>
		<g>
			<path class="st2" d="M182.3,804.1l-11.5,20L182.3,804.1z"/>
		</g>
		<g>
			<path class="st2" d="M199.3,813.1l-10.1,20.8L199.3,813.1z"/>
		</g>
		<g>
			<path class="st2" d="M216.9,821l-8.7,21.4L216.9,821z"/>
		</g>
		<g>
			<path class="st2" d="M235,827.6l-7.1,22L235,827.6z"/>
		</g>
		<g>
			<path class="st2" d="M253.5,832.9l-5.6,22.4L253.5,832.9z"/>
		</g>
		<g>
			<path class="st2" d="M272.4,836.9l-4,22.7L272.4,836.9z"/>
		</g>
		<g>
			<path class="st2" d="M291.5,839.6l-2.4,23L291.5,839.6z"/>
		</g>
		<g>
			<path class="st2" d="M310.7,840.9l-0.8,23.1L310.7,840.9z"/>
		</g>
		<g>
			<path class="st2" d="M329.9,840.9l0.8,23.1L329.9,840.9z"/>
		</g>
		<g>
			<path class="st2" d="M349.1,839.6l2.4,23L349.1,839.6z"/>
		</g>
		<g>
			<path class="st2" d="M368.2,836.9l4,22.7L368.2,836.9z"/>
		</g>
		<g>
			<path class="st2" d="M387.1,832.9l5.6,22.4L387.1,832.9z"/>
		</g>
		<g>
			<path class="st2" d="M405.6,827.6l7.1,22L405.6,827.6z"/>
		</g>
		<g>
			<path class="st2" d="M423.7,821l8.7,21.4L423.7,821z"/>
		</g>
		<g>
			<path class="st2" d="M441.3,813.1l10.1,20.8L441.3,813.1z"/>
		</g>
		<g>
			<path class="st2" d="M458.3,804.1l11.5,20L458.3,804.1z"/>
		</g>
		<g>
			<path class="st2" d="M474.6,793.9l12.9,19.1L474.6,793.9z"/>
		</g>
		<g>
			<path class="st2" d="M490.2,782.6l14.2,18.2L490.2,782.6z"/>
		</g>
		<g>
			<path class="st2" d="M505,770.2l15.5,17.2L505,770.2z"/>
		</g>
		<g>
			<path class="st2" d="M518.8,756.8l16.6,16L518.8,756.8z"/>
		</g>
		<g>
			<path class="st2" d="M531.7,742.5l17.7,14.8L531.7,742.5z"/>
		</g>
		<g>
			<path class="st2" d="M543.6,727.3l18.7,13.6L543.6,727.3z"/>
		</g>
		<g>
			<path class="st2" d="M554.3,711.3l19.6,12.2L554.3,711.3z"/>
		</g>
		<g>
			<path class="st2" d="M564,694.7l20.4,10.8L564,694.7z"/>
		</g>
		<g>
			<path class="st2" d="M572.4,677.3l21.1,9.4L572.4,677.3z"/>
		</g>
		<g>
			<path class="st2" d="M579.6,659.5l21.7,7.9L579.6,659.5z"/>
		</g>
		<g>
			<path class="st2" d="M585.6,641.2l22.2,6.4L585.6,641.2z"/>
		</g>
		<g>
			<path class="st2" d="M590.2,622.5l22.6,4.8L590.2,622.5z"/>
		</g>
		<g>
			<path class="st2" d="M593.6,603.5l22.9,3.2L593.6,603.5z"/>
		</g>
		<g>
			<path class="st2" d="M595.6,584.4l23,1.6L595.6,584.4z"/>
		</g>
		<g>
			<path class="st2" d="M596.3,565.1h23.1H596.3z"/>
		</g>
		<g>
			<path class="st2" d="M595.6,545.8l23-1.6L595.6,545.8z"/>
		</g>
		<g>
			<path class="st2" d="M593.6,526.7l22.9-3.2L593.6,526.7z"/>
		</g>
		<g>
			<path class="st2" d="M590.2,507.7l22.6-4.8L590.2,507.7z"/>
		</g>
		<g>
			<path class="st2" d="M585.6,489l22.2-6.4L585.6,489z"/>
		</g>
		<g>
			<path class="st2" d="M579.6,470.7l21.7-7.9L579.6,470.7z"/>
		</g>
		<g>
			<path class="st2" d="M572.4,452.9l21.1-9.4L572.4,452.9z"/>
		</g>
		<g>
			<path class="st2" d="M564,435.5l20.4-10.8L564,435.5z"/>
		</g>
		<g>
			<path class="st2" d="M554.3,418.9l19.6-12.2L554.3,418.9z"/>
		</g>
		<g>
			<path class="st2" d="M543.6,402.9l18.7-13.6L543.6,402.9z"/>
		</g>
		<g>
			<path class="st2" d="M531.7,387.7l17.7-14.8L531.7,387.7z"/>
		</g>
		<g>
			<path class="st2" d="M518.8,373.4l16.6-16L518.8,373.4z"/>
		</g>
		<g>
			<path class="st2" d="M505,360l15.5-17.2L505,360z"/>
		</g>
		<g>
			<path class="st2" d="M490.2,347.6l14.2-18.2L490.2,347.6z"/>
		</g>
		<g>
			<path class="st2" d="M474.6,336.3l12.9-19.1L474.6,336.3z"/>
		</g>
		<g>
			<path class="st2" d="M458.3,326.1l11.5-20L458.3,326.1z"/>
		</g>
		<g>
			<path class="st2" d="M441.3,317.1l10.1-20.8L441.3,317.1z"/>
		</g>
		<g>
			<path class="st2" d="M423.7,309.2l8.7-21.4L423.7,309.2z"/>
		</g>
		<g>
			<path class="st2" d="M405.6,302.6l7.1-22L405.6,302.6z"/>
		</g>
		<g>
			<path class="st2" d="M387.1,297.3l5.6-22.4L387.1,297.3z"/>
		</g>
		<g>
			<path class="st2" d="M368.2,293.3l4-22.7L368.2,293.3z"/>
		</g>
		<g>
			<path class="st2" d="M349.1,290.6l2.4-23L349.1,290.6z"/>
		</g>
		<g>
			<path class="st2" d="M329.9,289.3l0.8-23.1L329.9,289.3z"/>
		</g>
		<g>
			<path class="st2" d="M310.7,289.3l-0.8-23.1L310.7,289.3z"/>
		</g>
		<g>
			<path class="st2" d="M291.5,290.6l-2.4-23L291.5,290.6z"/>
		</g>
		<g>
			<path class="st2" d="M272.4,293.3l-4-22.7L272.4,293.3z"/>
		</g>
		<g>
			<path class="st2" d="M253.5,297.3l-5.6-22.4L253.5,297.3z"/>
		</g>
		<g>
			<path class="st2" d="M235,302.6l-7.1-22L235,302.6z"/>
		</g>
		<g>
			<path class="st2" d="M216.9,309.2l-8.7-21.4L216.9,309.2z"/>
		</g>
		<g>
			<path class="st2" d="M199.3,317.1l-10.1-20.8L199.3,317.1z"/>
		</g>
		<g>
			<path class="st2" d="M182.3,326.1l-11.5-20L182.3,326.1z"/>
		</g>
		<g>
			<path class="st2" d="M166,336.3l-12.9-19.1L166,336.3z"/>
		</g>
		<g>
			<path class="st2" d="M150.4,347.6l-14.2-18.2L150.4,347.6z"/>
		</g>
		<g>
			<path class="st2" d="M135.6,360l-15.5-17.2L135.6,360z"/>
		</g>
		<g>
			<path class="st2" d="M121.8,373.4l-16.6-16L121.8,373.4z"/>
		</g>
		<g>
			<path class="st2" d="M108.9,387.7l-17.7-14.8L108.9,387.7z"/>
		</g>
		<g>
			<path class="st2" d="M97,402.9l-18.7-13.6L97,402.9z"/>
		</g>
		<g>
			<path class="st2" d="M86.3,418.9l-19.6-12.2L86.3,418.9z"/>
		</g>
		<g>
			<path class="st2" d="M76.6,435.5l-20.4-10.8L76.6,435.5z"/>
		</g>
		<g>
			<path class="st2" d="M68.2,452.9l-21.1-9.4L68.2,452.9z"/>
		</g>
		<g>
			<path class="st2" d="M61,470.7l-21.7-7.9L61,470.7z"/>
		</g>
		<g>
			<path class="st2" d="M55,489l-22.2-6.4L55,489z"/>
		</g>
		<g>
			<path class="st2" d="M50.4,507.7l-22.6-4.8L50.4,507.7z"/>
		</g>
		<g>
			<path class="st2" d="M47,526.7l-22.9-3.2L47,526.7z"/>
		</g>
		<g>
			<path class="st2" d="M45,545.8l-23-1.6L45,545.8z"/>
		</g>
	</g>
	<g>
		<g>
			<circle id="Circle_2_" class="st3" cx="320.3" cy="565.1" r="179.5"/>
			<path class="st4" d="M175.9,538.2c9.7,5.1,10.4,21.3,3.3,28c-6.3,6-19.7,2.4-26.1-3.3c-2.7-2.4-4.4-5.3-5.2-8
				c-1.1-3.6-0.8-7,0.7-9.5c1.3-2.2,3.4-3.7,6.3-3.9c2.6-0.2,5.7,0.7,9.3,3.1l-6.4,3.6c-1.1-0.8-2.2-1.8-3.6-1.8
				c-1.5,0-2.4,1-2.4,2.4c-0.1,1.6,0.7,3.5,2.4,5.7c4.5,5.4,15,9.7,21.2,6.4c6.2-3.3,8-15.7,0.5-20.3L175.9,538.2z"/>
			<path class="st4" d="M181.8,516.2c9.8,6.3,6.9,19.1-1.6,15.5c-4.3-1.8-8-3.4-11.5-4.9c-4.8-2.1-2.9,3.2,0.5,6.2l15.7,7l-1.5,6.4
				l-31.2-14.1l1.4-6.2l11.9,5.3c-4.1-6.2-2-13.9,7.8-9.7c3.1,1.3,6.5,2.7,9.5,4c5.4,2.3,2.7-5.2-1.4-7.8L181.8,516.2z"/>
			<path class="st4" d="M188.6,501.3c5.1,6,5.4,10.3,3.3,15.3c-3.5,8.4-14.3,4.4-19.3-2.3c-4-5.4-2.9-11.7,0.2-13.4
				c2.7-1.6,6.1-0.3,8.3,2c3,3.4,2.9,7.7,1.3,11.5c2.2,0.8,5,0.9,6.7-0.6c2.9-2.8,1.6-7.5-1.1-10.9L188.6,501.3z M180.3,513.6
				c2.9-7-5.3-11.1-6.6-10.3c-1,0.6-0.9,2.9,1,5.5c1.1,1.5,2.8,3.1,5.1,4.5C180,513.4,180.2,513.5,180.3,513.6z"/>
			<path class="st4" d="M197.6,485.4c3,4.8,4,10.2,1.7,15c-3,6.3-9.7,5-14.8,0.8c-3.6-3-6.6-7.5-6.2-12.1c0.3-2.7,1.6-4.9,3.6-5.7
				c2.8-1.3,6.4,0.1,8.1,2.7c0.3,0.4,0.5,0.7,0.7,1.1l-4.5,0.1c-1.3-2-2.8-2.6-3.4-2.2s-1,1.3-0.8,2.6c0.4,3.3,3.3,6.4,5.7,8.3
				c4,3,7.1,3.2,9,1.7c2.8-2.4,1.5-7.1,0-10.6L197.6,485.4z"/>
			<path class="st4" d="M214.4,476.8l-4,5.5l-9.8-0.5l5.8,6l-3.9,5.5l-23.4-25l3.8-5.3c4.2,4.4,7.4,7.9,11.6,12.3
				c-0.9-2.6-1.8-6.2-1.5-8.8c0.6-8,11.5-2.6,8.8,9.5L214.4,476.8z M194.9,468.1c-0.3,2.5,1.5,7.5,2.3,10.1l1.6,1.7
				c0.2-0.5,0.2-1,0.3-1.4C200.9,470.4,195.4,463.8,194.9,468.1z"/>
			<path class="st4" d="M229,439.2c-0.3,2.6-0.8,4.8-1.6,6.7c6.3,9.1,2.4,18.2-3.3,20.3c-4.4,1.8-8.4-0.2-11-3.8
				c-2.7-3.8-3.9-9.3-2.2-14.2c1.6-4.9,6.4-9.5,11.8-6.9c0.9,0.4,1.8,1.1,2.7,2.1c1.1-1.6,1.9-3.6,2.3-5.4L229,439.2z M223.7,450.5
				c-1.3,0.8-2.9,1.3-4.9,1.4l-0.4-4.2c0.8,0,1.7-0.1,2.4-0.4c-2.9-2.1-7.3-2.5-6.8,2.2c0.5,4.2,5.9,13.5,10.7,12.4
				c2.6-0.5,3.5-4.5-0.8-11.2C223.8,450.6,223.7,450.5,223.7,450.5z"/>
			<path class="st4" d="M255,433.7c2.1,9-4.7,17.2-9.8,11.4c-0.9,8-8.2,12.9-12.5,2.6l-5.7-14.6l5.5-3.5c3,7.4,5.1,12.8,7.1,17.8
				c2,5,4.3-0.2,3.9-4.7c-0.2-0.5-0.4-1-6.5-16l5.4-3.5c3,7.4,5.1,12.5,7.3,17.8c2.2,5.2,5-1.5,3.7-6.2L255,433.7z"/>
			<path class="st4" d="M266.3,429.1c1,10.9-10.5,19.5-13.9,6.5l-3.1-12.3l-2.6,1.3l-0.2-3.2l2.1-1l-1.5-6.2l5.6-4.2l2,7.5l3.5-1.7
				l0,3.2l-2.7,1.3l4,15.7c1.5,5.5,5.8-1.2,5.2-6.1L266.3,429.1z"/>
			<path class="st4" d="M288.2,422.4c-0.7,10.9-13.5,17.6-14.7,4.2l-1.2-12.7l-2.8,0.8l0.3-3.1l2.2-0.7l-0.6-6.3l6.1-3.3l0.8,7.7
				l3.7-1.1l-0.5,3.2l-2.9,0.9l1.5,16.2c0.6,5.7,5.9-0.3,6.1-5.2L288.2,422.4z"/>
			<path class="st4" d="M312.5,418.5c-2.1,11.5-15,13.6-14.9,4.4c0-4.6,0.1-8.7,0.1-12.5c0.1-5.3-4.1-1.5-5.6,2.8l-0.5,17.2
				l-6.5,1.1l1.1-34.2l6.3-1.1l-0.4,13c4.2-6.2,12.1-7.1,11.9,3.5c0,3.4,0,7.1-0.1,10.3c0,5.8,5.9,0.5,6.6-4.3L312.5,418.5z"/>
			<path class="st4" d="M328.9,419.1c-3.5,7-7.4,8.9-12.9,8.9c-9.1,0-9.5-11.5-5.3-18.7c3.5-5.8,9.7-7.1,12.5-4.9
				c2.5,1.9,2.7,5.5,1.3,8.4c-2,4-6,5.6-10.2,5.6c0.1,2.3,1.1,5,3.1,5.9c3.7,1.6,7.5-1.4,9.7-5.2L328.9,419.1z M314.4,416.1
				c7.6,0,8.2-9.1,7-10c-1-0.7-3.1,0.3-4.7,3.1c-1,1.6-1.8,3.7-2.2,6.4C314.5,415.8,314.4,416,314.4,416.1z"/>
			<path class="st4" d="M352.9,413.1c1-1.3,2.2-3.8-0.6-4.5c-1-0.4-2.5-0.3-3.5,0.2c-1.6,0.4-2.6,1.6-2.6,2.6c0,1.1,0.1,1.2,0.6,2
				c0.7,0.8,1.7,1.9,3,2.9c1.1,0.8,2.4,1.9,3.4,2.9c0.9,1,1.5,2.1,1.7,3.3c0.8,10.3-20.6,9.1-20.7,1.1c0-2.3,1.9-4.7,4.9-5.4l3,3.6
				c-3.1,0.4-4.7,1.7-4.3,3.1c0.3,1.7,3.4,2.7,6.3,2.1c1.6-0.4,3-1.1,3.9-2.5c1-1.5-0.5-3.2-1.6-4.4c-1.5-1.2-2.4-1.8-3.4-2.9
				c-1.1-0.9-2.3-2.4-2.8-3.7c-1.5-3-0.2-6.4,4.2-7.4c2.4-0.6,4.9-0.5,7.3,0.2c3.5,0.8,6,2.6,6.7,5.3c0.3,1.2,0,2.7-0.6,4.1
				L352.9,413.1z"/>
			<path class="st4" d="M384.5,423.4c-2.4,1-4.6,1.7-6.7,1.9c-4.8,9.9-14.6,11.1-19.3,7.2c-3.7-3-3.9-7.4-2.1-11.4
				c2-4.2,6.2-8,11.2-8.9c5.1-1,11.5,0.9,11.9,6.9c0.1,1-0.1,2.2-0.5,3.4c2,0.2,4-0.1,5.8-0.6L384.5,423.4z M372.1,424.4
				c-1.4-0.8-2.5-1.9-3.7-3.6l3.5-2.4c0.4,0.7,1,1.4,1.5,1.9c0.4-3.6-1.5-7.6-5.3-4.9c-3.4,2.5-8.8,11.8-5.5,15.4
				c1.8,2,5.6,0.8,9.4-6.3C372,424.5,372.1,424.4,372.1,424.4z"/>
			<path class="st4" d="M402.1,443.3c-6.8,6.3-17.3,4.4-14.8-2.9c-7.4,3.2-15.3-0.8-8.4-9.6l9.9-12.2l5.8,3c-5,6.2-8.7,10.7-12,15
				c-3.3,4.2,2.3,3.6,6.1,1.1c0.3-0.4,0.6-0.8,10.7-13.5l5.7,3c-4.9,6.3-8.4,10.6-11.9,15.1c-3.5,4.5,3.8,3.6,7.2,0.2L402.1,443.3z"
				/>
			<path class="st4" d="M425.5,444l-5.8,0.3c-1.5-4.6-6.5-3.7-10.8-1.9l-10.4,9.6l-5.5-4l18.1-16.5l5.3,3.9l-3.9,3.6
				C418,436.7,422.7,437.2,425.5,444z"/>
			<path class="st4" d="M429.9,468.2c-5.5,1.6-10.9,1.1-14.9-2.4c-5.2-4.6-2.3-10.7,3.2-14.5c3.8-2.7,9-4.4,13.3-2.7
				c2.6,1,4.2,2.9,4.5,5c0.4,3.1-1.8,6.2-4.7,7.1c-0.4,0.2-0.8,0.3-1.3,0.4l1.1-4.3c2.3-0.8,3.2-2,3.1-2.7c-0.2-0.7-1-1.3-2.3-1.4
				c-3.3-0.5-7.1,1.4-9.5,3.3c-3.9,3.1-5,6-4,8.2c1.6,3.4,6.4,3.3,10.2,2.8L429.9,468.2z"/>
			<path class="st4" d="M441.4,483c-7.7,1.5-11.6-0.5-14.9-4.8c-5.5-7.2,3.3-14.6,11.6-15.6c6.7-0.8,11.6,3.3,11.5,6.9
				c0,3.1-2.8,5.5-5.9,6.2c-4.5,0.8-8.2-1.3-10.7-4.6c-1.8,1.5-3.3,3.9-2.8,6.1c1,4,5.7,5.1,10,4.5L441.4,483z M434.9,469.7
				c4.6,6,12.2,0.9,12.2-0.6c0-1.2-2.1-2.3-5.3-1.9c-1.8,0.2-4,0.9-6.5,2.2C435.2,469.5,435,469.6,434.9,469.7z"/>
			<path class="st4" d="M454.5,506.7c-5.7-0.1-10.7-2.3-13.4-6.8c-3.6-6,1.1-10.9,7.5-12.8c4.5-1.4,9.9-1.4,13.5,1.5
				c2.1,1.7,3.2,4,2.8,6.1c-0.5,3.1-3.6,5.3-6.7,5.3c-0.5,0-0.9,0-1.3,0l2.4-3.8c2.4,0,3.7-0.9,3.7-1.6s-0.5-1.5-1.7-2.1
				c-3-1.5-7.2-0.8-10.1,0.2c-4.7,1.7-6.6,4.2-6.3,6.6c0.5,3.7,5.1,5.2,8.8,5.8L454.5,506.7z"/>
			<path class="st4" d="M471.2,527.4c-2.3-1.2-4.2-2.6-5.6-4c-10.8,2.4-17.8-4.6-17.7-10.6c0-4.8,3.4-7.7,7.7-8.7
				c4.6-1.1,10.1-0.1,14,3.2c4,3.3,6.4,9.5,2,13.6c-0.7,0.7-1.7,1.3-2.9,1.7c1.1,1.6,2.6,3.1,4.1,4.2L471.2,527.4z M462.7,518.3
				c-0.3-1.5-0.1-3.1,0.5-5.1l4.1,1.2c-0.3,0.8-0.5,1.6-0.5,2.4c3.1-1.9,5-5.8,0.5-7.1c-4.1-1.1-14.7,0.4-15.5,5.3
				c-0.5,2.6,2.9,4.9,10.7,3.4C462.6,518.3,462.7,518.3,462.7,518.3z"/>
			<path class="st4" d="M467.1,556.6c-9.5-1.7-14.7-12.4-6.4-14.5c-8.5-3.7-9.1-14.7,1-15.6c14.5-1.3,20,10,17.4,14.7
				c-0.2,0.2-0.4,0.5-0.6,0.7l11.6,0.3l1.2,6.4c-9-0.1-23.2-0.4-28.9-0.5c-5.7-0.1-0.4,6,4.5,6.7L467.1,556.6z M476,541.8
				c4.7-3.8-1.4-8.5-9.4-8.7c-8.9-0.3-12.9,3.6-2.8,8.6c0.2,0,0.6-0.1,0.8,0L476,541.8z"/>
			<path class="st4" d="M466.4,573c-7-3.5-8.9-7.4-9-12.9c0-9.1,11.5-9.6,18.7-5.4c5.8,3.5,7.2,9.7,5,12.5c-1.9,2.5-5.5,2.7-8.4,1.3
				c-4.1-2-5.7-6-5.7-10.1c-2.3,0.1-5,1.1-5.9,3.2c-1.6,3.8,1.4,7.5,5.2,9.7L466.4,573z M469.3,558.5c0,7.6,9.2,8.2,10.1,6.9
				c0.7-1-0.3-3.1-3.1-4.7c-1.6-1-3.8-1.8-6.5-2.2C469.6,558.6,469.4,558.5,469.3,558.5z"/>
		</g>
		<g>
			<circle id="Circle_1_" class="st3" cx="320.3" cy="565.1" r="179.5"/>
			<path class="st4" d="M451.9,630.4c-7.9-7.6-4.2-23.4,4.5-27.8c7.7-4.1,19.6,3.1,24.2,10.3c1.9,3.1,2.8,6.3,2.8,9.1
				c0.1,3.7-1.1,7-3.2,9c-1.8,1.8-4.2,2.7-7.1,2.1c-2.5-0.5-5.3-2.3-8.1-5.5l7.2-1.7c0.9,1.1,1.6,2.3,3,2.7c1.5,0.4,2.5-0.3,3-1.7
				c0.5-1.5,0.3-3.6-0.8-6.1c-2.8-6.4-11.8-13.5-18.6-11.9c-6.9,1.5-12,12.9-6.1,19.4L451.9,630.4z"/>
			<path class="st4" d="M446.3,638.7c-7.2-7.6-3.6-20.9,6.8-12.9l20.3,15.7l-2.9,5.8c-6.6-5.1-18.6-14.5-23-18
				c-4.4-3.4-3.7,4.4-0.4,7.7L446.3,638.7z"/>
			<path class="st4" d="M439.7,649.8c-6.9-8.6-1.7-22.5,8.3-13.2l11.4,10.6l-3.4,5.7c-6.1-5.5-9.8-9-14.1-12.9
				c-4.4-3.9-4.4,4.4-1.2,8.2L439.7,649.8z M461.8,650.5c1-0.2,1.9,0,2.8,0.5c0.9,0.6,1.4,1.3,1.7,2.3c0.2,1,0.1,2-0.5,2.9
				c-0.6,0.9-1.3,1.4-2.3,1.7c-1.1,0.3-2,0.1-2.9-0.4c-0.9-0.6-1.5-1.4-1.7-2.4s0-2,0.5-2.9C460,651.3,460.8,650.7,461.8,650.5z"/>
			<path class="st4" d="M428.9,663.1c-2.2-5.2-2.4-10.7,0.7-15c4-5.7,10.4-3.4,14.8,1.6c3.1,3.5,5.4,8.4,4.2,12.9
				c-0.7,2.7-2.4,4.5-4.4,5.1c-3,0.8-6.3-1.1-7.6-3.9c-0.2-0.4-0.4-0.8-0.5-1.2l4.4,0.6c1,2.2,2.3,3,3,2.7s1.1-1.1,1.2-2.4
				c0.1-3.4-2.2-6.9-4.4-9.1c-3.5-3.6-6.6-4.3-8.6-3.1c-3.2,1.9-2.6,6.8-1.7,10.4L428.9,663.1z"/>
			<path class="st4" d="M411,669l4.8-4.9l9.6,2l-4.8-6.9l4.7-4.8l19.3,28.3l-4.5,4.6c-3.5-5-6.1-9-9.5-14c0.5,2.7,0.8,6.4,0.1,9
				c-1.8,7.8-11.8,0.8-7.2-10.8L411,669z M428.9,680.6c0.7-2.4-0.3-7.7-0.7-10.3l-1.3-2c-0.2,0.5-0.4,1-0.5,1.4
				C423.3,677.4,427.7,684.8,428.9,680.6z"/>
			<path class="st4" d="M395,690.9c-2.7-10.6,7.3-21,12.7-8.6l5.1,11.7l2.4-1.6l0.7,3.1l-1.9,1.3l2.5,5.9l-4.8,5l-3.1-7.1l-3.2,2.2
				l-0.5-3.2l2.5-1.7l-6.5-14.9c-2.3-5.2-5.5,2.1-4.2,6.9L395,690.9z"/>
			<path class="st4" d="M376.7,710.1c0.9-2.4,2-4.5,3.3-6.1c-3.7-10.4,2.3-18.2,8.3-18.9c4.7-0.6,8,2.4,9.6,6.5
				c1.7,4.4,1.4,10-1.4,14.3c-2.8,4.3-8.6,7.6-13.2,3.7c-0.8-0.6-1.5-1.6-2.1-2.7c-1.5,1.3-2.7,3-3.6,4.6L376.7,710.1z M384.7,700.5
				c1.5-0.4,3.1-0.5,5.1-0.1l-0.7,4.2c-0.8-0.2-1.7-0.3-2.4-0.2c2.3,2.8,6.4,4.3,7.1-0.4c0.6-4.2-2.3-14.5-7.2-14.7
				c-2.7-0.1-4.5,3.5-2,11.1C384.6,700.4,384.6,700.5,384.7,700.5z"/>
			<path class="st4" d="M341.9,719.1c1.5-2.1,3-3.9,4.6-5.2c-1.2-11,6.4-17.2,12.4-16.4c4.7,0.5,7.3,4.2,7.9,8.6
				c0.6,4.6-1,10-4.7,13.5c-3.7,3.6-10.1,5.4-13.7,0.5c-0.6-0.8-1.1-1.9-1.4-3.1c-1.8,0.9-3.4,2.3-4.6,3.6L341.9,719.1z
				 M351.9,711.7c1.6-0.1,3.1,0.2,5,1.1l-1.6,3.9c-0.7-0.4-1.5-0.7-2.3-0.8c1.6,3.3,5.3,5.6,7,1.3c1.5-3.9,1.1-14.7-3.6-16
				c-2.6-0.8-5.2,2.3-4.6,10.3C351.8,711.5,351.9,711.6,351.9,711.7z"/>
			<path class="st4" d="M321.8,716.8c-0.2-3.1,0.2-6.3,1.5-9.1c0.6-1.4,1.4-2.7,2.6-3.6c1.2-1.2,2.8-1.9,4.7-2.1
				c2-0.2,5,0.5,6.1,1.6l1.5-14l6.7-0.6l-4,36.5l-6.7,0.6l0.2-1.5C327.3,730.2,322.3,723.4,321.8,716.8z M334.5,722.2l1.8-15.9
				c-2.3-2.6-4.8-1.4-6.2,1c-0.8,1.4-1.5,3.6-1.7,5.9C328,717.9,328.5,727,334.5,722.2z"/>
			<path class="st4" d="M299.4,709.9c4.1-6.7,8.1-8.3,13.6-7.8c9,0.8,8.6,12.2,3.7,19.1c-4,5.5-10.2,6.3-12.9,3.9
				c-2.3-2.1-2.2-5.7-0.6-8.5c2.4-3.9,6.5-5.1,10.6-4.8c0.1-2.3-0.6-5-2.6-6.2c-3.6-1.9-7.6,0.7-10.1,4.4L299.4,709.9z M313.6,714.1
				c-7.6-0.7-8.9,8.4-7.8,9.4c0.9,0.8,3.1,0,5-2.7c1.1-1.5,2.1-3.6,2.7-6.2C313.5,714.4,313.6,714.2,313.6,714.1z"/>
			<path class="st4" d="M273.4,704.5c6.3-10,19.3-8.5,14.8,3.3c-1.3,3.2-2.6,6.3-3.9,9.5c-2.1,5.2,5,2.6,7.6-1.3l6.2-15l6.7,1.4
				l-9.6,22.5l-6.4-1.3l1.4-3.4c-6.3,4.7-15.1,2.7-11-7.5c2.3-5.6,1.7-4,3.9-9.5c2.2-5.6-5.4-2.6-7.8,1.7L273.4,704.5z"/>
			<path class="st4" d="M254.1,693.6c3.8,1,7,3.5,8.2,7.1c1.8,6-2.8,13.9-7.2,17c-2.6,1.9-5.6,2.6-8.4,2.6c-3.4,0.1-6.6-0.9-9.2-2.6
				s-4.2-3.9-4.6-6.4c-0.3-2.6,0.9-5.3,4.6-7.8l3,5.5c-1.5,0.9-4.1,2.9-3.3,4.8c0.6,1.4,2.4,2.3,4.8,2.3c1.4,0,3-0.3,4.7-1
				c4.5-2,9-7.9,9.6-12.8c0.2-2.2-0.5-4-1.8-5.2c-1.6-1.2-4.1-1.7-7.1-1.2c-0.6,0.8-1.5,1.9-3.1,4c-1.5-0.5-5.4-1.6-6.6-1.9
				l9.3-11.8c2.1-2.7,3.7-4.9,6.7-6.5c1.1-0.6,2.4-1,3.6-1.2c2.6-0.4,5,0,7.2,1.2c1.6,0.9,3,2.2,4,3.9c1.1,1.7,1.5,3.7,1.4,5.8
				c-2,0.4-4.7,1-6,1.3c0.4-1.4,0.4-2.7,0.3-3.9c-0.2-1.3-0.7-2.4-1.5-3.2c-1.1-1.1-2.8-1.4-4.7-0.2c-0.8,0.4-1.5,1-2.2,1.9
				c-2.2,2.2-4.4,5.3-6.1,7.8C251,693.1,252.6,693.3,254.1,693.6z"/>
			<path class="st4" d="M225.9,700.7c0.1,1-0.1,1.9-0.7,2.8c-0.6,0.8-1.4,1.4-2.4,1.6c-1,0.1-2,0-2.9-0.7c-0.9-0.6-1.4-1.4-1.5-2.4
				c-0.2-1.1,0-2,0.6-2.9c0.6-0.9,1.5-1.4,2.5-1.5s2,0.1,2.8,0.7S225.7,699.7,225.9,700.7z M228,678.7c9.1-6.3,22.5-0.3,12.6,9.2
				l-11.3,10.6l-5.4-3.8c5.9-5.8,9.6-9.2,13.8-13.2c4.2-4.1-4.1-4.7-8.1-1.8L228,678.7z"/>
			<path class="st4" d="M218.6,670.2c9.5-5.4,22.2,1.6,11.6,10l-10,7.9l2.2,1.9l-2.8,1.5l-1.8-1.5l-5,3.9l-6.1-3.4l6-4.9l-3-2.5
				l2.9-1.3l2.3,1.9l12.7-10.1c4.5-3.6-3.5-4.8-7.7-2.2L218.6,670.2z"/>
			<path class="st4" d="M173.4,660.2l32.3-17.6l4.2,5l-16.3,8.8l6,7.1l16.3-8.9l4.3,5.1l-28.8,15.6c2.4,2.4,4.8,4.5,7.6,4.9
				c2.1,0.4,4.9-2.3,6.3-5.9l6.4,3c-4.5,4.9-8.7,6.5-12.6,6c-5.6-0.6-10.7-5.4-15.6-11l12.4-6.8l-6-7.2l-12.3,6.7L173.4,660.2z"/>
			<path class="st4" d="M184.1,619.7c9.2-1.4,16.8,6,10.6,10.7c7.9,1.5,12.2,9.2,1.6,12.7l-15,4.6l-3.1-5.8c7.6-2.4,13.2-4,18.4-5.7
				c5.1-1.6,0.1-4.3-4.4-4.3c-0.5,0.1-1,0.3-16.5,5.2l-3-5.7c7.6-2.4,12.9-4.1,18.3-5.8c5.4-1.7-1.1-5.1-5.9-4.2L184.1,619.7z"/>
			<path class="st4" d="M177.3,604c9.8-0.5,12.1,3.5,14.2,9.3c0.5,1.5,1.1,3,1.7,4.8c0.2,0.6,0.7,2.1,0.9,2.6l-34,4.6l-2.1-6
				l10.3-1.5c-0.9-0.9-1.6-1.9-2-3.2c-0.7-2-0.6-3.7-0.1-5.1c0.5-1.3,1.4-2.3,2.6-3.3C171,604.9,174.1,604,177.3,604z M170.9,612.1
				c-1.5,1.4-1.9,3.4,0.1,5.4l16.8-2.3c2.3-6.8-7.1-6.6-11.7-5.5C173.9,610.1,171.9,611.1,170.9,612.1z"/>
		</g>
		<g>
			<g>
				<polyline class="st1" points="208.9,587.1 171,582 136.1,604.3 				"/>
			</g>
		</g>
		<g>
			<g>
				<polyline class="st1" points="433.5,574 468.6,589.2 508.2,577.2 				"/>
			</g>
			<circle id="XMLID_5_" class="st2" cx="320.3" cy="565.1" r="113.6"/>
		</g>
	</g>
</g>
</svg>
