<?xml version="1.0" encoding="utf-8"?>
<!-- Generator: Adobe Illustrator 19.0.0, SVG Export Plug-In . SVG Version: 6.00 Build 0)  -->
<svg version="1.1" id="Layer_1" xmlns="http://www.w3.org/2000/svg" xmlns:xlink="http://www.w3.org/1999/xlink" x="0px" y="0px"
	 viewBox="-23.9 168.4 650.5 650.5" style="enable-background:new -23.9 168.4 650.5 650.5;" xml:space="preserve">
<style type="text/css">
	.st0{fill:#89A858;}
	.st1{fill:#FFFFFF;}
	.st2{fill:#A3CF69;}
</style>
<g id="Circle_2_">
	<circle id="Circle_3_" class="st0" cx="301.3" cy="493.6" r="325.2"/>
	<g id="Circles_1_">
		<circle id="XMLID_240_" class="st1" cx="-12.4" cy="482.7" r="3.4"/>
		<circle id="XMLID_239_" class="st1" cx="-12.5" cy="499.1" r="3.4"/>
		<circle id="XMLID_238_" class="st1" cx="-11.9" cy="515.6" r="3.4"/>
		<circle id="XMLID_237_" class="st1" cx="-10.2" cy="531.9" r="3.4"/>
		<circle id="XMLID_236_" class="st1" cx="-7.8" cy="548.1" r="3.4"/>
		<circle id="XMLID_235_" class="st1" cx="-4.5" cy="564.3" r="3.4"/>
		<circle id="XMLID_234_" class="st1" cx="-0.4" cy="580.2" r="3.4"/>
		<circle id="XMLID_233_" class="st1" cx="4.5" cy="595.9" r="3.4"/>
		<circle id="XMLID_232_" class="st1" cx="10.2" cy="611.2" r="3.4"/>
		<circle id="XMLID_231_" class="st1" cx="16.8" cy="626.3" r="3.4"/>
		<circle id="XMLID_230_" class="st1" cx="24.1" cy="641.1" r="3.4"/>
		<circle id="XMLID_229_" class="st1" cx="32.2" cy="655.3" r="3.4"/>
		<circle id="XMLID_228_" class="st1" cx="41.1" cy="669.2" r="3.4"/>
		<circle id="XMLID_227_" class="st1" cx="50.7" cy="682.6" r="3.4"/>
		<circle id="XMLID_226_" class="st1" cx="60.9" cy="695.4" r="3.4"/>
		<circle id="XMLID_225_" class="st1" cx="71.8" cy="707.8" r="3.4"/>
		<circle id="XMLID_224_" class="st1" cx="83.2" cy="719.4" r="3.4"/>
		<circle id="XMLID_223_" class="st1" cx="95.4" cy="730.5" r="3.4"/>
		<circle id="XMLID_222_" class="st1" cx="108.1" cy="741" r="3.4"/>
		<circle id="XMLID_221_" class="st1" cx="121.3" cy="750.8" r="3.4"/>
		<circle id="XMLID_220_" class="st1" cx="135" cy="759.9" r="3.4"/>
		<circle id="XMLID_219_" class="st1" cx="149.2" cy="768.2" r="3.4"/>
		<circle id="XMLID_218_" class="st1" cx="163.7" cy="775.8" r="3.4"/>
		<circle id="XMLID_217_" class="st1" cx="178.7" cy="782.6" r="3.4"/>
		<circle id="XMLID_216_" class="st1" cx="193.9" cy="788.6" r="3.4"/>
		<circle id="XMLID_215_" class="st1" cx="209.6" cy="793.8" r="3.4"/>
		<circle id="XMLID_214_" class="st1" cx="225.4" cy="798.2" r="3.4"/>
		<circle id="XMLID_213_" class="st1" cx="241.5" cy="801.8" r="3.4"/>
		<circle id="XMLID_211_" class="st1" cx="257.6" cy="804.5" r="3.4"/>
		<circle id="XMLID_210_" class="st1" cx="274" cy="806.3" r="3.4"/>
		<circle id="XMLID_209_" class="st1" cx="290.4" cy="807.4" r="3.4"/>
		<circle id="XMLID_208_" class="st1" cx="306.8" cy="807.5" r="3.4"/>
		<circle id="XMLID_207_" class="st1" cx="323.3" cy="806.8" r="3.4"/>
		<circle id="XMLID_206_" class="st1" cx="339.6" cy="805.2" r="3.4"/>
		<circle id="XMLID_205_" class="st1" cx="355.8" cy="802.8" r="3.4"/>
		<circle id="XMLID_204_" class="st1" cx="372" cy="799.5" r="3.4"/>
		<circle id="XMLID_203_" class="st1" cx="387.9" cy="795.4" r="3.4"/>
		<circle id="XMLID_202_" class="st1" cx="403.6" cy="790.5" r="3.4"/>
		<circle id="XMLID_201_" class="st1" cx="418.9" cy="784.8" r="3.4"/>
		<circle id="XMLID_200_" class="st1" cx="434" cy="778.2" r="3.4"/>
		<circle id="XMLID_199_" class="st1" cx="448.8" cy="770.9" r="3.4"/>
		<circle id="XMLID_198_" class="st1" cx="463" cy="762.8" r="3.4"/>
		<circle id="XMLID_197_" class="st1" cx="476.9" cy="753.9" r="3.4"/>
		<circle id="XMLID_196_" class="st1" cx="490.3" cy="744.3" r="3.4"/>
		<circle id="XMLID_195_" class="st1" cx="503.1" cy="734.1" r="3.4"/>
		<circle id="XMLID_194_" class="st1" cx="515.5" cy="723.2" r="3.4"/>
		<circle id="XMLID_193_" class="st1" cx="527.1" cy="711.7" r="3.4"/>
		<circle id="XMLID_192_" class="st1" cx="538.2" cy="699.6" r="3.4"/>
		<circle id="XMLID_191_" class="st1" cx="548.7" cy="686.9" r="3.4"/>
		<circle id="XMLID_190_" class="st1" cx="558.5" cy="673.7" r="3.4"/>
		<circle id="XMLID_189_" class="st1" cx="567.6" cy="660" r="3.4"/>
		<circle id="XMLID_188_" class="st1" cx="575.9" cy="645.8" r="3.4"/>
		<circle id="XMLID_187_" class="st1" cx="583.5" cy="631.3" r="3.4"/>
		<circle id="XMLID_186_" class="st1" cx="590.3" cy="616.3" r="3.4"/>
		<circle id="XMLID_185_" class="st1" cx="596.3" cy="601" r="3.4"/>
		<circle id="XMLID_184_" class="st1" cx="601.5" cy="585.4" r="3.4"/>
		<circle id="XMLID_183_" class="st1" cx="605.9" cy="569.6" r="3.4"/>
		<circle id="XMLID_182_" class="st1" cx="609.5" cy="553.5" r="3.4"/>
		<circle id="XMLID_181_" class="st1" cx="612.2" cy="537.4" r="3.4"/>
		<circle id="XMLID_180_" class="st1" cx="614" cy="521" r="3.4"/>
		<circle id="XMLID_179_" class="st1" cx="615.1" cy="504.6" r="3.4"/>
		<circle id="XMLID_178_" class="st1" cx="615.2" cy="488.2" r="3.4"/>
		<circle id="XMLID_177_" class="st1" cx="614.5" cy="471.7" r="3.4"/>
		<circle id="XMLID_176_" class="st1" cx="612.9" cy="455.4" r="3.4"/>
		<circle id="XMLID_175_" class="st1" cx="610.5" cy="439.2" r="3.4"/>
		<circle id="XMLID_174_" class="st1" cx="607.2" cy="423" r="3.4"/>
		<circle id="XMLID_173_" class="st1" cx="603.1" cy="407.1" r="3.4"/>
		<circle id="XMLID_172_" class="st1" cx="598.2" cy="391.4" r="3.4"/>
		<circle id="XMLID_171_" class="st1" cx="592.5" cy="376.1" r="3.4"/>
		<circle id="XMLID_170_" class="st1" cx="585.9" cy="361" r="3.4"/>
		<circle id="XMLID_169_" class="st1" cx="578.6" cy="346.2" r="3.4"/>
		<circle id="XMLID_168_" class="st1" cx="570.5" cy="332" r="3.4"/>
		<circle id="XMLID_167_" class="st1" cx="561.6" cy="318.1" r="3.4"/>
		<circle id="XMLID_166_" class="st1" cx="552" cy="304.7" r="3.4"/>
		<circle id="XMLID_165_" class="st1" cx="541.8" cy="291.9" r="3.4"/>
		<circle id="XMLID_164_" class="st1" cx="530.9" cy="279.5" r="3.4"/>
		<circle id="XMLID_163_" class="st1" cx="519.4" cy="267.9" r="3.4"/>
		<circle id="XMLID_162_" class="st1" cx="507.3" cy="256.8" r="3.4"/>
		<circle id="XMLID_161_" class="st1" cx="494.6" cy="246.3" r="3.4"/>
		<circle id="XMLID_160_" class="st1" cx="481.4" cy="236.5" r="3.4"/>
		<circle id="XMLID_159_" class="st1" cx="467.7" cy="227.4" r="3.4"/>
		<circle id="XMLID_158_" class="st1" cx="453.5" cy="219" r="3.4"/>
		<circle id="XMLID_157_" class="st1" cx="439" cy="211.5" r="3.4"/>
		<circle id="XMLID_156_" class="st1" cx="424" cy="204.7" r="3.4"/>
		<circle id="XMLID_155_" class="st1" cx="408.7" cy="198.7" r="3.4"/>
		<circle id="XMLID_154_" class="st1" cx="393.1" cy="193.5" r="3.4"/>
		<circle id="XMLID_153_" class="st1" cx="377.3" cy="189.1" r="3.4"/>
		<circle id="XMLID_152_" class="st1" cx="361.2" cy="185.5" r="3.4"/>
		<circle id="XMLID_151_" class="st1" cx="345.1" cy="182.8" r="3.4"/>
		<circle id="XMLID_150_" class="st1" cx="328.7" cy="180.9" r="3.4"/>
		<circle id="XMLID_149_" class="st1" cx="312.3" cy="179.9" r="3.4"/>
		<circle id="XMLID_148_" class="st1" cx="295.9" cy="179.8" r="3.4"/>
		<circle id="XMLID_147_" class="st1" cx="279.4" cy="180.4" r="3.4"/>
		<circle id="XMLID_146_" class="st1" cx="263.1" cy="182.1" r="3.4"/>
		<circle id="XMLID_83_" class="st1" cx="246.9" cy="184.5" r="3.4"/>
		<circle id="XMLID_81_" class="st1" cx="230.7" cy="187.8" r="3.4"/>
		<circle id="XMLID_79_" class="st1" cx="214.8" cy="191.9" r="3.4"/>
		<circle id="XMLID_78_" class="st1" cx="199.1" cy="196.8" r="3.4"/>
		<circle id="XMLID_75_" class="st1" cx="183.8" cy="202.5" r="3.4"/>
		<circle id="XMLID_74_" class="st1" cx="168.7" cy="209.1" r="3.4"/>
		<circle id="XMLID_73_" class="st1" cx="153.9" cy="216.4" r="3.4"/>
		<circle id="XMLID_71_" class="st1" cx="139.7" cy="224.5" r="3.4"/>
		<circle id="XMLID_70_" class="st1" cx="125.8" cy="233.4" r="3.4"/>
		<circle id="XMLID_69_" class="st1" cx="112.4" cy="243" r="3.4"/>
		<circle id="XMLID_68_" class="st1" cx="99.6" cy="253.2" r="3.4"/>
		<circle id="XMLID_67_" class="st1" cx="87.2" cy="264.1" r="3.4"/>
		<circle id="XMLID_65_" class="st1" cx="75.6" cy="275.5" r="3.4"/>
		<circle id="XMLID_64_" class="st1" cx="64.5" cy="287.7" r="3.4"/>
		<circle id="XMLID_63_" class="st1" cx="54" cy="300.4" r="3.4"/>
		<circle id="XMLID_60_" class="st1" cx="44.2" cy="313.6" r="3.4"/>
		<circle id="XMLID_59_" class="st1" cx="35.1" cy="327.3" r="3.4"/>
		<circle id="XMLID_58_" class="st1" cx="26.7" cy="341.5" r="3.4"/>
		<circle id="XMLID_57_" class="st1" cx="19.2" cy="356" r="3.4"/>
		<circle id="XMLID_56_" class="st1" cx="12.4" cy="371" r="3.4"/>
		<circle id="XMLID_55_" class="st1" cx="6.4" cy="386.2" r="3.4"/>
		<circle id="XMLID_54_" class="st1" cx="1.2" cy="401.9" r="3.4"/>
		<circle id="XMLID_4_" class="st1" cx="-3.2" cy="417.7" r="3.4"/>
		<circle id="XMLID_3_" class="st1" cx="-6.8" cy="433.8" r="3.4"/>
		<circle id="XMLID_2_" class="st1" cx="-9.5" cy="449.9" r="3.4"/>
		<circle id="XMLID_1_" class="st1" cx="-11.4" cy="466.3" r="3.4"/>
	</g>
</g>
<g id="Circle_1_">
	<circle id="Circle" class="st2" cx="301.3" cy="493.6" r="301.7"/>
	<g id="Circles">
		<circle id="XMLID_212_" class="st1" cx="13.2" cy="483.6" r="3.2"/>
		<circle id="XMLID_5_" class="st1" cx="13.1" cy="498.6" r="3.2"/>
		<circle id="XMLID_6_" class="st1" cx="13.7" cy="513.8" r="3.2"/>
		<circle id="XMLID_7_" class="st1" cx="15.2" cy="528.7" r="3.2"/>
		<circle id="XMLID_8_" class="st1" cx="17.5" cy="543.7" r="3.2"/>
		<circle id="XMLID_9_" class="st1" cx="20.4" cy="558.5" r="3.2"/>
		<circle id="XMLID_10_" class="st1" cx="24.2" cy="573.1" r="3.2"/>
		<circle id="XMLID_11_" class="st1" cx="28.8" cy="587.6" r="3.2"/>
		<circle id="XMLID_12_" class="st1" cx="34" cy="601.6" r="3.2"/>
		<circle id="XMLID_13_" class="st1" cx="40" cy="615.5" r="3.2"/>
		<circle id="XMLID_14_" class="st1" cx="46.8" cy="629" r="3.2"/>
		<circle id="XMLID_15_" class="st1" cx="54.2" cy="642.1" r="3.2"/>
		<circle id="XMLID_16_" class="st1" cx="62.3" cy="654.9" r="3.2"/>
		<circle id="XMLID_17_" class="st1" cx="71.1" cy="667.1" r="3.2"/>
		<circle id="XMLID_18_" class="st1" cx="80.5" cy="678.9" r="3.2"/>
		<circle id="XMLID_19_" class="st1" cx="90.5" cy="690.3" r="3.2"/>
		<circle id="XMLID_20_" class="st1" cx="101" cy="701" r="3.2"/>
		<circle id="XMLID_21_" class="st1" cx="112.2" cy="711.2" r="3.2"/>
		<circle id="XMLID_22_" class="st1" cx="123.9" cy="720.8" r="3.2"/>
		<circle id="XMLID_23_" class="st1" cx="136" cy="729.8" r="3.2"/>
		<circle id="XMLID_24_" class="st1" cx="148.5" cy="738.1" r="3.2"/>
		<circle id="XMLID_25_" class="st1" cx="161.6" cy="745.8" r="3.2"/>
		<circle id="XMLID_26_" class="st1" cx="175" cy="752.8" r="3.2"/>
		<circle id="XMLID_27_" class="st1" cx="188.7" cy="759" r="3.2"/>
		<circle id="XMLID_28_" class="st1" cx="202.7" cy="764.6" r="3.2"/>
		<circle id="XMLID_29_" class="st1" cx="217.1" cy="769.3" r="3.2"/>
		<circle id="XMLID_30_" class="st1" cx="231.6" cy="773.4" r="3.2"/>
		<circle id="XMLID_31_" class="st1" cx="246.4" cy="776.6" r="3.2"/>
		<circle id="XMLID_32_" class="st1" cx="261.2" cy="779.1" r="3.2"/>
		<circle id="XMLID_33_" class="st1" cx="276.3" cy="780.8" r="3.2"/>
		<circle id="XMLID_34_" class="st1" cx="291.3" cy="781.8" r="3.2"/>
		<circle id="XMLID_35_" class="st1" cx="306.3" cy="781.9" r="3.2"/>
		<circle id="XMLID_36_" class="st1" cx="321.5" cy="781.2" r="3.2"/>
		<circle id="XMLID_37_" class="st1" cx="336.4" cy="779.8" r="3.2"/>
		<circle id="XMLID_38_" class="st1" cx="351.4" cy="777.5" r="3.2"/>
		<circle id="XMLID_39_" class="st1" cx="366.2" cy="774.6" r="3.2"/>
		<circle id="XMLID_40_" class="st1" cx="380.8" cy="770.8" r="3.2"/>
		<circle id="XMLID_41_" class="st1" cx="395.3" cy="766.2" r="3.2"/>
		<circle id="XMLID_42_" class="st1" cx="409.3" cy="761" r="3.2"/>
		<circle id="XMLID_43_" class="st1" cx="423.2" cy="755" r="3.2"/>
		<circle id="XMLID_44_" class="st1" cx="436.7" cy="748.2" r="3.2"/>
		<circle id="XMLID_45_" class="st1" cx="449.8" cy="740.8" r="3.2"/>
		<circle id="XMLID_46_" class="st1" cx="462.6" cy="732.7" r="3.2"/>
		<circle id="XMLID_47_" class="st1" cx="474.8" cy="723.9" r="3.2"/>
		<circle id="XMLID_48_" class="st1" cx="486.6" cy="714.5" r="3.2"/>
		<circle id="XMLID_49_" class="st1" cx="498" cy="704.5" r="3.2"/>
		<circle id="XMLID_50_" class="st1" cx="508.7" cy="693.9" r="3.2"/>
		<circle id="XMLID_51_" class="st1" cx="518.9" cy="682.8" r="3.2"/>
		<circle id="XMLID_52_" class="st1" cx="528.5" cy="671.1" r="3.2"/>
		<circle id="XMLID_53_" class="st1" cx="537.5" cy="659" r="3.2"/>
		<circle id="XMLID_61_" class="st1" cx="545.8" cy="646.5" r="3.2"/>
		<circle id="XMLID_62_" class="st1" cx="553.5" cy="633.4" r="3.2"/>
		<circle id="XMLID_66_" class="st1" cx="560.5" cy="620" r="3.2"/>
		<circle id="XMLID_72_" class="st1" cx="566.7" cy="606.3" r="3.2"/>
		<circle id="XMLID_76_" class="st1" cx="572.3" cy="592.2" r="3.2"/>
		<circle id="XMLID_77_" class="st1" cx="577" cy="577.9" r="3.2"/>
		<circle id="XMLID_80_" class="st1" cx="581.1" cy="563.4" r="3.2"/>
		<circle id="XMLID_82_" class="st1" cx="584.3" cy="548.6" r="3.2"/>
		<circle id="XMLID_84_" class="st1" cx="586.8" cy="533.8" r="3.2"/>
		<circle id="XMLID_85_" class="st1" cx="588.5" cy="518.7" r="3.2"/>
		<circle id="XMLID_86_" class="st1" cx="589.5" cy="503.7" r="3.2"/>
		<circle id="XMLID_87_" class="st1" cx="589.6" cy="488.7" r="3.2"/>
		<circle id="XMLID_88_" class="st1" cx="588.9" cy="473.5" r="3.2"/>
		<circle id="XMLID_89_" class="st1" cx="587.5" cy="458.6" r="3.2"/>
		<circle id="XMLID_90_" class="st1" cx="585.2" cy="443.6" r="3.2"/>
		<circle id="XMLID_91_" class="st1" cx="582.3" cy="428.8" r="3.2"/>
		<circle id="XMLID_92_" class="st1" cx="578.5" cy="414.2" r="3.2"/>
		<circle id="XMLID_93_" class="st1" cx="573.9" cy="399.7" r="3.2"/>
		<circle id="XMLID_94_" class="st1" cx="568.7" cy="385.7" r="3.2"/>
		<circle id="XMLID_95_" class="st1" cx="562.7" cy="371.8" r="3.2"/>
		<circle id="XMLID_96_" class="st1" cx="555.9" cy="358.3" r="3.2"/>
		<circle id="XMLID_97_" class="st1" cx="548.5" cy="345.2" r="3.2"/>
		<circle id="XMLID_98_" class="st1" cx="540.4" cy="332.4" r="3.2"/>
		<circle id="XMLID_99_" class="st1" cx="531.6" cy="320.2" r="3.2"/>
		<circle id="XMLID_100_" class="st1" cx="522.2" cy="308.4" r="3.2"/>
		<circle id="XMLID_101_" class="st1" cx="512.2" cy="297" r="3.2"/>
		<circle id="XMLID_102_" class="st1" cx="501.6" cy="286.3" r="3.2"/>
		<circle id="XMLID_103_" class="st1" cx="490.5" cy="276.1" r="3.2"/>
		<circle id="XMLID_104_" class="st1" cx="478.8" cy="266.5" r="3.2"/>
		<circle id="XMLID_105_" class="st1" cx="466.7" cy="257.5" r="3.2"/>
		<circle id="XMLID_106_" class="st1" cx="454.2" cy="249.2" r="3.2"/>
		<circle id="XMLID_107_" class="st1" cx="441.1" cy="241.4" r="3.2"/>
		<circle id="XMLID_108_" class="st1" cx="427.7" cy="234.5" r="3.2"/>
		<circle id="XMLID_109_" class="st1" cx="414" cy="228.3" r="3.2"/>
		<circle id="XMLID_110_" class="st1" cx="399.9" cy="222.7" r="3.2"/>
		<circle id="XMLID_111_" class="st1" cx="385.6" cy="218" r="3.2"/>
		<circle id="XMLID_112_" class="st1" cx="371.1" cy="213.9" r="3.2"/>
		<circle id="XMLID_113_" class="st1" cx="356.3" cy="210.7" r="3.2"/>
		<circle id="XMLID_114_" class="st1" cx="341.5" cy="208.2" r="3.2"/>
		<circle id="XMLID_115_" class="st1" cx="326.4" cy="206.4" r="3.2"/>
		<circle id="XMLID_116_" class="st1" cx="311.4" cy="205.5" r="3.2"/>
		<circle id="XMLID_117_" class="st1" cx="296.4" cy="205.4" r="3.2"/>
		<circle id="XMLID_118_" class="st1" cx="281.2" cy="206" r="3.2"/>
		<circle id="XMLID_119_" class="st1" cx="266.3" cy="207.5" r="3.2"/>
		<circle id="XMLID_120_" class="st1" cx="251.3" cy="209.8" r="3.2"/>
		<circle id="XMLID_121_" class="st1" cx="236.5" cy="212.7" r="3.2"/>
		<circle id="XMLID_122_" class="st1" cx="221.9" cy="216.5" r="3.2"/>
		<circle id="XMLID_123_" class="st1" cx="207.4" cy="221.1" r="3.2"/>
		<circle id="XMLID_124_" class="st1" cx="193.4" cy="226.3" r="3.2"/>
		<circle id="XMLID_125_" class="st1" cx="179.5" cy="232.3" r="3.2"/>
		<circle id="XMLID_126_" class="st1" cx="166" cy="239.1" r="3.2"/>
		<circle id="XMLID_127_" class="st1" cx="152.9" cy="246.5" r="3.2"/>
		<circle id="XMLID_128_" class="st1" cx="140.1" cy="254.6" r="3.2"/>
		<circle id="XMLID_129_" class="st1" cx="127.9" cy="263.4" r="3.2"/>
		<circle id="XMLID_130_" class="st1" cx="116.1" cy="272.8" r="3.2"/>
		<circle id="XMLID_131_" class="st1" cx="104.7" cy="282.8" r="3.2"/>
		<circle id="XMLID_132_" class="st1" cx="94" cy="293.3" r="3.2"/>
		<circle id="XMLID_133_" class="st1" cx="83.8" cy="304.5" r="3.2"/>
		<circle id="XMLID_134_" class="st1" cx="74.2" cy="316.2" r="3.2"/>
		<circle id="XMLID_135_" class="st1" cx="65.2" cy="328.3" r="3.2"/>
		<circle id="XMLID_136_" class="st1" cx="56.9" cy="340.8" r="3.2"/>
		<circle id="XMLID_137_" class="st1" cx="49.1" cy="353.9" r="3.2"/>
		<circle id="XMLID_138_" class="st1" cx="42.2" cy="367.3" r="3.2"/>
		<circle id="XMLID_139_" class="st1" cx="36" cy="381" r="3.2"/>
		<circle id="XMLID_140_" class="st1" cx="30.4" cy="395" r="3.2"/>
		<circle id="XMLID_141_" class="st1" cx="25.7" cy="409.4" r="3.2"/>
		<circle id="XMLID_142_" class="st1" cx="21.6" cy="423.9" r="3.2"/>
		<circle id="XMLID_143_" class="st1" cx="18.4" cy="438.7" r="3.2"/>
		<circle id="XMLID_144_" class="st1" cx="15.9" cy="453.5" r="3.2"/>
		<circle id="XMLID_145_" class="st1" cx="14.1" cy="468.6" r="3.2"/>
	</g>
</g>
</svg>
