<?xml version="1.0" encoding="utf-8"?>
<!-- Generator: Adobe Illustrator 19.0.0, SVG Export Plug-In . SVG Version: 6.00 Build 0)  -->
<svg version="1.1" id="Layer_1" xmlns="http://www.w3.org/2000/svg" xmlns:xlink="http://www.w3.org/1999/xlink" x="0px" y="0px"
	 viewBox="-10.1 234.7 660.9 660.9" style="enable-background:new -10.1 234.7 660.9 660.9;" xml:space="preserve" width="1" height="1">
<style type="text/css">
	.st0{fill:#C63E3E;stroke:#000000;stroke-width:5;}
	.st1{fill:#FFFFFF;stroke:#000000;stroke-width:2;}
</style>
<g id="Circle_1_">
	<circle id="Circle_5_" class="st0" cx="320.3" cy="565.1" r="301.7"/>
	<g id="Circles">
		<circle id="XMLID_212_" class="st1" cx="32.1" cy="555.1" r="3.2"/>
		<circle id="XMLID_5_" class="st1" cx="32" cy="570.1" r="3.2"/>
		<circle id="XMLID_6_" class="st1" cx="32.6" cy="585.3" r="3.2"/>
		<circle id="XMLID_7_" class="st1" cx="34.1" cy="600.2" r="3.2"/>
		<circle id="XMLID_8_" class="st1" cx="36.4" cy="615.2" r="3.2"/>
		<circle id="XMLID_9_" class="st1" cx="39.3" cy="630" r="3.2"/>
		<circle id="XMLID_10_" class="st1" cx="43.1" cy="644.5" r="3.2"/>
		<circle id="XMLID_11_" class="st1" cx="47.7" cy="659" r="3.2"/>
		<circle id="XMLID_12_" class="st1" cx="52.9" cy="673" r="3.2"/>
		<circle id="XMLID_13_" class="st1" cx="58.9" cy="687" r="3.2"/>
		<circle id="XMLID_14_" class="st1" cx="65.7" cy="700.5" r="3.2"/>
		<circle id="XMLID_15_" class="st1" cx="73.1" cy="713.5" r="3.2"/>
		<circle id="XMLID_16_" class="st1" cx="81.2" cy="726.4" r="3.2"/>
		<circle id="XMLID_17_" class="st1" cx="90" cy="738.5" r="3.2"/>
		<circle id="XMLID_18_" class="st1" cx="99.4" cy="750.4" r="3.2"/>
		<circle id="XMLID_19_" class="st1" cx="109.4" cy="761.8" r="3.2"/>
		<circle id="XMLID_20_" class="st1" cx="119.9" cy="772.5" r="3.2"/>
		<circle id="XMLID_21_" class="st1" cx="131.1" cy="782.7" r="3.2"/>
		<circle id="XMLID_22_" class="st1" cx="142.8" cy="792.3" r="3.2"/>
		<circle id="XMLID_23_" class="st1" cx="154.9" cy="801.3" r="3.2"/>
		<circle id="XMLID_24_" class="st1" cx="167.4" cy="809.5" r="3.2"/>
		<circle id="XMLID_25_" class="st1" cx="180.6" cy="817.3" r="3.2"/>
		<circle id="XMLID_26_" class="st1" cx="193.9" cy="824.3" r="3.2"/>
		<circle id="XMLID_27_" class="st1" cx="207.6" cy="830.5" r="3.2"/>
		<circle id="XMLID_28_" class="st1" cx="221.6" cy="836" r="3.2"/>
		<circle id="XMLID_29_" class="st1" cx="236.1" cy="840.8" r="3.2"/>
		<circle id="XMLID_30_" class="st1" cx="250.6" cy="844.9" r="3.2"/>
		<circle id="XMLID_31_" class="st1" cx="265.3" cy="848" r="3.2"/>
		<circle id="XMLID_32_" class="st1" cx="280.1" cy="850.5" r="3.2"/>
		<circle id="XMLID_33_" class="st1" cx="295.2" cy="852.3" r="3.2"/>
		<circle id="XMLID_34_" class="st1" cx="310.2" cy="853.3" r="3.2"/>
		<circle id="XMLID_35_" class="st1" cx="325.2" cy="853.4" r="3.2"/>
		<circle id="XMLID_36_" class="st1" cx="340.4" cy="852.7" r="3.2"/>
		<circle id="XMLID_37_" class="st1" cx="355.3" cy="851.3" r="3.2"/>
		<circle id="XMLID_38_" class="st1" cx="370.3" cy="849" r="3.2"/>
		<circle id="XMLID_39_" class="st1" cx="385.1" cy="846" r="3.2"/>
		<circle id="XMLID_40_" class="st1" cx="399.7" cy="842.3" r="3.2"/>
		<circle id="XMLID_41_" class="st1" cx="414.2" cy="837.7" r="3.2"/>
		<circle id="XMLID_42_" class="st1" cx="428.2" cy="832.5" r="3.2"/>
		<circle id="XMLID_43_" class="st1" cx="442.1" cy="826.5" r="3.2"/>
		<circle id="XMLID_44_" class="st1" cx="455.6" cy="819.7" r="3.2"/>
		<circle id="XMLID_45_" class="st1" cx="468.7" cy="812.3" r="3.2"/>
		<circle id="XMLID_46_" class="st1" cx="481.5" cy="804.2" r="3.2"/>
		<circle id="XMLID_47_" class="st1" cx="493.7" cy="795.4" r="3.2"/>
		<circle id="XMLID_48_" class="st1" cx="505.5" cy="786" r="3.2"/>
		<circle id="XMLID_49_" class="st1" cx="517" cy="776" r="3.2"/>
		<circle id="XMLID_50_" class="st1" cx="527.7" cy="765.4" r="3.2"/>
		<circle id="XMLID_51_" class="st1" cx="537.9" cy="754.3" r="3.2"/>
		<circle id="XMLID_52_" class="st1" cx="547.5" cy="742.5" r="3.2"/>
		<circle id="XMLID_53_" class="st1" cx="556.5" cy="730.5" r="3.2"/>
		<circle id="XMLID_61_" class="st1" cx="564.8" cy="718" r="3.2"/>
		<circle id="XMLID_62_" class="st1" cx="572.5" cy="704.9" r="3.2"/>
		<circle id="XMLID_66_" class="st1" cx="579.5" cy="691.5" r="3.2"/>
		<circle id="XMLID_72_" class="st1" cx="585.7" cy="677.8" r="3.2"/>
		<circle id="XMLID_76_" class="st1" cx="591.3" cy="663.7" r="3.2"/>
		<circle id="XMLID_77_" class="st1" cx="596" cy="649.4" r="3.2"/>
		<circle id="XMLID_80_" class="st1" cx="600" cy="634.9" r="3.2"/>
		<circle id="XMLID_82_" class="st1" cx="603.3" cy="620" r="3.2"/>
		<circle id="XMLID_84_" class="st1" cx="605.8" cy="605.3" r="3.2"/>
		<circle id="XMLID_85_" class="st1" cx="607.5" cy="590.2" r="3.2"/>
		<circle id="XMLID_86_" class="st1" cx="608.5" cy="575.2" r="3.2"/>
		<circle id="XMLID_87_" class="st1" cx="608.5" cy="560.2" r="3.2"/>
		<circle id="XMLID_88_" class="st1" cx="607.9" cy="545" r="3.2"/>
		<circle id="XMLID_89_" class="st1" cx="606.5" cy="530.1" r="3.2"/>
		<circle id="XMLID_90_" class="st1" cx="604.2" cy="515.1" r="3.2"/>
		<circle id="XMLID_91_" class="st1" cx="601.3" cy="500.3" r="3.2"/>
		<circle id="XMLID_92_" class="st1" cx="597.5" cy="485.7" r="3.2"/>
		<circle id="XMLID_93_" class="st1" cx="592.9" cy="471.2" r="3.2"/>
		<circle id="XMLID_94_" class="st1" cx="587.7" cy="457.2" r="3.2"/>
		<circle id="XMLID_95_" class="st1" cx="581.7" cy="443.3" r="3.2"/>
		<circle id="XMLID_96_" class="st1" cx="574.9" cy="429.8" r="3.2"/>
		<circle id="XMLID_97_" class="st1" cx="567.5" cy="416.7" r="3.2"/>
		<circle id="XMLID_98_" class="st1" cx="559.4" cy="403.9" r="3.2"/>
		<circle id="XMLID_99_" class="st1" cx="550.5" cy="391.7" r="3.2"/>
		<circle id="XMLID_100_" class="st1" cx="541.2" cy="379.9" r="3.2"/>
		<circle id="XMLID_101_" class="st1" cx="531.2" cy="368.5" r="3.2"/>
		<circle id="XMLID_102_" class="st1" cx="520.5" cy="357.8" r="3.2"/>
		<circle id="XMLID_103_" class="st1" cx="509.4" cy="347.6" r="3.2"/>
		<circle id="XMLID_104_" class="st1" cx="497.7" cy="338" r="3.2"/>
		<circle id="XMLID_105_" class="st1" cx="485.6" cy="329" r="3.2"/>
		<circle id="XMLID_106_" class="st1" cx="473.1" cy="320.7" r="3.2"/>
		<circle id="XMLID_107_" class="st1" cx="460" cy="312.9" r="3.2"/>
		<circle id="XMLID_108_" class="st1" cx="446.6" cy="306" r="3.2"/>
		<circle id="XMLID_109_" class="st1" cx="432.9" cy="299.8" r="3.2"/>
		<circle id="XMLID_110_" class="st1" cx="418.8" cy="294.2" r="3.2"/>
		<circle id="XMLID_111_" class="st1" cx="404.5" cy="289.5" r="3.2"/>
		<circle id="XMLID_112_" class="st1" cx="390" cy="285.4" r="3.2"/>
		<circle id="XMLID_113_" class="st1" cx="375.2" cy="282.2" r="3.2"/>
		<circle id="XMLID_114_" class="st1" cx="360.4" cy="279.7" r="3.2"/>
		<circle id="XMLID_115_" class="st1" cx="345.3" cy="277.9" r="3.2"/>
		<circle id="XMLID_116_" class="st1" cx="330.3" cy="277" r="3.2"/>
		<circle id="XMLID_117_" class="st1" cx="315.3" cy="276.9" r="3.2"/>
		<circle id="XMLID_118_" class="st1" cx="300.1" cy="277.5" r="3.2"/>
		<circle id="XMLID_119_" class="st1" cx="285.2" cy="279" r="3.2"/>
		<circle id="XMLID_120_" class="st1" cx="270.3" cy="281.3" r="3.2"/>
		<circle id="XMLID_121_" class="st1" cx="255.4" cy="284.2" r="3.2"/>
		<circle id="XMLID_122_" class="st1" cx="240.8" cy="288" r="3.2"/>
		<circle id="XMLID_123_" class="st1" cx="226.3" cy="292.6" r="3.2"/>
		<circle id="XMLID_124_" class="st1" cx="212.3" cy="297.8" r="3.2"/>
		<circle id="XMLID_125_" class="st1" cx="198.4" cy="303.8" r="3.2"/>
		<circle id="XMLID_126_" class="st1" cx="184.9" cy="310.6" r="3.2"/>
		<circle id="XMLID_127_" class="st1" cx="171.8" cy="318" r="3.2"/>
		<circle id="XMLID_128_" class="st1" cx="159.1" cy="326.1" r="3.2"/>
		<circle id="XMLID_129_" class="st1" cx="146.8" cy="334.9" r="3.2"/>
		<circle id="XMLID_130_" class="st1" cx="135" cy="344.3" r="3.2"/>
		<circle id="XMLID_131_" class="st1" cx="123.6" cy="354.3" r="3.2"/>
		<circle id="XMLID_132_" class="st1" cx="112.9" cy="364.8" r="3.2"/>
		<circle id="XMLID_133_" class="st1" cx="102.8" cy="376" r="3.2"/>
		<circle id="XMLID_134_" class="st1" cx="93.1" cy="387.7" r="3.2"/>
		<circle id="XMLID_135_" class="st1" cx="84.1" cy="399.8" r="3.2"/>
		<circle id="XMLID_136_" class="st1" cx="75.8" cy="412.3" r="3.2"/>
		<circle id="XMLID_137_" class="st1" cx="68" cy="425.4" r="3.2"/>
		<circle id="XMLID_138_" class="st1" cx="61.1" cy="438.8" r="3.2"/>
		<circle id="XMLID_139_" class="st1" cx="54.9" cy="452.5" r="3.2"/>
		<circle id="XMLID_140_" class="st1" cx="49.3" cy="466.5" r="3.2"/>
		<circle id="XMLID_141_" class="st1" cx="44.6" cy="480.9" r="3.2"/>
		<circle id="XMLID_142_" class="st1" cx="40.5" cy="495.4" r="3.2"/>
		<circle id="XMLID_143_" class="st1" cx="37.3" cy="510.2" r="3.2"/>
		<circle id="XMLID_144_" class="st1" cx="34.8" cy="525" r="3.2"/>
		<circle id="XMLID_145_" class="st1" cx="33" cy="540.1" r="3.2"/>
	</g>
</g>
</svg>
