<?xml version="1.0" encoding="utf-8"?>
<!-- Generator: Adobe Illustrator 19.0.0, SVG Export Plug-In . SVG Version: 6.00 Build 0)  -->
<svg version="1.1" id="Layer_1" xmlns="http://www.w3.org/2000/svg" xmlns:xlink="http://www.w3.org/1999/xlink" x="0px" y="0px"
	 viewBox="-10.1 234.7 660.9 660.9" style="enable-background:new -10.1 234.7 660.9 660.9;" xml:space="preserve" width="1" height="1">
<style type="text/css">
	.st0{fill:#FFCACA;}
	.st1{fill:#F2E42F;}
	.st2{fill:none;stroke:#FFFFFF;stroke-width:5;}
	.st3{fill:#FFFFFF;stroke:#FFFFFF;stroke-width:5;}
</style>
<g>
	<g id="Circle_6_">
		<g id="Circle_7_">
			<circle class="st0" cx="320.3" cy="565.1" r="301.7"/>
			<circle class="st1" cx="320.3" cy="565.1" r="301.7"/>
			<circle class="st2" cx="320.3" cy="565.1" r="301.7"/>
		</g>
	</g>
	<g>
		<path class="st3" d="M44.3,565.1H21.2H44.3z"/>
		<path class="st3" d="M44.5,574.7l-23.1,0.8L44.5,574.7z"/>
		<path class="st3" d="M45,584.4L22,586L45,584.4z"/>
		<path class="st3" d="M45.8,593.9l-23,2.4L45.8,593.9z"/>
		<path class="st3" d="M47,603.5l-22.9,3.2L47,603.5z"/>
		<path class="st3" d="M48.5,613l-22.7,4L48.5,613z"/>
		<path class="st3" d="M50.4,622.5l-22.6,4.8L50.4,622.5z"/>
		<path class="st3" d="M52.5,631.9l-22.4,5.6L52.5,631.9z"/>
		<path class="st3" d="M55,641.2l-22.2,6.4L55,641.2z"/>
		<path class="st3" d="M57.8,650.4l-22,7.1L57.8,650.4z"/>
		<path class="st3" d="M61,659.5l-21.7,7.9L61,659.5z"/>
		<path class="st3" d="M64.4,668.5L43,677.1L64.4,668.5z"/>
		<path class="st3" d="M68.2,677.3l-21.1,9.4L68.2,677.3z"/>
		<path class="st3" d="M72.3,686.1l-20.8,10.1L72.3,686.1z"/>
		<path class="st3" d="M76.6,694.7l-20.4,10.8L76.6,694.7z"/>
		<path class="st3" d="M81.3,703.1l-20,11.5L81.3,703.1z"/>
		<path class="st3" d="M86.3,711.3l-19.6,12.2L86.3,711.3z"/>
		<path class="st3" d="M91.5,719.4l-19.1,12.9L91.5,719.4z"/>
		<path class="st3" d="M97,727.3l-18.7,13.6L97,727.3z"/>
		<path class="st3" d="M102.8,735l-18.2,14.2L102.8,735z"/>
		<path class="st3" d="M108.9,742.5l-17.7,14.8L108.9,742.5z"/>
		<path class="st3" d="M115.2,749.8l-17.2,15.5L115.2,749.8z"/>
		<path class="st3" d="M121.8,756.8l-16.6,16L121.8,756.8z"/>
		<path class="st3" d="M128.6,763.6l-16,16.6L128.6,763.6z"/>
		<path class="st3" d="M135.6,770.2l-15.5,17.2L135.6,770.2z"/>
		<path class="st3" d="M142.9,776.5l-14.8,17.7L142.9,776.5z"/>
		<path class="st3" d="M150.4,782.6l-14.2,18.2L150.4,782.6z"/>
		<path class="st3" d="M158.1,788.4L144.5,807L158.1,788.4z"/>
		<path class="st3" d="M166,793.9L153.1,813L166,793.9z"/>
		<path class="st3" d="M174.1,799.1l-12.2,19.6L174.1,799.1z"/>
		<path class="st3" d="M182.3,804.1l-11.5,20L182.3,804.1z"/>
		<path class="st3" d="M190.7,808.8l-10.8,20.4L190.7,808.8z"/>
		<path class="st3" d="M199.3,813.1l-10.1,20.8L199.3,813.1z"/>
		<path class="st3" d="M208.1,817.2l-9.4,21.1L208.1,817.2z"/>
		<path class="st3" d="M216.9,821l-8.7,21.4L216.9,821z"/>
		<path class="st3" d="M225.9,824.4l-7.9,21.7L225.9,824.4z"/>
		<path class="st3" d="M235,827.6l-7.1,22L235,827.6z"/>
		<path class="st3" d="M244.2,830.4l-6.4,22.2L244.2,830.4z"/>
		<path class="st3" d="M253.5,832.9l-5.6,22.4L253.5,832.9z"/>
		<path class="st3" d="M262.9,835l-4.8,22.6L262.9,835z"/>
		<path class="st3" d="M272.4,836.9l-4,22.7L272.4,836.9z"/>
		<path class="st3" d="M281.9,838.4l-3.2,22.9L281.9,838.4z"/>
		<path class="st3" d="M291.5,839.6l-2.4,23L291.5,839.6z"/>
		<path class="st3" d="M301,840.4l-1.6,23L301,840.4z"/>
		<path class="st3" d="M310.7,840.9l-0.8,23.1L310.7,840.9z"/>
		<path class="st3" d="M320.3,841.1v23.1V841.1z"/>
		<path class="st3" d="M329.9,840.9l0.8,23.1L329.9,840.9z"/>
		<path class="st3" d="M339.6,840.4l1.6,23L339.6,840.4z"/>
		<path class="st3" d="M349.1,839.6l2.4,23L349.1,839.6z"/>
		<path class="st3" d="M358.7,838.4l3.2,22.9L358.7,838.4z"/>
		<path class="st3" d="M368.2,836.9l4,22.7L368.2,836.9z"/>
		<path class="st3" d="M377.7,835l4.8,22.6L377.7,835z"/>
		<path class="st3" d="M387.1,832.9l5.6,22.4L387.1,832.9z"/>
		<path class="st3" d="M396.4,830.4l6.4,22.2L396.4,830.4z"/>
		<path class="st3" d="M405.6,827.6l7.1,22L405.6,827.6z"/>
		<path class="st3" d="M414.7,824.4l7.9,21.7L414.7,824.4z"/>
		<path class="st3" d="M423.7,821l8.7,21.4L423.7,821z"/>
		<path class="st3" d="M432.5,817.2l9.4,21.1L432.5,817.2z"/>
		<path class="st3" d="M441.3,813.1l10.1,20.8L441.3,813.1z"/>
		<path class="st3" d="M449.9,808.8l10.8,20.4L449.9,808.8z"/>
		<path class="st3" d="M458.3,804.1l11.5,20L458.3,804.1z"/>
		<path class="st3" d="M466.5,799.1l12.2,19.6L466.5,799.1z"/>
		<path class="st3" d="M474.6,793.9l12.9,19.1L474.6,793.9z"/>
		<path class="st3" d="M482.5,788.4l13.6,18.7L482.5,788.4z"/>
		<path class="st3" d="M490.2,782.6l14.2,18.2L490.2,782.6z"/>
		<path class="st3" d="M497.7,776.5l14.8,17.7L497.7,776.5z"/>
		<path class="st3" d="M505,770.2l15.5,17.2L505,770.2z"/>
		<path class="st3" d="M512,763.6l16,16.6L512,763.6z"/>
		<path class="st3" d="M518.8,756.8l16.6,16L518.8,756.8z"/>
		<path class="st3" d="M525.4,749.8l17.2,15.5L525.4,749.8z"/>
		<path class="st3" d="M531.7,742.5l17.7,14.8L531.7,742.5z"/>
		<path class="st3" d="M537.8,735l18.2,14.2L537.8,735z"/>
		<path class="st3" d="M543.6,727.3l18.7,13.6L543.6,727.3z"/>
		<path class="st3" d="M549.1,719.4l19.1,12.9L549.1,719.4z"/>
		<path class="st3" d="M554.3,711.3l19.6,12.2L554.3,711.3z"/>
		<path class="st3" d="M559.3,703.1l20,11.5L559.3,703.1z"/>
		<path class="st3" d="M564,694.7l20.4,10.8L564,694.7z"/>
		<path class="st3" d="M568.3,686.1l20.8,10.1L568.3,686.1z"/>
		<path class="st3" d="M572.4,677.3l21.1,9.4L572.4,677.3z"/>
		<path class="st3" d="M576.2,668.5l21.4,8.7L576.2,668.5z"/>
		<path class="st3" d="M579.6,659.5l21.7,7.9L579.6,659.5z"/>
		<path class="st3" d="M582.8,650.4l22,7.1L582.8,650.4z"/>
		<path class="st3" d="M585.6,641.2l22.2,6.4L585.6,641.2z"/>
		<path class="st3" d="M588.1,631.9l22.4,5.6L588.1,631.9z"/>
		<path class="st3" d="M590.2,622.5l22.6,4.8L590.2,622.5z"/>
		<path class="st3" d="M592.1,613l22.7,4L592.1,613z"/>
		<path class="st3" d="M593.6,603.5l22.9,3.2L593.6,603.5z"/>
		<path class="st3" d="M594.8,593.9l23,2.4L594.8,593.9z"/>
		<path class="st3" d="M595.6,584.4l23,1.6L595.6,584.4z"/>
		<path class="st3" d="M596.1,574.7l23.1,0.8L596.1,574.7z"/>
		<path class="st3" d="M596.3,565.1h23.1H596.3z"/>
		<path class="st3" d="M596.1,555.5l23.1-0.8L596.1,555.5z"/>
		<path class="st3" d="M595.6,545.8l23-1.6L595.6,545.8z"/>
		<path class="st3" d="M594.8,536.3l23-2.4L594.8,536.3z"/>
		<path class="st3" d="M593.6,526.7l22.9-3.2L593.6,526.7z"/>
		<path class="st3" d="M592.1,517.2l22.7-4L592.1,517.2z"/>
		<path class="st3" d="M590.2,507.7l22.6-4.8L590.2,507.7z"/>
		<path class="st3" d="M588.1,498.3l22.4-5.6L588.1,498.3z"/>
		<path class="st3" d="M585.6,489l22.2-6.4L585.6,489z"/>
		<path class="st3" d="M582.8,479.8l22-7.1L582.8,479.8z"/>
		<path class="st3" d="M579.6,470.7l21.7-7.9L579.6,470.7z"/>
		<path class="st3" d="M576.2,461.7l21.4-8.7L576.2,461.7z"/>
		<path class="st3" d="M572.4,452.9l21.1-9.4L572.4,452.9z"/>
		<path class="st3" d="M568.3,444.1l20.8-10.1L568.3,444.1z"/>
		<path class="st3" d="M564,435.5l20.4-10.8L564,435.5z"/>
		<path class="st3" d="M559.3,427.1l20-11.5L559.3,427.1z"/>
		<path class="st3" d="M554.3,418.9l19.6-12.2L554.3,418.9z"/>
		<path class="st3" d="M549.1,410.8l19.1-12.9L549.1,410.8z"/>
		<path class="st3" d="M543.6,402.9l18.7-13.6L543.6,402.9z"/>
		<path class="st3" d="M537.8,395.2L556,381L537.8,395.2z"/>
		<path class="st3" d="M531.7,387.7l17.7-14.8L531.7,387.7z"/>
		<path class="st3" d="M525.4,380.4l17.2-15.5L525.4,380.4z"/>
		<path class="st3" d="M518.8,373.4l16.6-16L518.8,373.4z"/>
		<path class="st3" d="M512,366.6l16-16.6L512,366.6z"/>
		<path class="st3" d="M505,360l15.5-17.2L505,360z"/>
		<path class="st3" d="M497.7,353.7l14.8-17.7L497.7,353.7z"/>
		<path class="st3" d="M490.2,347.6l14.2-18.2L490.2,347.6z"/>
		<path class="st3" d="M482.5,341.8l13.6-18.7L482.5,341.8z"/>
		<path class="st3" d="M474.6,336.3l12.9-19.1L474.6,336.3z"/>
		<path class="st3" d="M466.5,331.1l12.2-19.6L466.5,331.1z"/>
		<path class="st3" d="M458.3,326.1l11.5-20L458.3,326.1z"/>
		<path class="st3" d="M449.9,321.4l10.8-20.4L449.9,321.4z"/>
		<path class="st3" d="M441.3,317.1l10.1-20.8L441.3,317.1z"/>
		<path class="st3" d="M432.5,313l9.4-21.1L432.5,313z"/>
		<path class="st3" d="M423.7,309.2l8.7-21.4L423.7,309.2z"/>
		<path class="st3" d="M414.7,305.8l7.9-21.7L414.7,305.8z"/>
		<path class="st3" d="M405.6,302.6l7.1-22L405.6,302.6z"/>
		<path class="st3" d="M396.4,299.8l6.4-22.2L396.4,299.8z"/>
		<path class="st3" d="M387.1,297.3l5.6-22.4L387.1,297.3z"/>
		<path class="st3" d="M377.7,295.2l4.8-22.6L377.7,295.2z"/>
		<path class="st3" d="M368.2,293.3l4-22.7L368.2,293.3z"/>
		<path class="st3" d="M358.7,291.8l3.2-22.9L358.7,291.8z"/>
		<path class="st3" d="M349.1,290.6l2.4-23L349.1,290.6z"/>
		<path class="st3" d="M339.6,289.8l1.6-23L339.6,289.8z"/>
		<path class="st3" d="M329.9,289.3l0.8-23.1L329.9,289.3z"/>
		<path class="st3" d="M320.3,289.1V266V289.1z"/>
		<path class="st3" d="M310.7,289.3l-0.8-23.1L310.7,289.3z"/>
		<path class="st3" d="M301,289.8l-1.6-23L301,289.8z"/>
		<path class="st3" d="M291.5,290.6l-2.4-23L291.5,290.6z"/>
		<path class="st3" d="M281.9,291.8l-3.2-22.9L281.9,291.8z"/>
		<path class="st3" d="M272.4,293.3l-4-22.7L272.4,293.3z"/>
		<path class="st3" d="M262.9,295.2l-4.8-22.6L262.9,295.2z"/>
		<path class="st3" d="M253.5,297.3l-5.6-22.4L253.5,297.3z"/>
		<path class="st3" d="M244.2,299.8l-6.4-22.2L244.2,299.8z"/>
		<path class="st3" d="M235,302.6l-7.1-22L235,302.6z"/>
		<path class="st3" d="M225.9,305.8l-7.9-21.7L225.9,305.8z"/>
		<path class="st3" d="M216.9,309.2l-8.7-21.4L216.9,309.2z"/>
		<path class="st3" d="M208.1,313l-9.4-21.1L208.1,313z"/>
		<path class="st3" d="M199.3,317.1l-10.1-20.8L199.3,317.1z"/>
		<path class="st3" d="M190.7,321.4L179.9,301L190.7,321.4z"/>
		<path class="st3" d="M182.3,326.1l-11.5-20L182.3,326.1z"/>
		<path class="st3" d="M174.1,331.1l-12.2-19.6L174.1,331.1z"/>
		<path class="st3" d="M166,336.3l-12.9-19.1L166,336.3z"/>
		<path class="st3" d="M158.1,341.8l-13.6-18.7L158.1,341.8z"/>
		<path class="st3" d="M150.4,347.6l-14.2-18.2L150.4,347.6z"/>
		<path class="st3" d="M142.9,353.7L128.1,336L142.9,353.7z"/>
		<path class="st3" d="M135.6,360l-15.5-17.2L135.6,360z"/>
		<path class="st3" d="M128.6,366.6l-16-16.6L128.6,366.6z"/>
		<path class="st3" d="M121.8,373.4l-16.6-16L121.8,373.4z"/>
		<path class="st3" d="M115.2,380.4L98.1,365L115.2,380.4z"/>
		<path class="st3" d="M108.9,387.7l-17.7-14.8L108.9,387.7z"/>
		<path class="st3" d="M102.8,395.2L84.6,381L102.8,395.2z"/>
		<path class="st3" d="M97,402.9l-18.7-13.6L97,402.9z"/>
		<path class="st3" d="M91.5,410.8l-19.1-12.9L91.5,410.8z"/>
		<path class="st3" d="M86.3,418.9l-19.6-12.2L86.3,418.9z"/>
		<path class="st3" d="M81.3,427.1l-20-11.5L81.3,427.1z"/>
		<path class="st3" d="M76.6,435.5l-20.4-10.8L76.6,435.5z"/>
		<path class="st3" d="M72.3,444.1L51.5,434L72.3,444.1z"/>
		<path class="st3" d="M68.2,452.9l-21.1-9.4L68.2,452.9z"/>
		<path class="st3" d="M64.4,461.7L43,453.1L64.4,461.7z"/>
		<path class="st3" d="M61,470.7l-21.7-7.9L61,470.7z"/>
		<path class="st3" d="M57.8,479.8l-22-7.1L57.8,479.8z"/>
		<path class="st3" d="M55,489l-22.2-6.4L55,489z"/>
		<path class="st3" d="M52.5,498.3l-22.4-5.6L52.5,498.3z"/>
		<path class="st3" d="M50.4,507.7l-22.6-4.8L50.4,507.7z"/>
		<path class="st3" d="M48.5,517.2l-22.7-4L48.5,517.2z"/>
		<path class="st3" d="M47,526.7l-22.9-3.2L47,526.7z"/>
		<path class="st3" d="M45.8,536.3l-23-2.4L45.8,536.3z"/>
		<path class="st3" d="M45,545.8l-23-1.6L45,545.8z"/>
		<path class="st3" d="M44.5,555.5l-23.1-0.8L44.5,555.5z"/>
		<path class="st3" d="M44.3,565.1H21.2H44.3z"/>
	</g>
</g>
</svg>
