<?xml version="1.0" encoding="utf-8"?>
<!-- Generator: Adobe Illustrator 19.0.0, SVG Export Plug-In . SVG Version: 6.00 Build 0)  -->
<svg version="1.1" id="Layer_1" xmlns="http://www.w3.org/2000/svg" xmlns:xlink="http://www.w3.org/1999/xlink" x="0px" y="0px"
	 viewBox="-10.1 234.7 660.9 660.9" style="enable-background:new -10.1 234.7 660.9 660.9;" xml:space="preserve" width="1" height="1">
<style type="text/css">
	.st0{fill:#FFCACA;}
	.st1{fill:none;stroke:#B78080;stroke-width:2.5;stroke-linecap:round;stroke-linejoin:round;}
	.st2{fill:none;stroke:#000000;stroke-width:5;}
	.st3{fill:#FFFFFF;stroke:#000000;stroke-width:2;}
</style>
<g id="Circle_1_">
	<g id="Circle_5_">
		<circle class="st0" cx="320.3" cy="565.1" r="301.7"/>
		<g>
			<path class="st1" d="M19.3,583.6c0.9,0-1.1-36.9,0-36.9c1.8,0,3.7,77.9,5.3,77.9c2.9,0-2.6-118.9,0-118.9
				c3,0,2.3,141.3,5.4,141.3c3.8,0-3.7-163.8,0-163.8c4.6,0,0.9,179.7,5,179.7c5.1,0-4.7-195.6,0-195.6c5.3,0,1.1,210.1,5.4,210.1
				c6.5,0-6.1-224.6,0-224.6c6.5,0-1.4,236.9,5.2,236.9c6,0-5.1-249.1,0-249.1c5.4,0-1.1,260.1,5.3,260.1c5.9,0-7.7-271.1,0-271.1
				c5.8,0-1.9,279.7,4.5,279.7c6.6,0-7.8-288.3,0-288.3c8,0-2,296.6,4.6,296.6c7.4,0-6.4-304.8,0-304.8c8.1,0-2.4,313.5,5.3,313.5
				c6.6,0-9.3-322.2,0-322.2c9,0-1.2,330.5,5.5,330.5c7,0-8.6-338.8,0-338.8c8,0-1.5,346.6,5.5,346.6c7.3,0-8.7-354.4,0-354.4
				c10,0-3.9,360.8,4.8,360.8c7.6,0-7.7-367.3,0-367.3c11,0-2.6,373.7,5.1,373.7c8.3,0-9.9-380,0-380c8.6,0-3.1,386,4.9,386
				c10.1,0-9.9-392,0-392c10.1,0-6.2,397.4,4.8,397.4c11.9,0-9.3-402.8,0-402.8c10.6,0-4.6,408.1,4.8,408.1c11,0-12.1-413.4,0-413.4
				c11.4,0-5.6,418.9,5.3,418.9c9.3,0-11.1-424.5,0-424.5c12.3,0-8,428.9,4.5,428.9c12.2,0-9.2-433.3,0-433.3c12.6,0-8,438,4.9,438
				c9.2,0-12.7-442.7,0-442.7c13.2,0-7.4,447.4,5.3,447.4c13.6,0-12.1-452.2,0-452.2c10.2,0-7.9,456.7,5.1,456.7
				c13.1,0-11.8-461.2,0-461.2c11,0-8.3,465.5,5.3,465.5c10.3,0-12.1-469.8,0-469.8c10.5,0-8.8,473.5,4.7,473.5
				c13,0-12.8-477.3,0-477.3c14.2,0-4.9,481.4,5.4,481.4c9.9,0-14.1-485.4,0-485.4c12.1,0-8.5,489.2,5.2,489.2
				c11.6,0-14.5-493,0-493c14.5,0-4.9,496.6,5.3,496.6c14.6,0-11.3-500.1,0-500.1c10.8,0-6.6,503.6,5.1,503.6c10.2,0-12.3-507,0-507
				c12.9,0-8.2,509.8,4.5,509.8c11.7,0-11.9-512.7,0-512.7c13.3,0-6.8,516,5.5,516c14.8,0-13.4-519.4,0-519.4
				c11.5,0-8.7,522.2,5,522.2c15.2,0-13.2-525.1,0-525.1c10.8,0-6.3,527.6,4.5,527.6c14.2,0-14.4-530.2,0-530.2
				c11.2,0-6.7,532.7,4.7,532.7c11.5,0-15.2-535.2,0-535.2c15.8,0-8,537.8,5,537.8c15.7,0-15.7-540.3,0-540.3
				c15,0-7.2,542.6,4.7,542.6c16.1,0-13.2-545,0-545c15.1,0-10.9,547.1,4.7,547.1c15.7,0-12.9-549.2,0-549.2
				c12.6,0-10.4,551.6,5.3,551.6c11.9,0-13.4-554,0-554c12.4,0-10.7,555.9,4.6,555.9c14.2,0-14.3-557.9,0-557.9
				c16.5,0-6.1,560,5.3,560c15.3,0-11.5-562.1,0-562.1c13.4,0-8.3,564,4.8,564c15.1,0-12.9-565.8,0-565.8
				c16.2,0-9.3,567.5,4.8,567.5c12.2,0-15.4-569.2,0-569.2c12.6,0-7,570.8,4.6,570.8c14.2,0-15.7-572.4,0-572.4
				c16.5,0-9.6,574,5.1,574c12.2,0-15.7-575.7,0-575.7c13.6,0-8.8,577.2,4.9,577.2c12.9,0-15.2-578.7,0-578.7
				c17,0-9.4,580.1,4.8,580.1c17.3,0-11.9-581.5,0-581.5c15.3,0-7.3,582.9,5.2,582.9c16.6,0-16.6-584.2,0-584.2
				c14,0-11.6,585.5,5.2,585.5c16.2,0-17.4-586.8,0-586.8c15.6,0-11,588,5.2,588c12.8,0-15.3-589.2,0-589.2
				c14.2,0-7.6,590.2,5,590.2c12.1,0-16.8-591.2,0-591.2c14.5,0-9.6,592.3,5.3,592.3c12.8,0-15-593.4,0-593.4
				c15.1,0-9.7,594.2,5.3,594.2c13.9,0-13.5-595.1,0-595.1c17.5,0-8.8,596,5.4,596c12.6,0-15.5-596.8,0-596.8
				c15.6,0-8.6,597.6,5.4,597.6c13.3,0-17.2-598.3,0-598.3c14.5,0-8.5,598.9,5.4,598.9c17.7,0-16.9-599.5,0-599.5
				c17.5,0-9.6,600,4.5,600c13.6,0-17.4-600.5,0-600.5c15.8,0-9.9,601,5.2,601c12.4,0-17.7-601.4,0-601.4
				c13.9,0-11.1,601.8,5.5,601.8c14,0-15.7-602.1,0-602.1c13.4,0-12.5,602.4,4.9,602.4c15.6,0-15.6-602.7,0-602.7
				c16.5,0-12.9,602.8,4.8,602.8c15.2,0-14.1-603,0-603c17.1,0-10.5,603.1,4.8,603.1c15.3,0-16.8-603.2,0-603.2
				c12.7,0-10,603.2,5,603.2c16.8,0-17.5-603.3,0-603.3c13.5,0-10.6,603.2,4.6,603.2c17.1,0-16.9-603.1,0-603.1
				c15.1,0-10.9,603,4.9,603c13.1,0-17.9-602.9,0-602.9c17.6,0-8.7,602.7,4.8,602.7c12.8,0-17.6-602.5,0-602.5
				c12.9,0-11.3,602.2,4.7,602.2c17.2,0-13.6-601.8,0-601.8c14.1,0-9.5,601.5,5.1,601.5c16.9,0-18-601.1,0-601.1
				c12.1,0-11.8,600.7,4.8,600.7c13.8,0-14.7-600.2,0-600.2c17.2,0-11.6,599.7,5,599.7c12.9,0-14.1-599.1,0-599.1
				c12.9,0-8,598.6,4.7,598.6c15.6,0-12.9-598.1,0-598.1c15.2,0-11.9,597.4,4.6,597.4c15.3,0-13.8-596.7,0-596.7
				c14.3,0-7.6,595.8,5.4,595.8c17.8,0-13.5-595,0-595c17.4,0-11.7,594.3,4.5,594.3c15.4,0-17.1-593.5,0-593.5
				c12.9,0-9.1,592.5,4.8,592.5c13.9,0-14.4-591.6,0-591.6c17.5,0-13,590.6,4.7,590.6c12.9,0-15.4-589.6,0-589.6
				c13,0-8.4,588.5,5,588.5c12.2,0-13.3-587.5,0-587.5c11.7,0-11,586.2,5.1,586.2c14.9,0-16.2-584.9,0-584.9
				c14.1,0-10.4,583.7,4.8,583.7c16,0-13-582.5,0-582.5c17.4,0-9.6,581.1,4.8,581.1c15.2,0-16.5-579.8,0-579.8
				c16.8,0-6.9,578.3,4.8,578.3c12.1,0-12.9-576.9,0-576.9c12.2,0-7.1,575.3,5.1,575.3c14.2,0-16.3-573.8,0-573.8
				c16.5,0-6.8,571.9,5.4,571.9c11.5,0-15.2-570,0-570c12,0-11.5,568.2,5.2,568.2c11.5,0-13.9-566.4,0-566.4
				c11.7,0-7.1,564.3,5.2,564.3c14.1,0-14.1-562.3,0-562.3c13.1,0-10.1,560.4,4.7,560.4c14.7,0-16.1-558.6,0-558.6
				c13.4,0-10.7,556.7,4.6,556.7c15.6,0-14.7-554.8,0-554.8c11.8,0-8.3,552.5,5.2,552.5c11,0-15.6-550.2,0-550.2
				c15.1,0-9.9,547.7,5.5,547.7c12.7,0-15.8-545.2,0-545.2c14.8,0-7.4,542.6,5.3,542.6c15.1,0-15.1-539.9,0-539.9
				c12.4,0-8.8,537.3,5.3,537.3c14.8,0-14.8-534.6,0-534.6c13.6,0-7.7,531.9,4.9,531.9c11.8,0-12.9-529.2,0-529.2
				c14.4,0-9.8,526.7,4.5,526.7c12.3,0-13.3-524.2,0-524.2c12.8,0-6.9,521.4,4.9,521.4c14.3,0-12.4-518.5,0-518.5
				c12.7,0-8.2,515.7,4.6,515.7c14.2,0-11.3-512.9,0-512.9c12.9,0-7.4,510.1,4.5,510.1c11.2,0-10.5-507.3,0-507.3
				c13.6,0-8.6,503.8,5.2,503.8c10.5,0-10.3-500.3,0-500.3c13.9,0-9.4,496.6,5.3,496.6c13.1,0-11.3-493,0-493
				c11.3,0-9.9,489.6,4.7,489.6c12.7,0-9.7-486.1,0-486.1c10.4,0-7.9,482.7,4.6,482.7c12.3,0-11.6-479.3,0-479.3
				c9.6,0-7.3,475.7,4.6,475.7c12.5,0-14.1-472,0-472c10.1,0-8.1,468.3,4.7,468.3c12.5,0-12.4-464.5,0-464.5
				c10.2,0-7.1,460.1,5.2,460.1c9.6,0-9.5-455.6,0-455.6c9.5,0-5.9,451.3,4.9,451.3c9.8,0-11.6-447.1,0-447.1
				c11.8,0-6.6,442.8,4.6,442.8c11.6,0-9.9-438.5,0-438.5c11.4,0-5.3,433.3,5.4,433.3c9.5,0-10.6-428.1,0-428.1
				c11.5,0-3.5,422.5,5.4,422.5c10.7,0-9.1-416.9,0-416.9c9.9,0-3.9,411.4,5.2,411.4c8.9,0-11.3-405.9,0-405.9
				c10.6,0-4.2,399.7,5.5,399.7c9,0-8.5-393.4,0-393.4c10,0-3.4,387.3,5.1,387.3c10.1,0-11.2-381.2,0-381.2
				c8.8,0-4.9,374.5,5.4,374.5c8.7,0-10.8-367.9,0-367.9c7.6,0-3.6,360.5,5.5,360.5c10.5,0-9.8-353,0-353
				c10.2,0-1.9,345.8,5.1,345.8c9.9,0-8.8-338.5,0-338.5c8.3,0-4.7,331.4,4.8,331.4c8.4,0-8.3-324.2,0-324.2
				c7.4,0-4.3,316.8,4.6,316.8c8.9,0-8.2-309.4,0-309.4c7.6,0-2.2,300.8,4.9,300.8c8,0-6.6-292.3,0-292.3c6.9,0-1.3,283.3,4.8,283.3
				c8.2,0-6.7-274.3,0-274.3c7.1,0-1.7,264.7,4.7,264.7c5.1,0-7.5-255.1,0-255.1c7.2,0-0.7,244.5,4.7,244.5c5,0-6.4-233.9,0-233.9
				c5.1,0-1.2,220.4,5.3,220.4c5,0-6-206.8,0-206.8c4.3,0-0.5,191.8,5,191.8c4.9,0-4.6-176.9,0-176.9c4.7,0,1,158.1,5.1,158.1
				c3.4,0-3.4-139.3,0-139.3c3.1,0,2,113.4,4.9,113.4c2.4,0-1.9-87.4,0-87.4"/>
		</g>
		<circle class="st2" cx="320.3" cy="565.1" r="301.7"/>
	</g>
	<g id="Circles">
		<circle id="XMLID_212_" class="st3" cx="32.1" cy="555.1" r="3.2"/>
		<circle id="XMLID_5_" class="st3" cx="32" cy="570.1" r="3.2"/>
		<circle id="XMLID_6_" class="st3" cx="32.6" cy="585.3" r="3.2"/>
		<circle id="XMLID_7_" class="st3" cx="34.1" cy="600.2" r="3.2"/>
		<circle id="XMLID_8_" class="st3" cx="36.4" cy="615.2" r="3.2"/>
		<circle id="XMLID_9_" class="st3" cx="39.3" cy="630" r="3.2"/>
		<circle id="XMLID_10_" class="st3" cx="43.1" cy="644.5" r="3.2"/>
		<circle id="XMLID_11_" class="st3" cx="47.7" cy="659" r="3.2"/>
		<circle id="XMLID_12_" class="st3" cx="52.9" cy="673" r="3.2"/>
		<circle id="XMLID_13_" class="st3" cx="58.9" cy="687" r="3.2"/>
		<circle id="XMLID_14_" class="st3" cx="65.7" cy="700.5" r="3.2"/>
		<circle id="XMLID_15_" class="st3" cx="73.1" cy="713.5" r="3.2"/>
		<circle id="XMLID_16_" class="st3" cx="81.2" cy="726.4" r="3.2"/>
		<circle id="XMLID_17_" class="st3" cx="90" cy="738.5" r="3.2"/>
		<circle id="XMLID_18_" class="st3" cx="99.4" cy="750.4" r="3.2"/>
		<circle id="XMLID_19_" class="st3" cx="109.4" cy="761.8" r="3.2"/>
		<circle id="XMLID_20_" class="st3" cx="119.9" cy="772.5" r="3.2"/>
		<circle id="XMLID_21_" class="st3" cx="131.1" cy="782.7" r="3.2"/>
		<circle id="XMLID_22_" class="st3" cx="142.8" cy="792.3" r="3.2"/>
		<circle id="XMLID_23_" class="st3" cx="154.9" cy="801.3" r="3.2"/>
		<circle id="XMLID_24_" class="st3" cx="167.4" cy="809.5" r="3.2"/>
		<circle id="XMLID_25_" class="st3" cx="180.6" cy="817.3" r="3.2"/>
		<circle id="XMLID_26_" class="st3" cx="193.9" cy="824.3" r="3.2"/>
		<circle id="XMLID_27_" class="st3" cx="207.6" cy="830.5" r="3.2"/>
		<circle id="XMLID_28_" class="st3" cx="221.6" cy="836" r="3.2"/>
		<circle id="XMLID_29_" class="st3" cx="236.1" cy="840.8" r="3.2"/>
		<circle id="XMLID_30_" class="st3" cx="250.6" cy="844.9" r="3.2"/>
		<circle id="XMLID_31_" class="st3" cx="265.3" cy="848" r="3.2"/>
		<circle id="XMLID_32_" class="st3" cx="280.1" cy="850.5" r="3.2"/>
		<circle id="XMLID_33_" class="st3" cx="295.2" cy="852.3" r="3.2"/>
		<circle id="XMLID_34_" class="st3" cx="310.2" cy="853.3" r="3.2"/>
		<circle id="XMLID_35_" class="st3" cx="325.2" cy="853.4" r="3.2"/>
		<circle id="XMLID_36_" class="st3" cx="340.4" cy="852.7" r="3.2"/>
		<circle id="XMLID_37_" class="st3" cx="355.3" cy="851.3" r="3.2"/>
		<circle id="XMLID_38_" class="st3" cx="370.3" cy="849" r="3.2"/>
		<circle id="XMLID_39_" class="st3" cx="385.1" cy="846" r="3.2"/>
		<circle id="XMLID_40_" class="st3" cx="399.7" cy="842.3" r="3.2"/>
		<circle id="XMLID_41_" class="st3" cx="414.2" cy="837.7" r="3.2"/>
		<circle id="XMLID_42_" class="st3" cx="428.2" cy="832.5" r="3.2"/>
		<circle id="XMLID_43_" class="st3" cx="442.1" cy="826.5" r="3.2"/>
		<circle id="XMLID_44_" class="st3" cx="455.6" cy="819.7" r="3.2"/>
		<circle id="XMLID_45_" class="st3" cx="468.7" cy="812.3" r="3.2"/>
		<circle id="XMLID_46_" class="st3" cx="481.5" cy="804.2" r="3.2"/>
		<circle id="XMLID_47_" class="st3" cx="493.7" cy="795.4" r="3.2"/>
		<circle id="XMLID_48_" class="st3" cx="505.5" cy="786" r="3.2"/>
		<circle id="XMLID_49_" class="st3" cx="517" cy="776" r="3.2"/>
		<circle id="XMLID_50_" class="st3" cx="527.7" cy="765.4" r="3.2"/>
		<circle id="XMLID_51_" class="st3" cx="537.9" cy="754.3" r="3.2"/>
		<circle id="XMLID_52_" class="st3" cx="547.5" cy="742.5" r="3.2"/>
		<circle id="XMLID_53_" class="st3" cx="556.5" cy="730.5" r="3.2"/>
		<circle id="XMLID_61_" class="st3" cx="564.8" cy="718" r="3.2"/>
		<circle id="XMLID_62_" class="st3" cx="572.5" cy="704.9" r="3.2"/>
		<circle id="XMLID_66_" class="st3" cx="579.5" cy="691.5" r="3.2"/>
		<circle id="XMLID_72_" class="st3" cx="585.7" cy="677.8" r="3.2"/>
		<circle id="XMLID_76_" class="st3" cx="591.3" cy="663.7" r="3.2"/>
		<circle id="XMLID_77_" class="st3" cx="596" cy="649.4" r="3.2"/>
		<circle id="XMLID_80_" class="st3" cx="600" cy="634.9" r="3.2"/>
		<circle id="XMLID_82_" class="st3" cx="603.3" cy="620" r="3.2"/>
		<circle id="XMLID_84_" class="st3" cx="605.8" cy="605.3" r="3.2"/>
		<circle id="XMLID_85_" class="st3" cx="607.5" cy="590.2" r="3.2"/>
		<circle id="XMLID_86_" class="st3" cx="608.5" cy="575.2" r="3.2"/>
		<circle id="XMLID_87_" class="st3" cx="608.5" cy="560.2" r="3.2"/>
		<circle id="XMLID_88_" class="st3" cx="607.9" cy="545" r="3.2"/>
		<circle id="XMLID_89_" class="st3" cx="606.5" cy="530.1" r="3.2"/>
		<circle id="XMLID_90_" class="st3" cx="604.2" cy="515.1" r="3.2"/>
		<circle id="XMLID_91_" class="st3" cx="601.3" cy="500.3" r="3.2"/>
		<circle id="XMLID_92_" class="st3" cx="597.5" cy="485.7" r="3.2"/>
		<circle id="XMLID_93_" class="st3" cx="592.9" cy="471.2" r="3.2"/>
		<circle id="XMLID_94_" class="st3" cx="587.7" cy="457.2" r="3.2"/>
		<circle id="XMLID_95_" class="st3" cx="581.7" cy="443.3" r="3.2"/>
		<circle id="XMLID_96_" class="st3" cx="574.9" cy="429.8" r="3.2"/>
		<circle id="XMLID_97_" class="st3" cx="567.5" cy="416.7" r="3.2"/>
		<circle id="XMLID_98_" class="st3" cx="559.4" cy="403.9" r="3.2"/>
		<circle id="XMLID_99_" class="st3" cx="550.5" cy="391.7" r="3.2"/>
		<circle id="XMLID_100_" class="st3" cx="541.2" cy="379.9" r="3.2"/>
		<circle id="XMLID_101_" class="st3" cx="531.2" cy="368.5" r="3.2"/>
		<circle id="XMLID_102_" class="st3" cx="520.5" cy="357.8" r="3.2"/>
		<circle id="XMLID_103_" class="st3" cx="509.4" cy="347.6" r="3.2"/>
		<circle id="XMLID_104_" class="st3" cx="497.7" cy="338" r="3.2"/>
		<circle id="XMLID_105_" class="st3" cx="485.6" cy="329" r="3.2"/>
		<circle id="XMLID_106_" class="st3" cx="473.1" cy="320.7" r="3.2"/>
		<circle id="XMLID_107_" class="st3" cx="460" cy="312.9" r="3.2"/>
		<circle id="XMLID_108_" class="st3" cx="446.6" cy="306" r="3.2"/>
		<circle id="XMLID_109_" class="st3" cx="432.9" cy="299.8" r="3.2"/>
		<circle id="XMLID_110_" class="st3" cx="418.8" cy="294.2" r="3.2"/>
		<circle id="XMLID_111_" class="st3" cx="404.5" cy="289.5" r="3.2"/>
		<circle id="XMLID_112_" class="st3" cx="390" cy="285.4" r="3.2"/>
		<circle id="XMLID_113_" class="st3" cx="375.2" cy="282.2" r="3.2"/>
		<circle id="XMLID_114_" class="st3" cx="360.4" cy="279.7" r="3.2"/>
		<circle id="XMLID_115_" class="st3" cx="345.3" cy="277.9" r="3.2"/>
		<circle id="XMLID_116_" class="st3" cx="330.3" cy="277" r="3.2"/>
		<circle id="XMLID_117_" class="st3" cx="315.3" cy="276.9" r="3.2"/>
		<circle id="XMLID_118_" class="st3" cx="300.1" cy="277.5" r="3.2"/>
		<circle id="XMLID_119_" class="st3" cx="285.2" cy="279" r="3.2"/>
		<circle id="XMLID_120_" class="st3" cx="270.3" cy="281.3" r="3.2"/>
		<circle id="XMLID_121_" class="st3" cx="255.4" cy="284.2" r="3.2"/>
		<circle id="XMLID_122_" class="st3" cx="240.8" cy="288" r="3.2"/>
		<circle id="XMLID_123_" class="st3" cx="226.3" cy="292.6" r="3.2"/>
		<circle id="XMLID_124_" class="st3" cx="212.3" cy="297.8" r="3.2"/>
		<circle id="XMLID_125_" class="st3" cx="198.4" cy="303.8" r="3.2"/>
		<circle id="XMLID_126_" class="st3" cx="184.9" cy="310.6" r="3.2"/>
		<circle id="XMLID_127_" class="st3" cx="171.8" cy="318" r="3.2"/>
		<circle id="XMLID_128_" class="st3" cx="159.1" cy="326.1" r="3.2"/>
		<circle id="XMLID_129_" class="st3" cx="146.8" cy="334.9" r="3.2"/>
		<circle id="XMLID_130_" class="st3" cx="135" cy="344.3" r="3.2"/>
		<circle id="XMLID_131_" class="st3" cx="123.6" cy="354.3" r="3.2"/>
		<circle id="XMLID_132_" class="st3" cx="112.9" cy="364.8" r="3.2"/>
		<circle id="XMLID_133_" class="st3" cx="102.8" cy="376" r="3.2"/>
		<circle id="XMLID_134_" class="st3" cx="93.1" cy="387.7" r="3.2"/>
		<circle id="XMLID_135_" class="st3" cx="84.1" cy="399.8" r="3.2"/>
		<circle id="XMLID_136_" class="st3" cx="75.8" cy="412.3" r="3.2"/>
		<circle id="XMLID_137_" class="st3" cx="68" cy="425.4" r="3.2"/>
		<circle id="XMLID_138_" class="st3" cx="61.1" cy="438.8" r="3.2"/>
		<circle id="XMLID_139_" class="st3" cx="54.9" cy="452.5" r="3.2"/>
		<circle id="XMLID_140_" class="st3" cx="49.3" cy="466.5" r="3.2"/>
		<circle id="XMLID_141_" class="st3" cx="44.6" cy="480.9" r="3.2"/>
		<circle id="XMLID_142_" class="st3" cx="40.5" cy="495.4" r="3.2"/>
		<circle id="XMLID_143_" class="st3" cx="37.3" cy="510.2" r="3.2"/>
		<circle id="XMLID_144_" class="st3" cx="34.8" cy="525" r="3.2"/>
		<circle id="XMLID_145_" class="st3" cx="33" cy="540.1" r="3.2"/>
	</g>
</g>
</svg>
