<?xml version="1.0" encoding="utf-8"?>
<!-- Generator: Adobe Illustrator 19.0.0, SVG Export Plug-In . SVG Version: 6.00 Build 0)  -->
<svg version="1.1" id="Layer_1" xmlns="http://www.w3.org/2000/svg" xmlns:xlink="http://www.w3.org/1999/xlink" x="0px" y="0px"
	 viewBox="-10.1 234.7 660.9 660.9" style="enable-background:new -10.1 234.7 660.9 660.9;" xml:space="preserve" width="1" height="1">
<style type="text/css">
	.st0{fill:#FFCACA;}
	.st1{fill:#875454;}
	.st2{fill:none;stroke:#000000;stroke-width:5;}
	.st3{fill:#FFFFFF;stroke:#000000;stroke-width:5;}
</style>
<g id="Circle_2_">
	<g id="Circle_4_">
		<circle class="st0" cx="320.3" cy="565.1" r="327.9"/>
		<circle class="st1" cx="320.3" cy="565.1" r="327.9"/>
		<circle class="st2" cx="320.3" cy="565.1" r="327.9"/>
	</g>
	<g>
		<circle id="XMLID_179_" class="st3" cx="5.4" cy="565.1" r="11.5"/>
		<circle id="XMLID_178_" class="st3" cx="7.1" cy="532.2" r="11.5"/>
		<circle id="XMLID_177_" class="st3" cx="12.2" cy="499.6" r="11.5"/>
		<circle id="XMLID_176_" class="st3" cx="20.8" cy="467.8" r="11.5"/>
		<circle id="XMLID_175_" class="st3" cx="32.6" cy="437" r="11.5"/>
		<circle id="XMLID_174_" class="st3" cx="47.6" cy="407.6" r="11.5"/>
		<circle id="XMLID_173_" class="st3" cx="65.5" cy="380" r="11.5"/>
		<circle id="XMLID_172_" class="st3" cx="86.3" cy="354.4" r="11.5"/>
		<circle id="XMLID_171_" class="st3" cx="109.6" cy="331.1" r="11.5"/>
		<circle id="XMLID_170_" class="st3" cx="135.2" cy="310.3" r="11.5"/>
		<circle id="XMLID_169_" class="st3" cx="162.8" cy="292.4" r="11.5"/>
		<circle id="XMLID_168_" class="st3" cx="192.2" cy="277.4" r="11.5"/>
		<circle id="XMLID_167_" class="st3" cx="223" cy="265.6" r="11.5"/>
		<circle id="XMLID_166_" class="st3" cx="254.8" cy="257" r="11.5"/>
		<circle id="XMLID_165_" class="st3" cx="287.4" cy="251.9" r="11.5"/>
		<circle id="XMLID_164_" class="st3" cx="320.3" cy="250.2" r="11.5"/>
		<circle id="XMLID_163_" class="st3" cx="353.2" cy="251.9" r="11.5"/>
		<circle id="XMLID_162_" class="st3" cx="385.8" cy="257" r="11.5"/>
		<circle id="XMLID_161_" class="st3" cx="417.6" cy="265.6" r="11.5"/>
		<circle id="XMLID_160_" class="st3" cx="448.4" cy="277.4" r="11.5"/>
		<circle id="XMLID_159_" class="st3" cx="477.8" cy="292.4" r="11.5"/>
		<circle id="XMLID_158_" class="st3" cx="505.4" cy="310.3" r="11.5"/>
		<circle id="XMLID_157_" class="st3" cx="531" cy="331.1" r="11.5"/>
		<circle id="XMLID_156_" class="st3" cx="554.3" cy="354.4" r="11.5"/>
		<circle id="XMLID_155_" class="st3" cx="575.1" cy="380" r="11.5"/>
		<circle id="XMLID_154_" class="st3" cx="593" cy="407.6" r="11.5"/>
		<circle id="XMLID_153_" class="st3" cx="608" cy="437" r="11.5"/>
		<circle id="XMLID_152_" class="st3" cx="619.8" cy="467.8" r="11.5"/>
		<circle id="XMLID_151_" class="st3" cx="628.4" cy="499.6" r="11.5"/>
		<circle id="XMLID_150_" class="st3" cx="633.5" cy="532.2" r="11.5"/>
		<circle id="XMLID_149_" class="st3" cx="635.2" cy="565.1" r="11.5"/>
		<circle id="XMLID_148_" class="st3" cx="633.5" cy="598" r="11.5"/>
		<circle id="XMLID_147_" class="st3" cx="628.4" cy="630.6" r="11.5"/>
		<circle id="XMLID_146_" class="st3" cx="619.8" cy="662.4" r="11.5"/>
		<circle id="XMLID_83_" class="st3" cx="608" cy="693.2" r="11.5"/>
		<circle id="XMLID_81_" class="st3" cx="593" cy="722.6" r="11.5"/>
		<circle id="XMLID_79_" class="st3" cx="575.1" cy="750.2" r="11.5"/>
		<circle id="XMLID_78_" class="st3" cx="554.3" cy="775.8" r="11.5"/>
		<circle id="XMLID_75_" class="st3" cx="531" cy="799.1" r="11.5"/>
		<circle id="XMLID_74_" class="st3" cx="505.4" cy="819.9" r="11.5"/>
		<circle id="XMLID_73_" class="st3" cx="477.8" cy="837.8" r="11.5"/>
		<circle id="XMLID_71_" class="st3" cx="448.4" cy="852.8" r="11.5"/>
		<circle id="XMLID_70_" class="st3" cx="417.6" cy="864.6" r="11.5"/>
		<circle id="XMLID_69_" class="st3" cx="385.8" cy="873.2" r="11.5"/>
		<circle id="XMLID_68_" class="st3" cx="353.2" cy="878.3" r="11.5"/>
		<circle id="XMLID_67_" class="st3" cx="320.3" cy="880" r="11.5"/>
		<circle id="XMLID_65_" class="st3" cx="287.4" cy="878.3" r="11.5"/>
		<circle id="XMLID_64_" class="st3" cx="254.8" cy="873.2" r="11.5"/>
		<circle id="XMLID_63_" class="st3" cx="223" cy="864.6" r="11.5"/>
		<circle id="XMLID_4_" class="st3" cx="192.2" cy="852.8" r="11.5"/>
		<circle id="XMLID_3_" class="st3" cx="162.8" cy="837.8" r="11.5"/>
		<circle id="XMLID_54_" class="st3" cx="135.2" cy="819.9" r="11.5"/>
		<circle id="XMLID_55_" class="st3" cx="109.6" cy="799.1" r="11.5"/>
		<circle id="XMLID_56_" class="st3" cx="86.3" cy="775.8" r="11.5"/>
		<circle id="XMLID_57_" class="st3" cx="65.5" cy="750.2" r="11.5"/>
		<circle id="XMLID_58_" class="st3" cx="47.6" cy="722.6" r="11.5"/>
		<circle id="XMLID_59_" class="st3" cx="32.6" cy="693.2" r="11.5"/>
		<circle id="XMLID_60_" class="st3" cx="20.8" cy="662.4" r="11.5"/>
		<circle id="XMLID_2_" class="st3" cx="12.2" cy="630.6" r="11.5"/>
		<circle id="XMLID_1_" class="st3" cx="7.1" cy="598" r="11.5"/>
	</g>
</g>
</svg>
