<?xml version="1.0" encoding="utf-8"?>
<!-- Generator: Adobe Illustrator 19.0.0, SVG Export Plug-In . SVG Version: 6.00 Build 0)  -->
<svg version="1.1" id="Layer_1" xmlns="http://www.w3.org/2000/svg" xmlns:xlink="http://www.w3.org/1999/xlink" x="0px" y="0px"
	 viewBox="-10.1 234.7 660.9 660.9" style="enable-background:new -10.1 234.7 660.9 660.9;" xml:space="preserve">
<style type="text/css">
	.st0{fill:#417A2B;}
	.st1{fill:none;stroke:#000000;stroke-width:5;}
	.st2{fill:#FFFFFF;stroke:#000000;stroke-width:5;}
</style>
<g>
	<g id="Circle_9_">
		<g id="Circle_10_">
			<circle class="st0" cx="320.3" cy="565.1" r="327.9"/>
			<circle class="st1" cx="320.3" cy="565.1" r="327.9"/>
		</g>
	</g>
	<g>
		<path class="st2" d="M44.3,565.1H-5.1H44.3z"/>
		<path class="st2" d="M44.5,555.5l-49.5-1.7L44.5,555.5z"/>
		<path class="st2" d="M45,545.8l-49.4-3.5L45,545.8z"/>
		<path class="st2" d="M45.8,536.3l-49.2-5.2L45.8,536.3z"/>
		<path class="st2" d="M47,526.7l-49-6.9L47,526.7z"/>
		<path class="st2" d="M48.5,517.2l-48.7-8.6L48.5,517.2z"/>
		<path class="st2" d="M50.4,507.7L2,497.4L50.4,507.7z"/>
		<path class="st2" d="M52.5,498.3l-48-12L52.5,498.3z"/>
		<path class="st2" d="M55,489L7.5,475.4L55,489z"/>
		<path class="st2" d="M57.8,479.8l-47.1-15.3L57.8,479.8z"/>
		<path class="st2" d="M61,470.7l-46.5-16.9L61,470.7z"/>
		<path class="st2" d="M64.4,461.7l-45.9-18.5L64.4,461.7z"/>
		<path class="st2" d="M68.2,452.9L23,432.7L68.2,452.9z"/>
		<path class="st2" d="M72.3,444.1l-44.5-21.7L72.3,444.1z"/>
		<path class="st2" d="M76.6,435.5l-43.7-23.2L76.6,435.5z"/>
		<path class="st2" d="M81.3,427.1l-42.9-24.7L81.3,427.1z"/>
		<path class="st2" d="M86.3,418.9l-42-26.2L86.3,418.9z"/>
		<path class="st2" d="M91.5,410.8l-41-27.7L91.5,410.8z"/>
		<path class="st2" d="M97,402.9l-40-29.1L97,402.9z"/>
		<path class="st2" d="M102.8,395.2l-39-30.5L102.8,395.2z"/>
		<path class="st2" d="M108.9,387.7L71,355.9L108.9,387.7z"/>
		<path class="st2" d="M115.2,380.4l-36.8-33.1L115.2,380.4z"/>
		<path class="st2" d="M121.8,373.4L86.2,339L121.8,373.4z"/>
		<path class="st2" d="M128.6,366.6L94.2,331L128.6,366.6z"/>
		<path class="st2" d="M135.6,360l-33.1-36.8L135.6,360z"/>
		<path class="st2" d="M142.9,353.7l-31.8-37.9L142.9,353.7z"/>
		<path class="st2" d="M150.4,347.6l-30.5-39L150.4,347.6z"/>
		<path class="st2" d="M158.1,341.8l-29.1-40L158.1,341.8z"/>
		<path class="st2" d="M166,336.3l-27.7-41L166,336.3z"/>
		<path class="st2" d="M174.1,331.1l-26.2-42L174.1,331.1z"/>
		<path class="st2" d="M182.3,326.1l-24.7-42.9L182.3,326.1z"/>
		<path class="st2" d="M190.7,321.4l-23.2-43.7L190.7,321.4z"/>
		<path class="st2" d="M199.3,317.1l-21.7-44.5L199.3,317.1z"/>
		<path class="st2" d="M208.1,313l-20.1-45.2L208.1,313z"/>
		<path class="st2" d="M216.9,309.2l-18.5-45.9L216.9,309.2z"/>
		<path class="st2" d="M225.9,305.8L209,259.3L225.9,305.8z"/>
		<path class="st2" d="M235,302.6l-15.3-47.1L235,302.6z"/>
		<path class="st2" d="M244.2,299.8l-13.6-47.6L244.2,299.8z"/>
		<path class="st2" d="M253.5,297.3l-12-48L253.5,297.3z"/>
		<path class="st2" d="M262.9,295.2l-10.3-48.4L262.9,295.2z"/>
		<path class="st2" d="M272.4,293.3l-8.6-48.7L272.4,293.3z"/>
		<path class="st2" d="M281.9,291.8l-6.9-49L281.9,291.8z"/>
		<path class="st2" d="M291.5,290.6l-5.2-49.2L291.5,290.6z"/>
		<path class="st2" d="M301,289.8l-3.5-49.4L301,289.8z"/>
		<path class="st2" d="M310.7,289.3l-1.7-49.5L310.7,289.3z"/>
		<path class="st2" d="M320.3,289.1v-49.5V289.1z"/>
		<path class="st2" d="M329.9,289.3l1.7-49.5L329.9,289.3z"/>
		<path class="st2" d="M339.6,289.8l3.5-49.4L339.6,289.8z"/>
		<path class="st2" d="M349.1,290.6l5.2-49.2L349.1,290.6z"/>
		<path class="st2" d="M358.7,291.8l6.9-49L358.7,291.8z"/>
		<path class="st2" d="M368.2,293.3l8.6-48.7L368.2,293.3z"/>
		<path class="st2" d="M377.7,295.2l10.3-48.4L377.7,295.2z"/>
		<path class="st2" d="M387.1,297.3l12-48L387.1,297.3z"/>
		<path class="st2" d="M396.4,299.8l13.6-47.6L396.4,299.8z"/>
		<path class="st2" d="M405.6,302.6l15.3-47.1L405.6,302.6z"/>
		<path class="st2" d="M414.7,305.8l16.9-46.5L414.7,305.8z"/>
		<path class="st2" d="M423.7,309.2l18.5-45.9L423.7,309.2z"/>
		<path class="st2" d="M432.5,313l20.1-45.2L432.5,313z"/>
		<path class="st2" d="M441.3,317.1l21.7-44.5L441.3,317.1z"/>
		<path class="st2" d="M449.9,321.4l23.2-43.7L449.9,321.4z"/>
		<path class="st2" d="M458.3,326.1l24.7-42.9L458.3,326.1z"/>
		<path class="st2" d="M466.5,331.1l26.2-42L466.5,331.1z"/>
		<path class="st2" d="M474.6,336.3l27.7-41L474.6,336.3z"/>
		<path class="st2" d="M482.5,341.8l29.1-40L482.5,341.8z"/>
		<path class="st2" d="M490.2,347.6l30.5-39L490.2,347.6z"/>
		<path class="st2" d="M497.7,353.7l31.8-37.9L497.7,353.7z"/>
		<path class="st2" d="M505,360l33.1-36.8L505,360z"/>
		<path class="st2" d="M512,366.6l34.4-35.6L512,366.6z"/>
		<path class="st2" d="M518.8,373.4l35.6-34.4L518.8,373.4z"/>
		<path class="st2" d="M525.4,380.4l36.8-33.1L525.4,380.4z"/>
		<path class="st2" d="M531.7,387.7l37.9-31.8L531.7,387.7z"/>
		<path class="st2" d="M537.8,395.2l39-30.5L537.8,395.2z"/>
		<path class="st2" d="M543.6,402.9l40-29.1L543.6,402.9z"/>
		<path class="st2" d="M549.1,410.8l41-27.7L549.1,410.8z"/>
		<path class="st2" d="M554.3,418.9l42-26.2L554.3,418.9z"/>
		<path class="st2" d="M559.3,427.1l42.9-24.7L559.3,427.1z"/>
		<path class="st2" d="M564,435.5l43.7-23.2L564,435.5z"/>
		<path class="st2" d="M568.3,444.1l44.5-21.7L568.3,444.1z"/>
		<path class="st2" d="M572.4,452.9l45.2-20.1L572.4,452.9z"/>
		<path class="st2" d="M576.2,461.7l45.9-18.5L576.2,461.7z"/>
		<path class="st2" d="M579.6,470.7l46.5-16.9L579.6,470.7z"/>
		<path class="st2" d="M582.8,479.8l47.1-15.3L582.8,479.8z"/>
		<path class="st2" d="M585.6,489l47.6-13.6L585.6,489z"/>
		<path class="st2" d="M588.1,498.3l48-12L588.1,498.3z"/>
		<path class="st2" d="M590.2,507.7l48.4-10.3L590.2,507.7z"/>
		<path class="st2" d="M592.1,517.2l48.7-8.6L592.1,517.2z"/>
		<path class="st2" d="M593.6,526.7l49-6.9L593.6,526.7z"/>
		<path class="st2" d="M594.8,536.3l49.2-5.2L594.8,536.3z"/>
		<path class="st2" d="M595.6,545.8l49.4-3.5L595.6,545.8z"/>
		<path class="st2" d="M596.1,555.5l49.5-1.7L596.1,555.5z"/>
		<path class="st2" d="M596.3,565.1h49.5H596.3z"/>
		<path class="st2" d="M596.1,574.7l49.5,1.7L596.1,574.7z"/>
		<path class="st2" d="M595.6,584.4l49.4,3.5L595.6,584.4z"/>
		<path class="st2" d="M594.8,593.9l49.2,5.2L594.8,593.9z"/>
		<path class="st2" d="M593.6,603.5l49,6.9L593.6,603.5z"/>
		<path class="st2" d="M592.1,613l48.7,8.6L592.1,613z"/>
		<path class="st2" d="M590.2,622.5l48.4,10.3L590.2,622.5z"/>
		<path class="st2" d="M588.1,631.9l48,12L588.1,631.9z"/>
		<path class="st2" d="M585.6,641.2l47.6,13.6L585.6,641.2z"/>
		<path class="st2" d="M582.8,650.4l47.1,15.3L582.8,650.4z"/>
		<path class="st2" d="M579.6,659.5l46.5,16.9L579.6,659.5z"/>
		<path class="st2" d="M576.2,668.5L622,687L576.2,668.5z"/>
		<path class="st2" d="M572.4,677.3l45.2,20.1L572.4,677.3z"/>
		<path class="st2" d="M568.3,686.1l44.5,21.7L568.3,686.1z"/>
		<path class="st2" d="M564,694.7l43.7,23.2L564,694.7z"/>
		<path class="st2" d="M559.3,703.1l42.9,24.7L559.3,703.1z"/>
		<path class="st2" d="M554.3,711.3l42,26.2L554.3,711.3z"/>
		<path class="st2" d="M549.1,719.4l41,27.7L549.1,719.4z"/>
		<path class="st2" d="M543.6,727.3l40,29.1L543.6,727.3z"/>
		<path class="st2" d="M537.8,735l39,30.5L537.8,735z"/>
		<path class="st2" d="M531.7,742.5l37.9,31.8L531.7,742.5z"/>
		<path class="st2" d="M525.4,749.8l36.8,33.1L525.4,749.8z"/>
		<path class="st2" d="M518.8,756.8l35.6,34.4L518.8,756.8z"/>
		<path class="st2" d="M512,763.6l34.4,35.6L512,763.6z"/>
		<path class="st2" d="M505,770.2l33.1,36.8L505,770.2z"/>
		<path class="st2" d="M497.7,776.5l31.8,37.9L497.7,776.5z"/>
		<path class="st2" d="M490.2,782.6l30.5,39L490.2,782.6z"/>
		<path class="st2" d="M482.5,788.4l29.1,40L482.5,788.4z"/>
		<path class="st2" d="M474.6,793.9l27.7,41L474.6,793.9z"/>
		<path class="st2" d="M466.5,799.1l26.2,42L466.5,799.1z"/>
		<path class="st2" d="M458.3,804.1l24.7,42.9L458.3,804.1z"/>
		<path class="st2" d="M449.9,808.8l23.2,43.7L449.9,808.8z"/>
		<path class="st2" d="M441.3,813.1l21.7,44.5L441.3,813.1z"/>
		<path class="st2" d="M432.5,817.2l20.1,45.2L432.5,817.2z"/>
		<path class="st2" d="M423.7,821l18.5,45.9L423.7,821z"/>
		<path class="st2" d="M414.7,824.4l16.9,46.5L414.7,824.4z"/>
		<path class="st2" d="M405.6,827.6l15.3,47.1L405.6,827.6z"/>
		<path class="st2" d="M396.4,830.4l13.6,47.6L396.4,830.4z"/>
		<path class="st2" d="M387.1,832.9l12,48L387.1,832.9z"/>
		<path class="st2" d="M377.7,835l10.3,48.4L377.7,835z"/>
		<path class="st2" d="M368.2,836.9l8.6,48.7L368.2,836.9z"/>
		<path class="st2" d="M358.7,838.4l6.9,49L358.7,838.4z"/>
		<path class="st2" d="M349.1,839.6l5.2,49.2L349.1,839.6z"/>
		<path class="st2" d="M339.6,840.4l3.5,49.4L339.6,840.4z"/>
		<path class="st2" d="M329.9,840.9l1.7,49.5L329.9,840.9z"/>
		<path class="st2" d="M320.3,841.1v49.5V841.1z"/>
		<path class="st2" d="M310.7,840.9l-1.7,49.5L310.7,840.9z"/>
		<path class="st2" d="M301,840.4l-3.5,49.4L301,840.4z"/>
		<path class="st2" d="M291.5,839.6l-5.2,49.2L291.5,839.6z"/>
		<path class="st2" d="M281.9,838.4l-6.9,49L281.9,838.4z"/>
		<path class="st2" d="M272.4,836.9l-8.6,48.7L272.4,836.9z"/>
		<path class="st2" d="M262.9,835l-10.3,48.4L262.9,835z"/>
		<path class="st2" d="M253.5,832.9l-12,48L253.5,832.9z"/>
		<path class="st2" d="M244.2,830.4l-13.6,47.6L244.2,830.4z"/>
		<path class="st2" d="M235,827.6l-15.3,47.1L235,827.6z"/>
		<path class="st2" d="M225.9,824.4L209,870.9L225.9,824.4z"/>
		<path class="st2" d="M216.9,821l-18.5,45.9L216.9,821z"/>
		<path class="st2" d="M208.1,817.2l-20.1,45.2L208.1,817.2z"/>
		<path class="st2" d="M199.3,813.1l-21.7,44.5L199.3,813.1z"/>
		<path class="st2" d="M190.7,808.8l-23.2,43.7L190.7,808.8z"/>
		<path class="st2" d="M182.3,804.1l-24.7,42.9L182.3,804.1z"/>
		<path class="st2" d="M174.1,799.1l-26.2,42L174.1,799.1z"/>
		<path class="st2" d="M166,793.9l-27.7,41L166,793.9z"/>
		<path class="st2" d="M158.1,788.4l-29.1,40L158.1,788.4z"/>
		<path class="st2" d="M150.4,782.6l-30.5,39L150.4,782.6z"/>
		<path class="st2" d="M142.9,776.5l-31.8,37.9L142.9,776.5z"/>
		<path class="st2" d="M135.6,770.2L102.5,807L135.6,770.2z"/>
		<path class="st2" d="M128.6,763.6l-34.4,35.6L128.6,763.6z"/>
		<path class="st2" d="M121.8,756.8l-35.6,34.4L121.8,756.8z"/>
		<path class="st2" d="M115.2,749.8l-36.8,33.1L115.2,749.8z"/>
		<path class="st2" d="M108.9,742.5L71,774.3L108.9,742.5z"/>
		<path class="st2" d="M102.8,735l-39,30.5L102.8,735z"/>
		<path class="st2" d="M97,727.3l-40,29.1L97,727.3z"/>
		<path class="st2" d="M91.5,719.4l-41,27.7L91.5,719.4z"/>
		<path class="st2" d="M86.3,711.3l-42,26.2L86.3,711.3z"/>
		<path class="st2" d="M81.3,703.1l-42.9,24.7L81.3,703.1z"/>
		<path class="st2" d="M76.6,694.7l-43.7,23.2L76.6,694.7z"/>
		<path class="st2" d="M72.3,686.1l-44.5,21.7L72.3,686.1z"/>
		<path class="st2" d="M68.2,677.3L23,697.5L68.2,677.3z"/>
		<path class="st2" d="M64.4,668.5L18.6,687L64.4,668.5z"/>
		<path class="st2" d="M61,659.5l-46.5,16.9L61,659.5z"/>
		<path class="st2" d="M57.8,650.4l-47.1,15.3L57.8,650.4z"/>
		<path class="st2" d="M55,641.2L7.5,654.8L55,641.2z"/>
		<path class="st2" d="M52.5,631.9l-48,12L52.5,631.9z"/>
		<path class="st2" d="M50.4,622.5L2,632.8L50.4,622.5z"/>
		<path class="st2" d="M48.5,613l-48.7,8.6L48.5,613z"/>
		<path class="st2" d="M47,603.5l-49,6.9L47,603.5z"/>
		<path class="st2" d="M45.8,593.9l-49.2,5.2L45.8,593.9z"/>
		<path class="st2" d="M45,584.4l-49.4,3.5L45,584.4z"/>
		<path class="st2" d="M44.5,574.7l-49.5,1.7L44.5,574.7z"/>
	</g>
</g>
</svg>
