<?xml version="1.0" encoding="utf-8"?>
<!-- Generator: Adobe Illustrator 19.0.0, SVG Export Plug-In . SVG Version: 6.00 Build 0)  -->
<svg version="1.1" id="Layer_1" xmlns="http://www.w3.org/2000/svg" xmlns:xlink="http://www.w3.org/1999/xlink" x="0px" y="0px"
	 viewBox="-10.1 234.7 660.9 660.9" style="enable-background:new -10.1 234.7 660.9 660.9;" xml:space="preserve">
<style type="text/css">
	.st0{fill:#417A2B;}
	.st1{fill:none;stroke:#000000;stroke-width:5;}
	.st2{fill:#FFFFFF;stroke:#000000;stroke-width:5;}
</style>
<g>
	<g id="Circle_9_">
		<g id="Circle_10_">
			<circle class="st0" cx="320.3" cy="565.1" r="327.9"/>
			<circle class="st1" cx="320.3" cy="565.1" r="327.9"/>
		</g>
	</g>
	<g>
		<path class="st2" d="M44.3,565.1H-5.1H44.3z"/>
	</g>
	<g>
		<path class="st2" d="M48.5,613l-48.7,8.6L48.5,613z"/>
	</g>
	<g>
		<path class="st2" d="M61,659.5l-46.5,16.9L61,659.5z"/>
	</g>
	<g>
		<path class="st2" d="M81.3,703.1l-42.9,24.7L81.3,703.1z"/>
	</g>
	<g>
		<path class="st2" d="M108.9,742.5L71,774.3L108.9,742.5z"/>
	</g>
	<g>
		<path class="st2" d="M142.9,776.5l-31.8,37.9L142.9,776.5z"/>
	</g>
	<g>
		<path class="st2" d="M182.3,804.1l-24.7,42.9L182.3,804.1z"/>
	</g>
	<g>
		<path class="st2" d="M225.9,824.4L209,870.9L225.9,824.4z"/>
	</g>
	<g>
		<path class="st2" d="M272.4,836.9l-8.6,48.7L272.4,836.9z"/>
	</g>
	<g>
		<path class="st2" d="M320.3,841.1v49.5V841.1z"/>
	</g>
	<g>
		<path class="st2" d="M368.2,836.9l8.6,48.7L368.2,836.9z"/>
	</g>
	<g>
		<path class="st2" d="M414.7,824.4l16.9,46.5L414.7,824.4z"/>
	</g>
	<g>
		<path class="st2" d="M458.3,804.1l24.7,42.9L458.3,804.1z"/>
	</g>
	<g>
		<path class="st2" d="M497.7,776.5l31.8,37.9L497.7,776.5z"/>
	</g>
	<g>
		<path class="st2" d="M531.7,742.5l37.9,31.8L531.7,742.5z"/>
	</g>
	<g>
		<path class="st2" d="M559.3,703.1l42.9,24.7L559.3,703.1z"/>
	</g>
	<g>
		<path class="st2" d="M579.6,659.5l46.5,16.9L579.6,659.5z"/>
	</g>
	<g>
		<path class="st2" d="M592.1,613l48.7,8.6L592.1,613z"/>
	</g>
	<g>
		<path class="st2" d="M596.3,565.1h49.5H596.3z"/>
	</g>
	<g>
		<path class="st2" d="M592.1,517.2l48.7-8.6L592.1,517.2z"/>
	</g>
	<g>
		<path class="st2" d="M579.6,470.7l46.5-16.9L579.6,470.7z"/>
	</g>
	<g>
		<path class="st2" d="M559.3,427.1l42.9-24.7L559.3,427.1z"/>
	</g>
	<g>
		<path class="st2" d="M531.7,387.7l37.9-31.8L531.7,387.7z"/>
	</g>
	<g>
		<path class="st2" d="M497.7,353.7l31.8-37.9L497.7,353.7z"/>
	</g>
	<g>
		<path class="st2" d="M458.3,326.1l24.7-42.9L458.3,326.1z"/>
	</g>
	<g>
		<path class="st2" d="M414.7,305.8l16.9-46.5L414.7,305.8z"/>
	</g>
	<g>
		<path class="st2" d="M368.2,293.3l8.6-48.7L368.2,293.3z"/>
	</g>
	<g>
		<path class="st2" d="M320.3,289.1v-49.5V289.1z"/>
	</g>
	<g>
		<path class="st2" d="M272.4,293.3l-8.6-48.7L272.4,293.3z"/>
	</g>
	<g>
		<path class="st2" d="M225.9,305.8L209,259.3L225.9,305.8z"/>
	</g>
	<g>
		<path class="st2" d="M182.3,326.1l-24.7-42.9L182.3,326.1z"/>
	</g>
	<g>
		<path class="st2" d="M142.9,353.7l-31.8-37.9L142.9,353.7z"/>
	</g>
	<g>
		<path class="st2" d="M108.9,387.7L71,355.9L108.9,387.7z"/>
	</g>
	<g>
		<path class="st2" d="M81.3,427.1l-42.9-24.7L81.3,427.1z"/>
	</g>
	<g>
		<path class="st2" d="M61,470.7l-46.5-16.9L61,470.7z"/>
	</g>
	<g>
		<path class="st2" d="M48.5,517.2l-48.7-8.6L48.5,517.2z"/>
	</g>
</g>
</svg>
