<?xml version="1.0" encoding="utf-8"?>
<!-- Generator: Adobe Illustrator 19.0.0, SVG Export Plug-In . SVG Version: 6.00 Build 0)  -->
<svg version="1.1" id="Layer_1" xmlns="http://www.w3.org/2000/svg" xmlns:xlink="http://www.w3.org/1999/xlink" x="0px" y="0px"
	 viewBox="-10.1 234.7 660.9 660.9" style="enable-background:new -10.1 234.7 660.9 660.9;" xml:space="preserve" width="1" height="1">
<style type="text/css">
	.st0{fill:#4643DD;stroke:#000000;stroke-width:5;}
	.st1{fill:#F4F49A;stroke:#000000;stroke-width:5;stroke-miterlimit:10;}
	.st2{fill:#FFFFFF;stroke:#000000;stroke-width:5;stroke-miterlimit:10;}
	.st3{fill:#FFFFFF;stroke:#000000;stroke-width:5;}
</style>
<g id="_x32_">
	<circle id="Circle_8_" class="st0" cx="320.3" cy="565.1" r="327.9"/>
	<g>
		<g>
			<ellipse transform="matrix(-0.5 0.866 -0.866 -0.5 1363.4469 343.0136)" class="st1" cx="582.7" cy="565.1" rx="64" ry="63.7"/>

				<ellipse transform="matrix(-0.5 0.866 -0.866 -0.5 1205.1144 435.7781)" class="st1" cx="476.8" cy="565.8" rx="39.5" ry="39.3"/>
			<ellipse transform="matrix(-0.5 0.866 -0.866 -0.5 1236.033 356.6802)" class="st1" cx="515.1" cy="535.2" rx="7.5" ry="7.5"/>
			<ellipse transform="matrix(-0.5 -0.866 0.866 -0.5 257.2509 1338.62)" class="st1" cx="515.1" cy="595" rx="7.5" ry="7.5"/>
			<ellipse transform="matrix(-0.5 0.866 -0.866 -0.5 1305.36 188.2897)" class="st1" cx="598.3" cy="471" rx="30.8" ry="29.9"/>
			<ellipse transform="matrix(-0.5 -0.866 0.866 -0.5 326.578 1507.0105)" class="st1" cx="598.3" cy="659.2" rx="30.8" ry="29.9"/>

				<ellipse transform="matrix(-0.5 0.866 -0.866 -0.5 1377.6007 208.9746)" class="st1" cx="628.5" cy="502.2" rx="12.1" ry="11.7"/>
			<ellipse transform="matrix(-0.5 0.866 -0.866 -0.5 1277.3253 250.8312)" class="st1" cx="566.3" cy="494.1" rx="6.5" ry="6.4"/>
			<ellipse transform="matrix(-0.5 -0.866 0.866 -0.5 298.5434 1444.469)" class="st1" cx="566.3" cy="636.1" rx="6.5" ry="6.4"/>
			<ellipse transform="matrix(-0.5 -0.866 0.866 -0.5 398.8187 1486.3256)" class="st1" cx="628.5" cy="628" rx="12.1" ry="11.7"/>
			<ellipse transform="matrix(-0.5 -0.866 0.866 -0.5 507.0859 1333.2054)" class="st1" cx="638.4" cy="520.2" rx="5" ry="4.9"/>
			<ellipse transform="matrix(-0.5 0.866 -0.866 -0.5 1485.8679 362.0947)" class="st1" cx="638.4" cy="610" rx="5" ry="4.9"/>
			<ellipse transform="matrix(-0.5 0.866 -0.866 -0.5 1114.4716 396.5472)" class="st1" cx="442.8" cy="520" rx="14.8" ry="14.4"/>

				<ellipse transform="matrix(-0.5 -0.866 0.866 -0.5 134.5195 1300.7797)" class="st1" cx="442.8" cy="611.6" rx="14.8" ry="14.4"/>
		</g>
		<g>
			<ellipse transform="matrix(-0.5 0.866 -0.866 -0.5 1088.158 366.2465)" class="st1" cx="438.4" cy="497.2" rx="4.9" ry="4.9"/>
			<ellipse transform="matrix(-0.5 0.866 -0.866 -0.5 1075.8544 388.2373)" class="st1" cx="425.9" cy="504.7" rx="4.9" ry="4.9"/>
		</g>
		<g>
			<ellipse transform="matrix(0.5 0.866 -0.866 0.5 531.7525 -63.1483)" class="st1" cx="320.6" cy="428.9" rx="4.9" ry="4.9"/>
			<ellipse transform="matrix(0.5 0.866 -0.866 0.5 544.4489 -56.0448)" class="st1" cx="320.8" cy="443.5" rx="4.9" ry="4.9"/>
		</g>
		<g>
			<ellipse class="st1" cx="202.5" cy="496.8" rx="4.9" ry="4.9"/>
			<ellipse class="st1" cx="215.2" cy="503.9" rx="4.9" ry="4.9"/>
		</g>
		<g>
			<ellipse transform="matrix(0.5 -0.866 0.866 0.5 -447.0295 491.6276)" class="st1" cx="202.2" cy="633" rx="4.9" ry="4.9"/>
			<ellipse transform="matrix(0.5 -0.866 0.866 0.5 -434.3331 498.7311)" class="st1" cx="214.7" cy="625.5" rx="4.9" ry="4.9"/>
		</g>
		<g>
			<ellipse transform="matrix(-0.5 -0.866 0.866 -0.5 -127.258 1329.0537)" class="st1" cx="320" cy="701.3" rx="4.9" ry="4.9"/>
			<ellipse transform="matrix(-0.5 -0.866 0.866 -0.5 -114.9544 1307.0629)" class="st1" cx="319.8" cy="686.7" rx="4.9" ry="4.9"/>
		</g>
		<g>
			<ellipse class="st1" cx="438.1" cy="633.4" rx="4.9" ry="4.9"/>
			<ellipse class="st1" cx="425.4" cy="626.3" rx="4.9" ry="4.9"/>
		</g>
		<g>
			<ellipse transform="matrix(0.5 0.866 -0.866 0.5 518.339 -222.0864)" class="st1" cx="451.5" cy="337.9" rx="64" ry="63.7"/>
			<ellipse transform="matrix(0.5 0.866 -0.866 0.5 571.8966 -130.6731)" class="st1" cx="399.1" cy="429.9" rx="39.5" ry="39.3"/>
			<ellipse transform="matrix(0.5 0.866 -0.866 0.5 526.2294 -148.5239)" class="st1" cx="391.7" cy="381.5" rx="7.5" ry="7.5"/>
			<ellipse class="st1" cx="443.6" cy="411.4" rx="7.5" ry="7.5"/>
			<ellipse transform="matrix(0.5 0.866 -0.866 0.5 429.0091 -188.5499)" class="st1" cx="377.8" cy="277.3" rx="30.8" ry="29.9"/>
			<ellipse class="st1" cx="540.8" cy="371.4" rx="30.8" ry="29.9"/>
			<ellipse transform="matrix(0.5 0.866 -0.866 0.5 440.9515 -230.2581)" class="st1" cx="419.9" cy="266.7" rx="12.1" ry="11.7"/>
			<ellipse transform="matrix(0.5 0.866 -0.866 0.5 465.1174 -172.3641)" class="st1" cx="381.8" cy="316.6" rx="6.5" ry="6.4"/>
			<ellipse class="st1" cx="504.7" cy="387.6" rx="6.5" ry="6.4"/>
			<ellipse class="st1" cx="528.9" cy="329.7" rx="12.1" ry="11.7"/>
			<ellipse class="st1" cx="440.5" cy="267.2" rx="5" ry="4.9"/>
			<ellipse transform="matrix(0.5 0.866 -0.866 0.5 529.3555 -292.7662)" class="st1" cx="518.2" cy="312.1" rx="5" ry="4.9"/>
			<ellipse transform="matrix(0.5 0.866 -0.866 0.5 549.2466 -78.3404)" class="st1" cx="342.5" cy="436.5" rx="14.8" ry="14.4"/>
			<ellipse class="st1" cx="421.8" cy="482.3" rx="14.8" ry="14.4"/>
		</g>
		<g>
			<ellipse class="st1" cx="189.1" cy="337.9" rx="64" ry="63.7"/>
			<ellipse class="st1" cx="242.7" cy="429.3" rx="39.5" ry="39.3"/>
			<ellipse class="st1" cx="197" cy="411.4" rx="7.5" ry="7.5"/>
			<ellipse transform="matrix(-0.5 0.866 -0.866 -0.5 703.649 356.6802)" class="st1" cx="248.9" cy="381.5" rx="7.5" ry="7.5"/>
			<ellipse class="st1" cx="99.8" cy="371.4" rx="30.8" ry="29.9"/>
			<ellipse transform="matrix(-0.5 0.866 -0.866 -0.5 634.322 188.2897)" class="st1" cx="262.8" cy="277.3" rx="30.8" ry="29.9"/>
			<ellipse class="st1" cx="111.7" cy="329.7" rx="12.1" ry="11.7"/>
			<ellipse class="st1" cx="135.9" cy="387.6" rx="6.5" ry="6.4"/>
			<ellipse transform="matrix(-0.5 0.866 -0.866 -0.5 662.3566 250.8312)" class="st1" cx="258.8" cy="316.6" rx="6.5" ry="6.4"/>
			<ellipse transform="matrix(-0.5 0.866 -0.866 -0.5 562.0812 208.9746)" class="st1" cx="220.7" cy="266.7" rx="12.1" ry="11.7"/>
			<ellipse transform="matrix(-0.5 0.866 -0.866 -0.5 453.8141 362.0947)" class="st1" cx="122.4" cy="312.1" rx="5" ry="4.9"/>
			<ellipse class="st1" cx="200.1" cy="267.2" rx="5" ry="4.9"/>
			<ellipse class="st1" cx="220" cy="481.6" rx="14.8" ry="14.4"/>
			<ellipse transform="matrix(-0.5 0.866 -0.866 -0.5 826.3805 394.5205)" class="st1" cx="299.3" cy="435.8" rx="14.8" ry="14.4"/>
		</g>
		<g>
			<ellipse transform="matrix(0.5 -0.866 0.866 0.5 -460.443 332.6894)" class="st1" cx="57.9" cy="565.1" rx="64" ry="63.7"/>
			<ellipse transform="matrix(0.5 -0.866 0.866 0.5 -406.8854 424.1028)" class="st1" cx="163.8" cy="564.4" rx="39.5" ry="39.3"/>
			<ellipse transform="matrix(0.5 -0.866 0.866 0.5 -452.5526 406.252)" class="st1" cx="125.5" cy="595" rx="7.5" ry="7.5"/>
			<ellipse transform="matrix(0.5 0.866 -0.866 0.5 526.2294 158.8481)" class="st1" cx="125.5" cy="535.2" rx="7.5" ry="7.5"/>
			<ellipse transform="matrix(0.5 -0.866 0.866 0.5 -549.7729 366.226)" class="st1" cx="42.3" cy="659.2" rx="30.8" ry="29.9"/>
			<ellipse transform="matrix(0.5 0.866 -0.866 0.5 429.0091 198.8741)" class="st1" cx="42.3" cy="471" rx="30.8" ry="29.9"/>
			<ellipse transform="matrix(0.5 -0.866 0.866 0.5 -537.8305 324.5178)" class="st1" cx="12.1" cy="628" rx="12.1" ry="11.7"/>
			<ellipse transform="matrix(0.5 -0.866 0.866 0.5 -513.6646 382.4117)" class="st1" cx="74.3" cy="636.1" rx="6.5" ry="6.4"/>
			<ellipse transform="matrix(0.5 0.866 -0.866 0.5 465.1174 182.6883)" class="st1" cx="74.3" cy="494.1" rx="6.5" ry="6.4"/>
			<ellipse transform="matrix(0.5 0.866 -0.866 0.5 440.9515 240.5823)" class="st1" cx="12.1" cy="502.2" rx="12.1" ry="11.7"/>
			<ellipse transform="matrix(0.5 0.866 -0.866 0.5 529.3555 303.0904)" class="st1" cx="2.2" cy="610" rx="5" ry="4.9"/>
			<ellipse transform="matrix(0.5 -0.866 0.866 0.5 -449.4265 262.0097)" class="st1" cx="2.2" cy="520.2" rx="5" ry="4.9"/>
			<ellipse transform="matrix(0.5 -0.866 0.866 0.5 -429.5354 476.4354)" class="st1" cx="197.8" cy="610.2" rx="14.8" ry="14.4"/>
			<ellipse transform="matrix(0.5 0.866 -0.866 0.5 548.0765 87.9891)" class="st1" cx="197.8" cy="518.6" rx="14.8" ry="14.4"/>
		</g>
		<g>
			<ellipse transform="matrix(-0.5 -0.866 0.866 -0.5 -402.547 1352.2865)" class="st1" cx="189.1" cy="792.3" rx="64" ry="63.7"/>

				<ellipse transform="matrix(-0.5 -0.866 0.866 -0.5 -244.2144 1259.5221)" class="st1" cx="241.5" cy="700.3" rx="39.5" ry="39.3"/>
			<ellipse transform="matrix(-0.5 -0.866 0.866 -0.5 -275.1329 1338.62)" class="st1" cx="248.9" cy="748.7" rx="7.5" ry="7.5"/>
			<ellipse class="st1" cx="197" cy="718.8" rx="7.5" ry="7.5"/>

				<ellipse transform="matrix(-0.5 -0.866 0.866 -0.5 -344.4601 1507.0105)" class="st1" cx="262.8" cy="852.9" rx="30.8" ry="29.9"/>
			<ellipse class="st1" cx="99.8" cy="758.8" rx="30.8" ry="29.9"/>

				<ellipse transform="matrix(-0.5 -0.866 0.866 -0.5 -416.7007 1486.3256)" class="st1" cx="220.7" cy="863.5" rx="12.1" ry="11.7"/>
			<ellipse transform="matrix(-0.5 -0.866 0.866 -0.5 -316.4254 1444.469)" class="st1" cx="258.8" cy="813.6" rx="6.5" ry="6.4"/>
			<ellipse class="st1" cx="135.9" cy="742.6" rx="6.5" ry="6.4"/>
			<ellipse class="st1" cx="111.7" cy="800.5" rx="12.1" ry="11.7"/>
			<ellipse class="st1" cx="200.1" cy="863" rx="5" ry="4.9"/>
			<ellipse transform="matrix(-0.5 -0.866 0.866 -0.5 -524.9679 1333.2054)" class="st1" cx="122.4" cy="818.1" rx="5" ry="4.9"/>

				<ellipse transform="matrix(-0.5 -0.866 0.866 -0.5 -153.5716 1298.7529)" class="st1" cx="298.1" cy="693.7" rx="14.8" ry="14.4"/>
			<ellipse class="st1" cx="218.8" cy="647.9" rx="14.8" ry="14.4"/>
		</g>
		<g>
			<ellipse class="st1" cx="451.5" cy="792.3" rx="64" ry="63.7"/>
			<ellipse class="st1" cx="397.9" cy="700.9" rx="39.5" ry="39.3"/>
			<ellipse class="st1" cx="443.6" cy="718.8" rx="7.5" ry="7.5"/>
			<ellipse transform="matrix(0.5 -0.866 0.866 0.5 -452.5526 713.624)" class="st1" cx="391.7" cy="748.7" rx="7.5" ry="7.5"/>
			<ellipse class="st1" cx="540.8" cy="758.8" rx="30.8" ry="29.9"/>
			<ellipse transform="matrix(0.5 -0.866 0.866 0.5 -549.7729 753.65)" class="st1" cx="377.8" cy="852.9" rx="30.8" ry="29.9"/>
			<ellipse class="st1" cx="528.9" cy="800.5" rx="12.1" ry="11.7"/>
			<ellipse class="st1" cx="504.7" cy="742.6" rx="6.5" ry="6.4"/>
			<ellipse transform="matrix(0.5 -0.866 0.866 0.5 -513.6646 737.4642)" class="st1" cx="381.8" cy="813.6" rx="6.5" ry="6.4"/>
			<ellipse transform="matrix(0.5 -0.866 0.866 0.5 -537.8305 795.3582)" class="st1" cx="419.9" cy="863.5" rx="12.1" ry="11.7"/>
			<ellipse transform="matrix(0.5 -0.866 0.866 0.5 -449.4265 857.8662)" class="st1" cx="518.2" cy="818.1" rx="5" ry="4.9"/>
			<ellipse class="st1" cx="440.5" cy="863" rx="5" ry="4.9"/>
			<ellipse class="st1" cx="420.6" cy="648.6" rx="14.8" ry="14.4"/>
			<ellipse transform="matrix(0.5 -0.866 0.866 0.5 -430.7055 642.7649)" class="st1" cx="341.3" cy="694.4" rx="14.8" ry="14.4"/>
		</g>
		<g>

				<ellipse transform="matrix(-0.5 -0.866 0.866 -0.5 250.6393 1575.3763)" class="st1" cx="580.1" cy="715.3" rx="24.5" ry="23.8"/>
			<ellipse transform="matrix(-0.5 -0.866 0.866 -0.5 308.8145 1574.3828)" class="st1" cx="608.9" cy="698" rx="9.3" ry="9.1"/>
			<ellipse transform="matrix(-0.5 -0.866 0.866 -0.5 220.3165 1626.7885)" class="st1" cx="579.8" cy="749.8" rx="9.3" ry="9.1"/>
		</g>
		<g>
			<ellipse class="st1" cx="580.3" cy="415.2" rx="24.5" ry="23.8"/>
			<ellipse class="st1" cx="579.7" cy="381.6" rx="9.3" ry="9.1"/>
			<ellipse class="st1" cx="610" cy="432.7" rx="9.3" ry="9.1"/>
		</g>
		<g>
			<ellipse transform="matrix(-0.5 0.866 -0.866 -0.5 710.2607 119.9237)" class="st1" cx="320.5" cy="265" rx="24.5" ry="23.8"/>
			<ellipse transform="matrix(-0.5 0.866 -0.866 -0.5 652.0854 120.9174)" class="st1" cx="291.1" cy="248.7" rx="9.3" ry="9.1"/>
			<ellipse transform="matrix(-0.5 0.866 -0.866 -0.5 740.5835 68.5117)" class="st1" cx="350.5" cy="248" rx="9.3" ry="9.1"/>
		</g>
		<g>
			<ellipse transform="matrix(0.5 0.866 -0.866 0.5 389.538 155.0309)" class="st1" cx="60.5" cy="414.9" rx="24.5" ry="23.8"/>
			<ellipse transform="matrix(0.5 0.866 -0.866 0.5 390.1117 188.6184)" class="st1" cx="31.7" cy="432.2" rx="9.3" ry="9.1"/>
			<ellipse transform="matrix(0.5 0.866 -0.866 0.5 359.8553 137.524)" class="st1" cx="60.8" cy="380.4" rx="9.3" ry="9.1"/>
		</g>
		<g>
			<ellipse class="st1" cx="60.3" cy="715" rx="24.5" ry="23.8"/>
			<ellipse class="st1" cx="60.9" cy="748.6" rx="9.3" ry="9.1"/>
			<ellipse class="st1" cx="30.6" cy="697.5" rx="9.3" ry="9.1"/>
		</g>
		<g>
			<ellipse transform="matrix(0.5 -0.866 0.866 0.5 -589.244 709.8067)" class="st1" cx="320.1" cy="865.2" rx="24.5" ry="23.8"/>
			<ellipse transform="matrix(0.5 -0.866 0.866 0.5 -588.6703 743.3942)" class="st1" cx="349.5" cy="881.5" rx="9.3" ry="9.1"/>
			<ellipse transform="matrix(0.5 -0.866 0.866 0.5 -618.9268 692.2998)" class="st1" cx="290.1" cy="882.2" rx="9.3" ry="9.1"/>
		</g>
	</g>
	<g>
		<circle class="st2" cx="139.9" cy="669.2" r="65"/>
		<circle class="st3" cx="320.3" cy="773.4" r="65"/>
		<circle class="st3" cx="500.7" cy="461" r="65"/>
		<circle class="st3" cx="139.9" cy="461" r="65"/>
		<circle class="st3" cx="320.3" cy="356.8" r="65"/>
		<circle class="st3" cx="500.7" cy="669.2" r="65"/>
		<circle class="st3" cx="320.3" cy="565.1" r="113.6"/>
	</g>
</g>
</svg>
