<?xml version="1.0" encoding="utf-8"?>
<!-- Generator: Adobe Illustrator 19.0.0, SVG Export Plug-In . SVG Version: 6.00 Build 0)  -->
<svg version="1.1" id="Layer_1" xmlns="http://www.w3.org/2000/svg" xmlns:xlink="http://www.w3.org/1999/xlink" x="0px" y="0px"
	 viewBox="-10.1 234.7 660.9 660.9" style="enable-background:new -10.1 234.7 660.9 660.9;" xml:space="preserve" width="1" height="1">
<style type="text/css">
	.st0{fill:#FFCACA;}
	.st1{fill:#875454;}
	.st2{fill:none;stroke:#000000;stroke-width:5;}
	.st3{fill:#FFFFFF;stroke:#000000;stroke-width:2;}
	.st4{fill:none;stroke:#B78080;stroke-width:2.5;stroke-linecap:round;stroke-linejoin:round;}
	.st5{fill:#3D3A18;stroke:#000000;stroke-width:8;stroke-miterlimit:10;}
	.st6{fill:#D6CA99;}
	.st7{fill:#6B682B;}
	.st8{fill:none;stroke:#000000;stroke-width:8;stroke-miterlimit:10;}
	.st9{fill:#ADA171;}
	.st10{fill:none;stroke:#898427;stroke-width:2.5;stroke-linecap:round;stroke-linejoin:round;}
	.st11{fill:none;stroke:#000000;stroke-width:5;stroke-miterlimit:10;}
	.st12{fill:#FFF6CC;}
	.st13{fill:none;stroke:#B5B245;stroke-width:2.5;stroke-linecap:round;stroke-linejoin:round;}
	.st14{fill:none;}
	.st15{fill:#FFFFFF;}
</style>
<g id="Circle_2_">
	<g id="Circle_4_">
		<circle class="st0" cx="320.3" cy="565.1" r="327.9"/>
		<circle class="st1" cx="320.3" cy="565.1" r="327.9"/>
		<circle class="st2" cx="320.3" cy="565.1" r="327.9"/>
	</g>
	<g id="Circles_1_">
		<circle id="XMLID_240_" class="st3" cx="6.6" cy="554.2" r="3.4"/>
		<circle id="XMLID_239_" class="st3" cx="6.5" cy="570.6" r="3.4"/>
		<circle id="XMLID_238_" class="st3" cx="7.1" cy="587.1" r="3.4"/>
		<circle id="XMLID_237_" class="st3" cx="8.8" cy="603.4" r="3.4"/>
		<circle id="XMLID_236_" class="st3" cx="11.2" cy="619.6" r="3.4"/>
		<circle id="XMLID_235_" class="st3" cx="14.5" cy="635.8" r="3.4"/>
		<circle id="XMLID_234_" class="st3" cx="18.6" cy="651.7" r="3.4"/>
		<circle id="XMLID_233_" class="st3" cx="23.5" cy="667.4" r="3.4"/>
		<circle id="XMLID_232_" class="st3" cx="29.2" cy="682.7" r="3.4"/>
		<circle id="XMLID_231_" class="st3" cx="35.8" cy="697.8" r="3.4"/>
		<circle id="XMLID_230_" class="st3" cx="43.1" cy="712.6" r="3.4"/>
		<circle id="XMLID_229_" class="st3" cx="51.2" cy="726.8" r="3.4"/>
		<circle id="XMLID_228_" class="st3" cx="60.1" cy="740.7" r="3.4"/>
		<circle id="XMLID_227_" class="st3" cx="69.7" cy="754.1" r="3.4"/>
		<circle id="XMLID_226_" class="st3" cx="79.9" cy="766.9" r="3.4"/>
		<circle id="XMLID_225_" class="st3" cx="90.8" cy="779.3" r="3.4"/>
		<circle id="XMLID_224_" class="st3" cx="102.2" cy="790.9" r="3.4"/>
		<circle id="XMLID_223_" class="st3" cx="114.4" cy="802" r="3.4"/>
		<circle id="XMLID_222_" class="st3" cx="127.1" cy="812.5" r="3.4"/>
		<circle id="XMLID_221_" class="st3" cx="140.3" cy="822.3" r="3.4"/>
		<circle id="XMLID_220_" class="st3" cx="154" cy="831.4" r="3.4"/>
		<circle id="XMLID_219_" class="st3" cx="168.2" cy="839.7" r="3.4"/>
		<circle id="XMLID_218_" class="st3" cx="182.7" cy="847.3" r="3.4"/>
		<circle id="XMLID_217_" class="st3" cx="197.7" cy="854.1" r="3.4"/>
		<circle id="XMLID_216_" class="st3" cx="212.9" cy="860.1" r="3.4"/>
		<circle id="XMLID_215_" class="st3" cx="228.6" cy="865.3" r="3.4"/>
		<circle id="XMLID_214_" class="st3" cx="244.4" cy="869.7" r="3.4"/>
		<circle id="XMLID_213_" class="st3" cx="260.5" cy="873.3" r="3.4"/>
		<circle id="XMLID_211_" class="st3" cx="276.6" cy="876" r="3.4"/>
		<circle id="XMLID_210_" class="st3" cx="293" cy="877.8" r="3.4"/>
		<circle id="XMLID_209_" class="st3" cx="309.4" cy="878.9" r="3.4"/>
		<circle id="XMLID_208_" class="st3" cx="325.8" cy="879" r="3.4"/>
		<circle id="XMLID_207_" class="st3" cx="342.3" cy="878.3" r="3.4"/>
		<circle id="XMLID_206_" class="st3" cx="358.6" cy="876.7" r="3.4"/>
		<circle id="XMLID_205_" class="st3" cx="374.8" cy="874.3" r="3.4"/>
		<circle id="XMLID_204_" class="st3" cx="391" cy="871" r="3.4"/>
		<circle id="XMLID_203_" class="st3" cx="406.9" cy="866.9" r="3.4"/>
		<circle id="XMLID_202_" class="st3" cx="422.6" cy="862" r="3.4"/>
		<circle id="XMLID_201_" class="st3" cx="437.9" cy="856.3" r="3.4"/>
		<circle id="XMLID_200_" class="st3" cx="453" cy="849.7" r="3.4"/>
		<circle id="XMLID_199_" class="st3" cx="467.8" cy="842.4" r="3.4"/>
		<circle id="XMLID_198_" class="st3" cx="482" cy="834.3" r="3.4"/>
		<circle id="XMLID_197_" class="st3" cx="495.9" cy="825.4" r="3.4"/>
		<circle id="XMLID_196_" class="st3" cx="509.3" cy="815.8" r="3.4"/>
		<circle id="XMLID_195_" class="st3" cx="522.1" cy="805.6" r="3.4"/>
		<circle id="XMLID_194_" class="st3" cx="534.5" cy="794.7" r="3.4"/>
		<circle id="XMLID_193_" class="st3" cx="546.1" cy="783.2" r="3.4"/>
		<circle id="XMLID_192_" class="st3" cx="557.2" cy="771.1" r="3.4"/>
		<circle id="XMLID_191_" class="st3" cx="567.7" cy="758.4" r="3.4"/>
		<circle id="XMLID_190_" class="st3" cx="577.5" cy="745.2" r="3.4"/>
		<circle id="XMLID_189_" class="st3" cx="586.6" cy="731.5" r="3.4"/>
		<circle id="XMLID_188_" class="st3" cx="594.9" cy="717.3" r="3.4"/>
		<circle id="XMLID_187_" class="st3" cx="602.5" cy="702.8" r="3.4"/>
		<circle id="XMLID_186_" class="st3" cx="609.3" cy="687.8" r="3.4"/>
		<circle id="XMLID_185_" class="st3" cx="615.3" cy="672.5" r="3.4"/>
		<circle id="XMLID_184_" class="st3" cx="620.5" cy="656.9" r="3.4"/>
		<circle id="XMLID_183_" class="st3" cx="624.9" cy="641.1" r="3.4"/>
		<circle id="XMLID_182_" class="st3" cx="628.5" cy="625" r="3.4"/>
		<circle id="XMLID_181_" class="st3" cx="631.2" cy="608.9" r="3.4"/>
		<circle id="XMLID_180_" class="st3" cx="633" cy="592.5" r="3.4"/>
		<circle id="XMLID_179_" class="st3" cx="634.1" cy="576.1" r="3.4"/>
		<circle id="XMLID_178_" class="st3" cx="634.2" cy="559.7" r="3.4"/>
		<circle id="XMLID_177_" class="st3" cx="633.5" cy="543.2" r="3.4"/>
		<circle id="XMLID_176_" class="st3" cx="631.9" cy="526.9" r="3.4"/>
		<circle id="XMLID_175_" class="st3" cx="629.5" cy="510.7" r="3.4"/>
		<circle id="XMLID_174_" class="st3" cx="626.2" cy="494.5" r="3.4"/>
		<circle id="XMLID_173_" class="st3" cx="622.1" cy="478.6" r="3.4"/>
		<circle id="XMLID_172_" class="st3" cx="617.2" cy="462.9" r="3.4"/>
		<circle id="XMLID_171_" class="st3" cx="611.5" cy="447.6" r="3.4"/>
		<circle id="XMLID_170_" class="st3" cx="604.9" cy="432.5" r="3.4"/>
		<circle id="XMLID_169_" class="st3" cx="597.6" cy="417.7" r="3.4"/>
		<circle id="XMLID_168_" class="st3" cx="589.5" cy="403.5" r="3.4"/>
		<circle id="XMLID_167_" class="st3" cx="580.6" cy="389.6" r="3.4"/>
		<circle id="XMLID_166_" class="st3" cx="571" cy="376.2" r="3.4"/>
		<circle id="XMLID_165_" class="st3" cx="560.8" cy="363.4" r="3.4"/>
		<circle id="XMLID_164_" class="st3" cx="549.9" cy="351" r="3.4"/>
		<circle id="XMLID_163_" class="st3" cx="538.4" cy="339.4" r="3.4"/>
		<circle id="XMLID_162_" class="st3" cx="526.3" cy="328.3" r="3.4"/>
		<circle id="XMLID_161_" class="st3" cx="513.6" cy="317.8" r="3.4"/>
		<circle id="XMLID_160_" class="st3" cx="500.4" cy="308" r="3.4"/>
		<circle id="XMLID_159_" class="st3" cx="486.7" cy="298.9" r="3.4"/>
		<circle id="XMLID_158_" class="st3" cx="472.5" cy="290.5" r="3.4"/>
		<circle id="XMLID_157_" class="st3" cx="458" cy="283" r="3.4"/>
		<circle id="XMLID_156_" class="st3" cx="443" cy="276.2" r="3.4"/>
		<circle id="XMLID_155_" class="st3" cx="427.7" cy="270.2" r="3.4"/>
		<circle id="XMLID_154_" class="st3" cx="412.1" cy="265" r="3.4"/>
		<circle id="XMLID_153_" class="st3" cx="396.3" cy="260.6" r="3.4"/>
		<circle id="XMLID_152_" class="st3" cx="380.2" cy="257" r="3.4"/>
		<circle id="XMLID_151_" class="st3" cx="364.1" cy="254.3" r="3.4"/>
		<circle id="XMLID_150_" class="st3" cx="347.7" cy="252.4" r="3.4"/>
		<circle id="XMLID_149_" class="st3" cx="331.3" cy="251.4" r="3.4"/>
		<circle id="XMLID_148_" class="st3" cx="314.9" cy="251.3" r="3.4"/>
		<circle id="XMLID_147_" class="st3" cx="298.4" cy="251.9" r="3.4"/>
		<circle id="XMLID_146_" class="st3" cx="282.1" cy="253.6" r="3.4"/>
		<circle id="XMLID_83_" class="st3" cx="265.9" cy="256" r="3.4"/>
		<circle id="XMLID_81_" class="st3" cx="249.7" cy="259.3" r="3.4"/>
		<circle id="XMLID_79_" class="st3" cx="233.8" cy="263.4" r="3.4"/>
		<circle id="XMLID_78_" class="st3" cx="218.1" cy="268.3" r="3.4"/>
		<circle id="XMLID_75_" class="st3" cx="202.8" cy="274" r="3.4"/>
		<circle id="XMLID_74_" class="st3" cx="187.7" cy="280.6" r="3.4"/>
		<circle id="XMLID_73_" class="st3" cx="172.9" cy="287.9" r="3.4"/>
		<circle id="XMLID_71_" class="st3" cx="158.7" cy="296" r="3.4"/>
		<circle id="XMLID_70_" class="st3" cx="144.8" cy="304.9" r="3.4"/>
		<circle id="XMLID_69_" class="st3" cx="131.4" cy="314.5" r="3.4"/>
		<circle id="XMLID_68_" class="st3" cx="118.6" cy="324.7" r="3.4"/>
		<circle id="XMLID_67_" class="st3" cx="106.2" cy="335.6" r="3.4"/>
		<circle id="XMLID_65_" class="st3" cx="94.6" cy="347" r="3.4"/>
		<circle id="XMLID_64_" class="st3" cx="83.5" cy="359.2" r="3.4"/>
		<circle id="XMLID_63_" class="st3" cx="73" cy="371.9" r="3.4"/>
		<circle id="XMLID_60_" class="st3" cx="63.2" cy="385.1" r="3.4"/>
		<circle id="XMLID_59_" class="st3" cx="54.1" cy="398.8" r="3.4"/>
		<circle id="XMLID_58_" class="st3" cx="45.7" cy="413" r="3.4"/>
		<circle id="XMLID_57_" class="st3" cx="38.2" cy="427.5" r="3.4"/>
		<circle id="XMLID_56_" class="st3" cx="31.4" cy="442.5" r="3.4"/>
		<circle id="XMLID_55_" class="st3" cx="25.4" cy="457.7" r="3.4"/>
		<circle id="XMLID_54_" class="st3" cx="20.2" cy="473.4" r="3.4"/>
		<circle id="XMLID_4_" class="st3" cx="15.8" cy="489.2" r="3.4"/>
		<circle id="XMLID_3_" class="st3" cx="12.2" cy="505.3" r="3.4"/>
		<circle id="XMLID_2_" class="st3" cx="9.5" cy="521.4" r="3.4"/>
		<circle id="XMLID_1_" class="st3" cx="7.6" cy="537.8" r="3.4"/>
	</g>
</g>
<g id="Circle_1_">
	<g id="Circle_5_">
		<circle class="st0" cx="320.3" cy="565.1" r="301.7"/>
		<g>
			<path class="st4" d="M19.3,583.6c0.9,0-1.1-36.9,0-36.9c1.8,0,3.7,77.9,5.3,77.9c2.9,0-2.6-118.9,0-118.9
				c3,0,2.3,141.3,5.4,141.3c3.8,0-3.7-163.8,0-163.8c4.6,0,0.9,179.7,5,179.7c5.1,0-4.7-195.6,0-195.6c5.3,0,1.1,210.1,5.4,210.1
				c6.5,0-6.1-224.6,0-224.6c6.5,0-1.4,236.9,5.2,236.9c6,0-5.1-249.1,0-249.1c5.4,0-1.1,260.1,5.3,260.1c5.9,0-7.7-271.1,0-271.1
				c5.8,0-1.9,279.7,4.5,279.7c6.6,0-7.8-288.3,0-288.3c8,0-2,296.6,4.6,296.6c7.4,0-6.4-304.8,0-304.8c8.1,0-2.4,313.5,5.3,313.5
				c6.6,0-9.3-322.2,0-322.2c9,0-1.2,330.5,5.5,330.5c7,0-8.6-338.8,0-338.8c8,0-1.5,346.6,5.5,346.6c7.3,0-8.7-354.4,0-354.4
				c10,0-3.9,360.8,4.8,360.8c7.6,0-7.7-367.3,0-367.3c11,0-2.6,373.7,5.1,373.7c8.3,0-9.9-380,0-380c8.6,0-3.1,386,4.9,386
				c10.1,0-9.9-392,0-392c10.1,0-6.2,397.4,4.8,397.4c11.9,0-9.3-402.8,0-402.8c10.6,0-4.6,408.1,4.8,408.1c11,0-12.1-413.4,0-413.4
				c11.4,0-5.6,418.9,5.3,418.9c9.3,0-11.1-424.5,0-424.5c12.3,0-8,428.9,4.5,428.9c12.2,0-9.2-433.3,0-433.3c12.6,0-8,438,4.9,438
				c9.2,0-12.7-442.7,0-442.7c13.2,0-7.4,447.4,5.3,447.4c13.6,0-12.1-452.2,0-452.2c10.2,0-7.9,456.7,5.1,456.7
				c13.1,0-11.8-461.2,0-461.2c11,0-8.3,465.5,5.3,465.5c10.3,0-12.1-469.8,0-469.8c10.5,0-8.8,473.5,4.7,473.5
				c13,0-12.8-477.3,0-477.3c14.2,0-4.9,481.4,5.4,481.4c9.9,0-14.1-485.4,0-485.4c12.1,0-8.5,489.2,5.2,489.2
				c11.6,0-14.5-493,0-493c14.5,0-4.9,496.6,5.3,496.6c14.6,0-11.3-500.1,0-500.1c10.8,0-6.6,503.6,5.1,503.6c10.2,0-12.3-507,0-507
				c12.9,0-8.2,509.8,4.5,509.8c11.7,0-11.9-512.7,0-512.7c13.3,0-6.8,516,5.5,516c14.8,0-13.4-519.4,0-519.4
				c11.5,0-8.7,522.2,5,522.2c15.2,0-13.2-525.1,0-525.1c10.8,0-6.3,527.6,4.5,527.6c14.2,0-14.4-530.2,0-530.2
				c11.2,0-6.7,532.7,4.7,532.7c11.5,0-15.2-535.2,0-535.2c15.8,0-8,537.8,5,537.8c15.7,0-15.7-540.3,0-540.3
				c15,0-7.2,542.6,4.7,542.6c16.1,0-13.2-545,0-545c15.1,0-10.9,547.1,4.7,547.1c15.7,0-12.9-549.2,0-549.2
				c12.6,0-10.4,551.6,5.3,551.6c11.9,0-13.4-554,0-554c12.4,0-10.7,555.9,4.6,555.9c14.2,0-14.3-557.9,0-557.9
				c16.5,0-6.1,560,5.3,560c15.3,0-11.5-562.1,0-562.1c13.4,0-8.3,564,4.8,564c15.1,0-12.9-565.8,0-565.8
				c16.2,0-9.3,567.5,4.8,567.5c12.2,0-15.4-569.2,0-569.2c12.6,0-7,570.8,4.6,570.8c14.2,0-15.7-572.4,0-572.4
				c16.5,0-9.6,574,5.1,574c12.2,0-15.7-575.7,0-575.7c13.6,0-8.8,577.2,4.9,577.2c12.9,0-15.2-578.7,0-578.7
				c17,0-9.4,580.1,4.8,580.1c17.3,0-11.9-581.5,0-581.5c15.3,0-7.3,582.9,5.2,582.9c16.6,0-16.6-584.2,0-584.2
				c14,0-11.6,585.5,5.2,585.5c16.2,0-17.4-586.8,0-586.8c15.6,0-11,588,5.2,588c12.8,0-15.3-589.2,0-589.2
				c14.2,0-7.6,590.2,5,590.2c12.1,0-16.8-591.2,0-591.2c14.5,0-9.6,592.3,5.3,592.3c12.8,0-15-593.4,0-593.4
				c15.1,0-9.7,594.2,5.3,594.2c13.9,0-13.5-595.1,0-595.1c17.5,0-8.8,596,5.4,596c12.6,0-15.5-596.8,0-596.8
				c15.6,0-8.6,597.6,5.4,597.6c13.3,0-17.2-598.3,0-598.3c14.5,0-8.5,598.9,5.4,598.9c17.7,0-16.9-599.5,0-599.5
				c17.5,0-9.6,600,4.5,600c13.6,0-17.4-600.5,0-600.5c15.8,0-9.9,601,5.2,601c12.4,0-17.7-601.4,0-601.4
				c13.9,0-11.1,601.8,5.5,601.8c14,0-15.7-602.1,0-602.1c13.4,0-12.5,602.4,4.9,602.4c15.6,0-15.6-602.7,0-602.7
				c16.5,0-12.9,602.8,4.8,602.8c15.2,0-14.1-603,0-603c17.1,0-10.5,603.1,4.8,603.1c15.3,0-16.8-603.2,0-603.2
				c12.7,0-10,603.2,5,603.2c16.8,0-17.5-603.3,0-603.3c13.5,0-10.6,603.2,4.6,603.2c17.1,0-16.9-603.1,0-603.1
				c15.1,0-10.9,603,4.9,603c13.1,0-17.9-602.9,0-602.9c17.6,0-8.7,602.7,4.8,602.7c12.8,0-17.6-602.5,0-602.5
				c12.9,0-11.3,602.2,4.7,602.2c17.2,0-13.6-601.8,0-601.8c14.1,0-9.5,601.5,5.1,601.5c16.9,0-18-601.1,0-601.1
				c12.1,0-11.8,600.7,4.8,600.7c13.8,0-14.7-600.2,0-600.2c17.2,0-11.6,599.7,5,599.7c12.9,0-14.1-599.1,0-599.1
				c12.9,0-8,598.6,4.7,598.6c15.6,0-12.9-598.1,0-598.1c15.2,0-11.9,597.4,4.6,597.4c15.3,0-13.8-596.7,0-596.7
				c14.3,0-7.6,595.8,5.4,595.8c17.8,0-13.5-595,0-595c17.4,0-11.7,594.3,4.5,594.3c15.4,0-17.1-593.5,0-593.5
				c12.9,0-9.1,592.5,4.8,592.5c13.9,0-14.4-591.6,0-591.6c17.5,0-13,590.6,4.7,590.6c12.9,0-15.4-589.6,0-589.6
				c13,0-8.4,588.5,5,588.5c12.2,0-13.3-587.5,0-587.5c11.7,0-11,586.2,5.1,586.2c14.9,0-16.2-584.9,0-584.9
				c14.1,0-10.4,583.7,4.8,583.7c16,0-13-582.5,0-582.5c17.4,0-9.6,581.1,4.8,581.1c15.2,0-16.5-579.8,0-579.8
				c16.8,0-6.9,578.3,4.8,578.3c12.1,0-12.9-576.9,0-576.9c12.2,0-7.1,575.3,5.1,575.3c14.2,0-16.3-573.8,0-573.8
				c16.5,0-6.8,571.9,5.4,571.9c11.5,0-15.2-570,0-570c12,0-11.5,568.2,5.2,568.2c11.5,0-13.9-566.4,0-566.4
				c11.7,0-7.1,564.3,5.2,564.3c14.1,0-14.1-562.3,0-562.3c13.1,0-10.1,560.4,4.7,560.4c14.7,0-16.1-558.6,0-558.6
				c13.4,0-10.7,556.7,4.6,556.7c15.6,0-14.7-554.8,0-554.8c11.8,0-8.3,552.5,5.2,552.5c11,0-15.6-550.2,0-550.2
				c15.1,0-9.9,547.7,5.5,547.7c12.7,0-15.8-545.2,0-545.2c14.8,0-7.4,542.6,5.3,542.6c15.1,0-15.1-539.9,0-539.9
				c12.4,0-8.8,537.3,5.3,537.3c14.8,0-14.8-534.6,0-534.6c13.6,0-7.7,531.9,4.9,531.9c11.8,0-12.9-529.2,0-529.2
				c14.4,0-9.8,526.7,4.5,526.7c12.3,0-13.3-524.2,0-524.2c12.8,0-6.9,521.4,4.9,521.4c14.3,0-12.4-518.5,0-518.5
				c12.7,0-8.2,515.7,4.6,515.7c14.2,0-11.3-512.9,0-512.9c12.9,0-7.4,510.1,4.5,510.1c11.2,0-10.5-507.3,0-507.3
				c13.6,0-8.6,503.8,5.2,503.8c10.5,0-10.3-500.3,0-500.3c13.9,0-9.4,496.6,5.3,496.6c13.1,0-11.3-493,0-493
				c11.3,0-9.9,489.6,4.7,489.6c12.7,0-9.7-486.1,0-486.1c10.4,0-7.9,482.7,4.6,482.7c12.3,0-11.6-479.3,0-479.3
				c9.6,0-7.3,475.7,4.6,475.7c12.5,0-14.1-472,0-472c10.1,0-8.1,468.3,4.7,468.3c12.5,0-12.4-464.5,0-464.5
				c10.2,0-7.1,460.1,5.2,460.1c9.6,0-9.5-455.6,0-455.6c9.5,0-5.9,451.3,4.9,451.3c9.8,0-11.6-447.1,0-447.1
				c11.8,0-6.6,442.8,4.6,442.8c11.6,0-9.9-438.5,0-438.5c11.4,0-5.3,433.3,5.4,433.3c9.5,0-10.6-428.1,0-428.1
				c11.5,0-3.5,422.5,5.4,422.5c10.7,0-9.1-416.9,0-416.9c9.9,0-3.9,411.4,5.2,411.4c8.9,0-11.3-405.9,0-405.9
				c10.6,0-4.2,399.7,5.5,399.7c9,0-8.5-393.4,0-393.4c10,0-3.4,387.3,5.1,387.3c10.1,0-11.2-381.2,0-381.2
				c8.8,0-4.9,374.5,5.4,374.5c8.7,0-10.8-367.9,0-367.9c7.6,0-3.6,360.5,5.5,360.5c10.5,0-9.8-353,0-353
				c10.2,0-1.9,345.8,5.1,345.8c9.9,0-8.8-338.5,0-338.5c8.3,0-4.7,331.4,4.8,331.4c8.4,0-8.3-324.2,0-324.2
				c7.4,0-4.3,316.8,4.6,316.8c8.9,0-8.2-309.4,0-309.4c7.6,0-2.2,300.8,4.9,300.8c8,0-6.6-292.3,0-292.3c6.9,0-1.3,283.3,4.8,283.3
				c8.2,0-6.7-274.3,0-274.3c7.1,0-1.7,264.7,4.7,264.7c5.1,0-7.5-255.1,0-255.1c7.2,0-0.7,244.5,4.7,244.5c5,0-6.4-233.9,0-233.9
				c5.1,0-1.2,220.4,5.3,220.4c5,0-6-206.8,0-206.8c4.3,0-0.5,191.8,5,191.8c4.9,0-4.6-176.9,0-176.9c4.7,0,1,158.1,5.1,158.1
				c3.4,0-3.4-139.3,0-139.3c3.1,0,2,113.4,4.9,113.4c2.4,0-1.9-87.4,0-87.4"/>
		</g>
		<circle class="st2" cx="320.3" cy="565.1" r="301.7"/>
	</g>
	<g id="Circles">
		<circle id="XMLID_212_" class="st3" cx="32.1" cy="555.1" r="3.2"/>
		<circle id="XMLID_5_" class="st3" cx="32" cy="570.1" r="3.2"/>
		<circle id="XMLID_6_" class="st3" cx="32.6" cy="585.3" r="3.2"/>
		<circle id="XMLID_7_" class="st3" cx="34.1" cy="600.2" r="3.2"/>
		<circle id="XMLID_8_" class="st3" cx="36.4" cy="615.2" r="3.2"/>
		<circle id="XMLID_9_" class="st3" cx="39.3" cy="630" r="3.2"/>
		<circle id="XMLID_10_" class="st3" cx="43.1" cy="644.5" r="3.2"/>
		<circle id="XMLID_11_" class="st3" cx="47.7" cy="659" r="3.2"/>
		<circle id="XMLID_12_" class="st3" cx="52.9" cy="673" r="3.2"/>
		<circle id="XMLID_13_" class="st3" cx="58.9" cy="687" r="3.2"/>
		<circle id="XMLID_14_" class="st3" cx="65.7" cy="700.5" r="3.2"/>
		<circle id="XMLID_15_" class="st3" cx="73.1" cy="713.5" r="3.2"/>
		<circle id="XMLID_16_" class="st3" cx="81.2" cy="726.4" r="3.2"/>
		<circle id="XMLID_17_" class="st3" cx="90" cy="738.5" r="3.2"/>
		<circle id="XMLID_18_" class="st3" cx="99.4" cy="750.4" r="3.2"/>
		<circle id="XMLID_19_" class="st3" cx="109.4" cy="761.8" r="3.2"/>
		<circle id="XMLID_20_" class="st3" cx="119.9" cy="772.5" r="3.2"/>
		<circle id="XMLID_21_" class="st3" cx="131.1" cy="782.7" r="3.2"/>
		<circle id="XMLID_22_" class="st3" cx="142.8" cy="792.3" r="3.2"/>
		<circle id="XMLID_23_" class="st3" cx="154.9" cy="801.3" r="3.2"/>
		<circle id="XMLID_24_" class="st3" cx="167.4" cy="809.5" r="3.2"/>
		<circle id="XMLID_25_" class="st3" cx="180.6" cy="817.3" r="3.2"/>
		<circle id="XMLID_26_" class="st3" cx="193.9" cy="824.3" r="3.2"/>
		<circle id="XMLID_27_" class="st3" cx="207.6" cy="830.5" r="3.2"/>
		<circle id="XMLID_28_" class="st3" cx="221.6" cy="836" r="3.2"/>
		<circle id="XMLID_29_" class="st3" cx="236.1" cy="840.8" r="3.2"/>
		<circle id="XMLID_30_" class="st3" cx="250.6" cy="844.9" r="3.2"/>
		<circle id="XMLID_31_" class="st3" cx="265.3" cy="848" r="3.2"/>
		<circle id="XMLID_32_" class="st3" cx="280.1" cy="850.5" r="3.2"/>
		<circle id="XMLID_33_" class="st3" cx="295.2" cy="852.3" r="3.2"/>
		<circle id="XMLID_34_" class="st3" cx="310.2" cy="853.3" r="3.2"/>
		<circle id="XMLID_35_" class="st3" cx="325.2" cy="853.4" r="3.2"/>
		<circle id="XMLID_36_" class="st3" cx="340.4" cy="852.7" r="3.2"/>
		<circle id="XMLID_37_" class="st3" cx="355.3" cy="851.3" r="3.2"/>
		<circle id="XMLID_38_" class="st3" cx="370.3" cy="849" r="3.2"/>
		<circle id="XMLID_39_" class="st3" cx="385.1" cy="846" r="3.2"/>
		<circle id="XMLID_40_" class="st3" cx="399.7" cy="842.3" r="3.2"/>
		<circle id="XMLID_41_" class="st3" cx="414.2" cy="837.7" r="3.2"/>
		<circle id="XMLID_42_" class="st3" cx="428.2" cy="832.5" r="3.2"/>
		<circle id="XMLID_43_" class="st3" cx="442.1" cy="826.5" r="3.2"/>
		<circle id="XMLID_44_" class="st3" cx="455.6" cy="819.7" r="3.2"/>
		<circle id="XMLID_45_" class="st3" cx="468.7" cy="812.3" r="3.2"/>
		<circle id="XMLID_46_" class="st3" cx="481.5" cy="804.2" r="3.2"/>
		<circle id="XMLID_47_" class="st3" cx="493.7" cy="795.4" r="3.2"/>
		<circle id="XMLID_48_" class="st3" cx="505.5" cy="786" r="3.2"/>
		<circle id="XMLID_49_" class="st3" cx="517" cy="776" r="3.2"/>
		<circle id="XMLID_50_" class="st3" cx="527.7" cy="765.4" r="3.2"/>
		<circle id="XMLID_51_" class="st3" cx="537.9" cy="754.3" r="3.2"/>
		<circle id="XMLID_52_" class="st3" cx="547.5" cy="742.5" r="3.2"/>
		<circle id="XMLID_53_" class="st3" cx="556.5" cy="730.5" r="3.2"/>
		<circle id="XMLID_61_" class="st3" cx="564.8" cy="718" r="3.2"/>
		<circle id="XMLID_62_" class="st3" cx="572.5" cy="704.9" r="3.2"/>
		<circle id="XMLID_66_" class="st3" cx="579.5" cy="691.5" r="3.2"/>
		<circle id="XMLID_72_" class="st3" cx="585.7" cy="677.8" r="3.2"/>
		<circle id="XMLID_76_" class="st3" cx="591.3" cy="663.7" r="3.2"/>
		<circle id="XMLID_77_" class="st3" cx="596" cy="649.4" r="3.2"/>
		<circle id="XMLID_80_" class="st3" cx="600" cy="634.9" r="3.2"/>
		<circle id="XMLID_82_" class="st3" cx="603.3" cy="620" r="3.2"/>
		<circle id="XMLID_84_" class="st3" cx="605.8" cy="605.3" r="3.2"/>
		<circle id="XMLID_85_" class="st3" cx="607.5" cy="590.2" r="3.2"/>
		<circle id="XMLID_86_" class="st3" cx="608.5" cy="575.2" r="3.2"/>
		<circle id="XMLID_87_" class="st3" cx="608.5" cy="560.2" r="3.2"/>
		<circle id="XMLID_88_" class="st3" cx="607.9" cy="545" r="3.2"/>
		<circle id="XMLID_89_" class="st3" cx="606.5" cy="530.1" r="3.2"/>
		<circle id="XMLID_90_" class="st3" cx="604.2" cy="515.1" r="3.2"/>
		<circle id="XMLID_91_" class="st3" cx="601.3" cy="500.3" r="3.2"/>
		<circle id="XMLID_92_" class="st3" cx="597.5" cy="485.7" r="3.2"/>
		<circle id="XMLID_93_" class="st3" cx="592.9" cy="471.2" r="3.2"/>
		<circle id="XMLID_94_" class="st3" cx="587.7" cy="457.2" r="3.2"/>
		<circle id="XMLID_95_" class="st3" cx="581.7" cy="443.3" r="3.2"/>
		<circle id="XMLID_96_" class="st3" cx="574.9" cy="429.8" r="3.2"/>
		<circle id="XMLID_97_" class="st3" cx="567.5" cy="416.7" r="3.2"/>
		<circle id="XMLID_98_" class="st3" cx="559.4" cy="403.9" r="3.2"/>
		<circle id="XMLID_99_" class="st3" cx="550.5" cy="391.7" r="3.2"/>
		<circle id="XMLID_100_" class="st3" cx="541.2" cy="379.9" r="3.2"/>
		<circle id="XMLID_101_" class="st3" cx="531.2" cy="368.5" r="3.2"/>
		<circle id="XMLID_102_" class="st3" cx="520.5" cy="357.8" r="3.2"/>
		<circle id="XMLID_103_" class="st3" cx="509.4" cy="347.6" r="3.2"/>
		<circle id="XMLID_104_" class="st3" cx="497.7" cy="338" r="3.2"/>
		<circle id="XMLID_105_" class="st3" cx="485.6" cy="329" r="3.2"/>
		<circle id="XMLID_106_" class="st3" cx="473.1" cy="320.7" r="3.2"/>
		<circle id="XMLID_107_" class="st3" cx="460" cy="312.9" r="3.2"/>
		<circle id="XMLID_108_" class="st3" cx="446.6" cy="306" r="3.2"/>
		<circle id="XMLID_109_" class="st3" cx="432.9" cy="299.8" r="3.2"/>
		<circle id="XMLID_110_" class="st3" cx="418.8" cy="294.2" r="3.2"/>
		<circle id="XMLID_111_" class="st3" cx="404.5" cy="289.5" r="3.2"/>
		<circle id="XMLID_112_" class="st3" cx="390" cy="285.4" r="3.2"/>
		<circle id="XMLID_113_" class="st3" cx="375.2" cy="282.2" r="3.2"/>
		<circle id="XMLID_114_" class="st3" cx="360.4" cy="279.7" r="3.2"/>
		<circle id="XMLID_115_" class="st3" cx="345.3" cy="277.9" r="3.2"/>
		<circle id="XMLID_116_" class="st3" cx="330.3" cy="277" r="3.2"/>
		<circle id="XMLID_117_" class="st3" cx="315.3" cy="276.9" r="3.2"/>
		<circle id="XMLID_118_" class="st3" cx="300.1" cy="277.5" r="3.2"/>
		<circle id="XMLID_119_" class="st3" cx="285.2" cy="279" r="3.2"/>
		<circle id="XMLID_120_" class="st3" cx="270.3" cy="281.3" r="3.2"/>
		<circle id="XMLID_121_" class="st3" cx="255.4" cy="284.2" r="3.2"/>
		<circle id="XMLID_122_" class="st3" cx="240.8" cy="288" r="3.2"/>
		<circle id="XMLID_123_" class="st3" cx="226.3" cy="292.6" r="3.2"/>
		<circle id="XMLID_124_" class="st3" cx="212.3" cy="297.8" r="3.2"/>
		<circle id="XMLID_125_" class="st3" cx="198.4" cy="303.8" r="3.2"/>
		<circle id="XMLID_126_" class="st3" cx="184.9" cy="310.6" r="3.2"/>
		<circle id="XMLID_127_" class="st3" cx="171.8" cy="318" r="3.2"/>
		<circle id="XMLID_128_" class="st3" cx="159.1" cy="326.1" r="3.2"/>
		<circle id="XMLID_129_" class="st3" cx="146.8" cy="334.9" r="3.2"/>
		<circle id="XMLID_130_" class="st3" cx="135" cy="344.3" r="3.2"/>
		<circle id="XMLID_131_" class="st3" cx="123.6" cy="354.3" r="3.2"/>
		<circle id="XMLID_132_" class="st3" cx="112.9" cy="364.8" r="3.2"/>
		<circle id="XMLID_133_" class="st3" cx="102.8" cy="376" r="3.2"/>
		<circle id="XMLID_134_" class="st3" cx="93.1" cy="387.7" r="3.2"/>
		<circle id="XMLID_135_" class="st3" cx="84.1" cy="399.8" r="3.2"/>
		<circle id="XMLID_136_" class="st3" cx="75.8" cy="412.3" r="3.2"/>
		<circle id="XMLID_137_" class="st3" cx="68" cy="425.4" r="3.2"/>
		<circle id="XMLID_138_" class="st3" cx="61.1" cy="438.8" r="3.2"/>
		<circle id="XMLID_139_" class="st3" cx="54.9" cy="452.5" r="3.2"/>
		<circle id="XMLID_140_" class="st3" cx="49.3" cy="466.5" r="3.2"/>
		<circle id="XMLID_141_" class="st3" cx="44.6" cy="480.9" r="3.2"/>
		<circle id="XMLID_142_" class="st3" cx="40.5" cy="495.4" r="3.2"/>
		<circle id="XMLID_143_" class="st3" cx="37.3" cy="510.2" r="3.2"/>
		<circle id="XMLID_144_" class="st3" cx="34.8" cy="525" r="3.2"/>
		<circle id="XMLID_145_" class="st3" cx="33" cy="540.1" r="3.2"/>
	</g>
</g>
<g>
	<path class="st5" d="M91.9,477l-37.6,15.6c1.1,2.2,1.7,3.5,2.4,1.3h75.1v-33.8L91.9,477z"/>
	<path class="st5" d="M548.7,477l37.6,15.6c-1.1,2.2-1.7,3.5-2.4,1.3h-75.1v-33.8L548.7,477z"/>
</g>
<g>
	<g>
		<polygon class="st6" points="508.9,732.3 320.3,835.2 131.7,732.3 131.7,565.1 131.7,397.9 320.3,295 508.9,397.9 508.9,565.1
			"/>
		<polygon class="st7" points="508.9,732.3 320.3,835.2 131.7,732.3 131.7,565.1 131.7,397.9 320.3,295 508.9,397.9 508.9,565.1
			"/>
		<polygon class="st8" points="508.9,732.3 320.3,835.2 131.7,732.3 131.7,565.1 131.7,397.9 320.3,295 508.9,397.9 508.9,565.1
			"/>
	</g>
	<g>
		<polygon class="st9" points="499.3,723.8 320.3,821.5 141.3,723.8 141.3,565.1 141.3,406.4 320.3,308.7 499.3,406.4 499.3,565.1
					"/>
		<g>
			<path class="st10" d="M319.2,309.4c0,0.1,2.3-0.1,2.3,0c0,0.2-10.7,4.3-10.7,4.6c0,0.5,19.1-0.5,19.1,0c0,0.7-28.1,4.2-28.1,4.9
				c0,1,37.2-0.8,37.2,0c0,1.2-46.2,4-46.2,4.9c0,1.5,55.2-1.4,55.2,0c0,1.8-63.6,2.7-63.6,4.6c0,2.1,72-2,72,0
				c0,2.1-80.6,2.7-80.6,4.7c0,2.4,89.3-2.6,89.3,0c0,2-98.2,2.8-98.2,4.9c0,2.2,107.2-2.4,107.2,0c0,2.9-117.2,2.6-117.2,5.5
				c0,3.2,127.3-2.8,127.3,0c0,4-136.6,1.3-136.6,5.1c0,3.6,145.9-3.9,145.9,0c0,3.7-154.6,0.8-154.6,4.7c0,4.6,163.2-4,163.2,0
				c0,5.1-173,1-173,5.3c0,3.7,182.8-4.2,182.8,0c0,4.8-191.3-1-191.3,4.7c0,5,199.9-5.9,199.9,0c0,6.2-209.5,0.7-209.5,5.3
				c0,5.4,219.2-5.2,219.2,0c0,6.1-229.2,0.8-229.2,5.5c0,6.4,239.2-5,239.2,0c0,6.4-247.5-1.8-247.5,4.5c0,6.7,255.8-7.3,255.8,0
				c0,6-265.5-2.2-265.5,5.3c0,6.8,275.2-6.8,275.2,0c0,6.5-283.7-1.9-283.7,4.7c0,6.8,292.3-7.3,292.3,0c0,6.7-300.9-1.3-300.9,4.7
				c0,6.4,309.6-8.4,309.6,0c0,6.7-318.4-2.3-318.4,4.8c0,9.5,327.3-9,327.3,0c0,7.9-336.8-1.6-336.8,5.2c0,10.3,346.3-10.4,346.3,0
				c0,10.4-352.2-3.5-352.2,5.2c0,8.7,358-10.3,358,0c0,10-358-4.3-358,4.8c0,10.7,358-7.2,358,0c0,9.3-358-5.1-358,4.8
				c0,8.1,358-8.2,358,0c0,7.6-358-4.1-358,4.8c0,9.1,358-8.4,358,0c0,8-358-4.9-358,5.2c0,8.8,358-10.3,358,0c0,8-358-4.5-358,4.5
				c0,7.9,358-9.2,358,0c0,8-358-5.1-358,5.4c0,9,358-10,358,0c0,8-358-2.8-358,4.8c0,10.7,358-8.3,358,0c0,7.6-358-3.1-358,4.7
				c0,10.1,358-9.6,358,0c0,9.6-358-3.9-358,5.3c0,10,358-9.7,358,0c0,9.9-357.9-2.3-357.9,5.1c0,7.2,357.9-9.9,357.9,0
				c0,7.3-357.9-4.5-357.9,5c0,8,357.9-10.5,357.9,0c0,9.5-357.9-4.1-357.9,4.7c0,9.8,357.9-8.4,357.9,0c0,7.3-357.9-2.5-357.9,5
				c0,8.9,357.9-10.2,357.9,0c0,9.6-357.9-3.5-357.9,4.7c0,9.5,357.9-10.4,357.9,0c0,8.8-357.9-2.4-357.9,4.8
				c0,7.2,357.9-10.4,357.9,0c0,7.5-357.9-3.6-357.9,4.8c0,10.4,357.9-9.8,357.9,0c0,10.4-357.9-4.6-357.9,5.3
				c0,9.8,357.9-9.8,357.9,0c0,10.3-357.9-2.7-357.9,5.2c0,9.3,357.9-10.5,357.9,0c0,9.4-357.9-2.9-357.9,5.2
				c0,9.9,357.9-8.2,357.9,0c0,8.2-357.9-2.5-357.9,4.9c0,8.3,357.9-7.5,357.9,0c0,8.9-357.9-2.8-357.9,4.7c0,9.9,357.9-7.3,357.9,0
				c0,9.5-357.9-4-357.9,5.1c0,9.3,357.9-9.5,357.9,0c0,10.5-357.9-2.7-357.9,5.2c0,8,357.9-7.6,357.9,0c0,8.4-357.9-3.7-357.9,5.3
				c0,8.1,357.9-8.2,357.9,0c0,8.4-357.9-4.5-357.9,5.1c0,8.3,357.9-7.8,357.9,0c0,7.4-357.9-3.7-357.9,4.8c0,8.2,357.9-7.2,357.9,0
				c0,7.9-357.9-3.7-357.9,4.8c0,7.3,357.9-9.3,357.9,0c0,9.1-357.9-2.4-357.9,5c0,10.4,357.9-8.8,357.9,0
				c0,10.4-357.9-2.4-357.9,5.4c0,7.9,357.9-8.9,357.9,0c0,8.4-357.9-1.9-357.9,5.3c0,7.3,357.9-10.3,357.9,0
				c0,10.4-357.9-3.9-357.9,5.1c0,10.7,357.9-10.2,357.9,0c0,7.5-357.9-5.8-357.9,4.6c0,8,357.9-7.7,357.9,0
				c0,7.9-357.9-3.9-357.9,5.5c0,9.2,357.9-9,357.9,0c0,9.4-357.9-2.2-357.9,5.1c0,10.3,357.9-7.4,357.9,0
				c0,10.3-357.9-3.4-357.9,4.5c0,10.2,357.9-7.4,357.9,0c0,8.5-357.9-2.6-357.9,4.6c0,7.3,357.9-9.9,357.9,0
				c0,7.7-357.9-5.1-357.9,5.2c0,7.9,357.9-10.4,357.9,0c0,8.7-357.9-5-357.9,5.3c0,10.4,357.9-8.3,357.9,0c0,7.9-357.9-4.5-357.9,5
				c0,10.2,357.9-8.5,357.9,0c0,8.5-357.9-5.3-357.9,4.8c0,10.3,357.9-7.8,357.9,0c0,8.1-357.9-3.1-357.9,4.6
				c0,7.9,357.9-8.5,357.9,0c0,8.2-357.9-4.6-357.9,5.2c0,8.1,357.9-10.3,357.9,0c0,8.4-357.9-2.2-357.9,4.9
				c0,8.9,357.9-10.3,357.9,0c0,10-357.9-2.2-357.9,5c0,7.2,357.9-9.3,357.9,0c0,9.6-357.9-2.3-357.9,5.3c0,9.6,357.9-8.7,357.9,0
				c0,10.6-357.9-4-357.9,4.8c0,10.6,357.9-8.9,357.9,0c0,9.9-357.9-3.8-357.9,5c0,10,357.9-7.4,357.9,0c0,9.8-357.9-4-357.9,5.5
				c0,8.1,357.9-8.1,357.9,0c0,8.9-357.9-4.7-357.9,4.8c0,8.1,357.9-7.7,357.9,0c0,9.4-357.9-4.2-357.9,5.1c0,7.6,357.9-7.2,357.9,0
				c0,9.7-357.9-5.2-357.9,4.8c0,9.9,357.9-10,357.9,0c0,9-357.9-5.2-357.9,5.3c0,10.5,357.9-8.6,357.9,0c0,8.3-357.9-5.1-357.9,4.7
				c0,10.5,357.9-10,357.9,0c0,9.1-357.9-4-357.9,4.8c0,8.5,358-7.5,358,0c0,9.5-358-3.4-358,5.3c0,10.6,358-7.9,358,0
				c0,7.5-358-2.6-358,5.1c0,10.2,358-9.2,358,0c0,7.6-358-4.5-358,4.9c0,10.5,358-9.2,358,0c0,7.7-358-5.7-358,4.8
				c0,8.6,358-8.7,358,0c0,7.2-358-3.4-358,4.9c0,8.3,358-10.3,358,0c0,7.9-358-5.2-358,5.4c0,8.8,358-8.6,358,0
				c0,10.5-358-4-358,5.5c0,8.9,358-8,358,0c0,10.5-358-3.5-358,4.9c0,7.5,358-9.7,358,0c0,8.1-358-4.3-358,4.6c0,9.6,358-8.6,358,0
				c0,7.7-349.9-5.5-349.9,4.9c0,10,341.9-7.7,341.9,0c0,7.1-332.2-4.3-332.2,5.3c0,8.8,322.5-6.5,322.5,0
				c0,7.5-314.1-3.4-314.1,4.5c0,7.9,305.8-7,305.8,0c0,8.4-296.2-1.5-296.2,5.3c0,6.9,286.5-8.2,286.5,0c0,8.3-277.2-0.9-277.2,5.1
				c0,6.9,267.8-5.7,267.8,0c0,5.7-259.4-0.7-259.4,4.6c0,6.9,251-5.7,251,0c0,5.3-241,0.3-241,5.5c0,5.1,231-6.6,231,0
				c0,4.8-221.1,0.4-221.1,5.4c0,6,211.2-4.4,211.2,0c0,4.4-201.8-0.4-201.8,5.1c0,4.8,192.4-4.8,192.4,0c0,5.2-183.2,0.1-183.2,5
				c0,4,173.9-4.7,173.9,0c0,4.6-164.3,0.5-164.3,5.2c0,3.1,154.7-3.5,154.7,0c0,3.9-144.9,2.3-144.9,5.4c0,2.8,135-3.4,135,0
				c0,2.8-125.3,2.7-125.3,5.3c0,2.4,115.6-3.4,115.6,0c0,3.1-107.3,2-107.3,4.5c0,2.8,99-2.4,99,0c0,2.6-89.9,2.6-89.9,4.9
				c0,2.4,80.9-2,80.9,0c0,1.5-72.2,2.6-72.2,4.7c0,1.8,63.6-1.7,63.6,0c0,1.5-54.3,3.7-54.3,5c0,1.1,45.1-1.3,45.1,0
				c0,0.8-35.7,4.2-35.7,5.1c0,0.6,26.3-0.5,26.3,0c0,0.5-16.7,4.8-16.7,5.2c0,0.2,7.2-0.2,7.2,0"/>
		</g>
		<polygon class="st11" points="499.3,723.8 320.3,821.5 141.3,723.8 141.3,565.1 141.3,406.4 320.3,308.7 499.3,406.4 499.3,565.1
					"/>
	</g>
</g>
<g>
	<g>
		<polygon class="st12" points="585.5,635.3 320.3,635.3 55.1,635.3 82.9,565.1 55.1,494.9 320.3,494.9 585.5,494.9 557.7,565.1
			"/>
		<polygon class="st7" points="585.5,635.3 320.3,635.3 55.1,635.3 82.9,565.1 55.1,494.9 320.3,494.9 585.5,494.9 557.7,565.1
			"/>
		<polygon class="st8" points="585.5,635.3 320.3,635.3 55.1,635.3 82.9,565.1 55.1,494.9 320.3,494.9 585.5,494.9 557.7,565.1
			"/>
	</g>
	<g>
		<polygon class="st12" points="570.6,622.9 320.3,622.9 70,622.9 96.3,565.1 70,507.3 320.3,507.3 570.6,507.3 544.3,565.1 		"/>
		<g>
			<path class="st13" d="M544.9,563.7c1.7,0-1.3-56.4,0-56.4c1.2,0,3.7,45.5,5,45.5c1.2,0-1-45.5,0-45.5c0.8,0,4.1,34.6,5,34.6
				c0.9,0-0.9-34.6,0-34.6c0.6,0,3.9,24.6,4.5,24.6c0.5,0-0.7-24.6,0-24.6c0.4,0,5,12.9,5.3,12.9c0.3,0-0.4-12.9,0-12.9
				c0.1,0,5.1,1.4,5.2,1.4c0,0,0-1.4,0-1.4"/>
			<path class="st13" d="M70.7,508.7c0,0,0-1.4,0-1.4c0.4,0,4.4,11.8,4.7,11.8c0.2,0-0.3-11.8,0-11.8c0.5,0,4.3,22.6,4.9,22.6
				c0.6,0-0.5-22.6,0-22.6c0.8,0,4.3,34.3,5.3,34.3c0.9,0-0.7-34.3,0-34.3c1.2,0,3.4,44.5,4.7,44.5c1,0-0.9-44.5,0-44.5
				c1.2,0,3.1,54.9,4.8,54.9c1.3,0-1.6-54.9,0-54.9"/>
			<path class="st13" d="M70.7,622.9c0,0,0-1.4,0-1.4c0.1,0,4.4,1.4,4.5,1.4c0.3,0-0.2-11.3,0-11.3c0.3,0,4.5,11.3,4.8,11.3
				c0.7,0-0.6-22,0-22c0.5,0,4.6,22,5.1,22c0.8,0-0.8-33.2,0-33.2c0.9,0,4,33.2,5,33.2c1,0-1-44.1,0-44.1c0.9,0,4.3,44.1,5.2,44.1
				c1.3,0-1.5-55.6,0-55.6c1.5,0,3.6,55.6,4.9,55.6c2.7,0-3.1-115.5,0-115.5c2.7,0,1.7,115.5,4.9,115.5c2.8,0-2.5-115.5,0-115.5
				c3.4,0,1.4,115.5,4.5,115.5c3.2,0-3.1-115.5,0-115.5c2.6,0,1.3,115.5,4.8,115.5c3.4,0-3-115.5,0-115.5c2.4,0,1.5,115.5,4.9,115.5
				c2.8,0-2.5-115.5,0-115.5c2.7,0,2.1,115.5,5.3,115.5c3.2,0-2.8-115.5,0-115.5c3,0,1.6,115.5,4.7,115.5c2.6,0-3.1-115.5,0-115.5
				c3.2,0,1.9,115.5,4.7,115.5c3.4,0-2.7-115.5,0-115.5c2.9,0,2.8,115.5,5.4,115.5c2.7,0-2.4-115.5,0-115.5
				c3.3,0,1.2,115.5,4.5,115.5c3.4,0-3.3-115.5,0-115.5c3.1,0,1.8,115.5,5.1,115.5c2.6,0-3.2-115.5,0-115.5
				c2.6,0,2.2,115.5,4.7,115.5c2.7,0-2.5-115.5,0-115.5c2.5,0,2.8,115.5,5.3,115.5c3.2,0-2.4-115.5,0-115.5c3,0,2,115.5,5,115.5
				c3,0-2.8-115.5,0-115.5c2.8,0,2.8,115.5,5.2,115.5c3.4,0-2.3-115.5,0-115.5c2.4,0,1.8,115.5,5.1,115.5c2.9,0-2.6-115.5,0-115.5
				c3.5,0,2.2,115.5,5.1,115.5c3,0-2.9-115.5,0-115.5c2.8,0,2.1,115.5,5.5,115.5c2.4,0-2.8-115.5,0-115.5c2.9,0,2.1,115.5,4.8,115.5
				c3.3,0-2.3-115.5,0-115.5c2.8,0,2.4,115.5,4.9,115.5c2.7,0-3-115.5,0-115.5c3.2,0,2.4,115.5,5.3,115.5c2.6,0-2.5-115.5,0-115.5
				c2.4,0,2.1,115.5,5.3,115.5c2.5,0-2.8-115.5,0-115.5c3.4,0,1.7,115.5,5.1,115.5c3,0-2.5-115.5,0-115.5c3.4,0,1.4,115.5,4.8,115.5
				c2.9,0-2.6-115.5,0-115.5c2.9,0,3,115.5,5.4,115.5c2.6,0-2.5-115.5,0-115.5c3.4,0,1.9,115.5,5.1,115.5c3.4,0-3.1-115.5,0-115.5
				c2.8,0,2.4,115.5,4.9,115.5c2.7,0-2.6-115.5,0-115.5c3.1,0,2.4,115.5,5.3,115.5c2.5,0-2.6-115.5,0-115.5c3.1,0,1.9,115.5,5,115.5
				c3.3,0-2.4-115.5,0-115.5c3.1,0,1.8,115.5,4.7,115.5c3,0-2.8-115.5,0-115.5c2.7,0,2.5,115.5,5.4,115.5c3.1,0-3.5-115.5,0-115.5
				c2.8,0,2.9,115.5,5.3,115.5c2.7,0-2.8-115.5,0-115.5c2.5,0,2.1,115.5,4.8,115.5c2.3,0-2.8-115.5,0-115.5
				c2.8,0,1.6,115.5,4.7,115.5c3.3,0-3.2-115.5,0-115.5c3.2,0,1.6,115.5,4.9,115.5c3.1,0-2.9-115.5,0-115.5c3,0,2.1,115.5,5.4,115.5
				c2.9,0-3.2-115.5,0-115.5c3.3,0,2.9,115.5,5.3,115.5c3.3,0-2.9-115.5,0-115.5c2.5,0,2.5,115.5,5.2,115.5c3.4,0-3.2-115.5,0-115.5
				c3.1,0,2.1,115.5,5.4,115.5c2.4,0-3.2-115.5,0-115.5c3,0,1.6,115.5,5,115.5c3.4,0-2.6-115.5,0-115.5c3.2,0,2.3,115.5,5.2,115.5
				c2.7,0-3.2-115.5,0-115.5c2.4,0,2.5,115.5,4.9,115.5c2.8,0-3-115.5,0-115.5c2.8,0,1.9,115.5,5.1,115.5c2.9,0-2.4-115.5,0-115.5
				c3.3,0,2.2,115.5,5.4,115.5c2.9,0-2.4-115.5,0-115.5c2.5,0,2,115.5,5.3,115.5c3.1,0-3.1-115.5,0-115.5c2.5,0,2.2,115.5,4.8,115.5
				c3.2,0-2.4-115.5,0-115.5c2.4,0,1.6,115.5,4.6,115.5c3.2,0-2.9-115.5,0-115.5c2.9,0,2.5,115.5,5.5,115.5c3,0-2.6-115.5,0-115.5
				c2.4,0,1.5,115.5,4.7,115.5c2.9,0-3.1-115.5,0-115.5c2.6,0,1.5,115.5,4.8,115.5c2.5,0-2.3-115.5,0-115.5
				c3.3,0,2.5,115.5,5.1,115.5c2.5,0-2.7-115.5,0-115.5c3,0,1.7,115.5,4.8,115.5c3.2,0-3.2-115.5,0-115.5c2.6,0,1.5,115.5,4.9,115.5
				c2.7,0-3.4-115.5,0-115.5c2.6,0,1.8,115.5,4.9,115.5c2.4,0-3-115.5,0-115.5c3.4,0,1.4,115.5,4.7,115.5c2.7,0-2.4-115.5,0-115.5
				c2.6,0,1.5,115.5,4.7,115.5c2.3,0-2.5-115.5,0-115.5c2.5,0,2,115.5,4.5,115.5c3.4,0-3.4-115.5,0-115.5c3.3,0,2.1,115.5,4.7,115.5
				c3,0-2.4-115.5,0-115.5c3,0,1.7,115.5,4.7,115.5c3.3,0-2.4-115.5,0-115.5c3,0,3,115.5,5.3,115.5c3.3,0-2.3-115.5,0-115.5
				c3.1,0,1.9,115.5,5.2,115.5c2.6,0-2.5-115.5,0-115.5c3,0,2.1,115.5,5.2,115.5c3.4,0-2.5-115.5,0-115.5c3.1,0,2,115.5,5.1,115.5
				c3,0-2.8-115.5,0-115.5c2.6,0,2.5,115.5,5.2,115.5c3.1,0-2.7-115.5,0-115.5c3,0,2.3,115.5,5.4,115.5c2.9,0-2.4-115.5,0-115.5
				c2.8,0,2,115.5,5,115.5c3.1,0-3.4-115.5,0-115.5c2.8,0,2.3,115.5,4.9,115.5c2.8,0-3.3-115.5,0-115.5c3.1,0,1.7,115.5,4.9,115.5
				c2.5,0-3.2-115.5,0-115.5c2.9,0,2,115.5,4.8,115.5c3.4,0-3.2-115.5,0-115.5c3.4,0,2.3,115.5,5,115.5c3.4,0-2.7-115.5,0-115.5
				c3.4,0,1.9,115.5,5.1,115.5c3.4,0-2.7-115.5,0-115.5c2.6,0,2.1,115.5,5.1,115.5c2.4,0-2.7-115.5,0-115.5
				c2.8,0,2.6,115.5,5.3,115.5c3.5,0-2.8-115.5,0-115.5c2.7,0,2.5,115.5,5,115.5c2.6,0-3.1-115.5,0-115.5c2.6,0,1.3,115.5,4.6,115.5
				c3.3,0-2.3-115.5,0-115.5c2.6,0,2.3,115.5,5.3,115.5c2.6,0-3.4-115.5,0-115.5c3.2,0,1.8,115.5,4.6,115.5c3.1,0-2.4-115.5,0-115.5
				c2.3,0,1.8,115.5,4.9,115.5c2.9,0-3.2-115.5,0-115.5c2.4,0,2.1,115.5,5.1,115.5c3.4,0-2.9-115.5,0-115.5
				c2.9,0,1.7,115.5,4.8,115.5c3.3,0-2.6-115.5,0-115.5c2.8,0,1.8,115.5,5,115.5c3.5,0-3.3-115.5,0-115.5c2.5,0,2.1,115.5,4.7,115.5
				c3.2,0-2.8-115.5,0-115.5c2.5,0,2.6,115.5,5.4,115.5c2.4,0-3.1-115.5,0-115.5c3,0,3,115.5,5.3,115.5c2.4,0-2.3-115.5,0-115.5
				c2.6,0,1.1,115.5,4.5,115.5c2.8,0-2.4-115.5,0-115.5c2.5,0,3.1,115.5,5.5,115.5c2.9,0-3.1-115.5,0-115.5
				c3.1,0,1.6,115.5,4.9,115.5c2.3,0-2.5-115.5,0-115.5c3.3,0,2.4,115.5,4.8,115.5c2.3,0-2.5-115.5,0-115.5
				c3.1,0,1.6,115.5,4.6,115.5c2.5,0-3.3-115.5,0-115.5c3.2,0,2,115.5,4.5,115.5c1.2,0-1.2-54.9,0-54.9c1.3,0,3.7,54.9,5,54.9
				c1,0-1.2-43.8,0-43.8c1.1,0,3.9,43.8,4.9,43.8c0.9,0-1-33,0-33c0.9,0,3.6,33,4.5,33c0.7,0-0.6-23.1,0-23.1
				c0.6,0,4.6,23.1,5.3,23.1c0.3,0-0.3-11.4,0-11.4c0.3,0,4.2,11.4,4.5,11.4c0,0,0-1.4,0-1.4"/>
		</g>
		<polygon class="st11" points="570.6,622.9 320.3,622.9 70,622.9 96.3,565.1 70,507.3 320.3,507.3 570.6,507.3 544.3,565.1 		"/>
	</g>
	<g>
		<rect x="94.5" y="521.6" class="st14" width="457.6" height="93"/>
		<path class="st15" d="M146.5,610.5h-17.3l16.9-84.6c-8.6,0.8-17.5,2.2-22.6,6.6c-4.3,3.9-3.9,13.8,1.3,23l-17.4,7.7
			c-2.2-17.8,1.9-30.1,10.3-37.1c11-9.4,29.1-11,47.8-11.2L146.5,610.5z"/>
		<path class="st15" d="M168.4,545.5l-0.9-3.9c6-0.4,7.7-3.2,9.7-8c-0.8-0.1-1.7-0.4-2.3-0.6c-4.6-1.8-6.9-6.9-5.2-11.4
			c1.8-4.7,6.9-6.9,11.6-5.2C191.4,520.1,184.6,544.6,168.4,545.5z"/>
		<path class="st15" d="M286.6,588.9c-10.2,27.3-45.3,31.1-40,2.8c1.8-9.8,3.8-19.9,5.8-31c3-14.5-10.7-3.7-15.2,8
			c-0.1,0.3-0.3,0.5-0.4,1c-0.8,3.9-6.6,37.5-7.2,40.8h-16.8c3.6-19.8,6.2-35.6,8.8-49.4c2.4-13.5-10.4-5.5-15.6,5.2
			c-0.1,0.1-0.1,0.3-0.3,0.5l-8.8,43.7h-17.5l12.7-63.5h17.5l-1.7,8.6c10.2-12.2,28.4-13.7,29.6,3.7c13.3-18.2,36.2-19.4,30.1,10.4
			l-2,11.3c-1,5.5-1.1,5.8-3,16.1c-2.2,10,14.9,3.8,19-8.3H286.6z"/>
		<path class="st15" d="M386.5,593.2c-7.5,16-24.6,17.4-42,17.3c-4.4,0-9,0-13.2,0c-2.5,0-5.1,0-7.7,0l17.3-86.4
			c-13,5-22.1,19.6-15.4,31.4l-17.1,7.9c-6.6-46.6,61.7-62.1,74-35.2c5.1,10.7-2,22.5-11.7,28.1c7.4,1.9,12.8,6.5,15.9,12.2
			C390.5,575.8,390.5,585.1,386.5,593.2z M350.5,562l-7.7,39.9C378,602.3,381,559.4,350.5,562z M352.1,554.3
			c10.5-1.3,18.2-7.7,17.9-19.6c0-8.1-5.1-12.1-11.4-13.1L352.1,554.3z"/>
		<path class="st15" d="M448.4,588.6c-9.9,18.3-20.3,23-34.8,22.6c-24-0.8-24.4-31.1-12.6-49.9c9.7-15,26.2-18.2,33.4-12.1
			c6.5,5.2,6.6,14.9,2.8,22.4c-5.7,10.5-16.4,14.5-27.3,14.1c0.1,6.1,2.4,13.2,7.9,15.9c9.8,4.6,20.1-3,26-13H448.4z M410.3,579.7
			c20.1,0.6,22.4-23.5,19.2-26c-2.5-1.9-8.1,0.5-12.7,7.7c-2.7,4.1-5,9.8-6.3,16.9C410.4,578.9,410.3,579.4,410.3,579.7z"/>
		<path class="st15" d="M519.4,588.3c-11.2,29.2-45.6,32.4-40-0.8c1.8-8.9,3.4-17.8,5.1-26.7c2.8-14.6-14.4-4.2-19,7.5l-8,42.2h-18
			l12.8-63.5h17.4l-1.9,9.5c13.7-15.5,37.8-15,32.5,13.6c-3,15.7-2.3,11.2-5.1,26.7c-2.8,15.6,15.2,3.8,19.3-8.5H519.4z"/>
		<path class="st15" d="M521.7,593.7c2-1.9,4.4-2.9,7.2-2.9s5.2,1,7.4,2.9c1.9,2.2,2.9,4.6,2.9,7.4c0,2.8-1,5.2-2.9,7.2
			c-2.2,1.9-4.6,2.9-7.4,2.9s-5.2-1-7.2-2.9c-1.9-2-2.9-4.4-2.9-7.2C518.7,598.3,519.8,595.9,521.7,593.7z"/>
	</g>
</g>
<g>
	<rect x="145.6" y="654.5" class="st14" width="349.4" height="120.9"/>
	<path class="st15" d="M184.5,652.5c-1.9,10-4.1,20-6,30.1h-5.6l1.8-8.2h-9.2l-6.9,8.2h-3.8c7.5-8.8,15.3-18,22.9-26.9
		c-2.9,0.2-8.6,0.1-11.8,2c-2,1.3-3,4.4-1.8,7.6l-5.4,2.5c0.3-5.6,2-9.3,4.8-11.5C168.6,652.2,176.8,652.5,184.5,652.5z
		 M177.9,659.8l-9.5,11.2h7C176.3,667.2,177.1,663.5,177.9,659.8z"/>
	<path class="st15" d="M207.9,675.6c-3.5,9.2-14.4,10.2-12.6-0.2c0.6-2.8,1.1-5.6,1.6-8.4c0.9-4.6-4.5-1.3-6,2.4l-2.5,13.3h-5.7
		l4-20h5.5l-0.6,3c4.3-4.9,11.9-4.7,10.2,4.3c-1,5-0.7,3.5-1.6,8.4c-0.9,4.9,4.8,1.2,6.1-2.7H207.9z"/>
	<path class="st15" d="M229.5,675.5c-2.8,7.6-12.4,10.2-12.9,3.1c-4.3,6.4-13.4,5.3-12.6-3.1c1-12.1,11.2-15,14.6-12.1
		c0.2,0.2,0.3,0.4,0.5,0.6l1.9-9.4h5.4c-1.4,7.3-3.7,19-4.7,23.6c-0.9,4.7,4.8,1.2,6.2-2.7H229.5z M218.7,666
		c-2.4-4.4-7.2-0.1-8.5,6.4c-1.6,7.3,1.1,11.1,6.6,3.6c0-0.2,0-0.5,0.1-0.7L218.7,666z"/>
	<path class="st15" d="M248.2,675.6c-3.2,8.6-15,10.8-12.8-0.2l2.1-10.4h-2.4l1-2.4h1.9l1.1-5.2l5.7-1.1l-1.2,6.3h3.2l-1.2,2.4h-2.5
		l-2.7,13.3c-0.9,4.7,4.8,1.2,6.1-2.7H248.2z"/>
	<path class="st15" d="M268.9,675.6c-3.3,9.2-14.2,9.1-12.9,1.6c0.7-3.8,1.3-7.1,1.8-10.3c0.8-4.3-3.2-1.8-5,1.6l-2.8,14h-5.5
		l5.7-28h5.3l-2.1,10.6c4.3-4.5,11-4.2,9.3,4.6c-0.5,2.8-1,5.8-1.5,8.5c-0.8,4.8,4.8,1.2,6-2.6H268.9z"/>
	<path class="st15" d="M279.1,675.5c-3.2,8.6-15.2,11-13-0.2l2.6-12.7h5.5c-1.3,6.8-2.2,10.9-3.1,15.6c-0.9,4.8,5,1.2,6.4-2.7H279.1
		z M270,659.4c-0.6-0.6-0.8-1.3-0.8-2.2c0-0.9,0.3-1.6,0.9-2.2c0.6-0.6,1.4-0.9,2.3-0.9s1.6,0.3,2.2,0.9c0.6,0.6,1,1.4,1,2.2
		c0,0.9-0.4,1.6-1,2.2c-0.6,0.6-1.4,0.9-2.3,0.9C271.4,660.3,270.6,660,270,659.4z"/>
	<path class="st15" d="M289.9,667.7c0.6-1.2,1.3-3.4-1.1-3.6c-0.9-0.2-2.1,0.1-2.8,0.7c-1.2,0.5-1.9,1.7-1.8,2.5
		c0.1,0.9,0.2,1,0.8,1.6c0.7,0.6,1.7,1.3,2.9,1.9c1,0.5,2.2,1.2,3.2,1.9c0.9,0.7,1.5,1.5,1.9,2.5c2.1,8.3-15.6,10.4-16.8,3.8
		c-0.3-1.9,0.9-4.1,3.3-5.2l3,2.5c-2.5,0.8-3.6,2.1-3.1,3.2c0.5,1.3,3.2,1.7,5.4,0.9c1.3-0.6,2.3-1.4,2.8-2.6c0.6-1.4-0.8-2.5-2-3.4
		c-1.4-0.8-2.2-1.1-3.2-1.9c-1-0.6-2.2-1.7-2.8-2.6c-1.7-2.3-1-5.2,2.4-6.6c1.9-0.8,4-1.1,6-0.9c3,0.2,5.3,1.3,6.2,3.4
		c0.4,1,0.4,2.2,0.1,3.5L289.9,667.7z"/>
	<path class="st15" d="M316.5,675.5c-3.2,8.6-15.2,11-13-0.2l2.6-12.7h5.5c-1.3,6.8-2.2,10.9-3.1,15.6c-0.9,4.8,5,1.2,6.4-2.7H316.5
		z M307.4,659.4c-0.6-0.6-0.8-1.3-0.8-2.2c0-0.9,0.3-1.6,0.9-2.2c0.6-0.6,1.4-0.9,2.3-0.9s1.6,0.3,2.2,0.9c0.6,0.6,1,1.4,1,2.2
		c0,0.9-0.4,1.6-1,2.2c-0.6,0.6-1.4,0.9-2.3,0.9C308.8,660.3,308,660,307.4,659.4z"/>
	<path class="st15" d="M327.3,667.7c0.6-1.2,1.3-3.4-1.1-3.6c-0.9-0.2-2.1,0.1-2.8,0.7c-1.2,0.5-1.9,1.7-1.8,2.5
		c0.1,0.9,0.2,1,0.8,1.6c0.7,0.6,1.7,1.3,2.9,1.9c1,0.5,2.2,1.2,3.2,1.9c0.9,0.7,1.5,1.5,1.9,2.5c2.1,8.3-15.6,10.4-16.8,3.8
		c-0.3-1.9,0.9-4.1,3.3-5.2l3,2.5c-2.5,0.8-3.6,2.1-3.1,3.2c0.5,1.3,3.2,1.7,5.4,0.9c1.3-0.6,2.3-1.4,2.8-2.6c0.6-1.4-0.8-2.5-2-3.4
		c-1.4-0.8-2.2-1.1-3.2-1.9c-1-0.6-2.2-1.7-2.8-2.6c-1.7-2.3-1-5.2,2.4-6.6c1.9-0.8,4-1.1,6-0.9c3,0.2,5.3,1.3,6.2,3.4
		c0.4,1,0.4,2.2,0.1,3.5L327.3,667.7z"/>
	<path class="st15" d="M365.2,675.5c-2.8,7.6-12.4,10.2-12.9,3.1c-4.3,6.4-13.4,5.3-12.6-3.1c1-12.1,11.2-15,14.6-12.1
		c0.2,0.2,0.3,0.4,0.5,0.6l1.9-9.4h5.4c-1.4,7.3-3.7,19-4.7,23.6c-0.9,4.7,4.8,1.2,6.2-2.7H365.2z M354.4,666
		c-2.4-4.4-7.2-0.1-8.5,6.4c-1.6,7.3,1.1,11.1,6.6,3.6c0-0.2,0-0.5,0.1-0.7L354.4,666z"/>
	<path class="st15" d="M379.1,675.7c-3.1,5.8-6.4,7.2-11,7.1c-7.6-0.2-7.7-9.8-4-15.7c3-4.7,8.2-5.7,10.5-3.8c2,1.6,2.1,4.7,0.9,7
		c-1.8,3.3-5.2,4.6-8.6,4.4c0,1.9,0.8,4.2,2.5,5c3.1,1.4,6.3-1,8.2-4.1H379.1z M367.1,672.9c6.3,0.2,7-7.4,6-8.2
		c-0.8-0.6-2.6,0.2-4,2.4c-0.8,1.3-1.6,3.1-2,5.3C367.1,672.6,367.1,672.8,367.1,672.9z"/>
	<path class="st15" d="M400.4,675.4c-3.2,8.7-15.3,11-13.2-0.2l2.1-10.2h-4.9l-5.5,27.6h-5.8c1.8-9.4,3.7-18.2,5.6-27.6h-2.6l1-2.4
		h2.1c3.8-13.8,17.7-10.5,17.6-6.5c0,0.8-0.3,1.6-1,2.2c-0.6,0.6-1.4,0.9-2.3,0.9c-2.8,0-3.1-3.6-6-3.9c-0.4-0.1-0.8,0.1-1.3,0.4
		l-0.1,0.7l-1.2,6.2h10.4c-1.4,6.8-2.2,10.8-3.1,15.6c-0.9,4.8,5.1,1.2,6.4-2.7H400.4z"/>
	<path class="st15" d="M422.1,675.6c-3.5,9.2-14.4,10.2-12.6-0.2c0.6-2.8,1.1-5.6,1.6-8.4c0.9-4.6-4.5-1.3-6,2.4l-2.5,13.3H397l4-20
		h5.5l-0.6,3c4.3-4.9,11.9-4.7,10.2,4.3c-1,5-0.7,3.5-1.6,8.4c-0.9,4.9,4.8,1.2,6.1-2.7H422.1z"/>
	<path class="st15" d="M432.5,675.5c-3.2,8.6-15.2,11-13-0.2l2.6-12.7h5.5c-1.3,6.8-2.2,10.9-3.1,15.6c-0.9,4.8,5,1.2,6.4-2.7H432.5
		z M423.4,659.4c-0.6-0.6-0.8-1.3-0.8-2.2c0-0.9,0.3-1.6,0.9-2.2c0.6-0.6,1.4-0.9,2.3-0.9s1.6,0.3,2.2,0.9c0.6,0.6,1,1.4,1,2.2
		c0,0.9-0.4,1.6-1,2.2c-0.6,0.6-1.4,0.9-2.3,0.9S424,660,423.4,659.4z"/>
	<path class="st15" d="M443.2,675.6c-3.2,8.6-15,10.8-12.8-0.2l2.1-10.4h-2.4l1-2.4h1.9l1.1-5.2l5.7-1.1l-1.2,6.3h3.2l-1.2,2.4h-2.5
		l-2.7,13.3c-0.9,4.7,4.8,1.2,6.1-2.7H443.2z"/>
	<path class="st15" d="M457.6,675.7c-3.1,5.8-6.4,7.2-11,7.1c-7.6-0.2-7.7-9.8-4-15.7c3-4.7,8.2-5.7,10.5-3.8c2,1.6,2.1,4.7,0.9,7
		c-1.8,3.3-5.2,4.6-8.6,4.4c0,1.9,0.8,4.2,2.5,5c3.1,1.4,6.3-1,8.2-4.1H457.6z M445.6,672.9c6.3,0.2,7-7.4,6-8.2
		c-0.8-0.6-2.6,0.2-4,2.4c-0.8,1.3-1.6,3.1-2,5.3C445.6,672.6,445.6,672.8,445.6,672.9z"/>
	<path class="st15" d="M468.3,675.8c-3,8.2-14.3,10.4-12.2-0.3l4.2-21h5.4c-1.4,6.8-4,19.2-4.9,23.8c-0.9,4.6,4.7,1.2,5.9-2.6H468.3
		z"/>
	<path class="st15" d="M485.4,662.6l-3,14.8c-1.8,9.4-4.4,17.7-16.4,14.4l3.8-3.8c1,0.8,4.3,2.6,4.7,0.4l1.7-8.4
		c-4.5,4.6-12,4.2-10.1-4.7l2.5-12.7h5.7c-1.2,6.2-2.3,11.2-3.2,15.6c-0.8,4.4,3.8,1.8,5.8-1.6l2.8-14.1H485.4z"/>
	<path class="st15" d="M204.2,720.6c-3.5,9.2-14.4,10.2-12.6-0.2c0.6-2.8,1.1-5.6,1.6-8.4c0.9-4.6-4.5-1.3-6,2.4l-2.5,13.3H179l4-20
		h5.5l-0.6,3c4.3-4.9,11.9-4.7,10.2,4.3c-1,5-0.7,3.5-1.6,8.4c-0.9,4.9,4.8,1.2,6.1-2.7H204.2z"/>
	<path class="st15" d="M223.2,713.2c-1.6,1.4-3.2,2.6-4.8,3.3c-1.2,9.1-8.6,12.6-13.3,10.8c-3.7-1.4-5.1-4.8-4.7-8.5
		c0.4-3.9,2.8-7.9,6.5-10c3.7-2.2,9.3-2.4,11.2,2.3c0.3,0.8,0.5,1.7,0.5,2.8c1.6-0.4,3.2-1.2,4.4-2L223.2,713.2z M213.6,717.3
		c-1.3-0.2-2.5-0.8-3.8-1.8l2.1-2.8c0.5,0.5,1.1,0.8,1.7,1.1c-0.6-3-3.2-5.6-5.4-2.4c-2,2.9-3.8,11.6-0.2,13.6
		c1.9,1.1,4.7-0.8,5.7-7.4C213.6,717.4,213.6,717.3,213.6,717.3z"/>
	<path class="st15" d="M234.1,720.6c-3.2,8.6-15,10.8-12.8-0.2l2.1-10.4h-2.4l1-2.4h1.9l1.1-5.2l5.7-1.1l-1.2,6.3h3.2l-1.2,2.4h-2.5
		l-2.7,13.3c-0.9,4.7,4.8,1.2,6.1-2.7H234.1z"/>
	<path class="st15" d="M265.1,720.7c-2.8,7.4-12.4,10-12.9,3.1c-4.2,6.3-13.4,5.2-12.6-3.1c0.6-6.4,3.7-12.9,10.9-13.1h10.1
		l-0.3,1.5c-1.2,6.1-2.1,9.7-3,14.3c-0.9,4.6,5,1.1,6.3-2.6H265.1z M254.2,711.2c-2.4-4.4-7.2-0.1-8.6,6.4c-1.5,7.2,1.1,11,6.6,3.6
		L254.2,711.2z"/>
	<path class="st15" d="M291.6,718l8-20.5l5.2,0l0.4,20.4l7.9-20.4h3.7L305,727.5h-5.5l0-20.5l-8,20.5h-5.5l0-26.8
		c-2.9,0.2-6.5,0.4-7.5,2.2c-0.9,2-0.4,5,1.2,7.4l-5.6,2.5c-0.9-5.8,0-9.7,2.5-12c3.4-2.9,9-3.4,14.8-3.4L291.6,718z"/>
	<path class="st15" d="M334.4,713.2c-1.6,1.4-3.2,2.6-4.8,3.3c-1.2,9.1-8.6,12.6-13.3,10.8c-3.7-1.4-5.1-4.8-4.7-8.5
		c0.4-3.9,2.8-7.9,6.5-10c3.7-2.2,9.3-2.4,11.2,2.3c0.3,0.8,0.5,1.7,0.5,2.8c1.6-0.4,3.2-1.2,4.4-2L334.4,713.2z M324.8,717.3
		c-1.3-0.2-2.5-0.8-3.8-1.8l2.1-2.8c0.5,0.5,1.1,0.8,1.7,1.1c-0.6-3-3.2-5.6-5.4-2.4c-2,2.9-3.8,11.6-0.2,13.6
		c1.9,1.1,4.7-0.8,5.7-7.4C324.8,717.4,324.8,717.3,324.8,717.3z"/>
	<path class="st15" d="M350.5,708.9l-3.7,3.1c-3.2-2.4-6.2,0.7-8.2,4l-2.2,11.6h-5.6l4-20h5.5l-0.8,4.4
		C341.9,707.7,345.3,705.8,350.5,708.9z"/>
	<path class="st15" d="M373.7,720.5c-2.8,7.6-12.4,10.2-12.9,3.1c-4.3,6.4-13.4,5.3-12.6-3.1c1-12.1,11.2-15,14.6-12.1
		c0.2,0.2,0.3,0.4,0.5,0.6l1.9-9.4h5.4c-1.4,7.3-3.7,19-4.7,23.6c-0.9,4.7,4.8,1.2,6.2-2.7H373.7z M362.8,711
		c-2.4-4.4-7.2-0.1-8.5,6.4c-1.6,7.3,1.1,11.1,6.6,3.6c0-0.2,0-0.5,0.1-0.7L362.8,711z"/>
	<path class="st15" d="M384.8,716.2l-2.3,11.4h-5.6l5.6-27.2c-1.6,0.6-3.2,1.6-4.2,2.7c-1.7,1.7-2,5-0.6,7.2l-5.4,2.5
		c-0.6-4.9,1.2-8.7,4.2-11.3c6.1-5.2,16.6-5.5,19.2,0.1C398.5,708.1,392.1,715.1,384.8,716.2z M391.7,703.7
		c-0.1-2.5-1.6-3.8-3.6-4.1l-2.8,14.1C388.8,712.8,391.7,707.6,391.7,703.7z"/>
	<path class="st15" d="M414,708.9l-3.7,3.1c-3.2-2.4-6.2,0.7-8.2,4l-2.2,11.6h-5.6l4-20h5.5l-0.8,4.4
		C405.3,707.7,408.7,705.8,414,708.9z"/>
	<path class="st15" d="M429.3,720.7c-3.1,5.8-6.4,7.2-11,7.1c-7.6-0.2-7.7-9.8-4-15.7c3-4.7,8.2-5.7,10.5-3.8c2,1.6,2.1,4.7,0.9,7
		c-1.8,3.3-5.2,4.6-8.6,4.4c0,1.9,0.8,4.2,2.5,5c3.1,1.4,6.3-1,8.2-4.1H429.3z M417.3,717.9c6.3,0.2,7-7.4,6-8.2
		c-0.8-0.6-2.6,0.2-4,2.4c-0.8,1.3-1.6,3.1-2,5.3C417.3,717.6,417.3,717.8,417.3,717.9z"/>
	<path class="st15" d="M440.6,712.7c0.6-1.2,1.3-3.4-1.1-3.6c-0.9-0.2-2.1,0.1-2.8,0.7c-1.2,0.5-1.9,1.7-1.8,2.5
		c0.1,0.9,0.2,1,0.8,1.6c0.7,0.6,1.7,1.3,2.9,1.9c1,0.5,2.2,1.2,3.2,1.9c0.9,0.7,1.5,1.5,1.9,2.5c2.1,8.3-15.6,10.4-16.8,3.8
		c-0.3-1.9,0.9-4.1,3.3-5.2l3,2.5c-2.5,0.8-3.6,2.1-3.1,3.2c0.5,1.3,3.2,1.7,5.4,0.9c1.3-0.6,2.3-1.4,2.8-2.6c0.6-1.4-0.8-2.5-2-3.4
		c-1.4-0.8-2.2-1.1-3.2-1.9c-1-0.6-2.2-1.7-2.8-2.6c-1.7-2.3-1-5.2,2.4-6.6c1.9-0.8,4-1.1,6-0.9c3,0.2,5.3,1.3,6.2,3.4
		c0.4,1,0.4,2.2,0.1,3.5L440.6,712.7z"/>
	<path class="st15" d="M458.4,712.7c0.6-1.2,1.3-3.4-1.1-3.6c-0.9-0.2-2.1,0.1-2.8,0.7c-1.2,0.5-1.9,1.7-1.8,2.5
		c0.1,0.9,0.2,1,0.8,1.6c0.7,0.6,1.7,1.3,2.9,1.9c1,0.5,2.2,1.2,3.2,1.9c0.9,0.7,1.5,1.5,1.9,2.5c2.1,8.3-15.6,10.4-16.8,3.8
		c-0.3-1.9,0.9-4.1,3.3-5.2l3,2.5c-2.5,0.8-3.6,2.1-3.1,3.2c0.5,1.3,3.2,1.7,5.4,0.9c1.3-0.6,2.3-1.4,2.8-2.6c0.6-1.4-0.8-2.5-2-3.4
		c-1.4-0.8-2.2-1.1-3.2-1.9c-1-0.6-2.2-1.7-2.8-2.6c-1.7-2.3-1-5.2,2.4-6.6c1.9-0.8,4-1.1,6-0.9c3,0.2,5.3,1.3,6.2,3.4
		c0.4,1,0.4,2.2,0.1,3.5L458.4,712.7z"/>
	<path class="st15" d="M283.2,765.6c-3.2,8.6-15,10.8-12.8-0.2l2.1-10.4h-2.4l1-2.4h1.9l1.1-5.2l5.7-1.1l-1.2,6.3h3.2l-1.2,2.4h-2.5
		l-2.7,13.3c-0.9,4.7,4.8,1.2,6.1-2.7H283.2z"/>
	<path class="st15" d="M303.9,765.6c-3.3,9.2-14.2,9.1-12.9,1.6c0.7-3.8,1.3-7.1,1.8-10.3c0.8-4.3-3.2-1.8-5,1.6l-2.8,14h-5.5
		l5.7-28h5.3l-2.1,10.6c4.3-4.5,11-4.2,9.3,4.6c-0.5,2.8-1,5.8-1.5,8.5c-0.8,4.8,4.8,1.2,6-2.6H303.9z"/>
	<path class="st15" d="M317.6,765.7c-3.1,5.8-6.4,7.2-11,7.1c-7.6-0.2-7.7-9.8-4-15.7c3-4.7,8.2-5.7,10.5-3.8c2,1.6,2.1,4.7,0.9,7
		c-1.8,3.3-5.2,4.6-8.6,4.4c0,1.9,0.8,4.2,2.5,5c3.1,1.4,6.3-1,8.2-4.1H317.6z M305.6,762.9c6.3,0.2,7-7.4,6-8.2
		c-0.8-0.6-2.6,0.2-4,2.4c-0.8,1.3-1.6,3.1-2,5.3C305.7,762.6,305.6,762.8,305.6,762.9z"/>
	<path class="st15" d="M348.4,765.8c-3.2,8.6-14.3,9.8-12.6,0.9c0.6-3.1,1.2-6.3,1.8-9.8c1-4.6-3.4-1.2-4.8,2.5
		c0,0.1-0.1,0.2-0.1,0.3c-0.2,1.2-2.1,11.8-2.3,12.8h-5.3c1.1-6.2,2-11.2,2.8-15.6c0.8-4.2-3.3-1.7-4.9,1.6c0,0,0,0.1-0.1,0.2
		l-2.8,13.8h-5.5l4-20h5.5l-0.5,2.7c3.2-3.8,9-4.3,9.3,1.2c4.2-5.7,11.4-6.1,9.5,3.3l-0.6,3.6c-0.3,1.7-0.4,1.8-1,5.1
		c-0.7,3.2,4.7,1.2,6-2.6H348.4z"/>
	<path class="st15" d="M362.3,765.7c-3.1,5.8-6.4,7.2-11,7.1c-7.6-0.2-7.7-9.8-4-15.7c3-4.7,8.2-5.7,10.5-3.8c2,1.6,2.1,4.7,0.9,7
		c-1.8,3.3-5.2,4.6-8.6,4.4c0,1.9,0.8,4.2,2.5,5c3.1,1.4,6.3-1,8.2-4.1H362.3z M350.3,762.9c6.3,0.2,7-7.4,6-8.2
		c-0.8-0.6-2.6,0.2-4,2.4c-0.8,1.3-1.6,3.1-2,5.3C350.3,762.6,350.3,762.8,350.3,762.9z"/>
	<path class="st15" d="M362.9,767.3c0.6-0.6,1.4-0.9,2.3-0.9s1.6,0.3,2.3,0.9c0.6,0.7,0.9,1.4,0.9,2.3c0,0.9-0.3,1.6-0.9,2.3
		c-0.7,0.6-1.4,0.9-2.3,0.9s-1.6-0.3-2.3-0.9c-0.6-0.6-0.9-1.4-0.9-2.3C362,768.7,362.3,768,362.9,767.3z"/>
</g>
<g>
	<rect x="188.5" y="366" class="st14" width="263.6" height="115.5"/>
	<path class="st15" d="M343.1,358.7L321.7,464h-19.2l10.9-53.1h-27.2L275.6,464h-19.5l19.3-93.5c-9.8,1-19,2.4-25.3,7.7
		c-4.9,4.1-4.1,15.4,1.4,25.1l-18.9,8.7c-2.4-19.3,1.7-31.6,10.2-39.5c11.9-11.5,32.2-13.9,53.9-14l-8.1,40.3H316l8.1-40H343.1z"/>
	<path class="st15" d="M386.5,439.2c-11.1,30.2-53.3,38.4-45.5-0.8l9.2-44.4h19.3c-4.5,23.7-7.7,38.1-10.9,54.6
		c-3.2,16.8,17.6,4.3,22.4-9.4H386.5z M354.7,383.1c-2-2.1-2.9-4.6-2.9-7.8c0.1-3.1,1.1-5.6,3.2-7.8c2.2-2.1,4.8-3.2,8-3.2
		s5.6,1.1,7.7,3.2c2.2,2.2,3.4,4.8,3.4,7.8c0,3.2-1.3,5.7-3.5,7.8c-2.2,2.1-4.9,3.1-8,3.1S356.8,385.2,354.7,383.1z"/>
	<path class="st15" d="M389.9,479.7l-1.1-5.3c7.7-0.3,10.1-4.1,12.6-10.4c-7.7-1-12.5-8.5-9.9-15.8c2.4-6,9.1-9.1,15.1-6.9
		C420.1,446.4,411.2,478.6,389.9,479.7z"/>
</g>
</svg>
