<?xml version="1.0" encoding="utf-8"?>
<!-- Generator: Adobe Illustrator 19.0.0, SVG Export Plug-In . SVG Version: 6.00 Build 0)  -->
<svg version="1.1" id="Layer_1" xmlns="http://www.w3.org/2000/svg" xmlns:xlink="http://www.w3.org/1999/xlink" x="0px" y="0px"
	 viewBox="-10.1 234.7 660.9 660.9" style="enable-background:new -10.1 234.7 660.9 660.9;" xml:space="preserve">
<style type="text/css">
	.st0{fill:none;}
	.st1{fill:#FFFFFF;}
	.st2{fill:#DD9300;stroke:#000000;stroke-width:5;}
	.st3{fill:#F7D614;stroke:#000000;stroke-width:5;}
</style>
<g>
	<g>
		<circle id="Circle_2_" class="st0" cx="320.3" cy="565.1" r="174.1"/>
		<path class="st1" d="M179.9,546.2c10,4.4,11.8,20.6,5.1,27.7c-5.9,6.4-19.5,3.7-26.2-1.5c-2.8-2.3-4.7-5-5.7-7.7
			c-1.4-3.5-1.3-6.9,0-9.6c1.1-2.3,3.1-3.9,6-4.3c2.5-0.3,5.8,0.3,9.5,2.5l-6.2,4c-1.2-0.7-2.3-1.6-3.7-1.6
			c-1.5,0.1-2.3,1.1-2.3,2.6c0,1.6,1,3.5,2.8,5.5c4.8,5.1,15.6,8.7,21.5,5c5.9-3.7,6.9-16.1-0.8-20.3L179.9,546.2z"/>
		<path class="st1" d="M184.8,524.6c10.2,5.7,7.9,18.7-0.8,15.6c-4.4-1.6-8.2-3-11.8-4.3c-4.9-1.9-2.8,3.4,0.8,6.2l16,6.1l-1.1,6.5
			l-31.9-12.4l1.1-6.3l12.2,4.7c-4.4-6-2.7-13.8,7.3-10.1c3.2,1.1,6.7,2.4,9.7,3.5c5.5,2,2.4-5.4-1.9-7.7L184.8,524.6z"/>
		<path class="st1" d="M190.8,509.5c5.4,5.7,5.9,10,4.1,15.2c-3.1,8.5-14,5.1-19.4-1.3c-4.3-5.2-3.5-11.5-0.4-13.4
			c2.6-1.7,6.1-0.6,8.4,1.6c3.1,3.3,3.3,7.6,1.9,11.5c2.2,0.7,5,0.7,6.6-1c2.8-3,1.3-7.6-1.6-10.9L190.8,509.5z M183.1,522.1
			c2.6-7.1-5.8-10.8-7.1-9.9c-1,0.7-0.8,3,1.3,5.5c1.1,1.4,2.9,2.9,5.3,4.3C182.8,522,183,522.1,183.1,522.1z"/>
		<path class="st1" d="M199.1,493.2c3.2,4.7,4.5,10,2.3,14.9c-2.8,6.4-9.5,5.5-14.8,1.4c-3.8-2.8-6.9-7.2-6.7-11.8
			c0.1-2.8,1.4-4.9,3.3-5.9c2.8-1.4,6.4-0.2,8.2,2.3c0.3,0.4,0.5,0.7,0.7,1.1l-4.5,0.3c-1.4-1.9-2.9-2.4-3.5-2.1
			c-0.6,0.4-0.9,1.3-0.7,2.6c0.6,3.3,3.5,6.3,6.1,8c4.1,2.8,7.3,2.9,9,1.3c2.7-2.5,1.2-7.1-0.5-10.6L199.1,493.2z"/>
		<path class="st1" d="M215.6,484l-3.7,5.7l-9.8-0.1l6.1,5.8l-3.7,5.6l-24.4-24l3.6-5.4c4.4,4.2,7.7,7.6,12.1,11.9
			c-1-2.6-2-6.1-1.9-8.8c0.3-8,11.4-3,9.2,9.2L215.6,484z M195.8,476c-0.2,2.5,1.8,7.5,2.7,10l1.7,1.7c0.1-0.5,0.2-1,0.3-1.4
			C201.9,478,196.1,471.7,195.8,476z"/>
		<path class="st1" d="M229,446c-0.2,2.6-0.7,4.9-1.4,6.8c6.5,8.9,3,18.1-2.6,20.4c-4.4,1.9-8.4,0-11.1-3.5
			c-2.8-3.7-4.1-9.2-2.7-14.1c1.5-5,6.1-9.7,11.6-7.3c0.9,0.4,1.9,1.1,2.8,2c1.1-1.7,1.8-3.6,2.2-5.4L229,446z M224,457.4
			c-1.3,0.8-2.8,1.4-4.9,1.6l-0.5-4.2c0.8,0,1.7-0.2,2.4-0.5c-3-2-7.4-2.3-6.8,2.4c0.6,4.2,6.3,13.3,11.1,12.1
			c2.6-0.6,3.4-4.6-1.2-11.2C224.1,457.5,224.1,457.4,224,457.4z"/>
		<path class="st1" d="M254.9,439.9c2.4,9-4.3,17.3-9.5,11.7c-0.7,8.1-7.9,13.1-12.4,2.9l-6.1-14.5l5.4-3.7
			c3.2,7.3,5.4,12.7,7.6,17.7c2.2,4.9,4.3-0.4,3.8-4.8c-0.2-0.5-0.4-0.9-6.9-15.9l5.3-3.6c3.2,7.3,5.4,12.4,7.7,17.6
			c2.3,5.2,4.9-1.6,3.6-6.3L254.9,439.9z"/>
		<path class="st1" d="M266.1,435c1.2,10.9-10.2,19.7-13.7,6.8l-3.4-12.3l-2.6,1.3l-0.3-3.2l2.1-1l-1.7-6.1l5.5-4.3l2.1,7.4l3.5-1.8
			l0.1,3.2l-2.7,1.4l4.4,15.7c1.6,5.5,5.7-1.3,5.1-6.2L266.1,435z"/>
		<path class="st1" d="M287.9,428c-0.6,11-13.2,17.8-14.7,4.4l-1.3-12.7l-2.7,0.9l0.3-3.2l2.2-0.7l-0.6-6.3l6.1-3.3l0.9,7.7l3.7-1.2
			l-0.4,3.2l-2.9,0.9l1.7,16.2c0.6,5.7,5.9-0.3,6-5.3L287.9,428z"/>
		<path class="st1" d="M312.2,424c-2,11.5-14.9,13.8-14.9,4.5c0-4.6,0.1-8.7,0-12.5c0.1-5.3-4.1-1.5-5.5,2.9l-0.4,17.2l-6.5,1.1
			l0.8-34.2l6.3-1.1l-0.3,13c4.1-6.2,12.1-7.2,12,3.4c0,3.4,0,7.1,0,10.3c0,5.8,5.9,0.5,6.6-4.3L312.2,424z"/>
		<path class="st1" d="M328.5,424.4c-3.5,7-7.4,8.9-12.9,9c-9.1,0-9.6-11.5-5.3-18.7c3.5-5.8,9.7-7.2,12.5-5
			c2.5,1.9,2.7,5.5,1.3,8.4c-2,4.1-6,5.7-10.1,5.7c0.1,2.3,1.1,5,3.2,5.9c3.7,1.6,7.5-1.4,9.7-5.2L328.5,424.4z M314,421.5
			c7.6,0,8.2-9.1,6.9-10.1c-1-0.7-3.1,0.3-4.7,3.1c-1,1.6-1.8,3.8-2.2,6.5C314.1,421.2,314,421.4,314,421.5z"/>
		<path class="st1" d="M352.6,418.6c1-1.3,2.2-3.8-0.6-4.5c-1-0.4-2.5-0.3-3.5,0.2c-1.6,0.4-2.6,1.6-2.6,2.6c0,1.1,0.1,1.2,0.6,2
			c0.7,0.9,1.7,1.9,3,2.9c1.1,0.8,2.4,1.9,3.4,2.9c0.9,1,1.5,2.1,1.7,3.3c0.7,10.3-20.6,9-20.7,1c0-2.3,1.9-4.7,4.9-5.4l3,3.6
			c-3.1,0.4-4.7,1.7-4.3,3.1c0.3,1.7,3.4,2.7,6.2,2.2c1.6-0.4,3-1.1,3.9-2.4c1-1.5-0.5-3.2-1.6-4.4c-1.5-1.2-2.4-1.8-3.4-2.9
			c-1.1-0.9-2.3-2.5-2.8-3.7c-1.5-3-0.1-6.4,4.3-7.3c2.4-0.6,4.9-0.5,7.3,0.2c3.5,0.8,6,2.7,6.7,5.3c0.3,1.2,0,2.7-0.6,4.1
			L352.6,418.6z"/>
		<path class="st1" d="M384.1,429.2c-2.4,1-4.6,1.6-6.7,1.8c-4.9,9.9-14.7,10.9-19.4,7c-3.7-3-3.9-7.4-2-11.5
			c2-4.2,6.2-7.9,11.3-8.8c5.1-1,11.4,1,11.8,7c0.1,1-0.1,2.2-0.5,3.4c2,0.2,4-0.1,5.8-0.6L384.1,429.2z M371.7,430
			c-1.4-0.8-2.5-1.9-3.6-3.6l3.5-2.4c0.4,0.7,0.9,1.4,1.5,1.9c0.4-3.6-1.4-7.6-5.2-4.9c-3.4,2.5-8.9,11.7-5.6,15.4
			c1.7,2,5.6,0.9,9.4-6.2C371.7,430.2,371.7,430.1,371.7,430z"/>
		<path class="st1" d="M401.4,449.4c-6.9,6.2-17.4,4.1-14.7-3.1c-7.5,3.1-15.3-1-8.2-9.7l10.1-12.1l5.7,3.1
			c-5.1,6.2-8.8,10.6-12.2,14.8c-3.4,4.2,2.3,3.6,6,1.2c0.3-0.4,0.7-0.8,11-13.4l5.6,3.1c-5,6.2-8.6,10.5-12.1,14.9
			c-3.6,4.4,3.7,3.6,7.2,0.3L401.4,449.4z"/>
		<path class="st1" d="M424.9,450.6l-5.8,0.2c-1.4-4.6-6.4-3.8-10.8-2.2l-10.6,9.4l-5.4-4.1l18.4-16.1l5.2,4l-4,3.5
			C417.5,443.2,422.1,443.8,424.9,450.6z"/>
		<path class="st1" d="M428.6,475c-5.5,1.5-10.9,0.9-14.8-2.8c-5.1-4.7-2-10.8,3.6-14.4c3.9-2.6,9.1-4.2,13.4-2.3
			c2.5,1.1,4.2,3,4.4,5.1c0.4,3.1-2,6.1-4.9,7c-0.4,0.2-0.8,0.2-1.3,0.3l1.2-4.3c2.3-0.7,3.3-1.9,3.1-2.6c-0.1-0.7-0.9-1.3-2.2-1.5
			c-3.3-0.6-7.1,1.2-9.6,3.1c-4,3-5.2,5.9-4.2,8.1c1.5,3.4,6.3,3.5,10.1,3.1L428.6,475z"/>
		<path class="st1" d="M439.6,490.1c-7.8,1.2-11.6-0.8-14.8-5.3c-5.3-7.4,3.7-14.5,12.1-15.2c6.7-0.5,11.5,3.7,11.3,7.3
			c-0.1,3.1-2.9,5.4-6.1,6c-4.5,0.7-8.1-1.6-10.5-5c-1.8,1.4-3.4,3.8-3,6c0.9,4,5.5,5.3,9.9,4.8L439.6,490.1z M433.5,476.6
			c4.4,6.2,12.2,1.3,12.2-0.2c0-1.2-2-2.3-5.2-2c-1.8,0.1-4.1,0.8-6.5,2C433.8,476.5,433.7,476.6,433.5,476.6z"/>
		<path class="st1" d="M451.8,514.3c-5.7-0.4-10.6-2.7-13.1-7.3c-3.3-6.1,1.6-10.8,8-12.5c4.5-1.2,9.9-1,13.4,2
			c2.1,1.8,3,4.1,2.5,6.2c-0.6,3-3.8,5.2-6.9,5.1c-0.5,0-0.9,0-1.3-0.1l2.5-3.7c2.4,0.1,3.7-0.8,3.8-1.4c0.1-0.7-0.5-1.5-1.6-2.1
			c-3-1.6-7.1-1.1-10.1-0.2c-4.8,1.5-6.8,3.9-6.6,6.3c0.3,3.7,4.9,5.3,8.6,6.1L451.8,514.3z"/>
		<path class="st1" d="M467.5,535.8c-2.2-1.3-4.1-2.8-5.5-4.3c-10.9,1.9-17.5-5.4-17.2-11.4c0.2-4.7,3.7-7.5,8.1-8.4
			c4.6-0.9,10.1,0.3,13.8,3.9c3.8,3.5,6,9.8,1.4,13.6c-0.8,0.6-1.8,1.2-3,1.6c1,1.7,2.5,3.2,3.9,4.4L467.5,535.8z M459.5,526.3
			c-0.2-1.6,0-3.1,0.7-5.1l4,1.4c-0.4,0.8-0.6,1.6-0.6,2.4c3.2-1.8,5.3-5.6,0.9-7.1c-4-1.3-14.7-0.2-15.7,4.6
			c-0.6,2.6,2.6,5.1,10.6,3.9C459.4,526.3,459.4,526.3,459.5,526.3z"/>
		<path class="st1" d="M461.9,564.8c-9.4-2.1-14-13.2-5.7-14.9c-8.3-4.1-8.3-15.1,1.8-15.5c14.6-0.6,19.5,11,16.6,15.5
			c-0.2,0.2-0.4,0.4-0.6,0.7l11.5,0.9l0.8,6.5c-8.9-0.6-23.1-1.6-28.9-2c-5.7-0.4-0.7,5.9,4.1,6.9L461.9,564.8z M471.6,550.4
			c4.9-3.6-0.9-8.6-8.9-9.2c-8.9-0.8-13,3-3.2,8.4c0.2,0,0.6,0,0.8,0L471.6,550.4z"/>
		<path class="st1" d="M460.3,581.4c-6.8-3.9-8.5-7.9-8.2-13.4c0.5-9.1,12-8.9,19-4.3c5.6,3.8,6.6,10.1,4.3,12.7
			c-2,2.4-5.7,2.4-8.5,0.9c-3.9-2.3-5.3-6.3-5.1-10.4c-2.3,0-5,0.8-6.1,2.8c-1.8,3.7,1,7.6,4.7,10L460.3,581.4z M464,567
			c-0.4,7.6,8.7,8.7,9.7,7.5c0.7-0.9-0.1-3.1-2.8-4.9c-1.5-1-3.6-2-6.3-2.6C464.3,567.1,464.1,567,464,567z"/>
	</g>
	<g>
		<circle id="Circle_1_" class="st0" cx="320.3" cy="565.1" r="185"/>
		<path class="st1" d="M182.8,642.4c-10.9-0.5-18.5-14.9-14.8-24c3.2-8.1,16.8-10.6,25-8.1c3.4,1.1,6.2,2.9,8.1,5.1
			c2.5,2.8,3.7,6,3.4,8.9c-0.2,2.5-1.5,4.8-4,6.2c-2.2,1.2-5.5,1.8-9.8,1.1l4.3-6c1.3,0.2,2.8,0.7,4,0.1c1.4-0.6,1.7-1.9,1.2-3.2
			c-0.6-1.5-2.2-2.9-4.6-4.1c-6.4-3-17.7-2.4-21.9,3.2c-4.2,5.6-0.6,17.6,8.1,18.6L182.8,642.4z"/>
		<path class="st1" d="M189.1,651c-10.3,1.7-19.3-8.7-6.9-12.9l24.4-8.1l3.2,5.6c-7.9,2.6-22.4,7.3-27.8,9c-5.3,1.8,1.6,5.6,6.2,4.7
			L189.1,651z"/>
		<path class="st1" d="M197.2,661.7c-10.7,2.7-21.2-7.7-8.6-13.1l14.4-6l3.7,5.5c-7.6,3.3-12.3,5.2-17.6,7.5c-5.4,2.3,2.2,5.8,7,4.5
			L197.2,661.7z M207,641.8c0.2-1,0.7-1.7,1.7-2.3c0.9-0.6,1.8-0.8,2.8-0.6c1,0.2,1.8,0.7,2.5,1.6s0.8,1.8,0.6,2.8
			c-0.2,1.1-0.7,1.9-1.6,2.5c-0.9,0.6-1.9,0.8-2.9,0.5c-1-0.2-1.8-0.8-2.4-1.7S206.8,642.8,207,641.8z"/>
		<path class="st1" d="M208.6,675.1c-5.6,1-11-0.1-14.5-4c-4.7-5.1-1.1-10.9,4.8-14.1c4.1-2.3,9.4-3.4,13.5-1.2
			c2.4,1.3,3.9,3.3,4,5.5c0.1,3.1-2.5,5.9-5.5,6.5c-0.5,0.1-0.9,0.2-1.3,0.2l1.6-4.2c2.3-0.5,3.4-1.6,3.3-2.3
			c-0.1-0.7-0.8-1.4-2.1-1.7c-3.3-0.8-7.2,0.6-9.8,2.2c-4.3,2.6-5.7,5.4-4.9,7.7c1.2,3.5,6,4,9.8,3.9L208.6,675.1z"/>
		<path class="st1" d="M215.9,692.7l-5-4.6l1.7-9.7l-6.7,5l-4.9-4.6l27.8-20.1l4.7,4.4c-4.9,3.6-8.8,6.3-13.7,9.9
			c2.7-0.5,6.3-1,9-0.4c7.8,1.6,1.1,11.8-10.6,7.5L215.9,692.7z M227.1,674.5c-2.5-0.7-7.7,0.6-10.3,1l-1.9,1.4
			c0.5,0.2,1,0.4,1.4,0.5C224,680.2,231.2,675.5,227.1,674.5z"/>
		<path class="st1" d="M244.9,702.3c-8.8,6.6-22.2,1.2-12.8-8.4l8.9-9.1l-2.4-1.6l2.6-1.8l1.9,1.2l4.5-4.6l6.5,2.6l-5.4,5.6l3.3,2.1
			l-2.8,1.7l-2.5-1.6L235.3,700c-4,4.1,4,4.3,7.9,1.2L244.9,702.3z"/>
		<path class="st1" d="M271.9,705.2c-2.5,0.7-4.8,1.1-6.8,1.1c-5.9,9.3-15.8,9.3-20,5c-3.3-3.4-3.1-7.8-0.8-11.6
			c2.5-4,7-7.2,12.2-7.6c5.1-0.4,11.3,2.2,11,8.2c0,1-0.3,2.1-0.9,3.3c1.9,0.4,4,0.4,5.9,0.1L271.9,705.2z M259.4,704.7
			c-1.3-0.9-2.3-2.1-3.2-4l3.7-2c0.3,0.8,0.8,1.5,1.3,2.1c0.8-3.5-0.6-7.7-4.7-5.4c-3.6,2.1-10.1,10.7-7.2,14.7
			c1.5,2.2,5.5,1.5,10-5.2C259.4,704.9,259.4,704.8,259.4,704.7z"/>
		<path class="st1" d="M304.1,712.5c-2.2,1.3-4.4,2.2-6.4,2.6c-3.7,10.4-13.3,12.6-18.4,9.3c-4-2.5-4.7-6.9-3.3-11.1
			c1.5-4.4,5.3-8.6,10.2-10.1c4.9-1.6,11.5-0.4,12.6,5.5c0.2,1,0.2,2.1-0.1,3.4c2-0.1,4-0.6,5.7-1.3L304.1,712.5z M291.9,714.7
			c-1.4-0.6-2.7-1.6-4-3.1l3.2-2.8c0.5,0.7,1.1,1.3,1.7,1.7c0-3.6-2.3-7.4-5.8-4.3c-3.1,2.9-7.4,12.7-3.8,15.9
			c2,1.8,5.7,0.2,8.6-7.3C291.8,714.9,291.8,714.8,291.9,714.7z"/>
		<path class="st1" d="M321.8,716.4c-0.3,3.1-1.2,6.2-2.9,8.8c-0.8,1.3-1.8,2.4-3.1,3.2c-1.4,1-3.1,1.5-5,1.3
			c-2-0.1-4.8-1.3-5.8-2.5l-3.6,13.6l-6.8-0.5l9.6-35.4l6.8,0.5l-0.4,1.4C318.4,702.3,322.3,709.8,321.8,716.4z M310,709.1
			l-4.2,15.4c1.9,3,4.5,2.1,6.3,0c1-1.3,2-3.3,2.6-5.6C315.8,714.4,316.7,705.2,310,709.1z"/>
		<path class="st1" d="M344,720.2c-3.3,7.2-7.1,9.2-12.5,9.4c-9.1,0.3-10-11.1-6-18.5c3.3-5.9,9.4-7.5,12.3-5.4
			c2.6,1.8,2.9,5.4,1.6,8.4c-1.9,4.1-5.8,5.9-9.9,6c0.2,2.3,1.3,4.9,3.4,5.8c3.8,1.5,7.5-1.7,9.5-5.6L344,720.2z M329.4,717.8
			c7.6-0.3,7.8-9.4,6.6-10.3c-1-0.7-3.1,0.4-4.6,3.3c-0.9,1.6-1.6,3.8-2,6.5C329.4,717.5,329.4,717.7,329.4,717.8z"/>
		<path class="st1" d="M370.6,714.1c-1.8,11.7-14.3,15.6-14.8,2.9c0-3.4-0.1-6.8-0.2-10.3c-0.1-5.6-5.6-0.4-6.4,4.3l0.4,16.2
			l-6.7,1.4l-0.3-24.5l6.4-1.4l0,3.7c3.8-6.8,12.8-8.5,13.1,2.4c0.1,6.1,0,4.3,0.2,10.3c0.2,6,5.9,0.2,6.5-4.7L370.6,714.1z"/>
		<path class="st1" d="M392.3,705.2c-3.1,2.5-7,3.5-10.6,2.3c-5.9-2.2-9.5-10.6-9.3-15.9c0.1-3.2,1.3-6.1,3-8.3
			c2-2.7,4.7-4.7,7.6-5.8c2.9-1.1,5.6-1.1,7.9,0.1c2.3,1.3,3.7,3.9,3.5,8.3l-6.2-0.9c0.2-1.7,0.1-5-1.9-5.5
			c-1.5-0.3-3.3,0.5-4.7,2.4c-0.8,1.1-1.6,2.6-2,4.4c-1.1,4.8,1,11.9,4.5,15.4c1.7,1.5,3.5,2,5.2,1.6c2-0.6,3.8-2.3,5.2-5
			c-0.3-0.9-0.6-2.4-1.3-4.9c1.3-0.9,4.5-3.3,5.5-4.1l3.9,14.5c0.9,3.3,1.7,5.9,1.2,9.3c-0.2,1.3-0.6,2.5-1.2,3.6
			c-1.2,2.3-3,4-5.3,5c-1.7,0.8-3.6,1.1-5.5,0.9c-2-0.1-3.9-1-5.5-2.4c0.9-1.9,2-4.4,2.6-5.6c0.8,1.1,2,2,2.9,2.6
			c1.2,0.6,2.4,0.9,3.4,0.8c1.6-0.2,2.8-1.4,3-3.7c0.1-0.9,0.1-1.8-0.2-2.9c-0.5-3.1-1.6-6.7-2.5-9.6
			C394.6,703.1,393.5,704.3,392.3,705.2z"/>
		<path class="st1" d="M397.8,677.9c-1-0.2-1.7-0.7-2.4-1.6c-0.6-0.9-0.8-1.8-0.6-2.8c0.2-1,0.7-1.8,1.6-2.5
			c0.9-0.6,1.8-0.8,2.8-0.6c1.1,0.2,1.9,0.7,2.5,1.6c0.6,0.9,0.8,1.9,0.5,2.9s-0.8,1.8-1.6,2.4C399.7,677.8,398.8,678.1,397.8,677.9
			z M417.7,687.5c2.8,10.7-7.6,21.2-13,8.6l-6.1-14.3l5.4-3.8c3.4,7.5,5.3,12.2,7.6,17.5c2.4,5.4,5.8-2.2,4.5-7L417.7,687.5z"/>
		<path class="st1" d="M427.7,679c3.6,10.4-5.6,21.5-11.9,9.6l-6-11.2l-2.2,1.8l-0.9-3l1.8-1.5l-3-5.6l4.4-5.4l3.7,6.8l3-2.5
			l0.8,3.1L415,673l7.7,14.3c2.7,5,5.3-2.5,3.6-7.2L427.7,679z"/>
		<path class="st1" d="M431.7,632.8l22.5,29.2l-4.3,5l-11.3-14.7l-6.1,7l11.4,14.7l-4.4,5l-19.9-26c-1.9,2.8-3.7,5.5-3.7,8.3
			c0,2.2,3.1,4.5,6.8,5.3l-2,6.8c-5.5-3.7-7.8-7.5-7.9-11.5c-0.3-5.7,3.6-11.5,8.5-17.1l8.6,11.2l6.1-7.1l-8.6-11.1L431.7,632.8z"/>
		<path class="st1" d="M464.4,627.8c6.1,7,3.9,17.4-3.3,14.7c3,7.5-1.2,15.3-9.9,8.1l-11.9-10.2l3.2-5.7c6.1,5.1,10.5,9,14.6,12.4
			c4.1,3.4,3.7-2.2,1.2-6c-0.4-0.3-0.8-0.7-13.2-11.1l3.2-5.6c6.1,5.1,10.4,8.7,14.7,12.3c4.4,3.6,3.7-3.7,0.4-7.2L464.4,627.8z"/>
		<path class="st1" d="M468.2,610.2c7.8,5.9,7.1,10.5,4.9,16.2c-0.6,1.5-1.1,3-1.8,4.7c-0.2,0.6-0.8,2.1-1,2.6l-29-18.2l2.2-5.9
			l8.8,5.5c-0.1-1.3,0-2.5,0.5-3.7c0.7-2,1.9-3.2,3.2-4c1.2-0.7,2.6-0.8,4.1-0.8C462.8,606.9,465.7,608.2,468.2,610.2z M458.2,612.3
			c-2,0.1-3.6,1.4-3.4,4.2l14.3,9c6.1-3.7-1.2-9.6-5.4-11.7C461.7,612.7,459.6,612.2,458.2,612.3z"/>
	</g>
	<g>
		<g>
			<path class="st2" d="M214.6,587.6l-78.6,16.7L214.6,587.6z"/>
		</g>
	</g>
	<g>
		<g>
			<path class="st2" d="M426,587.6l78.6,16.7L426,587.6z"/>
		</g>
	</g>
	<ellipse id="XMLID_5_" class="st3" cx="320.3" cy="565.1" rx="108.9" ry="109.1"/>
</g>
</svg>
