<?xml version="1.0" encoding="utf-8"?>
<!-- Generator: Adobe Illustrator 19.0.0, SVG Export Plug-In . SVG Version: 6.00 Build 0)  -->
<svg version="1.1" id="Layer_1" xmlns="http://www.w3.org/2000/svg" xmlns:xlink="http://www.w3.org/1999/xlink" x="0px" y="0px"
	 viewBox="-10.1 234.7 660.9 660.9" style="enable-background:new -10.1 234.7 660.9 660.9;" xml:space="preserve" width="1" height="1">
<style type="text/css">
	.st0{fill:#DD9300;}
	.st1{fill:none;stroke:#FFFFFF;stroke-width:5;}
	.st2{fill:#FFBE2C;}
	.st3{fill:none;}
	.st4{fill:#FFFFFF;}
	.st5{fill:#FFFFFF;stroke:#FFFFFF;stroke-width:5;}
	.st6{fill:#DD9300;stroke:#FFFFFF;stroke-width:5;}
</style>
<g>
	<polygon class="st0" points="258.4,653.9 237.1,684.4 212.4,719.6 138.1,664.3 134,565.1 175.2,565.1 216.4,565.1 240.2,610.7 	"/>
	<polygon class="st0" points="381.3,652.2 404.9,686.4 428.5,719.6 502.9,664.3 507,565.1 465.8,565.1 424.6,565.1 400.8,610.7 	"/>
	<g>
		<path class="st0" d="M320.3,289.1c152.4,0,276,123.6,276,276s-123.6,276-276,276s-276-123.6-276-276S167.9,289.1,320.3,289.1z
			 M132,565.1c0,104,84.3,188.3,188.3,188.3s188.3-84.3,188.3-188.3s-84.3-188.3-188.3-188.3S132,461.1,132,565.1z"/>
		<path class="st1" d="M320.3,289.1c152.4,0,276,123.6,276,276s-123.6,276-276,276s-276-123.6-276-276S167.9,289.1,320.3,289.1z
			 M132,565.1c0,104,84.3,188.3,188.3,188.3s188.3-84.3,188.3-188.3s-84.3-188.3-188.3-188.3S132,461.1,132,565.1z"/>
	</g>
	<g>
		<path class="st2" d="M580.7,656.7c10.1-28.7,15.6-59.5,15.6-91.6c0-152.4-123.6-276-276-276s-276,123.6-276,276
			c0,32.7,5.7,64.1,16.2,93.2l51.5,9.1l32.1-35.6c-7.8-20.7-12.2-43.2-12.2-66.7c0-104,84.3-188.3,188.3-188.3
			s188.3,84.3,188.3,188.3c0,22.9-4.1,44.8-11.5,65.1l31.5,37.2L580.7,656.7z"/>
		<path class="st1" d="M580.7,656.7c10.1-28.7,15.6-59.5,15.6-91.6c0-152.4-123.6-276-276-276s-276,123.6-276,276
			c0,32.7,5.7,64.1,16.2,93.2l51.5,9.1l32.1-35.6c-7.8-20.7-12.2-43.2-12.2-66.7c0-104,84.3-188.3,188.3-188.3
			s188.3,84.3,188.3,188.3c0,22.9-4.1,44.8-11.5,65.1l31.5,37.2L580.7,656.7z"/>
	</g>
	<g>
		<circle id="Circle_4_" class="st3" cx="320.3" cy="565.1" r="265.4"/>
		<path class="st4" d="M69.1,600.7L72,613l12-0.5l-2-8.6l5.5,0.3l1.9,8.1l17.8-0.5l-3-13l5.5,0.3c1.6,7,3.2,13.6,4.8,20.6l-40.8,1.2
			c1.3,3.8,2.7,7.7,5.2,9.4s6.9,0.8,10.6-2.7l5.5,7c-8.3,3.1-14.5,2.3-18.7-1c-3.4-2.9-5.7-7.2-7.5-12.3c-0.7-2.2-1.2-4-1.7-6.2
			c-0.8-3.6-2.4-10.2-3.6-15L69.1,600.7z"/>
		<path class="st4" d="M95.9,558.9c14.1,4.3,16.8,20.4,1,18.9c-4.2-0.5-8.5-1-12.7-1.5c-7-0.8-1.5,6.9,4.2,8.7l20.1,2.4l0.6,8.5
			L78.7,592l-0.6-8.2l4.6,0.6c-7.8-5.9-8.3-17.3,5.3-15.8c7.5,0.9,5.3,0.7,12.7,1.5c7.5,0.8,1.3-7.3-4.7-8.8L95.9,558.9z"/>
		<path class="st4" d="M97.5,544c12.7,5.2,15.5,23.1-0.9,19.1l-15.5-3.7L81,563l-3.6-1.6l0.1-2.9l-7.7-1.9l-1.4-8.6l9.4,2.2l0.2-4.9
			l3.6,1.9l-0.1,3.8l19.8,4.7c7,1.6,2-7.1-3.8-9.3L97.5,544z"/>
		<path class="st4" d="M74.2,538.1c-1,0.7-2.1,1-3.5,0.9c-1.3-0.2-2.3-0.7-3.2-1.7c-0.8-1.1-1.1-2.2-1-3.6c0.2-1.4,0.7-2.3,1.7-3.1
			c1.1-0.8,2.2-1.2,3.5-1.1c1.4,0.2,2.4,0.8,3.2,1.9c0.8,1.1,1.1,2.2,0.9,3.5C75.8,536.2,75.2,537.3,74.2,538.1z M99.6,527.2
			c12.4,6.1,13.8,24.5-2.5,19.3l-18.5-6l0.9-8.2c9.9,3,15.9,5.1,22.8,7.2c7,2.2,2.7-7.3-2.9-10L99.6,527.2z"/>
		<path class="st4" d="M87.9,499.4l3.4,6.4c-4.5,4-0.8,9.3,3.4,13.3l16.3,6.8l-1.7,8.3l-28.1-12l1.7-8l6.1,2.6
			C83.5,511.7,81.7,506.2,87.9,499.4z"/>
		<path class="st4" d="M112.7,481.5c6.8,7.1,7.4,12.5,5.1,18.9c-3.8,10.7-17.5,6.5-24.3-1.6c-5.3-6.5-4.4-14.4-0.6-16.8
			c3.3-2.2,7.6-0.8,10.5,2c3.9,4.1,4.1,9.5,2.4,14.3c2.8,0.8,6.3,0.8,8.3-1.2c3.5-3.7,1.5-9.5-2.1-13.6L112.7,481.5z M103.2,497.3
			c3.2-8.9-7.3-13.5-8.9-12.4c-1.2,0.9-0.9,3.7,1.6,6.8c1.4,1.8,3.7,3.6,6.7,5.3C102.8,497.1,103,497.3,103.2,497.3z"/>
		<path class="st4" d="M119.6,467.1c9.6,8.9,6.1,25.8-7.5,16.6l-26.6-18l3.1-7.5c8.6,5.8,24.3,16.7,30.1,20.6
			c5.8,3.9,4.3-5.8-0.1-9.7L119.6,467.1z"/>
		<path class="st4" d="M114.3,435.4l17.4,14.5c11.2,9.1,20.2,18.5,7.2,31.9l-2.4-7.8c1.8-0.7,6.5-3.8,3.9-5.9l-9.9-8.3
			c2.9,9.2-2.9,18.8-13.4,10l-14.9-12.4l4.1-7.5c7.2,6,13.2,11,18.4,15.3c5.2,4.2,5.1-3.8,2.1-8.7l-16.6-13.8L114.3,435.4z"/>
		<path class="st4" d="M137.6,404.5c3.9,8,10.7,20.6,14.9,29.6l-5.1,6.6l-23.6-18.5l5.1-6.5l16.1,12.7l-10.4-20L137.6,404.5z"/>
		<path class="st4" d="M177.8,392c4.9,10.7-2.5,23.7-10.4,16.9c2.2,11.2-8.7,19.7-16.7,10.1c-6.3-7.4-9.8-17.6-2.4-25.5l10.7-10.8
			l1.3,1.9c5.2,7.8,8.1,12.5,12,18.3c3.9,5.8,6.4-4.1,3.8-9.5L177.8,392z M156.2,393.5c-7.3-2.1-7.7,7.5-2.3,15.8
			c6.1,9.3,12.9,10.5,10.8-3.3L156.2,393.5z"/>
		<path class="st4" d="M204.6,372.7c4,14.2-8.1,25.2-15.4,11c-1.8-3.9-3.7-7.7-5.6-11.5c-3.1-6.3-6.6,2.5-5.1,8.2l8.9,18.2l-6.8,5.1
			l-13.1-27.7l6.6-4.9l2,4.1c0.8-9.7,10.1-16.4,16.1-4.1c3.3,6.8,2.3,4.9,5.6,11.5c3.4,6.7,6.8-2.9,4.9-8.7L204.6,372.7z"/>
		<path class="st4" d="M194.3,352c-1.2-0.3-2.1-1.1-2.8-2.3c-0.6-1.2-0.8-2.3-0.5-3.6c0.4-1.3,1.1-2.2,2.2-2.9
			c1.2-0.7,2.3-0.8,3.5-0.5c1.3,0.3,2.3,1,2.9,2.2c0.7,1.2,0.8,2.4,0.4,3.7c-0.4,1.3-1.1,2.2-2.3,2.9S195.5,352.3,194.3,352z
			 M218.3,365.8c2.5,13.6-11.3,25.8-17,9.6L195,357l7.1-4.2c3.5,9.7,5.5,15.7,7.9,22.5c2.5,6.9,7.5-2.2,6.2-8.3L218.3,365.8z"/>
		<path class="st4" d="M232,359.9c1.5,13-12.2,23.5-16.5,7.8l-8.5-31l7.2-3.6c2.7,10,7.6,28.5,9.4,35.3c1.9,6.7,7.1-1.6,6.2-7.4
			L232,359.9z"/>
		<path class="st4" d="M246.5,354.3c0.6,13.1-13.8,22.6-17,6.6l-6.3-31.5l7.5-3.1c2,10.2,5.6,28.9,6.9,35.8c1.4,6.8,7.2-1.1,6.7-7
			L246.5,354.3z"/>
		<path class="st4" d="M278.5,344.8c-0.9,11.8-13.6,19.6-17.2,9.9c-3.4,10.9-17,13.1-19.5,0.9c-1.9-9.5-0.1-20.1,10.1-23.5l14.6-4.3
			l0.2,2.3c0.8,9.3,1.1,14.8,1.7,21.8c0.7,6.9,7.6-0.5,7.9-6.5L278.5,344.8z M258.9,335.7c-5.4-5.4-10.4,2.9-9.6,12.8
			c0.9,11.1,6.3,15.4,11.1,2.3L258.9,335.7z"/>
		<path class="st4" d="M335,306.1l-7,45.5l-8.2,0.4l3.6-22.9l-11.6,0.5l-3.5,22.9l-8.3,0.4l6.4-40.4c-4.2,0.6-8.1,1.4-10.7,3.8
			c-2,1.8-1.4,6.7,1.1,10.7l-7.9,4.1c-1.4-8.2,0.1-13.6,3.6-17.1c4.9-5.2,13.5-6.6,22.8-7.1l-2.7,17.4l11.7-0.6l2.7-17.3L335,306.1z
			"/>
		<path class="st4" d="M339.7,330.2c1.3-24,16.1-22.3,28.7-17.4c7.5,2.9,14.4,5.6,18.9,1.5l3.2,0.5c-8.6,8-14,6.8-21.4,3.8
			l-13.7,36.4l-8.2-1.3l14.3-37.7c-5.3-1.4-9.2-2-11.9,0c-2.3,1.5-2.5,6.5-1.3,11.5L339.7,330.2z"/>
		<path class="st4" d="M437.1,333.4l-24.3,39l-7.8-3l15.6-23.6l-24.4,20.3l-7-2.6l12.4-24.7L380,360l-5.3-2l31.4-30.9
			c-3.8-0.8-7.6-1.4-10.3,0.1c-2.1,1.1-3.4,5.8-2.7,10l-8.9,0.6c2-7.6,5.6-12.5,10-14.4c3.6-1.5,7.7-1.6,12.1-0.9
			c3.9,0.6,7.2,1.9,11.4,3.5l-13.8,26.3l26.2-21.5L437.1,333.4z"/>
		<path class="st4" d="M429.6,357.7c3.3-7.4,7.4-11.5,12.1-12.9c7.2-2.2,15.9,1.6,24.7,6.9L435.7,386c5.2,3.9,14.2,14.2,17.9,22.1
			l-12.2-1.1c-1.5-8.3-8.1-19.9-14.5-23.8l28.5-31.6c-3.9-1.8-7.9-3.5-11.2-2.9c-2.9,0.6-5.2,4.8-5.3,10L429.6,357.7z"/>
		<path class="st4" d="M446.8,382.9c0.9-1.3,2-2.5,3.2-3.4l3.7,6c-1,0.6,0,0-1.1,0.7c-0.9,0.5-1.6,1.1-2,1.6
			c-1.2,1.5-0.9,3.1,0.6,4.3c1.4,1.2,2.9,1.8,4.6,2.3c2.3,0.4,4.6,0.2,6.8-0.6c8.9-3.4,9.3-12.8,0.8-16.7l-0.5-0.2
			c-1.6-0.8-3.6-1.2-5.8-1.3l18.9-15.6c6.3,6.3,8.4,7.6,14.9,11.5c-0.5,2-1.1,5.2-1.5,7c-5.3-3.7-11.6-9.1-13.7-11.6l-9,7.5
			c14.4,4,12.6,20.5,1.9,25.3c-3.7,1.7-8.3,2.2-12.5,1.2c-4.1-1-8.1-4-10.2-8.6C444.8,389.2,444.9,385.9,446.8,382.9z"/>
		<path class="st4" d="M505.8,439.1c-11.1,3.9-23.4-4.7-15.9-11.9c-11.4,1.2-18.8-10.4-8.6-17.6c8-5.5,18.4-8.1,25.6-0.1l9.7,11.7
			l-2.1,1.1c-8.2,4.5-13.1,6.9-19.3,10.3c-6.1,3.4,3.5,6.8,9.1,4.7L505.8,439.1z M506.3,417.5c2.8-7.1-6.7-8.4-15.6-3.7
			c-9.8,5.2-11.6,11.9,2.3,11.1L506.3,417.5z"/>
		<path class="st4" d="M522.5,467.5c-14.5,2.7-24.3-10.4-9.6-16.3c4-1.5,8-3,12-4.5c6.6-2.5-1.9-6.8-7.7-5.8l-19,7.2l-4.5-7.3
			l28.7-10.5l4.3,7l-4.3,1.6c9.6,1.7,15.4,11.5,2.6,16.4c-7.1,2.7-5.1,1.8-12,4.5c-7,2.7,2.2,7.1,8.2,5.7L522.5,467.5z"/>
		<path class="st4" d="M534.5,497.5c-12.1,0.7-21.4-11-11.9-15.9c-11.4-2.1-15.2-15.3-3.2-19.3c17.3-5.7,27.2,6.5,25.3,13
			c-0.1,0.3-0.3,0.7-0.5,1.1l14.1-2.9l3.2,7.5c-10.9,2.3-28.3,6.1-35.4,7.5c-7,1.5,1.2,7.4,7.3,6.9L534.5,497.5z M541.1,477
			c4.6-6-4.1-10-13.9-8c-11,2.1-14.6,8-1,11.3c0.3-0.1,0.7-0.2,1-0.3L541.1,477z"/>
		<path class="st4" d="M543.7,544.8c-13.3-3.2-19.2-22.6-12.6-32.9c5.8-9.2,23.2-9,32.6-4c4,2.1,6.9,5,8.7,8.2
			c2.5,4,3.1,8.2,2.1,11.8c-0.9,3-2.9,5.5-6.4,6.7c-3,1-7.2,0.9-12.2-0.9l6.7-6.3c1.6,0.6,3.2,1.5,4.9,1.1c1.9-0.4,2.6-1.9,2.2-3.7
			c-0.4-1.9-2-4.1-4.7-6.2c-7.1-5.2-21.2-7.2-27.6-1.2c-6.5,5.9-4.9,21.4,5.6,24.8L543.7,544.8z"/>
		<path class="st4" d="M566.4,561.9c2.6,0.9,7.5,1.9,7.9-2.7c0-1.7-0.6-3.6-1.8-5.3c-1.3-1.7-4-2.9-5.8-2.5s-2.1,0.5-3.4,1.7
			c-1.1,1-2.7,3.1-3.8,5.1c-1.3,2.2-2.6,4.5-4.1,6.2c-1.3,1.8-3,3.2-5.3,3.8c-18.5,4.8-24.7-27.2-10.4-30.2c4.4-0.9,9.6,0.8,12,5.2
			l-5.4,5.8c-2-4.5-5.1-6.3-7.4-5.3c-2.8,1.1-3.5,6.1-1.3,10.2c1,2.1,3,4,5.9,4.7c3.2,1,5.7-1.8,7.3-4c1.6-2.4,2.4-3.8,3.8-5.9
			c1.5-2.1,3.7-4.3,5.6-5.5c5.2-3.2,11.8-2.3,15.3,3.7c1.9,3.4,2.8,7.1,2.6,10.9c-0.3,5.4-2.7,9.9-7.2,11.7c-2.2,0.8-4.8,1-7.7,0.5
			L566.4,561.9z"/>
		<path class="st4" d="M564.3,597.4c2.5,1.3,7.1,2.9,8.2-1.5c0.3-1.7-0.1-3.7-1.1-5.5c-1-1.9-3.5-3.4-5.4-3.3
			c-1.9,0.1-2.1,0.2-3.6,1.2c-1.3,0.8-3.1,2.7-4.5,4.5c-1.6,2-3.2,4-5,5.6c-1.6,1.6-3.4,2.8-5.8,3c-19,2.1-20.6-30.4-6-31.3
			c4.5-0.2,9.4,2.2,11.2,6.9l-6.1,5c-1.3-4.8-4.1-6.9-6.5-6.3c-2.9,0.7-4.4,5.6-2.8,9.9c0.7,2.2,2.4,4.4,5.2,5.5c3,1.4,5.9-1,7.8-3
			c1.9-2.2,3-3.5,4.6-5.3c1.8-1.8,4.3-3.7,6.3-4.6c5.6-2.4,12-0.6,14.6,5.9c1.4,3.6,1.7,7.4,1,11.2c-1.1,5.3-4.1,9.4-8.8,10.6
			c-2.3,0.5-4.9,0.3-7.7-0.6L564.3,597.4z"/>
		<path class="st4" d="M530.8,606.1c2-2.4,5.1-3.9,8.6-3.5c1.5,0.2,3,0.6,4.4,1.2l-3.8,6.1c-0.9-0.6,0-0.1-1-0.7
			c-1-0.6-1.7-1-2.5-1.1c-1.8-0.4-2.9,0.6-3.4,2.5c-3.4,11.2,12,20.8,16,4.3l3.9,1.2c0.5,6.7,3.8,11.2,8.5,12.5
			c8.3,2.1,7.3-10.9-0.6-9.1c-0.5-1.7-2.1-5.9-2.9-8.2c8.2,1.7,15.3,7.3,12.6,16.9c-0.5,1.8-1.4,3.3-2.4,4.6
			c-1.1,1.2-2.2,1.9-3.6,2.5c-1.3,0.5-2.8,0.8-4.3,0.5c-5.6-0.9-8.4-5.6-10.8-9C541.1,642.6,518.7,620.5,530.8,606.1z"/>
	</g>
	<g>
		<circle id="Circle_3_" class="st3" cx="320.3" cy="570.1" r="265.4"/>
		<path class="st4" d="M152.2,738c-11.6,3.7-19.9-7.1-11.3-11.5c4.2-2.2,8.1-4.3,11.7-6.1c4.9-2.5-0.7-4.5-5.4-3.8l-16,8l-4.2-5.5
			l28.4-14c-1.4-1.5-2.6-3.6-3.7-5.9l-29.2,14.1l-4.2-5.4l30.3-14.6c-2.6-4.4-5.2-7.2-8.1-6.9c-1.9,0.2-4.6,3.1-6.6,6.4l-6.6-3.5
			c6-5.5,11-7.5,14.8-6.9c5.7,0.9,9.5,6.8,12.3,12.8c2.9,6.2,5.9,12,10.9,12.3l-14.4,7.2c7.8,0.7,12.5,7.5,2.5,12.6
			c-3.1,1.6-6.6,3.5-9.6,5.1c-5.4,2.7,2.4,5.5,7.2,3.9L152.2,738z"/>
		<path class="st4" d="M173.7,755.5c-8.8,4.4-19.8-1.4-14.4-8.1c-9.3,2.2-16.6-6.6-8.9-13.6c6-5.4,14.4-8.7,21.1-2.8l9.3,8.6
			l-1.6,1.1c-6.3,4.6-10.1,7.1-14.9,10.5c-4.7,3.4,3.6,5.2,8,2.9L173.7,755.5z M171.8,737.6c1.5-6.1-6.5-6.2-13.3-1.4
			c-7.5,5.3-8.3,11,3.1,8.9L171.8,737.6z"/>
		<path class="st4" d="M185.6,763.5c-9.7,6-23.1-0.7-12.5-9.9l10-8.7l-2.4-1.8l2.8-1.7l1.9,1.5l5-4.3l6.5,3.2l-6,5.3l3.2,2.5l-3,1.5
			l-2.5-1.9l-12.8,11.1c-4.5,3.9,3.8,4.8,8.1,2L185.6,763.5z"/>
		<path class="st4" d="M227.5,788c-8.7,7.5-21.5,2.2-14.3-6.6c2.5-3,5.1-6.2,7.9-9.6c3.8-4.4-3-3.3-6.8-0.1
			c-0.1,0.1-0.2,0.1-0.3,0.3c-1,1.2-9.4,11.7-10.2,12.7l-5.8-3.2c5-6.2,8.9-11.1,12.4-15.4c3.4-4.2-2.6-3.9-6.4-1.2
			c-0.1,0-0.1,0.1-0.2,0.1l-11.3,13.4l-6-3.3l16.4-19.5l6,3.3l-2.2,2.7c5.8-2.3,12.4,0.7,9.5,6.9c8-3.7,16.2,0.1,8.4,9.3l-2.8,3.5
			c-1.4,1.7-1.5,1.8-4.1,5c-2.6,3.1,4.4,4.1,8.1,0.8L227.5,788z"/>
		<path class="st4" d="M244.5,793.6c-6.3,5.2-10.8,5.4-16,3.1c-8.6-3.8-4.3-15,2.8-20.1c5.7-4,12.2-2.8,14,0.5
			c1.6,2.9,0.2,6.4-2.3,8.6c-3.6,3-8.1,2.9-12,1.1c-0.9,2.2-1.1,5.2,0.5,7c2.9,3.1,7.8,1.8,11.4-0.9L244.5,793.6z M231.9,784.8
			c7.2,3.2,11.6-5.3,10.8-6.7c-0.6-1.1-3-1-5.8,1c-1.6,1.1-3.2,2.8-4.8,5.2C232.1,784.4,232,784.6,231.9,784.8z"/>
		<path class="st4" d="M273.7,801.8c-5.8,7.9-18.3,7.8-16.5-0.7c-7.3,6.2-17.8,1.7-14.1-8.1c2.9-7.6,8.9-14.2,17.6-12.1l12.2,3.4
			l-0.9,1.7c-3.6,6.9-5.8,10.9-8.5,16.2c-2.6,5.2,5.6,3,8.5-1L273.7,801.8z M263.8,786.7c-1.4-6.2-8.6-2.6-12.5,4.7
			c-4.3,8.2-2.4,13.6,6.8,6.5L263.8,786.7z"/>
		<path class="st4" d="M301.6,805.5c-6.1,10.7-19.7,9.8-15.5-2.8c1.2-3.3,2.4-6.7,3.6-10.1c2-5.5-5.3-2.5-7.9,1.7l-5.7,15.9l-7-1.1
			l8.9-23.9l6.8,1.1l-1.3,3.6c6.3-5.2,15.6-3.5,11.8,7.3c-2.2,5.9-1.6,4.2-3.6,10.1c-2,5.9,5.7,2.4,8-2.1L301.6,805.5z"/>
		<path class="st4" d="M315.2,795.7c0.8-1.5,1.8-4.2-1.2-4.6c-1.1-0.3-2.6,0-3.5,0.7c-1.6,0.6-2.5,2-2.4,3c0.1,1.1,0.2,1.3,0.8,2
			c0.8,0.8,2,1.7,3.5,2.6c1.3,0.7,2.7,1.7,3.9,2.6c1.1,1,1.8,1.9,2.2,3.2c2.1,10.5-20.2,11.9-21.3,3.7c-0.3-2.4,1.4-5.1,4.4-6.2
			l3.5,3.3c-3.1,0.8-4.6,2.4-4,3.7c0.6,1.7,3.9,2.4,6.7,1.4c1.6-0.6,3-1.5,3.7-3c0.8-1.7-0.9-3.2-2.2-4.3c-1.7-1.1-2.7-1.5-3.9-2.6
			c-1.3-0.8-2.7-2.2-3.3-3.5c-2-3-1-6.6,3.5-8.1c2.4-0.9,5-1.1,7.6-0.7c3.7,0.4,6.5,2,7.6,4.6c0.4,1.2,0.4,2.8-0.1,4.3L315.2,795.7z
			"/>
		<path class="st4" d="M362.6,802.5c-3.2,11.9-16.6,14.5-15.7,1.3c0.3-3.6,0.6-7.1,0.9-10.6c0.5-5.8-5.8-1.1-7.2,3.7l-1.5,16.8
			l-7.1,0.7l2.5-25.4l6.8-0.7l-0.4,3.8c4.8-6.6,14.2-7.4,13.3,4.1c-0.6,6.3-0.5,4.5-0.9,10.6c-0.5,6.2,6.1,0.9,7.2-4.1L362.6,802.5z
			"/>
		<path class="st4" d="M384.2,787.8c-1.6,2.2-3.2,4-5,5.3c1,11.4-7.2,17.7-13.4,16.8c-4.9-0.7-7.5-4.5-7.9-9.1
			c-0.5-4.9,1.3-10.4,5.3-14c4-3.6,10.7-5.3,14.3-0.2c0.6,0.8,1.1,2,1.4,3.3c1.8-0.9,3.6-2.2,4.9-3.7L384.2,787.8z M373.6,795.3
			c-1.6,0-3.2-0.3-5.2-1.2l1.8-4c0.8,0.4,1.6,0.7,2.4,0.9c-1.6-3.4-5.3-6-7.3-1.5c-1.7,4-1.6,15.2,3.3,16.7c2.6,0.9,5.5-2.3,5-10.6
			C373.6,795.4,373.6,795.3,373.6,795.3z"/>
		<path class="st4" d="M407.8,757.9l5.8,34c0.4,1.9,0.3,3.8,0.3,5.5c-0.2,3.3-1.2,6.1-2.6,8.2c-4.3,6.1-12.6,7.2-17,1.8
			c1.2-1.8,2.7-4.3,3.6-5.6c3.2,5.9,9.9,6.1,9.8-2.3c0-0.7-0.1-1.6-0.2-2.4l-5.3-32.5c-2.9,1.4-5.8,3.2-7.2,5.4
			c-1.3,2.1,0.2,6,3.5,8.6l-5.3,5.3c-3.4-6.3-3.5-11.6-1.3-15.3C394.7,763.6,401,760.4,407.8,757.9z"/>
		<path class="st4" d="M443.4,759.6c0.6,1.8,1.2,3.5,1.6,5.5c0.3,1.9,0.4,3.9,0.3,5.8c0,1.8-0.1,3.5-0.7,5.2c2.6,0.9,5.3,2.2,8,3.4
			c-1.4,2.3-2.5,4.3-3.8,6.5c-2.1-1.6-4.4-3.4-6.7-4.9c-0.2,0.1-0.2,0.2-0.3,0.3c-1.2,1.5-2.7,2.8-4.5,3.8c-1.2,0.6-2.4,1.2-3.6,1.3
			c-1.1,0.3-2.2,0.2-3.4-0.2c-1.2-0.3-2.2-0.8-3.2-1.7c-1.1-0.9-2.1-2.1-2.9-3.7c-0.7-1.2-1.4-2.5-1.9-4c-2.4-6.4-2.6-12.2-2.2-18.4
			l6.6-4.6c-0.9,8-0.3,13.7,1.3,18.3c2.7,8.4,8,10.9,10.1,6.4c-2.1-1.1-4.1-1.5-5.3-0.5l0.1-1.8c1.6-1.6,3.7-2,6-1.8
			c0.2-1.1,0.2-2.2,0-3.5c-0.1-2.3-0.7-4.8-1.5-7.4c-0.8-2.7-1.9-5.2-3.2-7.4c-3.8-6.5-10.1-5.2-14.2-1.6c-5,4.4-6.9,12.4-1.7,15.4
			l-4.5,6.2c-6.4-8.7-2.5-18,4.1-23.6c7.2-6,18-7.3,23.4,2.1C442,756.3,442.7,757.9,443.4,759.6z"/>
		<path class="st4" d="M471.5,751.5c2.7,9.3-3.9,18.2-9.5,12.4c-0.5,8.4-7.8,13.9-12.9,3.4l-6.8-14.9l5.5-4c3.5,7.5,6,13.1,8.4,18.2
			c2.4,5,4.4-0.5,3.8-5.2c-0.2-0.5-0.5-1-7.6-16.3l5.4-3.9c3.6,7.5,6,12.8,8.5,18.1c2.5,5.3,5.1-1.9,3.5-6.6L471.5,751.5z"/>
		<path class="st4" d="M484.6,739.4c1.8,8-0.1,12.1-4.5,15.7c-7.3,6-15.3-3-16.6-11.6c-1-6.9,3.1-12.1,6.8-12.2
			c3.3-0.1,5.8,2.7,6.6,5.9c1,4.6-1.1,8.5-4.5,11.2c1.6,1.8,4.1,3.3,6.4,2.7c4.1-1.2,5.2-6.1,4.4-10.6L484.6,739.4z M471,746.6
			c6.1-5,0.6-12.8-1-12.7c-1.2,0.1-2.3,2.2-1.8,5.6c0.3,1.9,1.1,4.2,2.5,6.7C470.8,746.3,470.9,746.5,471,746.6z"/>
		<path class="st4" d="M488.8,713.5l-0.5,6c-4.9,0.9-4.7,6.2-3.5,10.9l8.4,12.1l-4.9,5.1l-14.5-21l4.8-4.9l3.2,4.5
			C480.2,720.3,481.4,715.5,488.8,713.5z"/>
		<path class="st4" d="M500.6,695.5l12.2,14.5c7.9,9.1,13.9,18.1,1.3,27.2l-0.8-6.7c1.6-0.3,5.9-2.2,4.1-4.3l-6.9-8.2
			c1.1,8-5.1,15-12.4,6.3l-10.5-12.3l4.4-5.6c5.1,6,9.2,11,12.9,15.2c3.6,4.2,4.7-2.4,2.9-6.9L496.2,701L500.6,695.5z"/>
		<path class="st4" d="M501.5,674.8l17.3,18.6L516,698l-17-16.2L501.5,674.8z M521.2,696.3c1.1-0.2,2,0.1,2.9,0.7s1.5,1.5,1.7,2.6
			c0.2,1.1,0.1,2.1-0.5,3c-0.6,1-1.4,1.5-2.5,1.8c-1.1,0.2-2-0.1-2.9-0.7s-1.5-1.5-1.7-2.6c-0.1-1.1,0-2.1,0.6-3.1
			S520.2,696.6,521.2,696.3z"/>
	</g>
	<g>
		<g id="XMLID_1_">
			<circle class="st4" cx="320.3" cy="565.1" r="106"/>
			<circle class="st1" cx="320.3" cy="565.1" r="106"/>
		</g>
	</g>
	<g>
		<circle id="Circle_2_" class="st3" cx="320.3" cy="565.1" r="174.1"/>
		<path class="st4" d="M182.3,521.2c8,5.7,6.7,20.2-0.5,25.2c-6.3,4.6-17.8-0.2-22.8-6.1c-2.1-2.5-3.3-5.2-3.6-7.8
			c-0.6-3.3,0.1-6.3,1.7-8.4c1.4-1.8,3.4-2.9,6-2.7c2.3,0.2,5,1.3,7.9,3.9l-6.1,2.4c-0.9-0.8-1.8-1.9-3-2c-1.4-0.2-2.2,0.6-2.4,1.9
			c-0.3,1.4,0.2,3.2,1.4,5.3c3.3,5.4,12.2,10.5,18,8.2c5.9-2.2,9-12.9,2.9-18L182.3,521.2z"/>
		<path class="st4" d="M190,502.2c8.1,6.6,4,17.7-3.1,13.6c-3.6-2.1-6.7-3.9-9.7-5.6c-4.1-2.4-3,2.5-0.2,5.6l13.2,7.9l-2,5.5
			l-26.2-15.9l1.9-5.4l10,6c-3-6-0.2-12.6,8-7.8c2.7,1.5,5.5,3.1,8,4.6c4.6,2.6,3-4.4-0.4-7.1L190,502.2z"/>
		<path class="st4" d="M197.3,489.5c4,5.8,3.8,9.7,1.5,14c-3.9,7.1-13.1,2.6-17-3.9c-3-5.2-1.4-10.7,1.5-11.9
			c2.6-1.1,5.5,0.3,7.2,2.6c2.3,3.3,1.8,7.2,0,10.4c1.9,0.9,4.4,1.3,6,0.1c2.9-2.2,2.2-6.5,0.1-9.8L197.3,489.5z M188.8,499.7
			c3.3-6-3.6-10.4-4.9-9.8c-1,0.5-1.1,2.5,0.4,5c0.8,1.4,2.2,3,4.1,4.5C188.5,499.5,188.7,499.6,188.8,499.7z"/>
		<path class="st4" d="M206.7,476.1c2.3,4.6,2.7,9.4,0.2,13.5c-3.2,5.3-9.1,3.7-13.3-0.6c-3-3-5.3-7.2-4.4-11.3
			c0.5-2.4,1.9-4.2,3.7-4.8c2.6-0.9,5.7,0.7,7,3.1c0.2,0.4,0.4,0.7,0.5,1.1l-4-0.3c-1-1.9-2.2-2.5-2.8-2.3c-0.6,0.2-1,1.1-0.9,2.2
			c0.1,3,2.3,6,4.4,7.9c3.3,3,6.1,3.5,7.8,2.3c2.7-1.9,2-6.2,0.9-9.4L206.7,476.1z"/>
		<path class="st4" d="M222.4,469.6l-4,4.6l-8.7-1.2l4.8,5.8l-3.9,4.6l-19-24.1l3.8-4.4c3.5,4.2,6,7.6,9.4,11.9
			c-0.6-2.4-1.1-5.6-0.7-8c1.1-7.1,10.5-1.5,7.1,9.2L222.4,469.6z M205.6,460.4c-0.5,2.2,0.8,6.8,1.3,9.2l1.3,1.7
			c0.2-0.5,0.3-0.9,0.4-1.3C210.8,462.9,206.4,456.6,205.6,460.4z"/>
		<path class="st4" d="M237.9,436.8c-0.4,2.3-1,4.3-1.9,5.9c5.1,8.5,1.1,16.4-4.1,18c-4.1,1.3-7.5-0.7-9.6-4.1
			c-2.2-3.6-2.9-8.5-1.2-12.8c1.7-4.3,6.3-8.2,11-5.5c0.8,0.4,1.6,1.1,2.3,2c1.1-1.4,1.9-3.1,2.4-4.7L237.9,436.8z M232.4,446.5
			c-1.2,0.6-2.6,1-4.5,1l-0.1-3.8c0.8,0.1,1.5,0,2.2-0.2c-2.5-2.1-6.4-2.6-6.2,1.5c0.2,3.8,4.5,12.4,8.8,11.7
			c2.4-0.3,3.4-3.8-0.1-10.1C232.5,446.6,232.5,446.6,232.4,446.5z"/>
		<path class="st4" d="M261.2,433.1c1.5,8.2-5,15.2-9.3,9.8c-1.2,7.2-8,11.2-11.3,1.7l-4.5-13.3l5.1-2.9c2.3,6.7,3.9,11.7,5.6,16.3
			c1.6,4.5,3.9,0,3.7-4.1c-0.1-0.4-0.3-0.9-5.1-14.6l5-2.9c2.4,6.7,4,11.4,5.7,16.2c1.7,4.8,4.5-1.1,3.6-5.3L261.2,433.1z"/>
		<path class="st4" d="M271.5,429.3c0.5,9.8-10.1,17.1-12.6,5.3l-2.4-11.2l-2.4,1l-0.1-2.8l1.9-0.8l-1.2-5.6l5.1-3.5l1.5,6.8
			l3.2-1.4l-0.1,2.9L262,421l3.1,14.2c1.1,5,5.2-0.9,4.9-5.3L271.5,429.3z"/>
		<path class="st4" d="M291.3,423.7c-0.9,9.8-12.5,15.5-13.3,3.4l-0.7-11.4l-2.5,0.7l0.3-2.8l2-0.5l-0.4-5.7l5.6-2.8l0.5,6.9
			l3.4-0.9l-0.5,2.9l-2.6,0.7l1,14.5c0.4,5.1,5.3-0.1,5.6-4.6L291.3,423.7z"/>
		<path class="st4" d="M313.2,420.6c-2,10.3-13.6,12-13.4,3.8c0.1-4.1,0.2-7.8,0.3-11.2c0.2-4.7-3.7-1.4-5,2.5l-0.7,15.4l-5.8,0.9
			l1.5-30.6l5.7-0.9l-0.5,11.7c3.8-5.5,11-6.2,10.6,3.3c-0.1,3.1-0.1,6.3-0.2,9.3c-0.1,5.2,5.3,0.5,6-3.7L313.2,420.6z"/>
		<path class="st4" d="M327.9,421c-3.2,6.3-6.7,8-11.6,8c-8.1,0-8.5-10.3-4.7-16.8c3.1-5.2,8.7-6.4,11.2-4.4c2.2,1.7,2.4,5,1.1,7.5
			c-1.8,3.6-5.4,5-9.1,5c0.1,2.1,0.9,4.4,2.8,5.3c3.4,1.5,6.8-1.2,8.7-4.6L327.9,421z M314.9,418.3c6.8,0,7.4-8.2,6.3-9
			c-0.9-0.6-2.7,0.2-4.2,2.7c-0.9,1.4-1.6,3.4-2,5.8C315,418,314.9,418.2,314.9,418.3z"/>
		<path class="st4" d="M349.4,415.4c0.8-1.2,1.9-3.4-0.6-4c-0.9-0.3-2.2-0.2-3.1,0.3c-1.4,0.3-2.3,1.5-2.3,2.3c0,1,0.1,1.1,0.6,1.8
			c0.6,0.7,1.6,1.6,2.7,2.5c1,0.7,2.2,1.7,3.1,2.6c0.8,0.9,1.4,1.8,1.6,2.9c0.8,9.2-18.3,8.4-18.5,1.3c0-2.1,1.6-4.2,4.3-4.9
			l2.7,3.2c-2.8,0.4-4.2,1.6-3.8,2.9c0.3,1.5,3.1,2.4,5.6,1.8c1.5-0.4,2.7-1.1,3.4-2.3c0.9-1.3-0.5-2.8-1.5-3.9
			c-1.4-1.1-2.2-1.6-3.1-2.5c-1-0.8-2.1-2.2-2.5-3.3c-1.4-2.7-0.2-5.7,3.7-6.7c2.1-0.6,4.4-0.5,6.6,0.1c3.2,0.7,5.4,2.3,6.1,4.6
			c0.3,1.1,0.1,2.4-0.5,3.7L349.4,415.4z"/>
		<path class="st4" d="M377.9,423.8c-2.1,1-4.1,1.6-5.9,1.9c-4,9-12.8,10.3-17.1,7c-3.4-2.6-3.7-6.5-2.2-10.2
			c1.7-3.9,5.3-7.3,9.8-8.3c4.5-1.1,10.3,0.5,10.8,5.8c0.1,0.9,0,1.9-0.3,3c1.8,0.1,3.6-0.2,5.2-0.7L377.9,423.8z M366.8,425
			c-1.2-0.6-2.3-1.6-3.4-3.1l3-2.3c0.4,0.7,0.9,1.2,1.4,1.6c0.3-3.2-1.5-6.7-4.8-4.2c-3,2.3-7.5,10.8-4.5,14
			c1.6,1.8,5.1,0.6,8.2-5.9C366.7,425.1,366.7,425.1,366.8,425z"/>
		<path class="st4" d="M394.3,440.8c-5.8,5.9-15.3,4.6-13.3-2c-6.5,3.2-13.7-0.1-7.9-8.3l8.4-11.3l5.3,2.5
			c-4.2,5.8-7.3,10-10.1,13.9c-2.8,3.9,2.2,3.1,5.5,0.7c0.3-0.4,0.5-0.7,9.1-12.6l5.2,2.4c-4.1,5.8-7.1,9.8-10,14
			c-2.9,4.1,3.5,3,6.5-0.1L394.3,440.8z"/>
		<path class="st4" d="M415.4,440.2l-5.2,0.6c-1.5-4-6-3-9.8-1.2l-8.8,9.1l-5.1-3.3l15.3-15.7l4.9,3.2l-3.3,3.4
			C408.3,434.1,412.5,434.3,415.4,440.2z"/>
		<path class="st4" d="M420.7,461.5c-4.8,1.8-9.7,1.7-13.4-1.2c-5-3.8-2.7-9.4,2-13.2c3.3-2.7,7.7-4.5,11.7-3.2
			c2.4,0.7,4,2.3,4.4,4.2c0.6,2.7-1.3,5.6-3.8,6.6c-0.4,0.2-0.7,0.3-1.1,0.4l0.7-3.9c2-0.8,2.8-2,2.6-2.6c-0.2-0.6-1-1.1-2.1-1.1
			c-3-0.2-6.2,1.7-8.3,3.5c-3.3,3-4.1,5.7-3.1,7.6c1.6,2.9,6,2.6,9.3,1.9L420.7,461.5z"/>
		<path class="st4" d="M432.1,473.9c-6.8,1.9-10.4,0.4-13.7-3.2c-5.4-6,1.9-13.3,9.3-14.8c5.9-1.2,10.6,2.1,10.8,5.3
			c0.2,2.8-2.1,5.1-4.8,5.9c-3.9,1.1-7.4-0.6-9.8-3.4c-1.5,1.5-2.7,3.7-2,5.6c1.2,3.5,5.4,4.2,9.3,3.3L432.1,473.9z M425.3,462.5
			c4.5,5.1,11,0,10.9-1.4c-0.1-1.1-2-1.9-4.9-1.3c-1.6,0.3-3.6,1.1-5.6,2.4C425.6,462.3,425.4,462.4,425.3,462.5z"/>
		<path class="st4" d="M445.8,493.9c-5.1,0.4-9.8-1.1-12.6-4.9c-3.7-5,0.1-9.8,5.6-12.1c3.9-1.6,8.7-2.1,12.2,0.2
			c2.1,1.4,3.2,3.3,3,5.2c-0.2,2.8-2.8,5-5.5,5.3c-0.4,0.1-0.8,0.1-1.2,0.1l1.8-3.6c2.1-0.2,3.2-1.1,3.2-1.7c0-0.6-0.6-1.3-1.7-1.7
			c-2.8-1-6.5-0.1-9,1.1c-4,1.9-5.5,4.3-5.1,6.4c0.7,3.2,5,4.2,8.4,4.4L445.8,493.9z"/>
		<path class="st4" d="M462.8,510.7c-2.1-0.9-4-1.9-5.4-3c-9.3,3.2-16.3-2.3-16.8-7.7c-0.5-4.2,2.2-7.2,6-8.5
			c4-1.4,8.9-1.1,12.8,1.5c3.9,2.6,6.7,7.8,3.1,11.9c-0.6,0.7-1.4,1.3-2.5,1.8c1.1,1.4,2.6,2.5,4.1,3.3L462.8,510.7z M454.4,503.4
			c-0.4-1.3-0.4-2.8-0.1-4.6l3.7,0.7c-0.2,0.7-0.3,1.5-0.2,2.2c2.6-2,3.9-5.7-0.2-6.4c-3.7-0.6-13,1.9-13.3,6.3
			c-0.2,2.4,3,4.1,9.9,2C454.3,503.5,454.3,503.4,454.4,503.4z"/>
		<path class="st4" d="M462.5,537c-8.6-0.4-14.4-9.4-7.4-12.2c-7.9-2.3-9.7-12-0.9-14c12.8-2.8,18.9,6.6,17.1,11.1
			c-0.1,0.2-0.3,0.4-0.4,0.7l10.3-1.1l1.8,5.6c-8,0.9-20.6,2.3-25.8,2.8c-5.1,0.6,0.3,5.4,4.7,5.5L462.5,537z M468.7,522.8
			c3.7-3.9-2.2-7.4-9.3-6.7c-8,0.7-11,4.7-1.5,8c0.2-0.1,0.5-0.1,0.7-0.1L468.7,522.8z"/>
		<path class="st4" d="M464,551.7c-6.7-2.3-8.8-5.5-9.5-10.3c-1.1-8.1,9-9.9,15.9-7.1c5.6,2.4,7.6,7.7,5.9,10.4
			c-1.4,2.5-4.6,3.1-7.3,2.2c-3.8-1.3-5.8-4.6-6.3-8.3c-2,0.4-4.3,1.6-4.8,3.5c-1,3.5,2.2,6.5,5.8,7.9L464,551.7z M464.8,538.5
			c0.9,6.7,9.1,6.1,9.8,4.9c0.5-1-0.6-2.7-3.3-3.8c-1.5-0.7-3.5-1.1-6-1.1C465.1,538.5,464.9,538.5,464.8,538.5z"/>
	</g>
	<line class="st5" x1="132" y1="565.1" x2="214.3" y2="565.1"/>
	<g>
		<circle id="Circle_1_" class="st3" cx="320.3" cy="565.1" r="185"/>
		<path class="st4" d="M267.2,713.4c-3.9-0.6-7.3-2.7-8.9-6.2c-2.4-5.8,1.3-14.1,5.3-17.7c2.4-2.1,5.3-3.2,8.1-3.5
			c3.3-0.4,6.7,0.2,9.4,1.6s4.6,3.4,5.3,5.9c0.6,2.6-0.3,5.4-3.7,8.3l-3.6-5.2c1.4-1,3.7-3.3,2.7-5.1c-0.7-1.3-2.7-2.1-5-1.8
			c-1.3,0.2-3,0.6-4.6,1.5c-4.3,2.5-8,8.8-8.2,13.8c0,2.2,0.9,3.9,2.4,4.9c1.8,1.1,4.3,1.2,7.2,0.4c0.5-0.8,1.3-2.1,2.7-4.3
			c1.5,0.3,5.5,1,6.8,1.2l-7.9,12.8c-1.8,2.9-3.1,5.2-6,7.2c-1,0.7-2.3,1.3-3.4,1.6c-2.5,0.7-5,0.5-7.3-0.4
			c-1.7-0.7-3.3-1.8-4.4-3.4c-1.2-1.5-1.9-3.5-2-5.6c2-0.6,4.5-1.5,5.9-2c-0.3,1.4-0.1,2.8,0.1,3.9c0.4,1.3,1,2.4,1.8,3
			c1.2,1,3,1.1,4.7-0.3c0.7-0.5,1.3-1.1,2-2.1c1.9-2.5,3.8-5.7,5.3-8.4C270.3,713.7,268.7,713.6,267.2,713.4z"/>
		<path class="st4" d="M297.5,719.9c-5.9,9.3-20.7,9-15.2-3.6l6.3-14.2l6.5,1.4c-3.2,7.6-5.3,12.2-7.6,17.5
			c-2.3,5.4,5.6,2.7,8.2-1.5L297.5,719.9z M290.9,698.8c-0.5-0.8-0.6-1.8-0.4-2.8c0.3-1,0.8-1.8,1.6-2.4c0.9-0.5,1.8-0.7,2.9-0.5
			c1.1,0.2,1.8,0.8,2.3,1.6c0.6,0.9,0.8,1.8,0.6,2.9c-0.2,1.1-0.8,1.8-1.7,2.4c-0.9,0.5-1.9,0.7-2.9,0.5S291.4,699.6,290.9,698.8z"
			/>
		<path class="st4" d="M310.5,721.3c-5.1,9.7-19.5,10.6-15.2-2.1l4.1-12.1l-2.9-0.4l1.6-2.8l2.3,0.3l2.1-6l6.9-0.5l-2.4,7.3l3.9,0.5
			l-1.8,2.7l-3-0.4l-5.2,15.4c-1.8,5.4,5.5,2.2,7.7-2.3L310.5,721.3z"/>
		<path class="st4" d="M347,692.7l-6,36.3l-6.6,0.2l3.1-18.3l-9.3,0.4l-3,18.3l-6.7,0.3l5.4-32.3c-3.3,0.5-6.5,1.1-8.6,3
			c-1.6,1.5-1.2,5.3,0.8,8.6l-6.4,3.2c-1.1-6.6,0.2-10.9,3-13.7c3.9-4.1,10.9-5.2,18.3-5.5l-2.3,13.9l9.4-0.4l2.3-13.8L347,692.7z"
			/>
		<path class="st4" d="M372.9,713.2c-0.9,9.2-10,14.7-13,7.6c-3.5,7.3-12,9.5-12.7-1.7l-0.7-15.7l6.3-1.5c0.4,8,0.6,13.8,0.9,19.2
			c0.3,5.4,4.1,1.2,5.2-3.2c0-0.5-0.1-1-0.9-17.3l6.2-1.5c0.5,7.9,0.7,13.5,1.1,19.2c0.3,5.6,5.2,0.2,5.5-4.6L372.9,713.2z"/>
		<path class="st4" d="M388.4,703.9c1,9.7-2.8,12.3-8.5,14.7c-1.5,0.6-3,1.2-4.7,1.9c-0.6,0.2-2,0.8-2.6,1.1l-6.5-33.6l5.9-2.4
			l2,10.2c0.9-0.9,1.8-1.7,3-2.2c2-0.8,3.7-0.8,5.1-0.4c1.3,0.4,2.4,1.3,3.4,2.4C387.2,697.7,388.2,700.7,388.4,703.9z M380,698
			c-1.5-1.4-3.5-1.7-5.3,0.4l3.2,16.6c6.9,1.9,6.2-7.5,4.9-12C382.1,700.9,381,699,380,698z"/>
	</g>
	<g>
		<g>
			<path class="st6" d="M426.3,565.1h82.3H426.3z"/>
			<path class="st6" d="M425.9,574.4l82,7.2L425.9,574.4z"/>
			<path class="st6" d="M424.7,583.6l81.1,14.3L424.7,583.6z"/>
			<path class="st6" d="M422.7,592.6l79.5,21.3L422.7,592.6z"/>
			<path class="st6" d="M419.9,601.5l77.3,28.2L419.9,601.5z"/>
			<path class="st6" d="M416.4,610l74.6,34.8L416.4,610z"/>
			<path class="st6" d="M412.1,618.3l71.3,41.2L412.1,618.3z"/>
			<path class="st6" d="M407.1,626.1l67.4,47.2L407.1,626.1z"/>
			<path class="st6" d="M401.4,633.5l63.1,52.9L401.4,633.5z"/>
			<path class="st6" d="M395.2,640.3l58.2,58.2L395.2,640.3z"/>
			<path class="st6" d="M388.3,646.6l52.9,63.1L388.3,646.6z"/>
			<path class="st6" d="M381,652.2l47.2,67.4L381,652.2z"/>
		</g>
		<g>
			<path class="st6" d="M214.3,565.1H132H214.3z"/>
			<path class="st6" d="M214.7,574.4l-82,7.2L214.7,574.4z"/>
			<path class="st6" d="M215.9,583.6l-81.1,14.3L215.9,583.6z"/>
			<path class="st6" d="M217.9,592.6l-79.5,21.3L217.9,592.6z"/>
			<path class="st6" d="M220.7,601.5l-77.3,28.2L220.7,601.5z"/>
			<path class="st6" d="M224.2,610l-74.6,34.8L224.2,610z"/>
			<path class="st6" d="M228.5,618.3l-71.3,41.2L228.5,618.3z"/>
			<path class="st6" d="M233.5,626.1l-67.4,47.2L233.5,626.1z"/>
			<path class="st6" d="M239.2,633.5l-63.1,52.9L239.2,633.5z"/>
			<path class="st6" d="M245.4,640.3l-58.2,58.2L245.4,640.3z"/>
			<path class="st6" d="M252.3,646.6l-52.9,63.1L252.3,646.6z"/>
			<path class="st6" d="M259.6,652.2l-47.2,67.4L259.6,652.2z"/>
		</g>
	</g>
</g>
</svg>
