<?xml version="1.0" encoding="utf-8"?>
<!-- Generator: Adobe Illustrator 19.0.0, SVG Export Plug-In . SVG Version: 6.00 Build 0)  -->
<svg version="1.1" id="Layer_1" xmlns="http://www.w3.org/2000/svg" xmlns:xlink="http://www.w3.org/1999/xlink" x="0px" y="0px"
	 viewBox="72.4 393.5 135 135" style="enable-background:new 72.4 393.5 135 135;" xml:space="preserve">
<style type="text/css">
	.st0{fill:#FFFFFF;}
</style>
<g>
	<circle class="st0" cx="139.9" cy="461" r="65"/>
	<path d="M139.9,406.6c-30,0-54.4,24.4-54.4,54.4c0,30,24.4,54.4,54.4,54.4c30,0,54.4-24.4,54.4-54.4
		C194.3,430.9,170,406.6,139.9,406.6z M156,438.6h-7.6c-2.7,0-3.2,1.1-3.2,3.9v6.7H156l-1,11.8h-9.8v35.2h-14v-35h-7.3v-11.9h7.3
		v-9.4c0-8.8,4.7-13.4,15.2-13.4h9.7V438.6z"/>
</g>
</svg>
