<?xml version="1.0" encoding="utf-8"?>
<!-- Generator: Adobe Illustrator 19.0.0, SVG Export Plug-In . SVG Version: 6.00 Build 0)  -->
<svg version="1.1" id="Layer_1" xmlns="http://www.w3.org/2000/svg" xmlns:xlink="http://www.w3.org/1999/xlink" x="0px" y="0px"
	 viewBox="0 0 135 135" style="enable-background:new 0 0 135 135;" xml:space="preserve">
<style type="text/css">
	.st0{fill:#FFFFFF;}
	.st1{fill:#F5D615;}
</style>
<g>
	<circle class="st0" cx="67.5" cy="67.5" r="65"/>
	<path class="st1" d="M67.5,13.1c-30,0-54.4,24.4-54.4,54.4c0,30,24.4,54.4,54.4,54.4c30,0,54.4-24.4,54.4-54.4
		C121.9,37.5,97.5,13.1,67.5,13.1z M83.6,45.1H76c-2.7,0-3.2,1.1-3.2,3.9v6.7h10.8l-1,11.8h-9.8v35.2h-14v-35h-7.3V55.7h7.3v-9.4
		c0-8.8,4.7-13.4,15.2-13.4h9.7V45.1z"/>
</g>
<g id="XMLID_14_">
</g>
<g id="XMLID_15_">
</g>
<g id="XMLID_16_">
</g>
<g id="XMLID_17_">
</g>
<g id="XMLID_18_">
</g>
<g id="XMLID_19_">
</g>
</svg>
