<?xml version="1.0" encoding="utf-8"?>
<!-- Generator: Adobe Illustrator 19.0.0, SVG Export Plug-In . SVG Version: 6.00 Build 0)  -->
<svg version="1.1"
	 id="Icon" xmlns:rdf="http://www.w3.org/1999/02/22-rdf-syntax-ns#" xmlns:inkscape="http://www.inkscape.org/namespaces/inkscape" xmlns:sodipodi="http://sodipodi.sourceforge.net/DTD/sodipodi-0.dtd" xmlns:cc="http://creativecommons.org/ns#" xmlns:svg="http://www.w3.org/2000/svg" xmlns:dc="http://purl.org/dc/elements/1.1/" sodipodi:docname="google2.svg" inkscape:version="0.48.3.1 r9886"
	 xmlns="http://www.w3.org/2000/svg" xmlns:xlink="http://www.w3.org/1999/xlink" x="0px" y="0px" viewBox="-213 305.3 183.8 182.7"
	 style="enable-background:new -213 305.3 183.8 182.7;" xml:space="preserve">
<style type="text/css">
	.st0{fill:#3636DD;}
</style>
<path id="Background" d="M-178.5,305.3c-9,0-18,3.7-24.4,10.1l0,0c-6.4,6.4-10.1,15.3-10.1,24.4l0,0v113.8c0,9,3.7,18,10.1,24.4l0,0
	c6.4,6.4,15.3,10.1,24.4,10.1l0,0h114.9c9,0,18-3.7,24.4-10.1l0,0c6.4-6.4,10.1-15.3,10.1-24.4l0,0V339.8c0-9-3.7-18-10.1-24.4l0,0
	c-6.4-6.4-15.3-10.1-24.4-10.1l0,0H-178.5z"/>
<path id="Facebook" inkscape:connector-curvature="0" class="st0" d="M-121.1,316.7c-44.2,0-80,35.8-80,80c0,44.2,35.8,80,80,80
	c44.2,0,80-35.8,80-80C-41.1,352.5-76.9,316.7-121.1,316.7z M-97.4,363.7h-11.2c-3.9,0-4.8,1.6-4.8,5.7v9.9h16l-1.5,17.3h-14.4v51.7
	h-20.7v-51.5h-10.7v-17.5h10.7v-13.8c0-13,6.9-19.7,22.3-19.7h14.3L-97.4,363.7z"/>
</svg>
