<?xml version="1.0" encoding="utf-8"?>
<!-- Generator: Adobe Illustrator 19.0.0, SVG Export Plug-In . SVG Version: 6.00 Build 0)  -->
<svg version="1.1" id="Layer_1" xmlns="http://www.w3.org/2000/svg" xmlns:xlink="http://www.w3.org/1999/xlink" x="0px" y="0px"
	 viewBox="0 0 217.1 217.1" style="enable-background:new 0 0 217.1 217.1;" xml:space="preserve" width="1" height="1">
<style type="text/css">
	.st0{fill:#D3A3CB;}
	.st1{fill:none;stroke:#FFFFFF;stroke-width:5;}
	.st2{fill:#FFFFFF;}
</style>
<g>
	<g id="XMLID_1_">
		<circle id="XMLID_25_" class="st0" cx="108.5" cy="108.5" r="106"/>
		<circle id="XMLID_24_" cx="108.5" cy="108.5" r="106"/>
		<circle id="XMLID_23_" class="st1" cx="108.5" cy="108.5" r="106"/>
	</g>
	<path class="st2" d="M85,180.4c0-2.2-0.1-8.1-0.1-16c-26,5.7-31.4-12.6-31.4-12.6C49.1,141,43,138.2,43,138.2
		c-8.5-5.8,0.6-5.7,0.6-5.7c9.4,0.7,14.3,9.7,14.3,9.7c8.3,14.3,21.9,10.2,27.2,7.8c0.8-6.1,3.3-10.2,5.9-12.5
		C70.3,135,48.5,127,48.5,91c0-10.2,3.6-18.6,9.6-25.2c-1-2.4-4.2-11.9,0.9-24.8c0,0,7.8-2.5,25.7,9.6c7.4-2.1,15.4-3.1,23.4-3.2
		c7.9,0,15.9,1.1,23.4,3.2c17.8-12.1,25.6-9.6,25.6-9.6c5.1,12.9,1.9,22.5,0.9,24.8c6,6.6,9.6,14.9,9.6,25.2c0,36-21.8,44-42.6,46.3
		c3.4,2.9,6.3,8.6,6.3,17.4c0,12.5-0.1,22.7-0.1,25.7C131.2,182.9,85,182.9,85,180.4z"/>
</g>
<g id="XMLID_9_">
</g>
<g id="XMLID_10_">
</g>
<g id="XMLID_11_">
</g>
<g id="XMLID_12_">
</g>
<g id="XMLID_19_">
</g>
<g id="XMLID_20_">
</g>
</svg>
