<?xml version="1.0" encoding="utf-8"?>
<!-- Generator: Adobe Illustrator 19.0.0, SVG Export Plug-In . SVG Version: 6.00 Build 0)  -->
<svg version="1.1" id="Layer_1" xmlns="http://www.w3.org/2000/svg" xmlns:xlink="http://www.w3.org/1999/xlink" x="0px" y="0px"
	 viewBox="208.9 453.5 222.9 223.1" style="enable-background:new 208.9 453.5 222.9 223.1;" xml:space="preserve" width="1" height="1">
<style type="text/css">
	.st0{fill:#FFFFFF;stroke:#FFFFFF;stroke-width:5;}
	.st1{fill:#DD9300;stroke:#DD9300;stroke-width:5;}
</style>
<g id="XMLID_2_">
	<ellipse id="XMLID_5_" class="st0" cx="320.3" cy="565.1" rx="108.9" ry="109.1"/>
	<path id="XMLID_4_" class="st1" d="M297.3,635.1c0-2.2-0.1-7.9-0.1-15.5c-25.3,5.5-30.6-12.2-30.6-12.2
		c-4.1-10.5-10.1-13.4-10.1-13.4c-8.3-5.7,0.6-5.6,0.6-5.6c9.1,0.7,13.9,9.4,13.9,9.4c8.1,14,21.3,9.9,26.5,7.6
		c0.8-5.9,3.2-9.9,5.8-12.2c-20.2-2.3-41.4-10.1-41.4-45.2c0-10,3.5-18.1,9.4-24.5c-0.9-2.3-4.1-11.6,0.9-24.2c0,0,7.6-2.5,25,9.4
		c7.2-2,15-3,22.8-3.1c7.7,0,15.5,1,22.8,3.1c17.4-11.8,25-9.4,25-9.4c5,12.6,1.8,21.9,0.9,24.2c5.8,6.4,9.3,14.5,9.3,24.5
		c0,35.1-21.3,42.8-41.5,45.1c3.3,2.8,6.2,8.4,6.2,16.9c0,12.2-0.1,22.1-0.1,25.1C342.4,637.5,297.3,637.5,297.3,635.1z"/>
</g>
</svg>
