<?xml version="1.0" encoding="utf-8"?>
<!-- Generator: Adobe Illustrator 19.0.0, SVG Export Plug-In . SVG Version: 6.00 Build 0)  -->
<svg version="1.1"
	 id="Icon" xmlns:rdf="http://www.w3.org/1999/02/22-rdf-syntax-ns#" xmlns:inkscape="http://www.inkscape.org/namespaces/inkscape" xmlns:sodipodi="http://sodipodi.sourceforge.net/DTD/sodipodi-0.dtd" xmlns:cc="http://creativecommons.org/ns#" xmlns:svg="http://www.w3.org/2000/svg" xmlns:dc="http://purl.org/dc/elements/1.1/" sodipodi:docname="google2.svg" inkscape:version="0.48.3.1 r9886"
	 xmlns="http://www.w3.org/2000/svg" xmlns:xlink="http://www.w3.org/1999/xlink" x="0px" y="0px" viewBox="-213 305.3 183.8 182.7"
	 style="enable-background:new -213 305.3 183.8 182.7;" xml:space="preserve">
<style type="text/css">
	.st0{fill:#3636DD;}
</style>
<path id="Background" d="M-178.5,305.3c-9,0-18,3.7-24.4,10.1l0,0c-6.4,6.4-10.1,15.3-10.1,24.4l0,0v113.8c0,9,3.7,18,10.1,24.4l0,0
	c6.4,6.4,15.3,10.1,24.4,10.1l0,0h114.9c9,0,18-3.7,24.4-10.1l0,0c6.4-6.4,10.1-15.3,10.1-24.4l0,0V339.8c0-9-3.7-18-10.1-24.4l0,0
	c-6.4-6.4-15.3-10.1-24.4-10.1l0,0H-178.5z"/>
<path id="Github" inkscape:connector-curvature="0" class="st0" d="M-146.1,474.5c0-2.5-0.1-9.2-0.1-18
	c-29.4,6.4-35.6-14.2-35.6-14.2c-4.8-12.2-11.7-15.5-11.7-15.5c-9.6-6.6,0.7-6.5,0.7-6.5c10.6,0.8,16.2,10.9,16.2,10.9
	c9.4,16.2,24.7,11.5,30.7,8.8c1-6.9,3.7-11.5,6.7-14.2c-23.4-2.7-48.1-11.8-48.1-52.4c0-11.6,4.1-21,10.9-28.5
	c-1.1-2.7-4.7-13.5,1-28.1c0,0,8.9-2.9,29,10.9c8.4-2.4,17.5-3.5,26.4-3.6c9,0,18,1.2,26.4,3.6c20.2-13.7,29-10.9,29-10.9
	c5.8,14.6,2.1,25.4,1,28.1c6.8,7.4,10.9,16.9,10.9,28.5c0,40.8-24.7,49.7-48.2,52.3c3.8,3.3,7.2,9.7,7.2,19.6
	c0,14.2-0.1,25.6-0.1,29.1C-93.8,477.4-146.1,477.4-146.1,474.5z"/>
</svg>
