<?xml version="1.0" encoding="utf-8"?>
<!-- Generator: Adobe Illustrator 19.0.0, SVG Export Plug-In . SVG Version: 6.00 Build 0)  -->
<svg version="1.1" id="Layer_1" xmlns="http://www.w3.org/2000/svg" xmlns:xlink="http://www.w3.org/1999/xlink" x="0px" y="0px"
	 viewBox="220.5 465.2 199.6 199.8" style="enable-background:new 220.5 465.2 199.6 199.8;" xml:space="preserve">
<style type="text/css">
	.st0{fill:#E5D32E;}
	.st1{fill:#FFFFFF;stroke:#FFFFFF;stroke-width:5;}
</style>
<g id="XMLID_2_">
	<ellipse id="XMLID_6_" class="st0" cx="320.3" cy="565.1" rx="99.8" ry="99.9"/>
	<path id="XMLID_4_" class="st1" d="M298.7,630.9c0-2-0.1-7.4-0.1-14.6c-23.8,5.2-28.8-11.5-28.8-11.5c-3.9-9.9-9.5-12.6-9.5-12.6
		c-7.8-5.3,0.6-5.2,0.6-5.2c8.6,0.6,13.1,8.9,13.1,8.9c7.6,13.1,20,9.3,24.9,7.1c0.8-5.6,3-9.3,5.4-11.5c-19-2.2-38.9-9.5-38.9-42.5
		c0-9.4,3.3-17,8.8-23.1c-0.9-2.2-3.8-10.9,0.8-22.7c0,0,7.2-2.3,23.5,8.8c6.8-1.9,14.1-2.9,21.4-2.9c7.3,0,14.6,1,21.4,2.9
		c16.3-11.1,23.5-8.8,23.5-8.8c4.7,11.8,1.7,20.6,0.9,22.7c5.5,6,8.8,13.7,8.8,23.1c0,33-20,40.3-39,42.4c3.1,2.7,5.8,7.9,5.8,15.9
		c0,11.5-0.1,20.8-0.1,23.6C341.1,633.2,298.7,633.2,298.7,630.9z"/>
</g>
</svg>
