<?xml version="1.0" encoding="utf-8"?>
<!-- Generator: Adobe Illustrator 19.0.0, SVG Export Plug-In . SVG Version: 6.00 Build 0)  -->
<svg version="1.1" id="Layer_1" xmlns="http://www.w3.org/2000/svg" xmlns:xlink="http://www.w3.org/1999/xlink" x="0px" y="0px"
	 viewBox="204.2 449 232.2 232.2" style="enable-background:new 204.2 449 232.2 232.2;" xml:space="preserve">
<style type="text/css">
	.st0{fill:#FFFFFF;}
</style>
<g id="Icon">
	<circle id="XMLID_1_" class="st0" cx="320.3" cy="565.1" r="113.6"/>
	<path id="XMLID_4_" d="M297.1,638.2c0-2.3-0.1-8.4-0.1-16.5c-26.8,5.9-32.5-13-32.5-13c-4.4-11.2-10.7-14.2-10.7-14.2
		c-8.8-6,0.7-5.9,0.7-5.9c9.7,0.7,14.8,10,14.8,10c8.6,14.8,22.6,10.5,28.1,8.1c0.9-6.3,3.4-10.5,6.1-13
		c-21.4-2.4-43.9-10.8-43.9-47.9c0-10.6,3.8-19.2,9.9-26c-1-2.5-4.3-12.3,0.9-25.6c0,0,8.1-2.6,26.5,9.9c7.7-2.1,15.9-3.2,24.1-3.3
		c8.2,0,16.4,1.1,24.1,3.3c18.4-12.5,26.5-9.9,26.5-9.9c5.3,13.3,2,23.2,1,25.6c6.2,6.8,9.9,15.4,9.9,26c0,37.2-22.5,45.4-44,47.8
		c3.5,3,6.5,8.9,6.5,17.9c0,12.9-0.1,23.4-0.1,26.6C344.9,640.8,297.1,640.8,297.1,638.2z"/>
</g>
</svg>
