<?xml version="1.0" encoding="utf-8"?>
<!-- Generator: Adobe Illustrator 19.0.0, SVG Export Plug-In . SVG Version: 6.00 Build 0)  -->
<svg version="1.1"
	 id="Icon" xmlns:rdf="http://www.w3.org/1999/02/22-rdf-syntax-ns#" xmlns:inkscape="http://www.inkscape.org/namespaces/inkscape" xmlns:sodipodi="http://sodipodi.sourceforge.net/DTD/sodipodi-0.dtd" xmlns:cc="http://creativecommons.org/ns#" xmlns:svg="http://www.w3.org/2000/svg" xmlns:dc="http://purl.org/dc/elements/1.1/" sodipodi:docname="google2.svg" inkscape:version="0.48.3.1 r9886"
	 xmlns="http://www.w3.org/2000/svg" xmlns:xlink="http://www.w3.org/1999/xlink" x="0px" y="0px" viewBox="-213 305.3 183.8 182.7"
	 style="enable-background:new -213 305.3 183.8 182.7;" xml:space="preserve">
<style type="text/css">
	.st0{fill:#3636DD;}
</style>
<path id="Background" d="M-178.5,305.3c-9,0-18,3.7-24.4,10.1l0,0c-6.4,6.4-10.1,15.3-10.1,24.4l0,0v113.8c0,9,3.7,18,10.1,24.4l0,0
	c6.4,6.4,15.3,10.1,24.4,10.1l0,0h114.9c9,0,18-3.7,24.4-10.1l0,0c6.4-6.4,10.1-15.3,10.1-24.4l0,0V339.8c0-9-3.7-18-10.1-24.4l0,0
	c-6.4-6.4-15.3-10.1-24.4-10.1l0,0H-178.5z"/>
<path id="Google" inkscape:connector-curvature="0" class="st0" d="M-126.4,476.3c-10.8-0.7-21.2-3.6-31.2-8.7
	c-4.4-2.2-9.7-5.6-10.7-6.7c-1-1.1-0.9-7.1,0.2-10.1c2-5.8,6.4-9.8,13.7-12.6c5.1-2,14.3-3.4,21.5-3.4h3.4l3.5,2.5
	c13.2,9.6,16.9,14.5,16.9,22.4c0,4.4-1.9,9.1-5.1,12.3c-1.9,2-6.3,4.7-7.4,4.7C-121.9,476.6-124.1,476.5-126.4,476.3z M-105.1,473.2
	c6.2-6.8,9.3-14.9,8.8-22.9c-0.7-10.3-4.7-15.9-20-27.9c-4.6-3.6-5.5-4.5-6.4-6.6c-2-4.4-0.1-8.4,6.4-13.8
	c8-6.6,11.7-11.9,13.2-18.9c0.7-3.3,0.5-10.3-0.3-13.6c-1.5-5.6-4.7-10.9-9.5-15.3l-2.5-2.3h5.6h5.6l6.1-3.4l6.1-3.4l-21-0.1
	c-13.2-0.1-22.5,0-25,0.3C-157,347-170,356-174.9,370.6c-3.6,10.8-1.2,21.8,6.4,29.8c4.1,4.3,8.9,7.1,14.8,8.5
	c2.5,0.6,4.2,0.8,8.4,0.8c2.9,0,5.3,0.1,5.3,0.1c0,0.1-0.3,1.1-0.7,2.3c-0.6,1.8-0.7,2.8-0.6,5.3c0.2,3.6,1,5.8,3.6,9.5
	c0.9,1.2,1.5,2.2,1.3,2.2c-0.2,0-2.8,0.2-5.9,0.5c-17.1,1.6-27.9,5.6-35.3,12.9c-1.8,1.7-3.6,3.7-4,4.3l-0.9,1.2l-2.4-3.2
	c-5.5-7.3-9.2-14.3-12.1-22.9c-9.6-28.4-2.6-59.3,18.3-80.9c35.6-36.7,95.6-31.3,124.1,11.2c2.1,3.1,6,10.3,6.9,12.7l0.3,0.9h-7.7
	h-7.7v-10.5v-10.5h-4.7H-72v10.5v10.5h-10.5H-93l0.1,4.5l0.1,4.5l10.4,0.1L-72,375v10.5V396h4.7h4.7v-10.5V375l9.4,0.1l9.4,0.1
	l0.6,2.6c2.7,11.4,2.8,24.8,0.2,36.5c-1.9,8.4-6.3,18.9-11.2,26.2c-12.1,18.1-30.2,30.2-51.7,34.6l-1.2,0.2L-105.1,473.2
	L-105.1,473.2z M-140.3,404c-4.6-0.9-9.8-5-13.1-10.2c-5.8-9.3-8.1-23.2-5.1-31.3c1.6-4.5,5.3-8.2,9.6-9.9c3-1.2,7.7-1.3,10.9-0.4
	c9.3,2.8,16.9,15.3,18.3,30c1,10.1-2,16.7-8.9,20.1C-132.5,404.2-136.3,404.7-140.3,404z"/>
</svg>
