<?xml version="1.0" encoding="utf-8"?>
<!-- Generator: Adobe Illustrator 19.0.0, SVG Export Plug-In . SVG Version: 6.00 Build 0)  -->
<svg version="1.1" id="Layer_1" xmlns="http://www.w3.org/2000/svg" xmlns:xlink="http://www.w3.org/1999/xlink" x="0px" y="0px"
	 viewBox="0 0 135 135" style="enable-background:new 0 0 135 135;" xml:space="preserve">
<style type="text/css">
	.st0{fill:#FFFFFF;}
	.st1{fill:#F5D615;}
</style>
<g>
	<circle class="st0" cx="67.5" cy="67.5" r="65"/>
	<g>
		<path class="st1" d="M64,119.9c-7.1-0.4-13.9-2.3-20.5-5.7c-2.9-1.5-6.4-3.7-7-4.4c-0.6-0.7-0.6-4.7,0.1-6.6
			c1.3-3.8,4.2-6.4,9-8.3c3.3-1.3,9.4-2.3,14.1-2.3H62l2.3,1.6c8.7,6.3,11.1,9.5,11.1,14.7c0,2.9-1.3,6-3.3,8.1
			c-1.3,1.3-4.1,3.1-4.8,3.1C67,120,65.5,120,64,119.9z M78,117.8c4.1-4.5,6.1-9.8,5.8-15c-0.4-6.8-3.1-10.5-13.1-18.3
			c-3-2.4-3.6-3-4.2-4.3c-1.3-2.9-0.1-5.5,4.2-9c5.2-4.3,7.7-7.8,8.7-12.4c0.5-2.2,0.3-6.8-0.2-9c-1-3.7-3.1-7.2-6.2-10.1l-1.7-1.5
			h3.7h3.7l4-2.2l4-2.2l-13.8-0.1c-8.7,0-14.8,0-16.4,0.2c-12.4,1.2-20.9,7.1-24.1,16.7c-2.4,7.1-0.8,14.3,4.2,19.6
			c2.7,2.9,5.8,4.6,9.7,5.6c1.6,0.4,2.7,0.5,5.5,0.5c1.9,0,3.5,0,3.5,0.1c0,0-0.2,0.7-0.5,1.5c-0.4,1.2-0.5,1.8-0.4,3.5
			c0.1,2.4,0.7,3.8,2.4,6.2c0.6,0.8,1,1.5,0.8,1.5c-0.1,0-1.9,0.2-3.9,0.3c-11.2,1.1-18.3,3.7-23.2,8.5c-1.2,1.1-2.3,2.4-2.7,2.8
			l-0.6,0.8l-1.6-2.1c-3.6-4.8-6-9.4-7.9-15c-6.3-18.6-1.7-39,12-53.1c23.4-24.1,62.8-20.6,81.6,7.4c1.4,2.1,3.9,6.8,4.5,8.3
			l0.2,0.6H111H106v-6.9v-6.9h-3.1h-3.1v6.9v6.9h-6.9H86l0.1,2.9l0.1,2.9l6.8,0.1l6.8,0.1v6.9V67h3.1h3.1v-6.9v-6.9l6.1,0.1l6.1,0.1
			l0.4,1.7c1.8,7.5,1.9,16.3,0.1,24c-1.2,5.5-4.2,12.4-7.4,17.2c-7.9,11.9-19.9,19.9-34,22.7l-0.8,0.2L78,117.8L78,117.8z
			 M54.9,72.3c-3-0.6-6.5-3.3-8.6-6.7C42.5,59.5,41,50.4,43,45.1c1.1-2.9,3.5-5.4,6.3-6.5c2-0.8,5.1-0.9,7.1-0.3
			c6.1,1.8,11.1,10,12,19.7c0.6,6.6-1.3,11-5.9,13.2C60,72.4,57.5,72.8,54.9,72.3z"/>
	</g>
</g>
<g id="XMLID_14_">
</g>
<g id="XMLID_15_">
</g>
<g id="XMLID_16_">
</g>
<g id="XMLID_17_">
</g>
<g id="XMLID_18_">
</g>
<g id="XMLID_19_">
</g>
</svg>
