<?xml version="1.0" encoding="utf-8"?>
<!-- Generator: Adobe Illustrator 19.0.0, SVG Export Plug-In . SVG Version: 6.00 Build 0)  -->
<svg version="1.1" id="Layer_1" xmlns="http://www.w3.org/2000/svg" xmlns:xlink="http://www.w3.org/1999/xlink" x="0px" y="0px"
	 viewBox="0 0 135 135" style="enable-background:new 0 0 135 135;" xml:space="preserve">
<style type="text/css">
	.st0{fill:#FFFFFF;}
	.st1{fill:#F5D615;}
</style>
<g>
	<circle class="st0" cx="67.5" cy="67.5" r="65"/>
	<path class="st1" d="M84.8,55.5h24.3V93c0,9.2-7.4,16.6-16.5,16.6H42.3c-9.1,0-16.5-7.4-16.5-16.6V55.5h24.2
		c-2.5,3.5-3.9,7.8-3.9,12.4c0,11.8,9.5,21.4,21.3,21.4c11.8,0,21.3-9.6,21.3-21.4C88.8,63.3,87.3,59,84.8,55.5z M109.2,42v10.9
		H82.6c-3.9-3.9-9.2-6.4-15.2-6.4c-5.9,0-11.3,2.5-15.2,6.4H25.8V42c0-5.6,2.8-10.5,7-13.5v17.8h3.4V26.6c0.8-0.3,1.6-0.6,2.4-0.8
		v20.5h3.4V25.4c0.1,0,0.3,0,0.4,0h2v20.9h3.4V25.4h45C101.8,25.4,109.2,32.8,109.2,42L109.2,42z M101.6,35c0-1.5-1.2-2.7-2.6-2.7
		h-8.9c-1.5,0-2.6,1.2-2.6,2.7v9.2c0,1.5,1.2,2.7,2.6,2.7H99c1.5,0,2.6-1.2,2.6-2.7V35z M51,67.9c0-4.9,2.2-9.4,5.6-12.4
		c1.2-1.1,2.6-2,4-2.6c2.1-0.9,4.4-1.5,6.8-1.5c2.4,0,4.7,0.5,6.8,1.5c1.5,0.7,2.8,1.6,4,2.6c3.4,3,5.6,7.5,5.6,12.4
		c0,9.1-7.4,16.5-16.4,16.5C58.4,84.4,51,77,51,67.9z M55.4,67.9c0,6.7,5.4,12.2,12.1,12.2c6.7,0,12.1-5.5,12.1-12.2
		c0-6.7-5.4-12.2-12.1-12.2C60.8,55.7,55.4,61.1,55.4,67.9z"/>
</g>
<g id="XMLID_14_">
</g>
<g id="XMLID_15_">
</g>
<g id="XMLID_16_">
</g>
<g id="XMLID_17_">
</g>
<g id="XMLID_18_">
</g>
<g id="XMLID_19_">
</g>
</svg>
