<?xml version="1.0" encoding="utf-8"?>
<!-- Generator: Adobe Illustrator 19.0.0, SVG Export Plug-In . SVG Version: 6.00 Build 0)  -->
<svg version="1.1" id="Layer_1" xmlns="http://www.w3.org/2000/svg" xmlns:xlink="http://www.w3.org/1999/xlink" x="0px" y="0px"
	 viewBox="252.8 289.3 135 135" style="enable-background:new 252.8 289.3 135 135;" xml:space="preserve" width="1" height="1">
<style type="text/css">
	.st0{fill:#FFFFFF;}
	.st1{fill:#F7D614;}
</style>
<g>
	<circle class="st0" cx="320.3" cy="356.8" r="65"/>
	<path class="st1" d="M337.6,344.8H362v37.6c0,9.2-7.4,16.6-16.5,16.6h-50.4c-9.1,0-16.5-7.4-16.5-16.6v-37.6h24.2
		c-2.5,3.5-3.9,7.8-3.9,12.4c0,11.8,9.5,21.4,21.3,21.4c11.8,0,21.3-9.6,21.3-21.4C341.6,352.6,340.1,348.3,337.6,344.8z M362,331.3
		v10.9h-26.5c-3.9-3.9-9.2-6.4-15.2-6.4c-5.9,0-11.3,2.5-15.2,6.4h-26.4v-10.9c0-5.6,2.8-10.5,7-13.5v17.8h3.4v-19.7
		c0.8-0.3,1.6-0.6,2.4-0.8v20.5h3.4v-20.9c0.1,0,0.3,0,0.4,0h2v20.9h3.4v-20.9h45C354.6,314.7,362,322.1,362,331.3L362,331.3z
		 M354.4,324.3c0-1.5-1.2-2.7-2.6-2.7h-8.9c-1.5,0-2.6,1.2-2.6,2.7v9.2c0,1.5,1.2,2.7,2.6,2.7h8.9c1.5,0,2.6-1.2,2.6-2.7V324.3z
		 M303.8,357.2c0-4.9,2.2-9.4,5.6-12.4c1.2-1.1,2.6-2,4-2.6c2.1-0.9,4.4-1.5,6.8-1.5c2.4,0,4.7,0.5,6.8,1.5c1.5,0.7,2.8,1.6,4,2.6
		c3.4,3,5.6,7.5,5.6,12.4c0,9.1-7.4,16.5-16.4,16.5C311.2,373.7,303.8,366.3,303.8,357.2z M308.2,357.2c0,6.7,5.4,12.2,12.1,12.2
		s12.1-5.5,12.1-12.2c0-6.7-5.4-12.2-12.1-12.2C313.6,345,308.2,350.5,308.2,357.2z"/>
</g>
</svg>
