<?xml version="1.0" encoding="utf-8"?>
<!-- Generator: Adobe Illustrator 19.0.0, SVG Export Plug-In . SVG Version: 6.00 Build 0)  -->
<svg version="1.1"
	 id="Icon" xmlns:rdf="http://www.w3.org/1999/02/22-rdf-syntax-ns#" xmlns:inkscape="http://www.inkscape.org/namespaces/inkscape" xmlns:sodipodi="http://sodipodi.sourceforge.net/DTD/sodipodi-0.dtd" xmlns:cc="http://creativecommons.org/ns#" xmlns:svg="http://www.w3.org/2000/svg" xmlns:dc="http://purl.org/dc/elements/1.1/" sodipodi:docname="google2.svg" inkscape:version="0.48.3.1 r9886"
	 xmlns="http://www.w3.org/2000/svg" xmlns:xlink="http://www.w3.org/1999/xlink" x="0px" y="0px" viewBox="-213 305.3 183.8 182.7"
	 style="enable-background:new -213 305.3 183.8 182.7;" xml:space="preserve">
<style type="text/css">
	.st0{fill:#3636DD;}
</style>
<path id="Background" d="M-178.5,305.3c-9,0-18,3.7-24.4,10.1l0,0c-6.4,6.4-10.1,15.3-10.1,24.4l0,0v113.8c0,9,3.7,18,10.1,24.4l0,0
	c6.4,6.4,15.3,10.1,24.4,10.1l0,0h114.9c9,0,18-3.7,24.4-10.1l0,0c6.4-6.4,10.1-15.3,10.1-24.4l0,0V339.8c0-9-3.7-18-10.1-24.4l0,0
	c-6.4-6.4-15.3-10.1-24.4-10.1l0,0H-178.5z"/>
<path id="Instagram" inkscape:connector-curvature="0" class="st0" d="M-89.9,375.2h43.8v66.9c0,16.3-13.3,29.5-29.7,29.5h-90.7
	c-16.4,0-29.7-13.2-29.7-29.5v-66.9h43.6c-4.5,6.2-7.1,13.9-7.1,22.1c0,21.1,17.2,38.2,38.4,38.2c21.2,0,38.4-17.1,38.4-38.2
	C-82.8,389.1-85.5,381.5-89.9,375.2z M-46.1,351.2v19.4h-47.8c-7-7-16.6-11.4-27.3-11.4c-10.7,0-20.4,4.4-27.3,11.4h-47.6v-19.4
	c0-9.9,5-18.7,12.5-24.1v31.8h6.1v-35.1c1.4-0.6,2.8-1,4.3-1.3v36.4h6.1v-37.2c0.2,0,0.5,0,0.7,0h3.5v37.2h6.1v-37.2h81.1
	C-59.4,321.7-46.1,334.9-46.1,351.2L-46.1,351.2z M-59.7,338.7c0-2.6-2.1-4.7-4.8-4.7h-16c-2.6,0-4.8,2.1-4.8,4.7V355
	c0,2.6,2.1,4.7,4.8,4.7h16c2.6,0,4.8-2.1,4.8-4.7V338.7z M-150.8,397.3c0-8.8,3.9-16.7,10.1-22.1c2.2-1.9,4.6-3.5,7.3-4.7
	c3.7-1.7,7.8-2.6,12.2-2.6c4.3,0,8.5,0.9,12.2,2.6c2.7,1.2,5.1,2.8,7.3,4.7c6.2,5.4,10.1,13.3,10.1,22.1c0,16.2-13.3,29.4-29.6,29.4
	C-137.5,426.8-150.8,413.6-150.8,397.3z M-143,397.3c0,12,9.8,21.7,21.9,21.7s21.9-9.7,21.9-21.7c0-12-9.8-21.7-21.9-21.7
	C-133.2,375.6-143,385.3-143,397.3z"/>
</svg>
