<?xml version="1.0" encoding="utf-8"?>
<!-- Generator: Adobe Illustrator 19.0.0, SVG Export Plug-In . SVG Version: 6.00 Build 0)  -->
<svg version="1.1"
	 id="Icon" xmlns:rdf="http://www.w3.org/1999/02/22-rdf-syntax-ns#" xmlns:inkscape="http://www.inkscape.org/namespaces/inkscape" xmlns:sodipodi="http://sodipodi.sourceforge.net/DTD/sodipodi-0.dtd" xmlns:cc="http://creativecommons.org/ns#" xmlns:svg="http://www.w3.org/2000/svg" xmlns:dc="http://purl.org/dc/elements/1.1/" sodipodi:docname="google2.svg" inkscape:version="0.48.3.1 r9886"
	 xmlns="http://www.w3.org/2000/svg" xmlns:xlink="http://www.w3.org/1999/xlink" x="0px" y="0px" viewBox="-213 305.3 183.8 182.7"
	 style="enable-background:new -213 305.3 183.8 182.7;" xml:space="preserve">
<style type="text/css">
	.st0{fill:#3636DD;}
</style>
<path id="Background" d="M-178.5,305.3c-9,0-18,3.7-24.4,10.1l0,0c-6.4,6.4-10.1,15.3-10.1,24.4l0,0v113.8c0,9,3.7,18,10.1,24.4l0,0
	c6.4,6.4,15.3,10.1,24.4,10.1l0,0h114.9c9,0,18-3.7,24.4-10.1l0,0c6.4-6.4,10.1-15.3,10.1-24.4l0,0V339.8c0-9-3.7-18-10.1-24.4l0,0
	c-6.4-6.4-15.3-10.1-24.4-10.1l0,0H-178.5z"/>
<path id="Keybase" inkscape:connector-curvature="0" class="st0" d="M-86.8,321.7c-25.2,0-45.7,20.7-45.7,46.1c0,3.5,0.4,7,1.1,10.3
	l-69.8,70.5v11.5l11.4,11.5h22.8l11.4-11.5v-11.5h11.4V437h11.4v-11.5h22.8l12.6-12.8c3.3,0.8,6.8,1.2,10.4,1.2
	c25.2,0,45.7-20.7,45.7-46.1C-41.1,342.3-61.6,321.7-86.8,321.7z M-132.6,402.4l-57.1,57.7v-11.5l57.1-57.7V402.4z M-75.5,367.8
	c-6.3,0-11.4-5.2-11.4-11.5c0-6.4,5.1-11.5,11.4-11.5s11.4,5.2,11.4,11.5C-64.1,362.7-69.2,367.8-75.5,367.8z"/>
</svg>
