<?xml version="1.0" encoding="utf-8"?>
<!-- Generator: Adobe Illustrator 19.0.0, SVG Export Plug-In . SVG Version: 6.00 Build 0)  -->
<svg version="1.1" id="Layer_1" xmlns="http://www.w3.org/2000/svg" xmlns:xlink="http://www.w3.org/1999/xlink" x="0px" y="0px"
	 viewBox="0 0 135 135" style="enable-background:new 0 0 135 135;" xml:space="preserve">
<style type="text/css">
	.st0{fill:#FFFFFF;}
	.st1{fill:#F5D615;}
</style>
<g>
	<circle class="st0" cx="67.5" cy="67.5" r="65"/>
	<path class="st1" d="M85.5,28.1c-13.2,0-24,10.8-24,24.2c0,1.9,0.2,3.7,0.6,5.4l-36.6,37v6.1l6,6.1h12l6-6.1v-6.1h6v-6.1h6v-6.1h12
		l6.6-6.7c1.8,0.4,3.6,0.6,5.4,0.6c13.2,0,24-10.8,24-24.2S98.8,28.1,85.5,28.1z M61.5,70.5l-30,30.3v-6.1l30-30.3V70.5z M91.4,52.4
		c-3.3,0-6-2.7-6-6.1c0-3.3,2.7-6.1,6-6.1c3.3,0,6,2.7,6,6.1C97.4,49.6,94.7,52.4,91.4,52.4z"/>
</g>
<g id="XMLID_14_">
</g>
<g id="XMLID_15_">
</g>
<g id="XMLID_16_">
</g>
<g id="XMLID_17_">
</g>
<g id="XMLID_18_">
</g>
<g id="XMLID_19_">
</g>
</svg>
