<?xml version="1.0" encoding="utf-8"?>
<!-- Generator: Adobe Illustrator 19.0.0, SVG Export Plug-In . SVG Version: 6.00 Build 0)  -->
<svg version="1.1" id="Layer_1" xmlns="http://www.w3.org/2000/svg" xmlns:xlink="http://www.w3.org/1999/xlink" x="0px" y="0px"
	 viewBox="433.2 601.7 135 135" style="enable-background:new 433.2 601.7 135 135;" xml:space="preserve" width="1" height="1">
<style type="text/css">
	.st0{fill:#FFFFFF;}
</style>
<g>
	<circle class="st0" cx="500.7" cy="669.2" r="65"/>
	<path d="M520.4,626.1c-14.5,0-26.3,11.9-26.3,26.5c0,2,0.2,4,0.7,5.9l-40.2,40.6v6.6l6.6,6.6h13.1l6.6-6.6v-6.6h6.6v-6.6h6.6v-6.6
		h13.1l7.3-7.3c1.9,0.4,3.9,0.7,6,0.7c14.5,0,26.3-11.9,26.3-26.5C546.7,638,534.9,626.1,520.4,626.1z M494.1,672.6l-32.8,33.2v-6.6
		l32.8-33.2V672.6z M526.9,652.7c-3.6,0-6.6-3-6.6-6.6s2.9-6.6,6.6-6.6s6.6,3,6.6,6.6S530.5,652.7,526.9,652.7z"/>
</g>
</svg>
