<?xml version="1.0" encoding="utf-8"?>
<!-- Generator: Adobe Illustrator 19.0.0, SVG Export Plug-In . SVG Version: 6.00 Build 0)  -->
<svg version="1.1" id="Layer_1" xmlns="http://www.w3.org/2000/svg" xmlns:xlink="http://www.w3.org/1999/xlink" x="0px" y="0px"
	 viewBox="0 0 135 135" style="enable-background:new 0 0 135 135;" xml:space="preserve">
<style type="text/css">
	.st0{fill:#F6D615;}
	.st1{fill:#FFFFFF;}
</style>
<g>
	<circle class="st0" cx="67.5" cy="67.5" r="65"/>
	<path class="st1" d="M41.3,89.4l4.4,4.4c0.6,0.6,1.4,0.9,2.2,0.9c0.8,0,1.7-0.3,2.2-0.9l43.6-43.6c0.6-0.6,0.9-1.4,0.9-2.2
		s-0.3-1.7-0.9-2.2l-4.4-4.4c-0.6-0.6-1.4-0.9-2.2-0.9c-0.8,0-1.6,0.3-2.2,0.9L41.3,84.9C40,86.1,40,88.1,41.3,89.4z"/>
	<path class="st1" d="M32.6,67.5l-8.7,8.7c-7.2,7.2-7.2,19,0,26.2l8.7,8.7c7.2,7.2,19,7.2,26.2,0l8.7-8.7c6.5-6.5,7.1-16.6,2-23.8
		l-9.2,9.2c0.5,2,0.1,4.3-1.5,5.9l-8.7,8.7c-2.4,2.4-6.3,2.4-8.7,0l-8.7-8.7c-2.4-2.4-2.4-6.3,0-8.7l8.7-8.7c1.6-1.6,3.8-2,5.9-1.5
		l9.2-9.2C49.1,60.4,39.1,61,32.6,67.5z"/>
	<path class="st1" d="M102.4,23.9c-7.2-7.2-19-7.2-26.2,0l-8.7,8.7c-6.5,6.5-7.1,16.5-2,23.8l9.2-9.2c-0.5-2-0.1-4.3,1.5-5.9
		l8.7-8.7c2.4-2.4,6.3-2.4,8.7,0l8.7,8.7c2.4,2.4,2.4,6.3,0,8.7l-8.7,8.7c-1.6,1.6-3.8,2-5.9,1.5l-9.2,9.2c7.2,5.1,17.3,4.5,23.8-2
		l8.7-8.7c7.2-7.2,7.2-19,0-26.2L102.4,23.9z"/>
</g>
<g id="XMLID_14_">
</g>
<g id="XMLID_15_">
</g>
<g id="XMLID_16_">
</g>
<g id="XMLID_17_">
</g>
<g id="XMLID_18_">
</g>
<g id="XMLID_19_">
</g>
</svg>
