<?xml version="1.0" encoding="utf-8"?>
<!-- Generator: Adobe Illustrator 19.0.0, SVG Export Plug-In . SVG Version: 6.00 Build 0)  -->
<svg version="1.1" id="Layer_1" xmlns="http://www.w3.org/2000/svg" xmlns:xlink="http://www.w3.org/1999/xlink" x="0px" y="0px"
	 viewBox="252.8 705.9 135 135" style="enable-background:new 252.8 705.9 135 135;" xml:space="preserve">
<style type="text/css">
	.st0{fill:#FFFFFF;}
	.st1{fill:#F7D614;}
</style>
<g>
	<circle class="st0" cx="320.3" cy="773.4" r="65"/>
	<g>
		<path class="st1" d="M294.1,795.3l4.4,4.4c0.6,0.6,1.4,0.9,2.2,0.9c0.8,0,1.7-0.3,2.2-0.9l43.6-43.6c0.6-0.6,0.9-1.4,0.9-2.2
			c0-0.8-0.3-1.7-0.9-2.2l-4.4-4.4c-0.6-0.6-1.4-0.9-2.2-0.9c-0.8,0-1.6,0.3-2.2,0.9l-43.6,43.6C292.8,792,292.8,794,294.1,795.3z"
			/>
		<path class="st1" d="M285.4,773.4l-8.7,8.7c-7.2,7.2-7.2,19,0,26.2l8.7,8.7c7.2,7.2,19,7.2,26.2,0l8.7-8.7
			c6.5-6.5,7.1-16.6,2-23.8l-9.2,9.2c0.5,2,0.1,4.3-1.5,5.9l-8.7,8.7c-2.4,2.4-6.3,2.4-8.7,0l-8.7-8.7c-2.4-2.4-2.4-6.3,0-8.7
			l8.7-8.7c1.6-1.6,3.8-2,5.9-1.5l9.2-9.2C301.9,766.3,291.9,766.9,285.4,773.4z"/>
		<path class="st1" d="M355.2,729.7c-7.2-7.2-19-7.2-26.2,0l-8.7,8.7c-6.5,6.5-7.1,16.5-2,23.8l9.2-9.2c-0.5-2-0.1-4.3,1.5-5.9
			l8.7-8.7c2.4-2.4,6.3-2.4,8.7,0l8.7,8.7c2.4,2.4,2.4,6.3,0,8.7l-8.7,8.7c-1.6,1.6-3.8,2-5.9,1.5l-9.2,9.2c7.2,5.1,17.3,4.5,23.8-2
			l8.7-8.7c7.2-7.2,7.2-19,0-26.2L355.2,729.7z"/>
	</g>
</g>
</svg>
