<?xml version="1.0" encoding="utf-8"?>
<!-- Generator: Adobe Illustrator 19.0.0, SVG Export Plug-In . SVG Version: 6.00 Build 0)  -->
<svg version="1.1"
	 id="Icon" xmlns:rdf="http://www.w3.org/1999/02/22-rdf-syntax-ns#" xmlns:inkscape="http://www.inkscape.org/namespaces/inkscape" xmlns:sodipodi="http://sodipodi.sourceforge.net/DTD/sodipodi-0.dtd" xmlns:cc="http://creativecommons.org/ns#" xmlns:svg="http://www.w3.org/2000/svg" xmlns:dc="http://purl.org/dc/elements/1.1/" sodipodi:docname="google2.svg" inkscape:version="0.48.3.1 r9886"
	 xmlns="http://www.w3.org/2000/svg" xmlns:xlink="http://www.w3.org/1999/xlink" x="0px" y="0px" viewBox="-213 305.3 183.8 182.7"
	 style="enable-background:new -213 305.3 183.8 182.7;" xml:space="preserve">
<style type="text/css">
	.st0{fill:#3636DD;}
</style>
<path id="Background" d="M-178.5,305.3c-9,0-18,3.7-24.4,10.1l0,0c-6.4,6.4-10.1,15.3-10.1,24.4l0,0v113.8c0,9,3.7,18,10.1,24.4l0,0
	c6.4,6.4,15.3,10.1,24.4,10.1l0,0h114.9c9,0,18-3.7,24.4-10.1l0,0c6.4-6.4,10.1-15.3,10.1-24.4l0,0V339.8c0-9-3.7-18-10.1-24.4l0,0
	c-6.4-6.4-15.3-10.1-24.4-10.1l0,0H-178.5z"/>
<g id="Links" transform="matrix(2.0731939,0,0,-2.0731939,142.97477,1300.0964)">
	<path id="_x33_" inkscape:connector-curvature="0" class="st0" d="M-148,418.6l3.4-3.4c0.5-0.5,1.1-0.7,1.8-0.7
		c0.7,0,1.3,0.3,1.8,0.7l34.3,34.3c0.5,0.5,0.7,1.1,0.7,1.8s-0.3,1.3-0.7,1.8l-3.4,3.4c-0.5,0.5-1.1,0.7-1.8,0.7s-1.3-0.2-1.8-0.7
		l-34.3-34.3C-149,421.1-149,419.5-148,418.6z"/>
	<path id="_x32_" inkscape:connector-curvature="0" class="st0" d="M-154.8,435.8l-6.9-6.9c-5.7-5.7-5.7-14.9,0-20.6l6.9-6.9
		c5.7-5.7,14.9-5.7,20.6,0l6.9,6.9c5.1,5.1,5.6,13,1.5,18.7l-7.2-7.2c0.4-1.6,0.1-3.4-1.2-4.6l-6.9-6.9c-1.9-1.9-5-1.9-6.9,0
		l-6.9,6.9c-1.9,1.9-1.9,5,0,6.9l6.9,6.9c1.3,1.3,3,1.6,4.6,1.2l7.2,7.2C-141.8,441.4-149.8,440.9-154.8,435.8z"/>
	<path id="_x31_" inkscape:connector-curvature="0" class="st0" d="M-99.9,470.1c-5.7,5.7-14.9,5.7-20.6,0l-6.9-6.9
		c-5.1-5.1-5.6-13-1.5-18.7l7.2,7.2c-0.4,1.6-0.1,3.4,1.2,4.6l6.9,6.9c1.9,1.9,5,1.9,6.9,0l6.9-6.9c1.9-1.9,1.9-5,0-6.9l-6.9-6.9
		c-1.3-1.3-3-1.6-4.6-1.2l-7.2-7.2c5.7-4,13.6-3.6,18.7,1.5l6.9,6.9c5.7,5.7,5.7,14.9,0,20.6L-99.9,470.1z"/>
</g>
</svg>
