<?xml version="1.0" encoding="utf-8"?>
<!-- Generator: Adobe Illustrator 19.0.0, SVG Export Plug-In . SVG Version: 6.00 Build 0)  -->
<svg version="1.1" id="Layer_1" xmlns="http://www.w3.org/2000/svg" xmlns:xlink="http://www.w3.org/1999/xlink" x="0px" y="0px"
	 viewBox="204.2 449 232.2 232.2" style="enable-background:new 204.2 449 232.2 232.2;" xml:space="preserve" width="1" height="1">
<style type="text/css">
	.st0{fill:#FFFFFF;}
	.st1{fill:#F7D614;}
</style>
<g>
	<circle class="st0" cx="320.3" cy="565.1" r="113.6"/>
	<path class="st1" d="M320.3,481.4l-70.7,53v88.4H391v-88.4L320.3,481.4z M346.8,561l-26.5,20.8L293.8,561v-26.6h53V561z
		 M297.2,574.9l-38.8,33.2v-63.7L297.2,574.9z M320.3,593.1l16-12.6l39,33.5H265.2l39.1-33.5L320.3,593.1z M382.2,544.5v63.7
		l-38.8-33.2L382.2,544.5z M378.5,536.1l-22.9,18v-28.5h-8.8h-53H285v28.5l-22.9-17.9l58.2-43.6L378.5,536.1z M338,547.7h-35.3v-4.4
		H338V547.7z M338,556.5h-35.3v-4.4H338V556.5z M338,565.4h-35.3v-4.4H338V565.4z"/>
</g>
</svg>
