<?xml version="1.0" encoding="utf-8"?>
<!-- Generator: Adobe Illustrator 19.0.0, SVG Export Plug-In . SVG Version: 6.00 Build 0)  -->
<svg version="1.1" id="Layer_1" xmlns="http://www.w3.org/2000/svg" xmlns:xlink="http://www.w3.org/1999/xlink" x="0px" y="0px"
	 viewBox="0 0 232.2 232.2" style="enable-background:new 0 0 232.2 232.2;" xml:space="preserve">
<style type="text/css">
	.st0{fill:#FFFFFF;}
	.st1{fill:#F5D615;}
</style>
<g>
	<circle class="st0" cx="116.1" cy="116.1" r="113.6"/>
	<path class="st1" d="M116.1,23.1l-80,60v100h160v-100L116.1,23.1z M146.1,113.2l-30,23.6l-30-23.6V83.1h60V113.2z M89.9,128.9
		l-43.9,37.6V94.4L89.9,128.9z M116.1,149.4l18.1-14.2l44.2,37.9H53.8L98,135.2L116.1,149.4z M186.1,94.4v72.1l-43.9-37.6
		L186.1,94.4z M181.9,85l-25.9,20.3V73.1h-10h-60h-10v32.2L50.2,85l65.9-49.4L181.9,85z M136.1,98.1h-40v-5h40V98.1z M136.1,108.1
		h-40v-5h40V108.1z M136.1,118.1h-40v-5h40V118.1z"/>
</g>
<g id="XMLID_23_">
</g>
<g id="XMLID_24_">
</g>
<g id="XMLID_25_">
</g>
<g id="XMLID_26_">
</g>
<g id="XMLID_27_">
</g>
<g id="XMLID_28_">
</g>
</svg>
