<?xml version="1.0" encoding="utf-8"?>
<!-- Generator: Adobe Illustrator 19.0.0, SVG Export Plug-In . SVG Version: 6.00 Build 0)  -->
<svg version="1.1"
	 id="Icon" xmlns:rdf="http://www.w3.org/1999/02/22-rdf-syntax-ns#" xmlns:inkscape="http://www.inkscape.org/namespaces/inkscape" xmlns:sodipodi="http://sodipodi.sourceforge.net/DTD/sodipodi-0.dtd" xmlns:cc="http://creativecommons.org/ns#" xmlns:svg="http://www.w3.org/2000/svg" xmlns:dc="http://purl.org/dc/elements/1.1/" sodipodi:docname="google2.svg" inkscape:version="0.48.3.1 r9886"
	 xmlns="http://www.w3.org/2000/svg" xmlns:xlink="http://www.w3.org/1999/xlink" x="0px" y="0px" viewBox="-213 305.3 183.8 182.7"
	 style="enable-background:new -213 305.3 183.8 182.7;" xml:space="preserve">
<style type="text/css">
	.st0{fill:#3636DD;}
</style>
<path id="Background" d="M-178.5,305.3c-9,0-18,3.7-24.4,10.1l0,0c-6.4,6.4-10.1,15.3-10.1,24.4l0,0v113.8c0,9,3.7,18,10.1,24.4l0,0
	c6.4,6.4,15.3,10.1,24.4,10.1l0,0h114.9c9,0,18-3.7,24.4-10.1l0,0c6.4-6.4,10.1-15.3,10.1-24.4l0,0V339.8c0-9-3.7-18-10.1-24.4l0,0
	c-6.4-6.4-15.3-10.1-24.4-10.1l0,0H-178.5z"/>
<path id="Publications" inkscape:connector-curvature="0" class="st0" d="M-182.5,456.7h10.2v10c0,5.5,4.6,10,10.2,10h102.3
	c5.6,0,10.2-4.5,10.2-10v-120c0-5.5-4.6-10-10.2-10H-70v-10c0-5.5-4.6-10-10.2-10h-102.3c-5.6,0-10.2,4.5-10.2,10v120
	C-192.7,452.2-188.2,456.7-182.5,456.7z M-80.2,446.7h-102.3v-120h102.3V446.7z M-59.7,346.7v120H-162v-10h81.9
	c5.6,0,10.2-4.5,10.2-10v-100L-59.7,346.7L-59.7,346.7z M-151.8,351.7c0,2.8,2.3,5,5.1,5h51.2c2.8,0,5.1-2.2,5.1-5
	c0-2.8-2.3-5-5.1-5h-51.2C-149.5,346.7-151.8,348.9-151.8,351.7z M-167.2,386.7h71.6c2.8,0,5.1-2.2,5.1-5c0-2.8-2.3-5-5.1-5h-71.6
	c-2.8,0-5.1,2.2-5.1,5C-172.3,384.4-170,386.7-167.2,386.7z M-167.2,406.7h71.6c2.8,0,5.1-2.2,5.1-5c0-2.8-2.3-5-5.1-5h-71.6
	c-2.8,0-5.1,2.2-5.1,5C-172.3,404.4-170,406.7-167.2,406.7z M-167.2,426.7h71.6c2.8,0,5.1-2.2,5.1-5c0-2.8-2.3-5-5.1-5h-71.6
	c-2.8,0-5.1,2.2-5.1,5C-172.3,424.4-170,426.7-167.2,426.7z"/>
</svg>
