<?xml version="1.0" encoding="utf-8"?>
<!-- Generator: Adobe Illustrator 19.0.0, SVG Export Plug-In . SVG Version: 6.00 Build 0)  -->
<svg version="1.1" id="Layer_1" xmlns="http://www.w3.org/2000/svg" xmlns:xlink="http://www.w3.org/1999/xlink" x="0px" y="0px"
	 viewBox="72.4 601.7 135 135" style="enable-background:new 72.4 601.7 135 135;" xml:space="preserve" width="1" height="1">
<style type="text/css">
	.st0{fill:#FFFFFF;}
</style>
<g>
	<circle class="st0" cx="139.9" cy="669.2" r="65"/>
	<path d="M134.5,707.5c10.8-2.5,18.3-6.6,25.6-14.1c10.1-10.3,16.1-23.7,17.4-38.5c0.4-4.9,0.4-5,4.5-9.3c3.6-3.9,5-5.7,4.4-5.7
		c-0.1,0-1.9,0.5-3.9,1.1c-2.3,0.7-3.7,1-4,0.7s0.4-1.5,1.9-3.3c2.1-2.7,4.2-6.3,3.9-6.6c-0.1-0.1-1.1,0.3-2.2,0.9
		c-1.1,0.6-3.7,1.6-5.7,2.3l-3.7,1.2l-3.5-2.3c-3.9-2.6-5.6-3.3-9-3.7c-7-0.9-14.5,2.6-18.4,8.6c-2.3,3.5-3.2,6.8-3.2,11.7
		c0,3-0.1,4.1-0.5,4.1c-0.3,0-2.3-0.3-4.4-0.6c-11.9-2-21.1-6.7-30.3-15.6c-2.7-2.6-4.9-4.4-5.1-4.2c-0.7,0.7-2.1,7.1-2.1,9.6
		c0,4.8,1.6,9.1,4.9,13c1.8,2.1,2.4,3.4,1.6,3.4c-0.2,0-1.7-0.4-3.4-0.9s-3.2-0.8-3.4-0.6c-0.5,0.5,1,6.1,2.3,8.7
		c1.5,3.2,6,7.4,9.7,9.3l2.9,1.4l-3.7,0.1c-3.5,0.1-3.7,0.2-3.7,1.1c0,1.4,2.1,4.5,4.7,7c2.3,2.1,6.2,4.3,9.5,5.4
		c0.9,0.3,1.9,0.7,2.1,0.9c0.6,0.6-5.6,3.9-9.9,5.5c-4.2,1.5-9.3,2.3-13.9,2.3c-1.5,0-2.7,0.2-2.7,0.4c0,0.9,9.7,5.2,15,6.6
		c5.5,1.4,7.8,1.7,15.4,1.5C128.8,708.4,131.9,708.1,134.5,707.5L134.5,707.5z"/>
</g>
</svg>
