<?xml version="1.0" encoding="utf-8"?>
<!-- Generator: Adobe Illustrator 19.0.0, SVG Export Plug-In . SVG Version: 6.00 Build 0)  -->
<svg version="1.1"
	 id="Icon" xmlns:rdf="http://www.w3.org/1999/02/22-rdf-syntax-ns#" xmlns:inkscape="http://www.inkscape.org/namespaces/inkscape" xmlns:sodipodi="http://sodipodi.sourceforge.net/DTD/sodipodi-0.dtd" xmlns:cc="http://creativecommons.org/ns#" xmlns:svg="http://www.w3.org/2000/svg" xmlns:dc="http://purl.org/dc/elements/1.1/" sodipodi:docname="google2.svg" inkscape:version="0.48.3.1 r9886"
	 xmlns="http://www.w3.org/2000/svg" xmlns:xlink="http://www.w3.org/1999/xlink" x="0px" y="0px" viewBox="-213 305.3 183.8 182.7"
	 style="enable-background:new -213 305.3 183.8 182.7;" xml:space="preserve">
<style type="text/css">
	.st0{fill:#3636DD;}
</style>
<path id="Background" d="M-178.5,305.3c-9,0-18,3.7-24.4,10.1l0,0c-6.4,6.4-10.1,15.3-10.1,24.4l0,0v113.8c0,9,3.7,18,10.1,24.4l0,0
	c6.4,6.4,15.3,10.1,24.4,10.1l0,0h114.9c9,0,18-3.7,24.4-10.1l0,0c6.4-6.4,10.1-15.3,10.1-24.4l0,0V339.8c0-9-3.7-18-10.1-24.4l0,0
	c-6.4-6.4-15.3-10.1-24.4-10.1l0,0H-178.5z"/>
<path id="Twitter" inkscape:connector-curvature="0" sodipodi:nodetypes="sssssssscsscsssscsscsscsssscsssscssssss" class="st0" d="
	M-130.5,462.3c18.6-4.4,31.4-11.4,44-24.3c17.4-17.6,27.7-40.6,29.9-66.2c0.7-8.5,0.7-8.5,7.7-16c6.2-6.7,8.6-9.9,7.6-9.9
	c-0.3,0-3.2,0.9-6.6,2c-4,1.3-6.4,1.7-6.9,1.2c-0.5-0.5,0.7-2.5,3.2-5.7c3.7-4.7,7.3-10.8,6.7-11.4c-0.1-0.1-1.8,0.6-3.8,1.5
	c-1.9,1-6.4,2.7-9.8,3.9l-6.3,2.1l-5.9-3.9c-6.7-4.4-9.6-5.6-15.4-6.3c-12-1.5-24.9,4.5-31.6,14.8c-4,6.1-5.5,11.6-5.5,20
	c0,5.1-0.2,7-0.9,7c-0.5,0-3.9-0.5-7.5-1.1c-20.4-3.4-36.2-11.5-52.1-26.7c-4.6-4.4-8.4-7.5-8.8-7.2c-1.2,1.2-3.6,12.3-3.6,16.5
	c0,8.3,2.8,15.6,8.3,22.3c3.1,3.6,4.1,5.9,2.8,5.9c-0.3,0-2.9-0.7-5.8-1.6c-2.9-0.9-5.5-1.4-5.8-1.1c-0.8,0.8,1.8,10.5,3.9,15
	c2.6,5.4,10.3,12.7,16.7,15.9l5,2.5l-6.4,0.2c-6.1,0.2-6.4,0.3-6.4,1.9c0,2.5,3.6,7.8,8.1,12c3.9,3.6,10.6,7.4,16.3,9.2
	c1.6,0.5,3.2,1.2,3.5,1.5c1,0.9-9.6,6.8-17,9.4c-7.2,2.5-16,4-23.8,4c-2.5,0-4.6,0.3-4.6,0.6c0,1.6,16.7,9,25.7,11.3
	c9.5,2.5,13.4,2.8,26.4,2.5C-140.2,463.9-134.9,463.4-130.5,462.3L-130.5,462.3z"/>
</svg>
